<?xml version="1.0" encoding="utf-8"?>
<!-- Generator: Adobe Illustrator 24.3.0, SVG Export Plug-In . SVG Version: 6.00 Build 0)  -->
<svg version="1.1" id="Layer_1" xmlns="http://www.w3.org/2000/svg" xmlns:xlink="http://www.w3.org/1999/xlink" x="0px" y="0px"
	 viewBox="0 0 396.7 955" style="enable-background:new 0 0 396.7 955;" xml:space="preserve">
<style type="text/css">
	.st0{fill:#5D5E53;}
	.st1{fill:#494940;}
	.st2{fill:#F7DEC7;}
	.st3{fill:#EDD1BC;}
	.st4{fill:#808276;}
	.st5{fill:#222222;}
	.st6{fill:#AD3A3A;}
	.st7{fill:#9B7E72;}
	.st8{fill:#99867C;}
	.st9{fill:#666665;}
	.st10{fill:#EEE5DE;}
</style>
<path class="st0" d="M87.3,495.3c0,0-5.3,19.5-13.9,21.6l4.3,15.9l16.7-2.1l-11.7,11.8l33.7-0.6c0,0-21.3,20-25.3,19.8l26.7-2.6
	l46.1-22l-33-92.3L87.3,495.3z"/>
<path class="st1" d="M91.1,563.2C91.1,563.2,91.1,563.2,91.1,563.2c-0.9,0-1.5-0.7-1.5-1.5c0-0.8,0.6-1.5,1.4-1.5l0.5,0
	c2.5-0.6,12.2-8.6,21.1-16.7L82.7,544c-0.6,0-1.2-0.3-1.4-0.9c-0.2-0.6-0.1-1.2,0.3-1.6l8.6-8.7l-12.4,1.6c-0.7,0.1-1.4-0.4-1.6-1.1
	L72,517.3c-0.1-0.4,0-0.8,0.2-1.2c0.2-0.3,0.5-0.6,0.9-0.7c6.3-1.5,11.4-15.3,12.8-20.5c0.1-0.2,0.2-0.4,0.3-0.6l43.6-50.5
	c0.3-0.4,0.9-0.6,1.4-0.5c0.5,0.1,1,0.5,1.1,1l33,92.3c0.3,0.7-0.1,1.5-0.8,1.9l-46.1,22c-0.2,0.1-0.3,0.1-0.5,0.1l-26.4,2.6
	C91.4,563.2,91.2,563.2,91.1,563.2z M116.4,540.4c0.6,0,1.2,0.4,1.4,0.9c0.2,0.6,0.1,1.2-0.4,1.7c-4.4,4.1-12.9,11.9-19.3,16.5
	l19.2-1.9l44.6-21.3l-31.7-88.6L88.7,496c-0.9,3-5.5,18.3-13.4,21.8l3.6,13.3l15.4-1.9c0.6-0.1,1.3,0.3,1.5,0.8
	c0.3,0.6,0.2,1.3-0.3,1.7l-9.1,9.2L116.4,540.4C116.4,540.4,116.4,540.4,116.4,540.4z"/>
<path class="st0" d="M320.8,484.7l10.9-5.3l-7.1-18.4l-33.8,20.4l-38.9,55.7l21.6,17.9l-3.3-18.9l5.5,5.8h11.8l3.9-16.5l20.7-7.6
	l-2.8-6.2l5.3-12.5l9.9,3.9C324.6,503,318,492.8,320.8,484.7z"/>
<path class="st1" d="M275.7,558.8l-25.8-21.4l39.9-57.1l35.6-21.5l8.2,21.4l-11.6,5.6c-1.2,4.2,0.1,9.9,3.6,16.2
	c0.2,0.4,0.6,1.1,0.2,1.8l-0.6,1.1l-9.7-3.8l-4.5,10.5l3.2,7.1l-21.5,7.9l-4,16.9h-13.6l-2.5-2.7L275.7,558.8z M253.9,536.8
	l17.4,14.4l-3.5-19.8l8.5,8.9h10l3.8-16.1l19.9-7.3l-2.4-5.3l6.1-14.5l7.6,3c-2.8-6-3.5-11.6-2-15.9l0.2-0.6l10.2-5l-6-15.4
	l-32,19.3L253.9,536.8z"/>
<path class="st2" d="M81.5,400.1c0,0-1.1,84.6,61.1,129.1c0,0,9.6,8.2,22.6,17.3c16.7,11.6,39,24.6,53.6,23.4
	c26.1-2.2,67.5-33.5,98-116.8l26.1-109.2l-12-75.9l-86.4-34L126,246.3L81.5,400.1z"/>
<path class="st3" d="M118.1,487.7c0,0,25.4,47.9,90.1,81.1c0,0-82.1-33.3-101.1-81.1L118.1,487.7L118.1,487.7z"/>
<path class="st3" d="M246.5,437.9c0,0,12.2,24.9,42.9,37.6c0,0,3.9,53.8-61.8,92.6c0,0,52.3-10.1,91.7-124.7l24.3-95.7l-23-85.4
	l-47.2-14.6l-24.1,21.8c0,0,40.1-2.8,58.4,51.7C316.7,347.7,318,364.2,246.5,437.9z"/>
<path class="st3" d="M241.4,266.6c-16.4-8.2-13.9-30.3-13.9-30.3L159,247.2l-21.6,66.1l-26.8,175.5c18.7-9.4,17.7-12.8,30.2-19.1
	c35.3,10.3,66.5-12.2,77.4-37.9c13.1-30.9-21.3-52.2-52.3-65.2l-0.8-14C155.9,249.5,241.4,266.6,241.4,266.6z"/>
<path class="st4" d="M249.4,269.6c0,0-64.7-43.7-92.9,33.6c0,0-4.6,8.6,0,39.5C162.6,383.3,204,483,47.3,511.6l14.3-14.3l-14.3,1.3
	l11.8-8l-14.7,0.8v-7.1l10.9-16l-13.9,2.9l18.1-41.6l-24.8,27.7c0,0,16-16.8,15.1-52.5s-13-182.8,72.3-208.4s113.9-4.6,113.9-4.6
	s24.4-9.7,52.5,5.9s79,50,70.6,191.6c0,0-11.2,49.2,0.9,75.6l-13.6-16l6.8,22.3L341,460.7l-4.2,13.9l-11.3-5.9l-11.8,18.9l-6.7-9.7
	c0,0,35.7-79.8,25.6-153.8C318.8,223.1,249.4,269.6,249.4,269.6z"/>
<circle class="st5" cx="161.4" cy="403.2" r="60.8"/>
<path class="st0" d="M285.7,257.4c0,0,58.7,0.4,57,73.5S307.8,476,307.8,476s28.7-74.7,26.2-140.2S294.3,255.4,285.7,257.4z"/>
<path class="st3" d="M207.1,514c0,0,5.8,13.1,19.3,13.8c13.4,0.7,20.2-12.8,20.2-12.8S234.1,521.3,207.1,514z"/>
<path class="st3" d="M213.7,471.1c0,0,5.2,9.8,18.6,9.9c13.4,0.2,18.4-14.2,18.4-14.2s-3.1-2.4-8.6,2.6c-2,1.8-6.2,0.4-10.7,0.2
	C227.4,469.4,217.2,468,213.7,471.1z"/>
<path class="st0" d="M206.5,257.2c-70.6,10.5-47.5,98.7-47.5,98.7c-32.3-102.3,47.1-99.8,47.1-99.8L206.5,257.2z"/>
<circle class="st6" cx="161.4" cy="403.2" r="32.2"/>
<g>
	<path class="st2" d="M161.4,433.5c-16.7,0-30.3-13.6-30.3-30.3c0-16.7,13.6-30.3,30.3-30.3s30.3,13.6,30.3,30.3
		S178.1,433.5,161.4,433.5z M161.4,373.8c-16.2,0-29.4,13.2-29.4,29.4c0,16.2,13.2,29.4,29.4,29.4s29.4-13.2,29.4-29.4
		C190.8,387,177.6,373.8,161.4,373.8z"/>
</g>
<g>
	<path class="st2" d="M162.6,389.3c7.7,0,13.9,6.2,13.9,13.9c0,7.7-6.2,13.9-13.9,13.9 M162.6,416.7c7.4,0,13.5-6.1,13.5-13.5
		s-6.1-13.5-13.5-13.5"/>
</g>
<circle class="st5" cx="161.4" cy="403.2" r="11.3"/>
<path class="st7" d="M210.2,459.5c-0.8,1.5-1.4,2.9-1.9,4.4s-0.7,3-0.5,4.5c0.2,1.4,1,2.7,2.2,3.6c1.1,1,2.6,1.7,4.1,2.3
	c-1.6-0.1-3.3-0.6-4.7-1.5c-0.7-0.4-1.3-1.1-1.9-1.8c-0.5-0.7-0.8-1.6-0.9-2.5c-0.3-1.7,0.1-3.5,0.8-5
	C208.1,462,209,460.7,210.2,459.5z"/>
<path class="st7" d="M253.8,456.2c1.6,1.2,3,2.8,4,4.6c1,1.8,1.6,4,1.2,6.1c-0.3,2.2-1.8,4-3.3,5.3c-1.6,1.3-3.5,2.2-5.4,2.8
	c1.8-1,3.3-2.2,4.7-3.5s2.5-2.9,2.7-4.7c0.3-1.8-0.1-3.7-0.9-5.5C256.1,459.4,255,457.7,253.8,456.2z"/>
<path class="st7" d="M217,470c2.3-1.1,4.7-1.7,7.1-2c2.5-0.3,5-0.4,7.7,0.3c0.3,0.1,0.7,0.2,1,0.4l0.9,0.4c0.3,0.1,0.5,0.2,0.8,0.3
	c0.3,0,0.5,0.1,0.8,0.2c1,0.2,2.1,0.1,3.2,0c2.1-0.3,4.4-1.2,6.4-2.4l-0.1,0.1c0.4-0.5,0.9-0.7,1.5-1c0.5-0.3,1.1-0.4,1.6-0.4
	c0.6-0.1,1.1,0.1,1.7,0.2c0.5,0.1,1,0.5,1.4,0.8c-1-0.4-2-0.4-2.9-0.2c-0.4,0.2-0.8,0.3-1.1,0.6c-0.3,0.3-0.7,0.7-0.9,0.9l0,0
	l-0.1,0.1c-2,1.7-4.3,2.9-6.8,3.6c-1.3,0.2-2.7,0.3-4,0.1c-0.7-0.1-1.4-0.3-2-0.6l-0.9-0.4c-0.3-0.1-0.5-0.2-0.8-0.3
	c-2.1-0.6-4.5-0.9-6.9-0.9C222,469.7,219.6,469.9,217,470z"/>
<g>
	<path class="st3" d="M128.3,214.2c0.3,0,0.6,0,0.9,0C129.2,214.2,128.9,214.2,128.3,214.2z"/>
	<path class="st3" d="M128.3,214.2c-13.5-0.2-23.5,4-31,10.7c3.4-5.2,7.1-9.3,11-11.2c0,0-16.8,4-25.2,32.6c-9.3,23.5-7,51.2-7,51.2
		c2.2-27.6,8.4-46,15.9-58.4c-3.5,8.8-6,21-5.5,38c0,0,5.1-33.7,15.6-50.8C113.5,215.4,125,214.3,128.3,214.2z"/>
</g>
<path class="st7" d="M196.4,503.4c5.4-0.3,10.9-0.4,16.3-0.5c5.4-0.1,10.8-0.2,16.2-0.6c2.6-0.2,5.5-0.4,8.3-0.1
	c2.8,0.2,5.5,0.7,8.2,1.3c2.7,0.5,5.3,1.2,7.9,1.5c2.6,0.4,5.3,0.3,7.7-1.1c-1,0.9-2.3,1.6-3.7,1.9c-1.4,0.3-2.8,0.5-4.2,0.4
	c-2.8,0-5.5-0.4-8.2-0.8c-2.7-0.3-5.3-0.7-8-0.8c-2.7-0.2-5.2,0-8,0.3c-5.5,0.3-10.9,0.3-16.3,0
	C207.2,504.6,201.8,504.2,196.4,503.4z"/>
<path class="st8" d="M260.1,499.1c0.5,0.5,0.9,1.1,1.2,1.7c0.3,0.6,0.5,1.3,0.7,2c0.1,0.7,0.2,1.4,0.1,2.1s-0.3,1.4-0.7,2
	c-0.2-1.4-0.4-2.6-0.6-3.9C260.5,501.8,260.2,500.5,260.1,499.1z"/>
<path class="st0" d="M297.7,237.6c0,0,44.5,15.9,51.3,40.6c0,0-3.8-34.5-41.2-67.9l10.2,16.4c0,0-7.8-13.9-28.6-16.4
	c-20.7-2.5-1.8,0-1.8,0s15.1,7.7,22,15.3c1,1.1,1.8,2.2,2.4,3.2c4.6,8.4-12.2-14.3-28.6-11.3l26.9,18L297.7,237.6z"/>
<path class="st4" d="M154.1,336.8c0,0,42.3,110-33.3,147.3l-21.8-26c0,0,26.2-11.3,31.1-71.6c0,0-1.7,38.7-25.1,50.5
	c0,0,27.9-23.8,17.4-100.3h31.7V336.8z"/>
<g>
	<path class="st1" d="M43.5,513.6l14.7-14.7l-15.7,1.4l12-8.1L43,492.9V484l9.4-13.7L39.3,473l15.9-36.7L36,457.7
		c-0.2,0.3-0.4,0.5-0.5,0.5l-1.9-1.7l0.2-0.2c1.8-2,15.4-18.8,14.6-51.4c-0.1-2.5-0.2-5.7-0.3-9.2c-1.8-48.2-6.7-176.3,73.5-200.4
		c79.5-23.9,109.9-7.7,114.4-4.8c4.1-1.4,26.8-8.3,53,6.2c16.3,9,34.9,21.9,49.5,49c18.1,33.7,25.4,82,21.7,143.7v0.2
		c-0.1,0.5-10.9,49.1,0.8,74.8l3.8,8.3l-15.5-18.3l6.3,20.6l-14-12.1l-4.1,13.5l-11.7-6l-12.2,19.5l-8.2-11.8l0.3-0.6
		c0.4-0.8,35.5-80.4,25.5-153.1c-4.5-32.9-15.3-53.4-32.1-61c-22.7-10.2-48.9,7-49.1,7.2l-0.7,0.5l-0.7-0.5
		c-0.3-0.2-27.6-18.3-53.7-9.8c-16.3,5.3-28.8,19.7-37.2,42.8l-0.1,0.2c0,0.1-4.3,8.9,0.1,38.7c0.7,4.5,1.8,9.8,3,15.4
		c5.6,26.7,14.2,66.9-8.2,100.4c-17.9,26.8-53.3,45.1-105,54.5L43.5,513.6z M64.9,495.7L51,509.6c48.9-9.5,82.3-27.2,99.4-52.7
		c21.8-32.5,13.8-70.6,7.9-98.4c-1.2-5.7-2.3-11-3-15.6c-4.4-29.6-0.4-39.1,0.1-40.2c8.7-23.8,21.8-38.7,38.8-44.3
		c25.3-8.2,50.6,6.7,55.2,9.7c4.5-2.8,28.8-16.9,50.9-7c17.7,8,29,29.1,33.6,62.9c9.5,69.9-22.1,146-25.4,153.8l5.2,7.5l11.4-18.3
		l11,5.7l4.3-14.3l10.4,8.9l-7.3-23.9l12.9,15.2c-7.9-26.8,0.8-66.7,1.5-69.6c7.7-130.2-33.3-170.1-69.9-190.3
		c-27.3-15.1-51.2-5.9-51.4-5.8l-0.6,0.3l-0.6-0.4c-0.3-0.2-29.3-20.3-112.8,4.8c-78.3,23.5-73.5,150.2-71.7,197.9
		c0.1,3.6,0.3,6.7,0.3,9.3c0.4,18.6-3.6,32.1-7.6,40.8L63.7,423l-20.2,46.5l14.6-3.1l-12.5,18.2v5.4l17.9-1L52,496.9L64.9,495.7z"/>
</g>
<path class="st7" d="M189.2,501.6c0.9,1.4,1.4,2.9,2,4.3l0.7,2.2c0.3,0.7,0.4,1.5,1,2c-0.4,0-0.8-0.3-1.1-0.6
	c-0.3-0.3-0.6-0.6-0.8-1c-0.4-0.7-0.8-1.4-1-2.2C189.5,504.8,189.1,503.2,189.2,501.6z"/>
<path class="st7" d="M203.4,512.8c4.1,0.9,8.2,1.7,12.2,2.4c4.1,0.6,8.2,1.1,12.3,1.3s8.2,0.1,12.2-0.5c2-0.3,4-0.7,6-1.3
	s3.9-1.4,5.8-2.3c-1.6,1.4-3.4,2.5-5.3,3.4c-1.9,0.9-4,1.6-6,2.1c-4.2,1-8.5,1.3-12.7,1.1s-8.4-0.9-12.5-1.9
	C211.2,516,207.2,514.7,203.4,512.8z"/>
<path class="st1" d="M192.9,241.8c-12.4,0.3-24.3,6.1-32.6,14.9c-4.2,4.4-7.6,9.5-10.3,15s-4.9,11.2-6.4,17.2
	c-0.2,0.7-0.4,1.5-0.6,2.2l-0.5,2.2c-0.3,1.5-0.7,3-1,4.5l-0.7,4.6l-0.4,2.3l-0.3,2.3c-0.4,3.1-0.7,6.1-0.9,9.2l-0.3,4.6
	c-0.1,1.5-0.1,3.1-0.1,4.6c-0.3,12.3,0.3,24.7,1.2,37.1c-1.9-12.3-3.2-24.7-3.2-37.1s1-25,4.3-37.2c1.5-6.1,3.8-12,6.7-17.6
	s6.5-10.8,11.1-15.3c2.2-2.2,4.7-4.2,7.3-6c2.6-1.7,5.4-3.2,8.3-4.4c2.9-1.1,6-2,9-2.6C186.7,241.8,189.8,241.6,192.9,241.8z"/>
<path class="st1" d="M111,226.7c-6,6.3-10.9,13.5-15.2,21.1c-4.3,7.6-7.7,15.5-10.6,23.7c-5.4,16.5-8.2,33.8-8.1,51.2
	c-0.3,17.4-1.3,34.8-3.4,52.1c-2.1,17.3-4.9,34.5-9.3,51.4c2-8.5,3.6-17,4.9-25.6c1.4-8.6,2.5-17.2,3.4-25.8
	c1.8-17.3,2.9-34.7,3.1-52c0-17.4,2.8-34.9,8.4-51.5c3-8.2,6.6-16.2,11-23.7C99.7,240,104.8,232.8,111,226.7z"/>
<path class="st1" d="M242.9,205.7c3.4-3,7.5-5.2,11.9-6.5c2.2-0.7,4.5-1,6.8-1.1s4.6,0.3,6.7,0.9c-2.3-0.2-4.5-0.2-6.7,0.1
	s-4.4,0.7-6.5,1.3s-4.2,1.4-6.2,2.3C246.9,203.6,244.9,204.6,242.9,205.7z"/>
<path class="st1" d="M249.1,217.5c3.3-1.5,6.9-2.5,10.5-3c1.8-0.2,3.7-0.3,5.5-0.2s3.8,0.6,5.2,1.8c-1.7-0.8-3.5-0.8-5.2-0.8
	c-1.8,0.1-3.6,0.2-5.3,0.5C256.3,216.2,252.7,216.9,249.1,217.5z"/>
<path class="st1" d="M249.1,238.5c4.3-2.2,8.8-3.8,13.5-5c2.3-0.6,4.7-1,7.1-1.2s4.9-0.2,7.2,0.6c-2.4-0.3-4.7,0-7,0.3
	c-2.3,0.4-4.6,0.9-6.9,1.5C258.3,235.8,253.7,237.2,249.1,238.5z"/>
<path class="st1" d="M289.4,235.5c7.2,1,14.3,3.2,21.1,6c6.8,2.9,13.2,6.6,19.1,11.1c5.8,4.6,11,10,15,16.2
	c4.1,6.1,6.9,13.1,8.4,20.3c-1.3-3.4-2.6-6.8-4.3-10c-0.8-1.6-1.8-3.2-2.6-4.7c-1-1.5-1.9-3-3-4.5c-2.1-2.9-4.4-5.6-7-8.2
	c-2.5-2.6-5.2-5-8-7.1c-5.6-4.5-11.8-8.2-18.3-11.3c-3.2-1.6-6.6-3-9.9-4.3C296.4,237.6,292.9,236.5,289.4,235.5z"/>
<g>
	<path class="st7" d="M216.6,570.9c-15,0-36.5-12.7-52.2-23.6c-12.9-9-22.6-17.2-22.7-17.3c-13.4-9.6-25-21.9-34.3-36.5l1.7-1.1
		c9.2,14.4,20.6,26.5,33.9,36c0.2,0.1,9.8,8.3,22.6,17.2c16.2,11.3,38.5,24.4,52.9,23.2c26-2.2,67-34,97.2-116.2l1.9,0.7
		c-30.5,83-72.3,115.2-98.9,117.5C218,570.9,217.3,570.9,216.6,570.9z"/>
</g>
<circle class="st5" cx="296.4" cy="403.2" r="60.8"/>
<circle class="st6" cx="296.4" cy="403.2" r="32.2"/>
<g>
	<path class="st2" d="M296.4,433.5c-16.7,0-30.3-13.6-30.3-30.3c0-16.7,13.6-30.3,30.3-30.3s30.3,13.6,30.3,30.3
		C326.7,419.9,313.2,433.5,296.4,433.5z M296.4,373.8c-16.2,0-29.4,13.2-29.4,29.4c0,16.2,13.2,29.4,29.4,29.4s29.4-13.2,29.4-29.4
		S312.6,373.8,296.4,373.8z"/>
</g>
<path class="st9" d="M295.1,348.1c-7,0.1-14,1.6-20.5,4.3c-6.5,2.7-12.4,6.7-17.3,11.7c-5,4.9-8.9,10.9-11.7,17.3
	c-2.7,6.5-4.2,13.5-4.3,20.5c-0.1-7,1.2-14.1,3.9-20.7s6.7-12.6,11.7-17.6c5-5,11-9,17.6-11.7C281,349.3,288.1,348,295.1,348.1z"/>
<path class="st9" d="M295.1,350.7c-6.7,0.1-13.4,1.5-19.5,4.1s-11.8,6.4-16.5,11.1s-8.5,10.4-11.1,16.5c-2.6,6.2-4,12.8-4.1,19.5
	c-0.1-6.7,1.1-13.5,3.7-19.7c2.5-6.3,6.4-12,11.1-16.8c4.8-4.8,10.5-8.6,16.8-11.1C281.8,351.8,288.5,350.5,295.1,350.7z"/>
<path class="st9" d="M295.1,353.2c-6.4,0.1-12.7,1.5-18.5,3.9c-5.8,2.5-11.2,6.1-15.7,10.6s-8.1,9.8-10.6,15.7
	c-2.5,5.8-3.8,12.2-3.9,18.5c-0.1-6.4,1.1-12.8,3.5-18.7c2.4-5.9,6-11.4,10.6-15.9s10-8.2,15.9-10.6
	C282.4,354.3,288.9,353.1,295.1,353.2z"/>
<path class="st9" d="M295.1,355.9c-6,0.1-12,1.4-17.5,3.7c-5.5,2.3-10.6,5.7-14.8,10c-4.2,4.2-7.6,9.3-10,14.8
	c-2.3,5.5-3.6,11.5-3.7,17.5c-0.1-6,1-12.1,3.3-17.7s5.7-10.8,10-15.1c4.3-4.3,9.4-7.7,15.1-10C283.1,356.9,289.1,355.8,295.1,355.9
	z"/>
<path class="st0" d="M103.4,330.6c-0.5,25.9-3.9,47.4-8.3,64.9c4.3-24.2,2.9-48.3,2.9-48.3c-1.3,64.5-26,93.5-26,93.5
	c5.1-3.2,9.1-7.8,12.5-13.5c-8,18.6-15.6,27.5-15.6,27.5C109.4,429.5,103.4,330.6,103.4,330.6z"/>
<path class="st9" d="M295.1,358.5c-5.7,0.1-11.3,1.3-16.5,3.5s-10,5.4-14,9.4s-7.2,8.8-9.4,14c-2.2,5.2-3.4,10.8-3.5,16.5
	c-0.1-5.7,0.9-11.4,3.1-16.7c2.1-5.3,5.4-10.2,9.4-14.2c4.1-4,8.9-7.3,14.2-9.4C283.8,359.4,289.5,358.4,295.1,358.5z"/>
<path class="st9" d="M295.1,361.3c-5.3,0.1-10.6,1.3-15.5,3.3c-4.9,2.1-9.3,5.1-13.1,8.8c-3.8,3.7-6.7,8.2-8.8,13.1
	c-2.1,4.9-3.2,10.1-3.3,15.5c-0.1-5.3,0.9-10.7,2.9-15.6c2-5,5-9.5,8.8-13.3s8.4-6.8,13.3-8.8C284.5,362.1,289.9,361.2,295.1,361.3z
	"/>
<path class="st9" d="M351.5,404.4c0.1,7-1.2,14.1-3.9,20.7c-2.7,6.6-6.7,12.6-11.7,17.6s-11,9-17.6,11.7s-13.6,4-20.7,3.9
	c7-0.1,14-1.6,20.5-4.3c6.5-2.7,12.4-6.7,17.3-11.7c5-4.9,8.9-10.9,11.7-17.3C349.9,418.4,351.4,411.4,351.5,404.4z"/>
<path class="st9" d="M349,404.4c0.1,6.7-1.1,13.5-3.7,19.7c-2.5,6.3-6.4,12-11.1,16.8c-4.8,4.8-10.5,8.6-16.8,11.1
	c-6.2,2.5-13,3.8-19.7,3.7c6.7-0.1,13.4-1.5,19.5-4.1c6.2-2.6,11.8-6.4,16.5-11.1s8.5-10.4,11.1-16.5
	C347.4,417.7,348.8,411.1,349,404.4z"/>
<path class="st9" d="M346.4,404.4c0.1,6.4-1.1,12.8-3.5,18.7c-2.4,5.9-6,11.4-10.6,15.9s-10,8.2-15.9,10.6s-12.4,3.6-18.7,3.5
	c6.4-0.1,12.7-1.5,18.5-3.9c5.8-2.5,11.2-6.1,15.7-10.6s8.1-9.8,10.6-15.7C344.9,417.1,346.2,410.7,346.4,404.4z"/>
<path class="st9" d="M343.6,404.4c0.1,6-1,12.1-3.3,17.7s-5.7,10.8-10,15.1c-4.3,4.3-9.4,7.7-15.1,10c-5.6,2.3-11.7,3.4-17.7,3.3
	c6-0.1,12-1.4,17.5-3.7c5.5-2.3,10.6-5.7,14.8-10c4.2-4.2,7.6-9.3,10-14.8C342.2,416.4,343.5,410.4,343.6,404.4z"/>
<path class="st9" d="M341,404.4c0.1,5.7-0.9,11.4-3.1,16.7c-2.1,5.3-5.4,10.2-9.4,14.2c-4.1,4-8.9,7.3-14.2,9.4
	c-5.3,2.2-11,3.2-16.7,3.1c5.7-0.1,11.3-1.3,16.5-3.5s10-5.4,14-9.4s7.2-8.8,9.4-14C339.8,415.7,341,410.1,341,404.4z"/>
<path class="st9" d="M338.2,404.4c0.1,5.3-0.9,10.7-2.9,15.6c-2,5-5,9.5-8.8,13.3s-8.4,6.8-13.3,8.8c-5,2-10.3,3-15.6,2.9
	c5.3-0.1,10.6-1.3,15.5-3.3c4.9-2.1,9.3-5.1,13.1-8.8c3.8-3.7,6.7-8.2,8.8-13.1C337,415,338.1,409.7,338.2,404.4z"/>
<path class="st9" d="M216.4,404.4c0.1,7-1.2,14.1-3.9,20.7s-6.7,12.6-11.7,17.6s-11,9-17.6,11.7s-13.6,4-20.7,3.9
	c7-0.1,14-1.6,20.5-4.3c6.5-2.7,12.4-6.7,17.3-11.7c5-4.9,8.9-10.9,11.7-17.3C214.8,418.4,216.3,411.4,216.4,404.4z"/>
<path class="st9" d="M213.9,404.4c0.1,6.7-1.1,13.5-3.7,19.7c-2.5,6.3-6.4,12-11.1,16.8c-4.8,4.8-10.5,8.6-16.8,11.1
	c-6.2,2.5-13,3.8-19.7,3.7c6.7-0.1,13.4-1.5,19.5-4.1c6.2-2.6,11.8-6.4,16.5-11.1s8.5-10.4,11.1-16.5
	C212.3,417.7,213.7,411.1,213.9,404.4z"/>
<path class="st9" d="M211.3,404.4c0.1,6.4-1.1,12.8-3.5,18.7c-2.4,5.9-6,11.4-10.6,15.9s-10,8.2-15.9,10.6s-12.4,3.6-18.7,3.5
	c6.4-0.1,12.7-1.5,18.5-3.9c5.8-2.5,11.2-6.1,15.7-10.6s8.1-9.8,10.6-15.7C209.8,417.1,211.2,410.7,211.3,404.4z"/>
<path class="st9" d="M208.6,404.4c0.1,6-1,12.1-3.3,17.7s-5.7,10.8-10,15.1c-4.3,4.3-9.4,7.7-15.1,10c-5.6,2.3-11.7,3.4-17.7,3.3
	c6-0.1,12-1.4,17.5-3.7c5.5-2.3,10.6-5.7,14.8-10c4.2-4.2,7.6-9.3,10-14.8C207.2,416.4,208.5,410.4,208.6,404.4z"/>
<path class="st9" d="M206,404.4c0.1,5.7-0.9,11.4-3.1,16.7c-2.1,5.3-5.4,10.2-9.4,14.2c-4.1,4-8.9,7.3-14.2,9.4
	c-5.3,2.2-11,3.2-16.7,3.1c5.7-0.1,11.3-1.3,16.5-3.5s10-5.4,14-9.4s7.2-8.8,9.4-14S205.9,410.1,206,404.4z"/>
<path class="st9" d="M203.2,404.4c0.1,5.3-0.9,10.7-2.9,15.6c-2,5-5,9.5-8.8,13.3s-8.4,6.8-13.3,8.8c-5,2-10.3,3-15.6,2.9
	c5.3-0.1,10.6-1.3,15.5-3.3c4.9-2.1,9.3-5.1,13.1-8.8c3.8-3.7,6.7-8.2,8.8-13.1C202,415,203.1,409.7,203.2,404.4z"/>
<circle class="st5" cx="296.4" cy="403.2" r="11.3"/>
<path class="st3" d="M226.9,487.8c0,0-1,8.8,3.8,9.7c4.8,0.8,1.7-12.8,1.7-12.8S226.6,482.3,226.9,487.8z"/>
<path class="st5" d="M217.2,402c0,0,8.7-13.2,25.6-1.8l-0.4,5.6c0,0-15.3-4.1-26.7,1.8L217.2,402z"/>
<ellipse class="st3" cx="218.6" cy="442.2" rx="2.3" ry="0.9"/>
<ellipse class="st3" cx="193.6" cy="458.2" rx="2.3" ry="0.9"/>
<ellipse class="st3" cx="242.8" cy="451.4" rx="2.3" ry="0.9"/>
<ellipse class="st3" cx="226.8" cy="431.3" rx="2.3" ry="0.9"/>
<ellipse class="st3" cx="217.2" cy="433.5" rx="2.3" ry="0.9"/>
<ellipse class="st3" cx="228.4" cy="421.5" rx="2.3" ry="0.9"/>
<ellipse class="st3" cx="235.7" cy="428.7" rx="2.3" ry="0.9"/>
<ellipse class="st3" cx="229.5" cy="407.9" rx="2.3" ry="0.9"/>
<path class="st0" d="M175.4,224.2c0,0-61.6,9.7-58,95C117.4,319.1,103.7,232.3,175.4,224.2z"/>
<path class="st0" d="M179,207.4c0.5,0,0.7,0,0.7,0c-60.9-6.7-74.4,39.6-74.4,39.6c9.8-18.7,25.5-28.7,39.9-33.9
	c-25.7,11.2-32.4,34.5-32.4,34.5c22.3-42.5,74.4-39.6,74.4-39.6C184.4,207.7,181.6,207.5,179,207.4z"/>
<path class="st0" d="M89.1,230.1c0,0-28.9,28.3-26.9,100.6s-2.5,73.8-2.5,73.8s10.8-45.2,9.2-79.6C67.3,290.3,70.9,259.1,89.1,230.1
	z"/>
<path class="st0" d="M148.3,350.7c0,0,19.6,121.4-65,139.6c0,0,51.5-4.8,63.9-50.4S148.3,350.7,148.3,350.7z"/>
<g>
	<path class="st0" d="M247.2,260.8c1,0.9,1.9,1.5,1.9,1.5S248.5,261.7,247.2,260.8z"/>
	<path class="st0" d="M307.8,240.4c0,0-12.9-17.1-71.2-10.4c-0.2-3.5,0.6-6.5,1.8-8.3c2.5-3.8-2.1-10.1-4.1-16s1.3-7.2,1.3-7.2V196
		l-23.2-7.6c0,0,4.7,2.4,8.9,4.3c-3.2-0.1-7.1,0.1-10.2,0.4c-13-2.7-34.9-4.3-66.8,2.7c0,0,55.6-2,81.7,8.6c1.8,1.6,2.3,2.4,0.7,1.2
		c-4.9-3.8-35.4,4.6-20.7,3.5c6.9-0.5,13.6,1.6,18.3,3.7c-12.5-1.8-38.7-4.3-61.7,2.9c0,0,34.6-2,55.7,1.8c-4.1,1.6-7.6,3.6-7.6,3.6
		c20.3,0.8,22.2,8.8,19.3,7.6c-2.9-1.3-13.6,5.2-13.6,5.2c15,1,10.3,7.8,10.3,7.8c-23-4.2-38.5,11-38.5,11
		c30.3-10.5,52.5,3.3,58.9,8.1c-1.2-1-2.6-2.4-3.3-3.6c-1.2-2.3,3.7-7.8-2.6-15.4c-0.3-0.3-0.5-0.7-0.8-1
		C251.4,235,278.4,224.2,307.8,240.4z"/>
</g>
<path class="st3" d="M154.8,239.6c0,0-25.2,6-29.4,56C125.4,295.6,138.5,247.3,154.8,239.6z"/>
<path class="st3" d="M169.5,253.3c0,0-25.2,6-29.4,56C140.1,309.3,153.2,260.9,169.5,253.3z"/>
<path class="st3" d="M118.8,225.9c0,0-20.5,4.9-23.9,45.6C94.8,271.4,105.4,232.1,118.8,225.9z"/>
<g>
	<path class="st3" d="M160.8,226.7c0.3,0,0.6,0,0.9,0C161.7,226.7,161.4,226.7,160.8,226.7z"/>
	<path class="st3" d="M160.8,226.7c-17.3-0.2-29,6.6-36.9,16.4c2.9-5.9,6.2-10.7,10-13.1c0,0-10.7,3.9-17.5,21
		c-6.3,8.1-12.6,21.7-14.5,44.5c0,0,4-14.9,10.4-29.5c-0.1,0.7-0.2,1.3-0.3,2c-5.2,19.8-3.6,39.3-3.6,39.3
		c0.6-7.1,1.5-13.5,2.6-19.4c0,0.4,0,0.7,0,1c0,0,0.5-3,1.4-7.7C124.4,229.9,155.1,226.8,160.8,226.7z"/>
</g>
<g>
	<path class="st3" d="M142.7,262.7c2.3-6.5,5.3-12.4,9-14.7c0,0-12.2,4.4-14.4,27.5c-6.7,21.2-4.9,43.6-4.9,43.6
		c6.3-76.5,45.8-80.5,52.3-80.7C163.1,238.2,150.3,248.9,142.7,262.7z"/>
	<path class="st3" d="M184.7,238.5c0.3,0,0.6,0,0.9,0C185.7,238.5,185.3,238.4,184.7,238.5z"/>
</g>
<path class="st1" d="M69,446.3c5.5-0.2,10.7-3.6,14.3-8.9c1.8-2.6,3.4-5.6,4.5-8.9c1.2-3.2,2.2-6.7,2.8-10.2
	c0.1-0.4,0.2-0.9,0.3-1.3l0.2-1.3c0.1-0.9,0.3-1.8,0.4-2.7l0.3-2.7L92,409l0.1-1.4c0.2-1.8,0.3-3.6,0.4-5.5l0.1-2.7
	c0-0.9,0-1.8,0.1-2.7c0.1-7.3-0.1-14.7-0.5-22c0.8,7.3,1.4,14.6,1.4,22s-0.4,14.8-1.9,22c-0.7,3.6-1.7,7.1-2.9,10.4
	c-1.3,3.3-2.9,6.4-4.9,9.1c-1,1.3-2.1,2.5-3.2,3.6c-1.2,1-2.4,1.9-3.7,2.6c-1.3,0.7-2.6,1.2-4,1.5C71.7,446.3,70.4,446.4,69,446.3z"
	/>
<path class="st1" d="M104.6,213.7c-6,4.5-10.9,9.6-15.2,15c-4.3,5.4-7.7,11.1-10.6,16.9c-5.4,11.7-8.2,24.1-8.1,36.4
	c-0.3,12.4-1.3,24.8-3.4,37.1c-2.1,12.3-4.9,24.6-9.3,36.6c2-6,3.6-12.1,4.9-18.3c1.4-6.1,2.5-12.3,3.4-18.4
	c1.8-12.3,2.9-24.7,3.1-37.1c0-12.4,2.8-24.9,8.4-36.7c3-5.8,6.6-11.5,11-16.9C93.3,223.1,98.4,218,104.6,213.7z"/>
<path class="st1" d="M306.9,262.7c6,3.8,10.9,8.1,15.2,12.7c4.3,4.5,7.7,9.3,10.6,14.3c5.4,9.9,8.2,20.3,8.1,30.8
	c0.3,10.5,1.3,20.9,3.4,31.3s4.9,20.7,9.3,30.9c-2-5.1-3.6-10.2-4.9-15.4c-1.4-5.2-2.5-10.3-3.4-15.5c-1.8-10.4-2.9-20.8-3.1-31.3
	c0-10.5-2.8-21-8.4-30.9c-3-4.9-6.6-9.7-11-14.3C318.2,270.7,313.1,266.4,306.9,262.7z"/>
<path class="st10" d="M354.8,403.5c-0.2-7.7-1.9-15.3-4.9-22.5c-3-7-7.5-13.6-13-18.9c-5.6-5.5-12.1-9.8-19.2-12.8
	s-14.9-4.7-22.9-4.8c7.8-0.2,15.7,1.2,23,4.2s14,7.3,19.7,12.8c5.6,5.5,10,12.2,13,19.4C353.5,388,355,395.8,354.8,403.5z"/>
<path class="st10" d="M219.3,403.5c-0.2-7.7-1.9-15.3-4.9-22.5c-3-7-7.5-13.6-13-18.9c-5.6-5.5-12.1-9.8-19.2-12.8
	c-7.1-3-14.9-4.7-22.9-4.8c7.8-0.2,15.7,1.2,23,4.2s14,7.3,19.7,12.8c5.6,5.5,10,12.2,13,19.4C218,388,219.5,395.8,219.3,403.5z"/>
<g>
	<path class="st2" d="M297.2,381.4l0.1-4h0.6l-0.1,4H297.2z"/>
	<path class="st2" d="M300,381.6l-1.2-4.2l0.7,0.1l0.7,2.6l1.5-2.3l0.7,0.1L300,381.6z"/>
	<path class="st2" d="M305.4,383l-0.6-0.2l-0.1-1l-1.6-0.5l-0.7,0.8l-0.6-0.2l3.1-3.2L305.4,383z M304.4,379.8l-1,1l1.2,0.4
		L304.4,379.8z"/>
	<path class="st2" d="M307.4,381.2l-1.2,2.2l-0.5-0.3l1.9-3.5l1.3,3.7l1.2-2.3l0.5,0.3l-1.9,3.5L307.4,381.2z"/>
	<path class="st2" d="M310.3,386.1l1.4-4.1l0.5,0.4l-0.9,2.6l2.5-1.2l-0.8,2.5l2.5-1.1l0.5,0.4l-4,1.8l0.8-2.4L310.3,386.1z"/>
	<path class="st2" d="M316.5,386.5l1.4,1.7l-0.5,0.4l-1-1.3l-0.8,0.6l1,1.2l-0.5,0.4l-1-1.2l-1,0.8l1,1.3l-0.5,0.4l-1.4-1.7
		L316.5,386.5z"/>
	<path class="st2" d="M315.1,391.3l3.5-2l0.3,0.5c0.1,0.2,0.2,0.4,0.3,0.6c0.1,0.2,0.1,0.3,0,0.5c-0.1,0.3-0.2,0.5-0.5,0.7
		c-0.2,0.1-0.3,0.1-0.5,0.1c-0.1,0-0.3,0-0.4-0.1c0.1,0.2,0.1,0.4,0,0.6s-0.2,0.4-0.5,0.6c-0.3,0.1-0.5,0.2-0.8,0.1
		s-0.7-0.3-0.9-0.8L315.1,391.3z M317.1,391.3l-0.2-0.3l-1,0.6l0.2,0.3c0.1,0.2,0.3,0.4,0.4,0.4c0.2,0.1,0.3,0,0.5-0.1
		c0.1-0.1,0.2-0.2,0.3-0.4C317.3,391.7,317.3,391.5,317.1,391.3z M318.5,390.3l-0.1-0.2l-1,0.6l0.1,0.2c0.1,0.2,0.2,0.3,0.4,0.4
		c0.1,0,0.3,0,0.5-0.1c0.1-0.1,0.2-0.2,0.3-0.3C318.6,390.6,318.6,390.5,318.5,390.3z"/>
	<path class="st2" d="M320.6,394.7l-0.5-0.3c0.1-0.1,0.1-0.2,0.2-0.3c0-0.1,0-0.3,0-0.5c-0.1-0.2-0.2-0.3-0.3-0.3
		c-0.1-0.1-0.2-0.1-0.4,0c-0.2,0.1-0.3,0.3-0.3,0.6v0.4c0,0.7-0.2,1.1-0.7,1.3c-0.4,0.1-0.7,0.2-1,0c-0.3-0.1-0.5-0.4-0.7-0.7
		c-0.1-0.4-0.1-0.7,0-1s0.3-0.5,0.6-0.6l0.4,0.5c-0.2,0.1-0.3,0.2-0.4,0.3c-0.1,0.2-0.1,0.4,0,0.6s0.2,0.3,0.4,0.4
		c0.2,0.1,0.3,0.1,0.5,0s0.3-0.2,0.3-0.3c0.1-0.1,0.1-0.3,0.1-0.5v-0.4c0-0.6,0.2-1,0.6-1.1c0.3-0.1,0.5-0.1,0.8,0s0.5,0.3,0.6,0.7
		c0.1,0.3,0.1,0.6,0.1,0.8C320.8,394.4,320.7,394.6,320.6,394.7z"/>
	<path class="st2" d="M322,397.6l-0.6,0.2l-0.2-0.9l-3.3,0.9l-0.2-0.6l3.3-0.9l-0.2-0.9l0.6-0.2L322,397.6z"/>
	<path class="st2" d="M319.7,398.9l2.6-0.3l0.1,0.6l-2.4,0.3c-0.3,0-0.5,0.1-0.7,0.2c-0.1,0.1-0.2,0.2-0.2,0.3
		c-0.1,0.1-0.1,0.3-0.1,0.5s0.1,0.3,0.2,0.4s0.2,0.2,0.3,0.3c0.2,0.1,0.4,0.1,0.7,0l2.4-0.3l0.1,0.6l-2.6,0.3
		c-0.4,0.1-0.8,0-1.1-0.2c-0.3-0.2-0.5-0.6-0.6-1s0.1-0.8,0.3-1.2C318.9,399.1,319.3,398.9,319.7,398.9z"/>
	<path class="st2" d="M318.6,402.8l4,0.2v0.8c0,0.3-0.1,0.6-0.1,0.8c-0.1,0.2-0.2,0.4-0.3,0.6c-0.2,0.2-0.4,0.4-0.7,0.5
		c-0.3,0.1-0.6,0.2-0.9,0.2c-0.7,0-1.2-0.3-1.6-0.9c-0.1-0.2-0.2-0.4-0.3-0.7c0-0.2-0.1-0.5,0-0.8L318.6,402.8z M322,403.8v-0.3
		l-2.8-0.1v0.3c0,0.5,0.1,0.8,0.2,1.1c0.3,0.4,0.6,0.6,1.1,0.6c0.3,0,0.5,0,0.7-0.1s0.4-0.2,0.5-0.4
		C321.9,404.6,322,404.3,322,403.8z"/>
	<path class="st2" d="M318.4,406.5l3.9,0.7l-0.1,0.6l-3.9-0.7L318.4,406.5z"/>
	<path class="st2" d="M320.1,408.4c0.6,0.2,1,0.5,1.2,1c0.3,0.5,0.3,1,0.1,1.6c-0.2,0.6-0.5,1-1,1.2c-0.5,0.3-1,0.3-1.6,0.1
		c-0.6-0.2-1-0.5-1.2-1c-0.3-0.5-0.3-1-0.1-1.6c0.2-0.6,0.5-1,1-1.2C319,408.2,319.6,408.2,320.1,408.4z M318.8,409
		c-0.4,0.2-0.6,0.5-0.7,0.9s-0.1,0.8,0.1,1.1c0.2,0.3,0.5,0.6,0.9,0.7s0.8,0.1,1.2-0.1c0.3-0.2,0.6-0.5,0.7-0.9s0.1-0.8-0.1-1.1
		c-0.2-0.3-0.5-0.6-0.9-0.7C319.5,408.8,319.1,408.8,318.8,409z"/>
</g>
<g>
	<path class="st2" d="M296.4,425l-0.1,4h-0.6l0.1-4H296.4z"/>
	<path class="st2" d="M293.6,424.8l1.2,4.2l-0.7-0.1l-0.7-2.6l-1.5,2.3l-0.7-0.1L293.6,424.8z"/>
	<path class="st2" d="M288.2,423.4l0.6,0.2l0.1,1l1.6,0.5l0.7-0.8l0.6,0.2l-3.1,3.2L288.2,423.4z M289.2,426.6l1-1l-1.2-0.4
		L289.2,426.6z"/>
	<path class="st2" d="M286.2,425.2l1.2-2.2l0.5,0.3l-1.9,3.5l-1.3-3.7l-1.2,2.3L283,425l1.9-3.5L286.2,425.2z"/>
	<path class="st2" d="M283.3,420.3l-1.4,4.1l-0.5-0.4l0.9-2.6l-2.5,1.2l0.8-2.5l-2.5,1.1l-0.5-0.4l4-1.8l-0.8,2.4L283.3,420.3z"/>
	<path class="st2" d="M277.1,419.9l-1.4-1.7l0.5-0.4l1,1.3l0.8-0.6l-1-1.2l0.5-0.4l1,1.2l1-0.8l-1-1.3l0.5-0.4l1.4,1.7L277.1,419.9z
		"/>
	<path class="st2" d="M278.5,415.1l-3.5,2l-0.3-0.5c-0.1-0.2-0.2-0.4-0.3-0.6c-0.1-0.2-0.1-0.3,0-0.5c0.1-0.3,0.2-0.5,0.5-0.7
		c0.2-0.1,0.3-0.1,0.5-0.1c0.1,0,0.3,0,0.4,0.1c-0.1-0.2-0.1-0.4,0-0.6s0.2-0.4,0.5-0.6c0.3-0.1,0.5-0.2,0.8-0.1s0.7,0.3,0.9,0.8
		L278.5,415.1z M275.1,416.1l0.1,0.2l1-0.6l-0.1-0.2c-0.1-0.2-0.2-0.3-0.4-0.4c-0.1,0-0.3,0-0.5,0.1c-0.1,0.1-0.2,0.2-0.3,0.3
		C275,415.8,275,415.9,275.1,416.1z M276.5,415.1l0.2,0.3l1-0.6l-0.2-0.3c-0.1-0.2-0.3-0.4-0.4-0.4c-0.2-0.1-0.3,0-0.5,0.1
		c-0.1,0.1-0.2,0.2-0.3,0.4C276.3,414.7,276.3,414.9,276.5,415.1z"/>
	<path class="st2" d="M273,411.7l0.5,0.3c-0.1,0.1-0.1,0.2-0.2,0.3c0,0.1,0,0.3,0,0.5c0.1,0.2,0.2,0.3,0.3,0.3
		c0.1,0.1,0.2,0.1,0.4,0c0.2-0.1,0.3-0.3,0.3-0.6v-0.4c0-0.7,0.2-1.1,0.7-1.3c0.4-0.1,0.7-0.2,1,0c0.3,0.1,0.5,0.4,0.7,0.7
		c0.1,0.4,0.1,0.7,0,1s-0.3,0.5-0.6,0.6l-0.4-0.5c0.2-0.1,0.3-0.2,0.4-0.3c0.1-0.2,0.1-0.4,0-0.6s-0.2-0.3-0.4-0.4
		c-0.2-0.1-0.3-0.1-0.5,0s-0.3,0.2-0.3,0.3c-0.1,0.1-0.1,0.3-0.1,0.5v0.4c0,0.6-0.2,1-0.6,1.1c-0.3,0.1-0.5,0.1-0.8,0
		s-0.5-0.3-0.6-0.7c-0.1-0.3-0.1-0.6-0.1-0.8C272.8,412,272.9,411.8,273,411.7z"/>
	<path class="st2" d="M271.6,408.8l0.6-0.2l0.2,0.9l3.3-0.9l0.2,0.6l-3.3,0.9l0.2,0.9l-0.6,0.2L271.6,408.8z"/>
	<path class="st2" d="M273.9,407.5l-2.6,0.3l-0.1-0.6l2.4-0.3c0.3,0,0.5-0.1,0.7-0.2c0.1-0.1,0.2-0.2,0.2-0.3
		c0.1-0.1,0.1-0.3,0.1-0.5s-0.1-0.3-0.2-0.4s-0.2-0.2-0.3-0.3c-0.2-0.1-0.4-0.1-0.7,0l-2.4,0.3l-0.1-0.6l2.6-0.3
		c0.4-0.1,0.8,0,1.1,0.2c0.3,0.2,0.5,0.6,0.6,1s-0.1,0.8-0.3,1.2C274.7,407.3,274.3,407.5,273.9,407.5z"/>
	<path class="st2" d="M275,403.6l-4-0.2v-0.8c0-0.3,0.1-0.6,0.1-0.8c0.1-0.2,0.2-0.4,0.3-0.6c0.2-0.2,0.4-0.4,0.7-0.5
		c0.3-0.1,0.6-0.2,0.9-0.2c0.7,0,1.2,0.3,1.6,0.9c0.1,0.2,0.2,0.4,0.3,0.7c0,0.2,0.1,0.5,0,0.8L275,403.6z M271.6,402.6v0.3l2.8,0.1
		v-0.3c0-0.5-0.1-0.8-0.2-1.1c-0.3-0.4-0.6-0.6-1.1-0.6c-0.3,0-0.5,0-0.7,0.1s-0.4,0.2-0.5,0.4C271.7,401.8,271.6,402.1,271.6,402.6
		z"/>
	<path class="st2" d="M275.2,399.9l-3.9-0.7l0.1-0.6l3.9,0.7L275.2,399.9z"/>
	<path class="st2" d="M273.5,398c-0.6-0.2-1-0.5-1.2-1c-0.3-0.5-0.3-1-0.1-1.6c0.2-0.6,0.5-1,1-1.2c0.5-0.3,1-0.3,1.6-0.1
		c0.6,0.2,1,0.5,1.2,1c0.3,0.5,0.3,1,0.1,1.6c-0.2,0.6-0.5,1-1,1.2C274.6,398.2,274,398.2,273.5,398z M274.8,397.4
		c0.4-0.2,0.6-0.5,0.7-0.9s0.1-0.8-0.1-1.1c-0.2-0.3-0.5-0.6-0.9-0.7s-0.8-0.1-1.2,0.1c-0.3,0.2-0.6,0.5-0.7,0.9s-0.1,0.8,0.1,1.1
		c0.2,0.3,0.5,0.6,0.9,0.7C274.1,397.6,274.5,397.6,274.8,397.4z"/>
</g>
<g>
	<path class="st2" d="M184,403.5l4,0.1v0.6l-4-0.1V403.5z"/>
	<path class="st2" d="M183.8,406.3l4.2-1.2l-0.1,0.7l-2.6,0.7l2.3,1.5l-0.1,0.7L183.8,406.3z"/>
	<path class="st2" d="M182.4,411.7l0.2-0.6l1-0.1l0.5-1.6l-0.8-0.7l0.2-0.6l3.2,3.1L182.4,411.7z M185.7,410.7l-1-1l-0.4,1.2
		L185.7,410.7z"/>
	<path class="st2" d="M184.2,413.7l-2.2-1.2l0.3-0.5l3.5,1.9l-3.7,1.3l2.3,1.2l-0.3,0.5l-3.5-1.9L184.2,413.7z"/>
	<path class="st2" d="M179.4,416.6l4.1,1.4l-0.4,0.5l-2.6-0.9l1.2,2.5l-2.5-0.8l1.1,2.5l-0.4,0.5l-1.8-4l2.4,0.8L179.4,416.6z"/>
	<path class="st2" d="M178.9,422.8l-1.7,1.4l-0.4-0.5l1.3-1l-0.6-0.8l-1.2,1l-0.4-0.5l1.2-1l-0.8-1l-1.3,1l-0.4-0.5l1.7-1.4
		L178.9,422.8z"/>
	<path class="st2" d="M174.2,421.4l2,3.5l-0.5,0.3c-0.2,0.1-0.4,0.2-0.6,0.3c-0.2,0.1-0.3,0.1-0.5,0c-0.3-0.1-0.5-0.2-0.7-0.5
		c-0.1-0.2-0.1-0.3-0.1-0.5c0-0.1,0-0.3,0.1-0.4c-0.2,0.1-0.4,0.1-0.6,0c-0.2-0.1-0.4-0.2-0.6-0.5c-0.1-0.3-0.2-0.5-0.1-0.8
		c0.1-0.3,0.3-0.7,0.8-0.9L174.2,421.4z M174.2,423.4l0.3-0.2l-0.6-1l-0.3,0.2c-0.2,0.1-0.4,0.3-0.4,0.4c-0.1,0.2,0,0.3,0.1,0.5
		c0.1,0.1,0.2,0.2,0.4,0.3C173.7,423.6,173.9,423.6,174.2,423.4z M175.2,424.8l0.2-0.1l-0.6-1l-0.2,0.1c-0.2,0.1-0.3,0.2-0.4,0.4
		c0,0.1,0,0.3,0.1,0.5c0.1,0.1,0.2,0.2,0.3,0.3C174.8,424.9,175,424.9,175.2,424.8z"/>
	<path class="st2" d="M170.8,426.9l0.3-0.5c0.1,0.1,0.2,0.1,0.3,0.2c0.1,0,0.3,0,0.5,0c0.2-0.1,0.3-0.2,0.3-0.3
		c0.1-0.1,0.1-0.2,0-0.4c-0.1-0.2-0.3-0.3-0.6-0.3h-0.4c-0.7,0-1.1-0.2-1.3-0.7c-0.1-0.4-0.2-0.7,0-1c0.1-0.3,0.4-0.5,0.7-0.7
		c0.4-0.1,0.7-0.1,1,0s0.5,0.3,0.6,0.6l-0.5,0.4c-0.1-0.2-0.2-0.3-0.3-0.4c-0.2-0.1-0.4-0.1-0.6,0c-0.2,0.1-0.3,0.2-0.4,0.4
		c-0.1,0.2-0.1,0.3,0,0.5s0.2,0.3,0.3,0.3c0.1,0.1,0.3,0.1,0.5,0.1h0.4c0.6,0,1,0.2,1.1,0.6c0.1,0.3,0.1,0.5,0,0.8s-0.3,0.5-0.7,0.6
		c-0.3,0.1-0.6,0.1-0.8,0.1C171,427.1,170.9,427,170.8,426.9z"/>
	<path class="st2" d="M167.8,428.3l-0.2-0.6l0.9-0.2l-0.9-3.3l0.6-0.2l0.9,3.3l0.9-0.2l0.2,0.6L167.8,428.3z"/>
	<path class="st2" d="M166.6,426l0.3,2.6l-0.6,0.1l-0.3-2.4c0-0.3-0.1-0.5-0.2-0.7c-0.1-0.1-0.2-0.2-0.3-0.2
		c-0.1-0.1-0.3-0.1-0.5-0.1s-0.3,0.1-0.4,0.2c-0.1,0.1-0.2,0.2-0.3,0.3c-0.1,0.2-0.1,0.4,0,0.7l0.3,2.4L164,429l-0.3-2.6
		c-0.1-0.4,0-0.8,0.2-1.1c0.2-0.3,0.6-0.5,1-0.6s0.8,0.1,1.2,0.3C166.4,425.2,166.5,425.6,166.6,426z"/>
</g>
<g>
	<path class="st2" d="M296.4,417.1c-7.7,0-13.9-6.2-13.9-13.9c0-7.7,6.2-13.9,13.9-13.9s13.9,6.2,13.9,13.9S304.1,417.1,296.4,417.1
		z M296.4,389.7c-7.4,0-13.5,6.1-13.5,13.5s6.1,13.5,13.5,13.5s13.5-6.1,13.5-13.5S303.8,389.7,296.4,389.7z"/>
</g>
<g>
	<path class="st2" d="M283.3,385.5c-0.9,0-1.5-0.7-1.5-1.5c0-0.9,0.7-1.6,1.5-1.6s1.5,0.7,1.5,1.6S284.2,385.5,283.3,385.5z
		 M283.3,382.9c-0.6,0-1,0.5-1,1.1s0.5,1,1,1s1-0.5,1-1S283.9,382.9,283.3,382.9z"/>
</g>
<g>
	<path class="st2" d="M176.8,388c-0.9,0-1.5-0.7-1.5-1.5c0-0.9,0.7-1.6,1.5-1.6s1.5,0.7,1.5,1.6S177.6,388,176.8,388z M176.8,385.4
		c-0.6,0-1,0.5-1,1.1s0.5,1,1,1s1-0.5,1-1S177.3,385.4,176.8,385.4z"/>
</g>
<g>
	<path class="st2" d="M309.5,423.4c-0.9,0-1.5-0.7-1.5-1.6s0.7-1.5,1.5-1.5s1.5,0.7,1.5,1.5C311,422.7,310.3,423.4,309.5,423.4z
		 M309.5,420.8c-0.6,0-1,0.5-1,1s0.5,1.1,1,1.1s1-0.5,1-1.1S310,420.8,309.5,420.8z"/>
</g>
</svg>
