<?xml version="1.0" encoding="utf-8"?>
<!-- Generator: Adobe Illustrator 24.3.0, SVG Export Plug-In . SVG Version: 6.00 Build 0)  -->
<svg version="1.1" id="Layer_1" xmlns="http://www.w3.org/2000/svg" xmlns:xlink="http://www.w3.org/1999/xlink" x="0px" y="0px"
	 viewBox="0 0 396.7 955" style="enable-background:new 0 0 396.7 955;" xml:space="preserve">
<style type="text/css">
	.st0{fill:#231F20;}
	.st1{fill:#AD3A3A;}
	.st2{font-family:'MyFontRegular';}
	.st3{font-size:26.2376px;}
	.st4{font-size:10.3612px;}
</style>
<g>
	<polygon class="st0" points="99.1,785.3 92,785.3 92,780.3 98.8,780.3 98.8,777.1 92,777.1 92,773.2 99.1,773.2 99.1,770.1 
		88.7,770.1 88.7,788.4 99.1,788.4 	"/>
	<polygon class="st0" points="116.5,770.1 112.9,770.1 108.1,780.6 103.4,770.1 99.8,770.1 108.2,788.8 	"/>
	<polygon class="st0" points="128.4,785.3 121.3,785.3 121.3,780.3 128.1,780.3 128.1,777.1 121.3,777.1 121.3,773.2 128.4,773.2 
		128.4,770.1 118,770.1 118,788.4 128.4,788.4 	"/>
	<path class="st0" d="M134.6,781.1L134.6,781.1l5.1,7.2l0.1,0.1h4l-5.6-7.7c1.1-0.3,1.9-0.9,2.6-1.7c0.7-0.9,1.1-2.1,1.1-3.4
		c0-2-0.7-3.4-2.2-4.4c-1.1-0.7-2.7-1.1-4.8-1.1h-3.4v18.3h3.3v-7.3L134.6,781.1L134.6,781.1z M138.4,776.9
		c-0.2,0.3-0.4,0.6-0.7,0.8s-0.6,0.3-1,0.4c-0.3,0.1-0.6,0.1-0.9,0.2c-0.2,0-0.4,0-0.7,0h-0.6v-5.1h0.7c2.3,0,3.4,0.8,3.4,2.5
		C138.7,776.1,138.6,776.5,138.4,776.9z"/>
	<polygon class="st0" points="149.2,788.4 152.5,788.4 152.5,780.5 158.1,770.9 158.1,773.2 162.1,773.2 162.1,788.4 165.4,788.4 
		165.4,773.2 169.5,773.2 169.5,770.1 158.5,770.1 158.1,770.1 154.8,770.1 150.9,776.9 146.9,770.1 143.2,770.1 149.2,780.5 	"/>
	<polygon class="st0" points="174.6,780.2 181.7,780.2 181.7,788.4 184.9,788.4 184.9,770.1 181.7,770.1 181.7,777.1 174.6,777.1 
		174.6,770.1 171.3,770.1 171.3,788.4 174.6,788.4 	"/>
	<rect x="188.6" y="770.1" class="st0" width="3.3" height="18.3"/>
	<polygon class="st0" points="198.9,777.5 211.8,788.7 211.8,770.1 208.5,770.1 208.5,781.2 195.6,769.8 195.6,788.4 198.9,788.4 	
		"/>
	<path class="st0" d="M223.6,788.8c2.5,0,4.6-0.8,6.2-2.3c1.8-1.8,2.7-4.2,2.7-7.4v-0.4h-7.9v3.1h4.4c-0.2,1-0.6,1.8-1.4,2.5
		c-1,1-2.3,1.5-3.8,1.5c-1.8,0-3.2-0.6-4.2-1.7c-1.2-1.3-1.8-2.8-1.8-4.6c0-1,0.2-1.9,0.5-2.7c0.3-0.9,0.8-1.6,1.3-2.1
		c1.2-1.2,2.7-1.8,4.5-1.8c1.2,0,2.2,0.2,3,0.7c0.7,0.4,1.4,1.1,2.1,1.9l0.2,0.2l2.6-1.8l-0.1-0.2c-0.7-1.1-1.7-2-3-2.8
		c-1.4-0.8-3-1.2-4.8-1.2c-1.4,0-2.7,0.2-3.8,0.7c-1.2,0.5-2.2,1.2-3,2s-1.4,1.8-1.9,3s-0.7,2.5-0.7,3.9c0,2.7,0.9,5,2.7,6.9
		C218.9,787.9,221,788.8,223.6,788.8z"/>
	<polygon class="st0" points="93.3,801.9 98.2,810.9 103.2,801.9 104.9,810.4 104.9,810.6 108.3,810.6 104.7,791.7 98.3,803.7 
		92.1,791.7 88.2,810.3 88.1,810.6 91.4,810.6 	"/>
	<path class="st0" d="M125.1,804v-11.7h-3.3v11c0,1.3-0.2,2.3-0.5,2.9c-0.3,0.5-0.7,0.8-1.2,1.2c-1.1,0.7-2.6,0.7-3.6,0
		c-0.6-0.3-1-0.7-1.2-1.2c-0.3-0.6-0.5-1.6-0.5-2.9v-11h-3.3V804c0,1.9,0.6,3.5,1.7,4.8c1.3,1.4,3.1,2.2,5.1,2.2
		c2.1,0,3.8-0.7,5.1-2.2C124.5,807.5,125.1,805.9,125.1,804z"/>
	<path class="st0" d="M132.3,801.7l1.7,0.7c0.7,0.3,1.3,0.7,1.8,1.1c0.4,0.4,0.6,1,0.6,1.7c0,0.8-0.2,1.5-0.7,2s-1.1,0.7-1.9,0.7
		c-0.9,0-1.6-0.3-2.1-1c-0.5-0.6-0.7-1.3-0.7-2.1v-0.3l-3.3,0.7v0.2c0.1,1.4,0.7,2.6,1.6,3.6c1.1,1.2,2.6,1.9,4.4,1.9
		c1.7,0,3.2-0.6,4.3-1.7c1.1-1.1,1.7-2.5,1.7-4.3c0-2.5-1.5-4.3-4.4-5.5l-1.8-0.7c-1.2-0.5-1.7-1.1-1.7-1.9c0-0.5,0.2-1,0.6-1.3
		c0.4-0.4,0.9-0.5,1.6-0.5c0.7,0,1.3,0.2,1.7,0.6c0.3,0.3,0.6,0.6,0.7,1l0.1,0.3l2.7-1.6l-0.1-0.2c-0.3-0.7-0.8-1.3-1.4-1.9
		c-1-0.8-2.3-1.3-3.7-1.3c-1.7,0-3,0.5-4,1.5s-1.5,2.2-1.5,3.5C128.5,799,129.8,800.6,132.3,801.7z"/>
	<polygon class="st0" points="148,810.6 148,795.4 152.1,795.4 152.1,792.3 140.7,792.3 140.7,795.4 144.8,795.4 144.8,810.6 	"/>
	<path class="st1" d="M98.3,819.7c0-1.5-0.5-2.8-1.5-3.7c-0.6-0.6-1.3-1-2.1-1.2c-0.8-0.2-1.8-0.3-3-0.3h-3v18.3h4.7
		c2.3,0,4-0.6,5.2-1.8c0.8-0.9,1.2-2,1.2-3.4s-0.4-2.6-1.3-3.5c-0.5-0.5-1.1-0.9-1.8-1.2c0.4-0.3,0.7-0.6,0.9-1
		C98.1,821.3,98.3,820.5,98.3,819.7z M94.5,821.5c-0.4,0.4-1.1,0.6-2,0.6H92v-4.5h0.7c0.9,0,1.6,0.2,2,0.6c0.4,0.3,0.6,0.8,0.6,1.5
		C95.2,820.5,94.9,821.1,94.5,821.5z M92,824.9h1.4c1.2,0,2.1,0.2,2.6,0.7c0.4,0.4,0.6,1,0.6,1.7c0,0.8-0.3,1.3-0.8,1.8
		c-0.5,0.4-1.4,0.6-2.5,0.6H92V824.9z"/>
	<polygon class="st1" points="113.1,817.6 113.1,814.5 102.7,814.5 102.7,832.8 113.1,832.8 113.1,829.7 106,829.7 106,824.6 
		112.9,824.6 112.9,821.5 106,821.5 106,817.6 	"/>
	<polygon class="st1" points="138.5,832.8 141.8,832.8 138.2,813.9 131.8,825.9 125.6,813.9 121.7,832.5 121.6,832.8 125,832.8 
		126.8,824 131.7,833.1 136.7,824.1 138.4,832.6 	"/>
	<path class="st1" d="M148.2,828.5h7.2l1.9,4.3h3.6l-8.8-18.7l-9.3,18.7h3.6L148.2,828.5z M151.9,820.7l2.2,4.7h-4.5L151.9,820.7z"
		/>
	<path class="st1" d="M162.4,814.5v18.3h4c1.5,0,2.7-0.1,3.6-0.4c1-0.3,2-0.7,3-1.4c2.4-1.7,3.7-4.2,3.7-7.4c0-1.5-0.3-2.9-0.9-4.2
		c-0.6-1.3-1.5-2.3-2.6-3.2c-1-0.7-2-1.2-3-1.4s-2.3-0.4-3.7-0.4h-4.1V814.5z M166.6,817.6c2,0,3.5,0.4,4.6,1.2
		c0.7,0.5,1.2,1.2,1.6,2c0.4,0.8,0.6,1.8,0.6,2.9c0,2-0.8,3.7-2.3,4.8c-1.1,0.8-2.6,1.2-4.5,1.2h-0.9v-12.1L166.6,817.6L166.6,817.6
		z"/>
	<polygon class="st1" points="189.9,817.6 189.9,814.5 179.5,814.5 179.5,832.8 189.9,832.8 189.9,829.7 182.8,829.7 182.8,824.6 
		189.7,824.6 189.7,821.5 182.8,821.5 182.8,817.6 	"/>
	<path class="st1" d="M196.9,832.8h3.6l1.9-4.3h7.2l1.9,4.3h3.6l-8.8-18.7L196.9,832.8z M206.1,820.7l2.2,4.7h-4.5L206.1,820.7z"/>
	<path class="st1" d="M215.5,827.4v0.2c0.1,1.4,0.7,2.6,1.6,3.6c1.1,1.2,2.6,1.9,4.4,1.9c1.7,0,3.2-0.6,4.3-1.7
		c1.1-1.1,1.7-2.5,1.7-4.3c0-2.5-1.5-4.3-4.4-5.5l-1.8-0.7c-1.2-0.5-1.7-1.1-1.7-1.9c0-0.5,0.2-1,0.6-1.3c0.4-0.4,0.9-0.5,1.6-0.5
		c0.7,0,1.3,0.2,1.7,0.6c0.3,0.3,0.6,0.6,0.7,1l0.1,0.3l2.7-1.6l-0.1-0.2c-0.3-0.7-0.8-1.3-1.4-1.9c-1-0.8-2.3-1.3-3.7-1.3
		c-1.7,0-3,0.5-4,1.5s-1.5,2.2-1.5,3.5c0,2.1,1.3,3.7,3.8,4.8l1.7,0.7c0.7,0.3,1.3,0.7,1.8,1.1c0.4,0.4,0.6,1,0.6,1.7
		c0,0.8-0.2,1.5-0.7,2s-1.1,0.7-1.9,0.7c-0.9,0-1.6-0.3-2.1-1c-0.5-0.6-0.7-1.3-0.7-2.1v-0.3L215.5,827.4z"/>
	<path class="st1" d="M245.7,831.5c1.1-1.1,1.7-2.5,1.7-4.3c0-2.5-1.5-4.3-4.4-5.5l-1.8-0.7c-1.2-0.5-1.7-1.1-1.7-1.9
		c0-0.5,0.2-1,0.6-1.3c0.4-0.4,0.9-0.5,1.6-0.5c0.7,0,1.3,0.2,1.7,0.6c0.3,0.3,0.6,0.6,0.7,1l0.1,0.3l2.7-1.6l-0.1-0.2
		c-0.3-0.7-0.8-1.3-1.4-1.9c-1-0.8-2.3-1.3-3.7-1.3c-1.7,0-3,0.5-4,1.5s-1.5,2.2-1.5,3.5c0,2.1,1.3,3.7,3.8,4.8l1.7,0.7
		c0.7,0.3,1.3,0.7,1.8,1.1c0.4,0.4,0.6,1,0.6,1.7c0,0.8-0.2,1.5-0.7,2s-1.1,0.7-1.9,0.7c-0.9,0-1.6-0.3-2.1-1
		c-0.5-0.6-0.7-1.3-0.7-2.1v-0.3l-3.3,0.7v0.2c0.1,1.4,0.7,2.6,1.6,3.6c1.1,1.2,2.6,1.9,4.4,1.9
		C243.1,833.1,244.5,832.6,245.7,831.5z"/>
	<rect x="250.2" y="814.5" class="st1" width="3.3" height="18.3"/>
	<polygon class="st1" points="273.2,813.9 266.8,825.9 260.6,813.9 256.7,832.5 256.6,832.8 259.9,832.8 261.8,824 266.7,833.1 
		271.7,824.1 273.4,832.6 273.4,832.8 276.8,832.8 	"/>
	<path class="st1" d="M288.1,815.5c-1-0.7-2.4-1-4-1h-4.2v18.3h3.3v-7.2h0.9c1.9,0,3.4-0.5,4.5-1.5c1.2-1,1.8-2.4,1.8-4.1
		c0-0.9-0.2-1.8-0.6-2.6C289.4,816.6,288.9,816,288.1,815.5z M283.2,817.5h0.9c0.7,0,1.3,0.1,1.7,0.2c0.4,0.2,0.7,0.4,1,0.6
		c0.2,0.3,0.4,0.6,0.4,0.8c0.1,0.2,0.1,0.5,0.1,0.8c0,0.8-0.3,1.4-0.8,1.8c-0.6,0.5-1.4,0.7-2.4,0.7h-0.9L283.2,817.5L283.2,817.5z"
		/>
	<polygon class="st1" points="295.9,814.5 292.7,814.5 292.7,832.8 301.2,832.8 301.2,829.7 295.9,829.7 	"/>
	<polygon class="st1" points="313.5,817.6 313.5,814.5 303.2,814.5 303.2,832.8 313.5,832.8 313.5,829.7 306.4,829.7 306.4,824.6 
		313.3,824.6 313.3,821.5 306.4,821.5 306.4,817.6 	"/>
	<path class="st1" d="M95.8,836.3L86.5,855h3.6l1.9-4.3h7.2l1.9,4.3h3.6L95.8,836.3z M95.7,842.9l2.2,4.7h-4.5L95.7,842.9z"/>
	<path class="st1" d="M112.7,843.9l-1.8-0.7c-1.2-0.5-1.7-1.1-1.7-1.9c0-0.5,0.2-1,0.6-1.3c0.4-0.4,0.9-0.5,1.6-0.5s1.3,0.2,1.7,0.6
		c0.3,0.3,0.6,0.6,0.7,1l0.1,0.3l2.7-1.6l-0.1-0.2c-0.3-0.7-0.8-1.3-1.4-1.9c-1-0.8-2.3-1.3-3.7-1.3c-1.7,0-3,0.5-4,1.5
		s-1.5,2.2-1.5,3.5c0,2.1,1.3,3.7,3.8,4.8l1.7,0.7c0.7,0.3,1.3,0.7,1.8,1.1c0.4,0.4,0.6,1,0.6,1.7c0,0.8-0.2,1.5-0.7,2
		s-1.1,0.7-1.9,0.7c-0.9,0-1.6-0.3-2.1-1c-0.5-0.6-0.7-1.3-0.7-2.1V849l-3.3,0.7v0.2c0.1,1.4,0.7,2.6,1.6,3.6
		c1.1,1.2,2.6,1.9,4.4,1.9c1.7,0,3.2-0.6,4.3-1.7c1.1-1.1,1.7-2.5,1.7-4.3C117.1,846.9,115.6,845.1,112.7,843.9z"/>
	<path class="st1" d="M134.4,837.7c-1-0.7-2.4-1-4-1h-4.2V855h3.3v-7.2h0.9c1.9,0,3.4-0.5,4.5-1.5c1.2-1,1.8-2.4,1.8-4.1
		c0-0.9-0.2-1.8-0.6-2.6C135.7,838.8,135.1,838.2,134.4,837.7z M129.4,839.7h0.9c0.7,0,1.3,0.1,1.7,0.2c0.4,0.2,0.7,0.4,1,0.6
		c0.2,0.3,0.4,0.6,0.4,0.8c0.1,0.2,0.1,0.5,0.1,0.8c0,0.8-0.3,1.4-0.8,1.8c-0.6,0.5-1.4,0.7-2.4,0.7h-0.9V839.7z"/>
	<path class="st1" d="M154.4,839.1c-1.8-1.8-4.1-2.7-6.8-2.7s-5,0.9-6.8,2.7s-2.7,4.1-2.7,6.8s0.9,5,2.7,6.8s4.1,2.7,6.8,2.7
		s5-0.9,6.8-2.7s2.7-4.1,2.7-6.8S156.2,840.9,154.4,839.1z M147.6,852.3c-1.8,0-3.3-0.6-4.5-1.8l0,0c-1.2-1.2-1.8-2.7-1.8-4.6
		c0-1.9,0.6-3.5,1.8-4.7s2.7-1.8,4.5-1.8s3.3,0.6,4.5,1.8s1.8,2.8,1.8,4.7s-0.6,3.4-1.8,4.6C150.9,851.7,149.4,852.3,147.6,852.3z"
		/>
	<path class="st1" d="M158.9,849.6v0.2c0.1,1.4,0.7,2.6,1.6,3.6c1.1,1.2,2.6,1.9,4.4,1.9c1.7,0,3.2-0.6,4.3-1.7
		c1.1-1.1,1.7-2.5,1.7-4.3c0-2.5-1.5-4.3-4.4-5.5l-1.8-0.7c-1.2-0.5-1.7-1.1-1.7-1.9c0-0.5,0.2-1,0.6-1.3c0.4-0.4,0.9-0.5,1.6-0.5
		c0.7,0,1.3,0.2,1.7,0.6c0.3,0.3,0.6,0.6,0.7,1l0.1,0.3l2.7-1.6l-0.1-0.2c-0.3-0.7-0.8-1.3-1.4-1.9c-1-0.8-2.3-1.3-3.7-1.3
		c-1.7,0-3,0.5-4,1.5s-1.5,2.2-1.5,3.5c0,2.1,1.3,3.7,3.8,4.8l1.7,0.7c0.7,0.3,1.3,0.7,1.8,1.1c0.4,0.4,0.6,1,0.6,1.7
		c0,0.8-0.2,1.5-0.7,2s-1.1,0.7-1.9,0.7c-0.9,0-1.6-0.3-2.1-1c-0.5-0.6-0.7-1.3-0.7-2.1v-0.3L158.9,849.6z"/>
	<path class="st1" d="M172.6,849.6v0.2c0.1,1.4,0.7,2.6,1.6,3.6c1.1,1.2,2.6,1.9,4.4,1.9c1.7,0,3.2-0.6,4.3-1.7
		c1.1-1.1,1.7-2.5,1.7-4.3c0-2.5-1.5-4.3-4.4-5.5l-1.8-0.7c-1.2-0.5-1.7-1.1-1.7-1.9c0-0.5,0.2-1,0.6-1.3c0.4-0.4,0.9-0.5,1.6-0.5
		c0.7,0,1.3,0.2,1.7,0.6c0.3,0.3,0.6,0.6,0.7,1l0.1,0.3l2.7-1.6l-0.1-0.2c-0.3-0.7-0.8-1.3-1.4-1.9c-1-0.8-2.3-1.3-3.7-1.3
		c-1.7,0-3,0.5-4,1.5s-1.5,2.2-1.5,3.5c0,2.1,1.3,3.7,3.8,4.8l1.7,0.7c0.7,0.3,1.3,0.7,1.8,1.1c0.4,0.4,0.6,1,0.6,1.7
		c0,0.8-0.2,1.5-0.7,2s-1.1,0.7-1.9,0.7c-0.9,0-1.6-0.3-2.1-1c-0.5-0.6-0.7-1.3-0.7-2.1v-0.3L172.6,849.6z"/>
	<rect x="187.4" y="836.7" class="st1" width="3.3" height="18.3"/>
	<path class="st1" d="M204.3,853.2c0.8-0.9,1.2-2,1.2-3.4s-0.4-2.6-1.3-3.5c-0.5-0.5-1.1-0.9-1.8-1.2c0.4-0.3,0.7-0.6,0.9-1
		c0.4-0.6,0.6-1.4,0.6-2.3c0-1.5-0.5-2.8-1.5-3.7c-0.6-0.6-1.3-1-2.1-1.2s-1.8-0.3-3-0.3h-3V855h4.7
		C201.4,855,203.2,854.4,204.3,853.2z M202.3,849.5c0,0.8-0.3,1.3-0.8,1.8c-0.5,0.4-1.4,0.6-2.5,0.6h-1.4v-4.8h1.4
		c1.2,0,2.1,0.2,2.6,0.7S202.3,848.8,202.3,849.5z M200.2,843.7c-0.4,0.4-1.1,0.6-2,0.6h-0.5v-4.5h0.7c0.9,0,1.6,0.2,2,0.6
		c0.4,0.3,0.6,0.8,0.6,1.5C200.9,842.7,200.6,843.3,200.2,843.7z"/>
	<polygon class="st1" points="216.9,851.9 211.7,851.9 211.7,836.7 208.4,836.7 208.4,855 216.9,855 	"/>
	<polygon class="st1" points="229.3,839.8 229.3,836.7 218.9,836.7 218.9,855 229.3,855 229.3,851.9 222.2,851.9 222.2,846.8 
		229.1,846.8 229.1,843.7 222.2,843.7 222.2,839.8 	"/>
	<path class="st0" d="M96.8,867.3c0.4-0.3,0.7-0.6,0.9-1c0.4-0.6,0.6-1.4,0.6-2.3c0-1.5-0.5-2.8-1.5-3.7c-0.6-0.6-1.3-1-2.1-1.2
		c-0.8-0.2-1.8-0.3-3-0.3h-3v18.3h4.7c2.3,0,4-0.6,5.2-1.8c0.8-0.9,1.2-2,1.2-3.4s-0.4-2.6-1.3-3.5
		C98.1,867.9,97.5,867.6,96.8,867.3z M94.5,865.9c-0.4,0.4-1.1,0.6-2,0.6H92V862h0.7c0.9,0,1.6,0.2,2,0.6c0.4,0.3,0.6,0.8,0.6,1.5
		C95.2,864.9,94.9,865.5,94.5,865.9z M92,869.3h1.4c1.2,0,2.1,0.2,2.6,0.7c0.4,0.4,0.6,1,0.6,1.7c0,0.8-0.3,1.3-0.8,1.8
		c-0.5,0.4-1.4,0.6-2.5,0.6H92V869.3z"/>
	<path class="st0" d="M113.2,869.9c0,1.3-0.2,2.3-0.5,2.9c-0.3,0.5-0.7,0.8-1.2,1.2c-1.1,0.7-2.6,0.7-3.6,0c-0.6-0.3-1-0.7-1.2-1.2
		c-0.3-0.6-0.5-1.6-0.5-2.9v-11h-3.3v11.7c0,1.9,0.6,3.5,1.7,4.8c1.3,1.4,3.1,2.2,5.1,2.2c2.1,0,3.8-0.7,5.1-2.2
		c1.1-1.3,1.7-2.9,1.7-4.8v-11.7h-3.3C113.2,858.9,113.2,869.9,113.2,869.9z"/>
	<polygon class="st0" points="118.3,862 122.3,862 122.3,877.2 125.6,877.2 125.6,862 129.7,862 129.7,858.9 118.3,858.9 	"/>
	<polygon class="st0" points="150.7,869.9 137.7,858.5 137.7,877.2 141,877.2 141,866.2 153.9,877.5 153.9,858.9 150.6,858.9 	"/>
	<path class="st0" d="M166.3,858.5c-2.7,0-5,0.9-6.8,2.7s-2.7,4.1-2.7,6.8s0.9,5,2.7,6.8s4.1,2.7,6.8,2.7s5-0.9,6.8-2.7
		s2.7-4.1,2.7-6.8s-0.9-5-2.7-6.8C171.3,859.5,169,858.5,166.3,858.5z M166.3,874.5c-1.8,0-3.3-0.6-4.5-1.8l0,0
		c-1.2-1.2-1.8-2.7-1.8-4.6c0-1.9,0.6-3.5,1.8-4.7s2.7-1.8,4.5-1.8s3.3,0.6,4.5,1.8s1.8,2.8,1.8,4.7s-0.6,3.4-1.8,4.6
		C169.6,873.9,168.1,874.5,166.3,874.5z"/>
	<polygon class="st0" points="176.8,862 180.9,862 180.9,877.2 184.1,877.2 184.1,862 188.2,862 188.2,858.9 176.8,858.9 	"/>
	<path class="st0" d="M202.8,866.1l-1.8-0.7c-1.2-0.5-1.7-1.1-1.7-1.9c0-0.5,0.2-1,0.6-1.3c0.4-0.4,0.9-0.5,1.6-0.5
		c0.7,0,1.3,0.2,1.7,0.6c0.3,0.3,0.6,0.6,0.7,1l0.1,0.3l2.7-1.6l-0.1-0.2c-0.3-0.7-0.8-1.3-1.4-1.9c-1-0.8-2.3-1.3-3.7-1.3
		c-1.7,0-3,0.5-4,1.5s-1.5,2.2-1.5,3.5c0,2.1,1.3,3.7,3.8,4.8l1.7,0.7c0.7,0.3,1.3,0.7,1.8,1.1c0.4,0.4,0.6,1,0.6,1.7
		c0,0.8-0.2,1.5-0.7,2s-1.1,0.7-1.9,0.7c-0.9,0-1.6-0.3-2.1-1c-0.5-0.6-0.7-1.3-0.7-2.1v-0.3l-3.3,0.7v0.2c0.1,1.4,0.7,2.6,1.6,3.6
		c1.1,1.2,2.6,1.9,4.4,1.9c1.7,0,3.2-0.6,4.3-1.7c1.1-1.1,1.7-2.5,1.7-4.3C207.1,869.1,205.7,867.3,202.8,866.1z"/>
	<rect x="210" y="858.9" class="st0" width="3.3" height="18.3"/>
	<polygon class="st0" points="226.5,870.3 220.3,858.3 216.4,876.9 216.4,877.2 219.7,877.2 221.5,868.4 226.5,877.5 231.5,868.5 
		233.2,877 233.2,877.2 236.5,877.2 233,858.3 	"/>
	<path class="st0" d="M247.9,859.9c-1-0.7-2.4-1-4-1h-4.2v18.3h3.3V870h0.9c1.9,0,3.4-0.5,4.5-1.5c1.2-1,1.8-2.4,1.8-4.1
		c0-0.9-0.2-1.8-0.6-2.6C249.2,861,248.6,860.4,247.9,859.9z M242.9,861.9h0.9c0.7,0,1.3,0.1,1.7,0.2c0.4,0.2,0.7,0.4,1,0.6
		c0.2,0.3,0.4,0.6,0.4,0.8c0.1,0.2,0.1,0.5,0.1,0.8c0,0.8-0.3,1.4-0.8,1.8c-0.6,0.5-1.4,0.7-2.4,0.7h-0.9V861.9z"/>
	<polygon class="st0" points="255.7,858.9 252.4,858.9 252.4,877.2 260.9,877.2 260.9,874.1 255.7,874.1 	"/>
	<polygon class="st0" points="262.9,877.2 273.3,877.2 273.3,874.1 266.2,874.1 266.2,869 273.1,869 273.1,865.9 266.2,865.9 
		266.2,862 273.3,862 273.3,858.9 262.9,858.9 	"/>
	<path class="st0" d="M285.6,867.8c0.7-0.9,1.1-2.1,1.1-3.4c0-2-0.7-3.4-2.2-4.4c-1.1-0.7-2.7-1.1-4.8-1.1h-3.4v18.3h3.3v-7.3h0.1
		l5,7.2l0.1,0.1h4l-5.6-7.7C284.1,869.2,285,868.6,285.6,867.8z M283.3,865.6c-0.2,0.3-0.4,0.6-0.7,0.8c-0.3,0.2-0.6,0.3-1,0.4
		c-0.3,0.1-0.6,0.1-0.9,0.2c-0.2,0-0.4,0-0.7,0h-0.6v-5.1h0.7c2.3,0,3.4,0.8,3.4,2.5C283.6,864.9,283.5,865.3,283.3,865.6z"/>
	<g>
		<g>
			<path class="st0" d="M96.4,898h-1.2l-0.8-1.7h-3.1l-0.8,1.7h-1.2l3.6-7.2L96.4,898z M93,893l-1.1,2.3H94L93,893z"/>
			<path class="st0" d="M97.1,898v-7.9h1.1v7.9H97.1z"/>
			<path class="st0" d="M99.5,890.2h1.1v3.9c0.3-0.4,0.8-0.6,1.3-0.6c0.6,0,1.1,0.2,1.6,0.6c0.4,0.4,0.6,1,0.6,1.7s-0.2,1.2-0.6,1.7
				s-0.9,0.7-1.6,0.7c-0.5,0-1-0.2-1.4-0.6v0.5h-1.1L99.5,890.2L99.5,890.2z M101.8,894.3c-0.4,0-0.7,0.1-0.9,0.4
				c-0.3,0.3-0.4,0.6-0.4,1.1s0.1,0.8,0.4,1.1s0.6,0.4,0.9,0.4c0.4,0,0.7-0.1,0.9-0.4c0.2-0.3,0.3-0.6,0.3-1s-0.1-0.7-0.3-1
				C102.5,894.5,102.2,894.3,101.8,894.3z"/>
			<path class="st0" d="M108.4,896.5l0.9,0.5c-0.2,0.4-0.5,0.6-0.8,0.8c-0.4,0.2-0.8,0.3-1.3,0.3c-0.6,0-1.1-0.2-1.5-0.6
				c-0.4-0.4-0.7-1-0.7-1.7c0-0.8,0.2-1.4,0.7-1.9c0.4-0.4,0.9-0.6,1.5-0.6s1.1,0.2,1.5,0.6c0.4,0.4,0.6,1.1,0.6,1.9v0.1H106
				c0,0.4,0.2,0.7,0.4,0.9c0.2,0.2,0.5,0.3,0.8,0.3s0.5-0.1,0.7-0.2C108.2,896.9,108.3,896.7,108.4,896.5z M106.2,895.2h2.1
				c0-0.3-0.2-0.5-0.3-0.6c-0.2-0.2-0.4-0.3-0.7-0.3c-0.3,0-0.6,0.1-0.7,0.3C106.3,894.7,106.2,894.9,106.2,895.2z"/>
			<path class="st0" d="M111.5,898h-1.1v-4.5h1.1v0.4c0.1-0.2,0.3-0.3,0.4-0.4c0.2-0.1,0.4-0.2,0.6-0.2c0.3,0,0.6,0.1,0.8,0.2
				l-0.4,1c-0.2-0.1-0.4-0.2-0.5-0.2c-0.3,0-0.5,0.1-0.7,0.2c-0.2,0.2-0.3,0.6-0.3,1L111.5,898L111.5,898z"/>
			<path class="st0" d="M115.9,893.5v1h-0.8v3.6H114v-3.6h-0.4v-1h0.4v-1.7h1.1v1.7H115.9z"/>
			<path class="st0" d="M119.3,890.9h4v1h-2.9v1.8h2.8v1h-2.8v2.3h2.9v1h-4V890.9z"/>
			<path class="st0" d="M125.1,892.3c-0.2,0-0.4-0.1-0.5-0.2c-0.1-0.1-0.2-0.3-0.2-0.5s0.1-0.4,0.2-0.5s0.3-0.2,0.5-0.2
				s0.4,0.1,0.5,0.2c0.1,0.1,0.2,0.3,0.2,0.5s-0.1,0.4-0.2,0.5C125.4,892.2,125.3,892.3,125.1,892.3z M124.5,898v-4.5h1.1v4.5H124.5
				z"/>
			<path class="st0" d="M128,898h-1.1v-4.5h1.1v0.4c0.3-0.4,0.7-0.5,1.2-0.5c0.6,0,1,0.2,1.3,0.6c0.2,0.3,0.3,0.7,0.3,1.3v2.8h-1.1
				v-2.5c0-0.3,0-0.5-0.1-0.7c0-0.2-0.1-0.3-0.2-0.4c-0.1-0.1-0.2-0.1-0.2-0.1c-0.1,0-0.2,0-0.3,0c-0.2,0-0.3,0-0.4,0
				c-0.1,0-0.2,0.1-0.3,0.2c-0.1,0.1-0.2,0.2-0.2,0.5c-0.1,0.2-0.1,0.5-0.1,0.9L128,898L128,898z"/>
			<path class="st0" d="M134.9,894.2l-0.8,0.5c-0.2-0.3-0.4-0.4-0.6-0.4c-0.1,0-0.2,0-0.3,0.1s-0.1,0.1-0.1,0.2
				c0,0.1,0.1,0.2,0.2,0.3h0.1c0,0,0.1,0,0.1,0.1h0.1h0.1l0.5,0.3c0.3,0.2,0.5,0.3,0.6,0.4c0.2,0.2,0.3,0.5,0.3,0.8
				c0,0.4-0.1,0.7-0.4,1c-0.3,0.3-0.7,0.5-1.3,0.5c-0.4,0-0.7-0.1-1-0.3s-0.5-0.5-0.6-0.8l0.9-0.4c0.1,0.2,0.2,0.4,0.2,0.4
				c0.1,0.1,0.3,0.2,0.5,0.2s0.3,0,0.4-0.2c0.1-0.1,0.2-0.2,0.2-0.4c0-0.1,0-0.3-0.1-0.3c-0.1-0.1-0.3-0.2-0.5-0.3l-0.4-0.2
				c-0.3-0.1-0.5-0.3-0.6-0.4c-0.2-0.2-0.3-0.5-0.3-0.8c0-0.4,0.1-0.7,0.4-1c0.3-0.3,0.6-0.4,1.1-0.4c0.3,0,0.6,0.1,0.8,0.2
				C134.6,893.8,134.8,894,134.9,894.2z"/>
			<path class="st0" d="M137.9,893.5v1h-0.8v3.6H136v-3.6h-0.4v-1h0.4v-1.7h1.1v1.7H137.9z"/>
			<path class="st0" d="M141.8,896.5l0.9,0.5c-0.2,0.4-0.5,0.6-0.8,0.8c-0.4,0.2-0.8,0.3-1.3,0.3c-0.6,0-1.1-0.2-1.5-0.6
				c-0.4-0.4-0.7-1-0.7-1.7c0-0.8,0.2-1.4,0.7-1.9c0.4-0.4,0.9-0.6,1.5-0.6s1.1,0.2,1.5,0.6c0.4,0.4,0.6,1.1,0.6,1.9v0.1h-3.3
				c0,0.4,0.2,0.7,0.4,0.9s0.5,0.3,0.8,0.3s0.5-0.1,0.7-0.2C141.6,896.9,141.7,896.7,141.8,896.5z M139.6,895.2h2.1
				c0-0.3-0.2-0.5-0.3-0.6c-0.2-0.2-0.4-0.3-0.7-0.3s-0.6,0.1-0.7,0.3C139.7,894.7,139.6,894.9,139.6,895.2z"/>
			<path class="st0" d="M144.4,892.3c-0.2,0-0.4-0.1-0.5-0.2c-0.1-0.1-0.2-0.3-0.2-0.5s0.1-0.4,0.2-0.5c0.1-0.1,0.3-0.2,0.5-0.2
				s0.4,0.1,0.5,0.2c0.1,0.1,0.2,0.3,0.2,0.5s-0.1,0.4-0.2,0.5C144.7,892.2,144.6,892.3,144.4,892.3z M143.9,898v-4.5h1.1v4.5H143.9
				z"/>
			<path class="st0" d="M147.3,898h-1.1v-4.5h1.1v0.4c0.3-0.4,0.7-0.5,1.2-0.5c0.6,0,1,0.2,1.3,0.6c0.2,0.3,0.3,0.7,0.3,1.3v2.8H149
				v-2.5c0-0.3,0-0.5-0.1-0.7c0-0.2-0.1-0.3-0.2-0.4c-0.1-0.1-0.2-0.1-0.2-0.1c-0.1,0-0.2,0-0.3,0c-0.2,0-0.3,0-0.4,0
				c-0.1,0-0.2,0.1-0.3,0.2c-0.1,0.1-0.2,0.2-0.2,0.5c-0.1,0.2-0.1,0.5-0.1,0.9v2H147.3z"/>
		</g>
	</g>
</g>
<text transform="matrix(1 0 0 1 86.5 616.7184)" class="st2 st3">The very essence</text>
<text transform="matrix(1 0 0 1 86.5 637.9184)" class="st2 st3">of instinct is that</text>
<text transform="matrix(1 0 0 1 86.5 659.1183)" class="st2 st3">it&apos;s followed</text>
<text transform="matrix(1 0 0 1 86.5 680.3184)" class="st2 st3">independently</text>
<text transform="matrix(1 0 0 1 86.5 701.6183)" class="st2 st3">of reason</text>
<text transform="matrix(1 0 0 1 89.3002 723.4096)" class="st2 st4">Vincent van Gogh</text>
</svg>
