<?xml version="1.0" encoding="utf-8"?>
<!-- Generator: Adobe Illustrator 24.3.0, SVG Export Plug-In . SVG Version: 6.00 Build 0)  -->
<svg version="1.1" id="Layer_1" xmlns="http://www.w3.org/2000/svg" xmlns:xlink="http://www.w3.org/1999/xlink" x="0px" y="0px"
	 viewBox="0 0 396.7 955" style="enable-background:new 0 0 396.7 955;" xml:space="preserve">
<style type="text/css">
	.st0{fill:#AD3A3A;}
	.st1{fill:#222222;}
</style>
<polygon class="st0" points="99.4,782.5 92.1,782.5 92.1,777.4 99.1,777.4 99.1,774.1 92.1,774.1 92.1,770.1 99.4,770.1 99.4,767 
	88.8,767 88.8,785.7 99.4,785.7 "/>
<polygon class="st0" points="117.2,767 113.5,767 108.6,777.7 103.8,767 100.1,767 108.7,786.1 "/>
<polygon class="st0" points="129.4,782.5 122.2,782.5 122.2,777.4 129.1,777.4 129.1,774.1 122.2,774.1 122.2,770.1 129.4,770.1 
	129.4,767 118.8,767 118.8,785.7 129.4,785.7 "/>
<path class="st0" d="M134.8,778.2L134.8,778.2l5.2,7.4l0.1,0.1h4.1l-5.7-7.9c1.1-0.3,1.9-0.9,2.7-1.7c0.7-0.9,1.1-2.2,1.1-3.5
	c0-2-0.7-3.5-2.3-4.5c-1.1-0.7-2.8-1.1-4.9-1.1h-3.5v18.7h3.4v-7.5L134.8,778.2L134.8,778.2z M138.6,773.9c-0.2,0.3-0.4,0.6-0.7,0.8
	c-0.3,0.2-0.6,0.3-1,0.4c-0.3,0.1-0.6,0.1-0.9,0.2c-0.2,0-0.4,0-0.7,0h-0.6v-5.2h0.7c2.4,0,3.5,0.8,3.5,2.6
	C139,773.1,138.9,773.5,138.6,773.9z"/>
<polygon class="st0" points="148.7,785.7 152.1,785.7 152.1,777.6 157.8,767.8 157.8,770.1 161.9,770.1 161.9,785.7 165.3,785.7 
	165.3,770.1 169.5,770.1 169.5,767 158.2,767 157.8,767 154.4,767 150.4,773.9 146.3,767 142.5,767 148.7,777.6 "/>
<polygon class="st0" points="174.7,777.3 182,777.3 182,785.7 185.3,785.7 185.3,767 182,767 182,774.1 174.7,774.1 174.7,767 
	171.3,767 171.3,785.7 174.7,785.7 "/>
<rect x="188" y="767" class="st0" width="3.4" height="18.7"/>
<polygon class="st0" points="197.6,774.5 210.8,786 210.8,767 207.4,767 207.4,778.3 194.2,766.7 194.2,785.7 197.6,785.7 "/>
<path class="st0" d="M221.8,786.1c2.6,0,4.7-0.8,6.4-2.4c1.8-1.8,2.8-4.3,2.8-7.6v-0.4h-8.1v3.2h4.5c-0.2,1-0.6,1.8-1.4,2.6
	c-1,1-2.4,1.5-3.9,1.5c-1.8,0-3.3-0.6-4.3-1.7c-1.2-1.3-1.8-2.9-1.8-4.7c0-1,0.2-1.9,0.5-2.8c0.3-0.9,0.8-1.6,1.3-2.2
	c1.2-1.2,2.8-1.8,4.6-1.8c1.2,0,2.3,0.2,3.1,0.7c0.7,0.4,1.4,1.1,2.2,1.9l0.2,0.2l2.7-1.8l-0.1-0.2c-0.7-1.1-1.7-2-3.1-2.9
	c-1.4-0.8-3.1-1.2-4.9-1.2c-1.4,0-2.8,0.2-3.9,0.7c-1.2,0.5-2.3,1.2-3.1,2s-1.4,1.8-1.9,3.1c-0.5,1.2-0.7,2.6-0.7,4
	c0,2.8,0.9,5.1,2.8,7.1C217,785.2,219.2,786.1,221.8,786.1z"/>
<polygon class="st0" points="93.5,799.5 98.5,808.8 103.6,799.5 105.4,808.2 105.4,808.5 108.8,808.5 105.1,789.1 98.6,801.4 
	92.2,789.1 88.2,808.1 88.1,808.5 91.5,808.5 "/>
<path class="st0" d="M124,801.7v-12h-3.4V801c0,1.3-0.2,2.4-0.5,3c-0.3,0.5-0.7,0.8-1.2,1.2c-1.1,0.7-2.7,0.7-3.7,0
	c-0.6-0.3-1-0.7-1.2-1.2c-0.3-0.6-0.5-1.6-0.5-3v-11.3h-3.4v12c0,1.9,0.6,3.6,1.7,4.9c1.3,1.4,3.2,2.3,5.2,2.3
	c2.2,0,3.9-0.7,5.2-2.3C123.4,805.3,124,803.6,124,801.7z"/>
<path class="st0" d="M130.3,799.3l1.7,0.7c0.7,0.3,1.3,0.7,1.8,1.1c0.4,0.4,0.6,1,0.6,1.7c0,0.8-0.2,1.5-0.7,2
	c-0.5,0.5-1.1,0.7-1.9,0.7c-0.9,0-1.6-0.3-2.2-1c-0.5-0.6-0.7-1.3-0.7-2.2v-0.3l-3.4,0.7v0.2c0.1,1.4,0.7,2.7,1.6,3.7
	c1.1,1.2,2.7,1.9,4.5,1.9c1.7,0,3.3-0.6,4.4-1.7s1.7-2.6,1.7-4.4c0-2.6-1.5-4.4-4.5-5.6l-1.8-0.7c-1.2-0.5-1.7-1.1-1.7-1.9
	c0-0.5,0.2-1,0.6-1.3c0.4-0.4,0.9-0.5,1.6-0.5c0.7,0,1.3,0.2,1.7,0.6c0.3,0.3,0.6,0.6,0.7,1l0.1,0.3l2.8-1.6l-0.1-0.2
	c-0.3-0.7-0.8-1.3-1.4-1.9c-1-0.8-2.4-1.3-3.8-1.3c-1.7,0-3.1,0.5-4.1,1.5c-1,1-1.5,2.3-1.5,3.6
	C126.5,796.6,127.8,798.2,130.3,799.3z"/>
<polygon class="st0" points="146.4,808.5 146.4,792.9 150.6,792.9 150.6,789.7 139,789.7 139,792.9 143.2,792.9 143.2,808.5 "/>
<path class="st1" d="M98.6,817.8c0-1.5-0.5-2.9-1.5-3.8c-0.6-0.6-1.3-1-2.2-1.2c-0.8-0.2-1.8-0.3-3.1-0.3h-3.1v18.7h4.8
	c2.4,0,4.1-0.6,5.3-1.8c0.8-0.9,1.2-2,1.2-3.5s-0.4-2.7-1.3-3.6c-0.5-0.5-1.1-0.9-1.8-1.2c0.4-0.3,0.7-0.6,0.9-1
	C98.4,819.4,98.6,818.6,98.6,817.8z M94.7,819.6c-0.4,0.4-1.1,0.6-2,0.6h-0.5v-4.6h0.7c0.9,0,1.6,0.2,2,0.6c0.4,0.3,0.6,0.8,0.6,1.5
	C95.4,818.6,95.1,819.2,94.7,819.6z M92.1,823.1h1.4c1.2,0,2.2,0.2,2.7,0.7c0.4,0.4,0.6,1,0.6,1.7c0,0.8-0.3,1.3-0.8,1.8
	c-0.5,0.4-1.4,0.6-2.6,0.6h-1.3V823.1z"/>
<polygon class="st1" points="112.7,815.6 112.7,812.4 102.1,812.4 102.1,831.2 112.7,831.2 112.7,828 105.5,828 105.5,822.8 
	112.5,822.8 112.5,819.6 105.5,819.6 105.5,815.6 "/>
<polygon class="st1" points="138.7,831.2 142.1,831.2 138.4,811.8 131.9,824.1 125.5,811.8 121.5,830.9 121.4,831.2 124.9,831.2 
	126.8,822.2 131.8,831.5 136.9,822.3 138.6,831 "/>
<path class="st1" d="M148.7,826.8h7.4l1.9,4.4h3.7l-9-19.2l-9.5,19.2h3.7L148.7,826.8z M152.5,818.8l2.3,4.8h-4.6L152.5,818.8z"/>
<path class="st1" d="M163.2,812.4v18.7h4.1c1.5,0,2.8-0.1,3.7-0.4c1-0.3,2-0.7,3.1-1.4c2.5-1.7,3.8-4.3,3.8-7.6c0-1.5-0.3-3-0.9-4.3
	c-0.6-1.3-1.5-2.4-2.7-3.3c-1-0.7-2-1.2-3.1-1.4c-1-0.2-2.4-0.4-3.8-0.4h-4.2V812.4z M167.5,815.6c2,0,3.6,0.4,4.7,1.2
	c0.7,0.5,1.2,1.2,1.6,2c0.4,0.8,0.6,1.8,0.6,3c0,2-0.8,3.8-2.4,4.9c-1.1,0.8-2.7,1.2-4.6,1.2h-0.9v-12.4L167.5,815.6L167.5,815.6z"
	/>
<polygon class="st1" points="190.4,815.6 190.4,812.4 179.7,812.4 179.7,831.2 190.4,831.2 190.4,828 183.1,828 183.1,822.8 
	190.2,822.8 190.2,819.6 183.1,819.6 183.1,815.6 "/>
<path class="st1" d="M197.6,831.2h3.7l1.9-4.4h7.4l1.9,4.4h3.7l-9-19.2L197.6,831.2z M207,818.8l2.3,4.8h-4.6L207,818.8z"/>
<path class="st1" d="M215.6,825.7v0.2c0.1,1.4,0.7,2.7,1.6,3.7c1.1,1.2,2.7,1.9,4.5,1.9c1.7,0,3.3-0.6,4.4-1.7
	c1.1-1.1,1.7-2.6,1.7-4.4c0-2.6-1.5-4.4-4.5-5.6l-1.8-0.7c-1.2-0.5-1.7-1.1-1.7-1.9c0-0.5,0.2-1,0.6-1.3c0.4-0.4,0.9-0.5,1.6-0.5
	s1.3,0.2,1.7,0.6c0.3,0.3,0.6,0.6,0.7,1l0.1,0.3l2.8-1.6l-0.1-0.2c-0.3-0.7-0.8-1.3-1.4-1.9c-1-0.8-2.4-1.3-3.8-1.3
	c-1.7,0-3.1,0.5-4.1,1.5c-1,1-1.5,2.3-1.5,3.6c0,2.2,1.3,3.8,3.9,4.9l1.7,0.7c0.7,0.3,1.3,0.7,1.8,1.1c0.4,0.4,0.6,1,0.6,1.7
	c0,0.8-0.2,1.5-0.7,2c-0.5,0.5-1.1,0.7-1.9,0.7c-0.9,0-1.6-0.3-2.2-1c-0.5-0.6-0.7-1.3-0.7-2.2v-0.3L215.6,825.7z"/>
<path class="st1" d="M246.5,829.9c1.1-1.1,1.7-2.6,1.7-4.4c0-2.6-1.5-4.4-4.5-5.6l-1.8-0.7c-1.2-0.5-1.7-1.1-1.7-1.9
	c0-0.5,0.2-1,0.6-1.3c0.4-0.4,0.9-0.5,1.6-0.5c0.7,0,1.3,0.2,1.7,0.6c0.3,0.3,0.6,0.6,0.7,1l0.1,0.3l2.8-1.6l-0.1-0.2
	c-0.3-0.7-0.8-1.3-1.4-1.9c-1-0.8-2.4-1.3-3.8-1.3c-1.7,0-3.1,0.5-4.1,1.5c-1,1-1.5,2.3-1.5,3.6c0,2.2,1.3,3.8,3.9,4.9l1.7,0.7
	c0.7,0.3,1.3,0.7,1.8,1.1c0.4,0.4,0.6,1,0.6,1.7c0,0.8-0.2,1.5-0.7,2c-0.5,0.5-1.1,0.7-1.9,0.7c-0.9,0-1.6-0.3-2.2-1
	c-0.5-0.6-0.7-1.3-0.7-2.2v-0.3l-3.4,0.7v0.2c0.1,1.4,0.7,2.7,1.6,3.7c1.1,1.2,2.7,1.9,4.5,1.9C243.9,831.5,245.3,831,246.5,829.9z"
	/>
<rect x="250.1" y="812.4" class="st1" width="3.4" height="18.7"/>
<polygon class="st1" points="272.7,811.8 266.1,824.1 259.7,811.8 255.7,830.9 255.6,831.2 259,831.2 261,822.2 266,831.5 
	271.1,822.3 272.9,831 272.9,831.2 276.3,831.2 "/>
<path class="st1" d="M286.9,813.5c-1-0.7-2.5-1-4.1-1h-4.3v18.7h3.4v-7.4h0.9c1.9,0,3.5-0.5,4.6-1.5c1.2-1,1.8-2.5,1.8-4.2
	c0-0.9-0.2-1.8-0.6-2.7C288.2,814.6,287.7,814,286.9,813.5z M281.9,815.5h0.9c0.7,0,1.3,0.1,1.7,0.2c0.4,0.2,0.7,0.4,1,0.6
	c0.2,0.3,0.4,0.6,0.4,0.8c0.1,0.2,0.1,0.5,0.1,0.8c0,0.8-0.3,1.4-0.8,1.8c-0.6,0.5-1.4,0.7-2.5,0.7h-0.9L281.9,815.5L281.9,815.5z"
	/>
<polygon class="st1" points="293.9,812.4 290.6,812.4 290.6,831.2 299.3,831.2 299.3,828 293.9,828 "/>
<polygon class="st1" points="311.9,815.6 311.9,812.4 301.3,812.4 301.3,831.2 311.9,831.2 311.9,828 304.6,828 304.6,822.8 
	311.7,822.8 311.7,819.6 304.6,819.6 304.6,815.6 "/>
<path class="st1" d="M96,834.8l-9.5,19.2h3.7l1.9-4.4h7.4l1.9,4.4h3.7L96,834.8z M95.9,841.5l2.3,4.8h-4.6L95.9,841.5z"/>
<path class="st1" d="M113.3,842.6l-1.8-0.7c-1.2-0.5-1.7-1.1-1.7-1.9c0-0.5,0.2-1,0.6-1.3c0.4-0.4,0.9-0.5,1.6-0.5s1.3,0.2,1.7,0.6
	c0.3,0.3,0.6,0.6,0.7,1l0.1,0.3l2.8-1.6l-0.1-0.2c-0.3-0.7-0.8-1.3-1.4-1.9c-1-0.8-2.4-1.3-3.8-1.3c-1.7,0-3.1,0.5-4.1,1.5
	c-1,1-1.5,2.3-1.5,3.6c0,2.2,1.3,3.8,3.9,4.9l1.7,0.7c0.7,0.3,1.3,0.7,1.8,1.1c0.4,0.4,0.6,1,0.6,1.7c0,0.8-0.2,1.5-0.7,2
	c-0.5,0.5-1.1,0.7-1.9,0.7c-0.9,0-1.6-0.3-2.2-1c-0.5-0.6-0.7-1.3-0.7-2.2v-0.3l-3.4,0.7v0.2c0.1,1.4,0.7,2.7,1.6,3.7
	c1.1,1.2,2.7,1.9,4.5,1.9c1.7,0,3.3-0.6,4.4-1.7s1.7-2.6,1.7-4.4C117.8,845.6,116.3,843.8,113.3,842.6z"/>
<path class="st1" d="M135.6,836.2c-1-0.7-2.5-1-4.1-1h-4.3v18.7h3.4v-7.4h0.9c1.9,0,3.5-0.5,4.6-1.5c1.2-1,1.8-2.5,1.8-4.2
	c0-0.9-0.2-1.8-0.6-2.7C136.9,837.3,136.3,836.7,135.6,836.2z M130.5,838.3h0.9c0.7,0,1.3,0.1,1.7,0.2c0.4,0.2,0.7,0.4,1,0.6
	c0.2,0.3,0.4,0.6,0.4,0.8c0.1,0.2,0.1,0.5,0.1,0.8c0,0.8-0.3,1.4-0.8,1.8c-0.6,0.5-1.4,0.7-2.5,0.7h-0.9V838.3z"/>
<path class="st1" d="M156.1,837.7c-1.8-1.8-4.2-2.8-7-2.8s-5.1,0.9-7,2.8c-1.8,1.8-2.8,4.2-2.8,7c0,2.8,0.9,5.1,2.8,7
	c1.8,1.8,4.2,2.8,7,2.8s5.1-0.9,7-2.8c1.8-1.8,2.8-4.2,2.8-7C158.8,841.9,157.9,839.5,156.1,837.7z M149.1,851.2
	c-1.8,0-3.4-0.6-4.6-1.8l0,0c-1.2-1.2-1.8-2.8-1.8-4.7c0-1.9,0.6-3.6,1.8-4.8c1.2-1.2,2.8-1.8,4.6-1.8c1.8,0,3.4,0.6,4.6,1.8
	c1.2,1.2,1.8,2.9,1.8,4.8c0,1.9-0.6,3.5-1.8,4.7C152.5,850.6,150.9,851.2,149.1,851.2z"/>
<path class="st1" d="M159.6,848.4v0.2c0.1,1.4,0.7,2.7,1.6,3.7c1.1,1.2,2.7,1.9,4.5,1.9c1.7,0,3.3-0.6,4.4-1.7s1.7-2.6,1.7-4.4
	c0-2.6-1.5-4.4-4.5-5.6l-1.8-0.7c-1.2-0.5-1.7-1.1-1.7-1.9c0-0.5,0.2-1,0.6-1.3c0.4-0.4,0.9-0.5,1.6-0.5c0.7,0,1.3,0.2,1.7,0.6
	c0.3,0.3,0.6,0.6,0.7,1l0.1,0.3l2.8-1.6l-0.1-0.2c-0.3-0.7-0.8-1.3-1.4-1.9c-1-0.8-2.4-1.3-3.8-1.3c-1.7,0-3.1,0.5-4.1,1.5
	c-1,1-1.5,2.3-1.5,3.6c0,2.2,1.3,3.8,3.9,4.9l1.7,0.7c0.7,0.3,1.3,0.7,1.8,1.1c0.4,0.4,0.6,1,0.6,1.7c0,0.8-0.2,1.5-0.7,2
	s-1.1,0.7-1.9,0.7c-0.9,0-1.6-0.3-2.2-1c-0.5-0.6-0.7-1.3-0.7-2.2v-0.3L159.6,848.4z"/>
<path class="st1" d="M173.7,848.4v0.2c0.1,1.4,0.7,2.7,1.6,3.7c1.1,1.2,2.7,1.9,4.5,1.9c1.7,0,3.3-0.6,4.4-1.7s1.7-2.6,1.7-4.4
	c0-2.6-1.5-4.4-4.5-5.6l-1.8-0.7c-1.2-0.5-1.7-1.1-1.7-1.9c0-0.5,0.2-1,0.6-1.3c0.4-0.4,0.9-0.5,1.6-0.5c0.7,0,1.3,0.2,1.7,0.6
	c0.3,0.3,0.6,0.6,0.7,1l0.1,0.3l2.8-1.6l-0.1-0.2c-0.3-0.7-0.8-1.3-1.4-1.9c-1-0.8-2.4-1.3-3.8-1.3c-1.7,0-3.1,0.5-4.1,1.5
	c-1,1-1.5,2.3-1.5,3.6c0,2.2,1.3,3.8,3.9,4.9l1.7,0.7c0.7,0.3,1.3,0.7,1.8,1.1c0.4,0.4,0.6,1,0.6,1.7c0,0.8-0.2,1.5-0.7,2
	c-0.5,0.5-1.1,0.7-1.9,0.7c-0.9,0-1.6-0.3-2.2-1c-0.5-0.6-0.7-1.3-0.7-2.2v-0.3L173.7,848.4z"/>
<rect x="188.8" y="835.2" class="st1" width="3.4" height="18.7"/>
<path class="st1" d="M206.2,852.1c0.8-0.9,1.2-2,1.2-3.5s-0.4-2.7-1.3-3.6c-0.5-0.5-1.1-0.9-1.8-1.2c0.4-0.3,0.7-0.6,0.9-1
	c0.4-0.6,0.6-1.4,0.6-2.4c0-1.5-0.5-2.9-1.5-3.8c-0.6-0.6-1.3-1-2.2-1.2c-0.8-0.2-1.8-0.3-3.1-0.3h-3.1v18.9h4.8
	C203.2,853.9,205,853.3,206.2,852.1z M204.1,848.3c0,0.8-0.3,1.3-0.8,1.8c-0.5,0.4-1.4,0.6-2.6,0.6h-1.4v-4.9h1.4
	c1.2,0,2.2,0.2,2.7,0.7S204.1,847.6,204.1,848.3z M202,842.4c-0.4,0.4-1.1,0.6-2,0.6h-0.5v-4.6h0.7c0.9,0,1.6,0.2,2,0.6
	c0.4,0.3,0.6,0.8,0.6,1.5C202.7,841.3,202.4,842,202,842.4z"/>
<polygon class="st1" points="219.1,850.8 213.7,850.8 213.7,835.2 210.4,835.2 210.4,853.9 219.1,853.9 "/>
<polygon class="st1" points="231.8,838.4 231.8,835.2 221.1,835.2 221.1,853.9 231.8,853.9 231.8,850.8 224.5,850.8 224.5,845.5 
	231.6,845.5 231.6,842.4 224.5,842.4 224.5,838.4 "/>
<path class="st0" d="M97.1,866.5c0.4-0.3,0.7-0.6,0.9-1c0.4-0.6,0.6-1.4,0.6-2.4c0-1.5-0.5-2.9-1.5-3.8c-0.6-0.6-1.3-1-2.2-1.2
	c-0.8-0.2-1.8-0.3-3.1-0.3h-3.1v18.7h4.8c2.4,0,4.1-0.6,5.3-1.8c0.8-0.9,1.2-2,1.2-3.5s-0.4-2.7-1.3-3.6
	C98.4,867.2,97.8,866.9,97.1,866.5z M94.7,865.1c-0.4,0.4-1.1,0.6-2,0.6h-0.5v-4.6h0.7c0.9,0,1.6,0.2,2,0.6c0.4,0.3,0.6,0.8,0.6,1.5
	C95.4,864.1,95.1,864.7,94.7,865.1z M92.1,868.6h1.4c1.2,0,2.2,0.2,2.7,0.7c0.4,0.4,0.6,1,0.6,1.7c0,0.8-0.3,1.3-0.8,1.8
	c-0.5,0.4-1.4,0.6-2.6,0.6h-1.3V868.6z"/>
<path class="st0" d="M112.8,869.2c0,1.3-0.2,2.4-0.5,3c-0.3,0.5-0.7,0.8-1.2,1.2c-1.1,0.7-2.7,0.7-3.7,0c-0.6-0.3-1-0.7-1.2-1.2
	c-0.3-0.6-0.5-1.6-0.5-3v-11.3h-3.4v12c0,1.9,0.6,3.6,1.7,4.9c1.3,1.4,3.2,2.3,5.2,2.3c2.2,0,3.9-0.7,5.2-2.3c1.1-1.3,1.7-3,1.7-4.9
	v-12h-3.4C112.8,857.9,112.8,869.2,112.8,869.2z"/>
<polygon class="st0" points="118.1,861.1 122.2,861.1 122.2,876.7 125.5,876.7 125.5,861.1 129.7,861.1 129.7,857.9 118.1,857.9 "/>
<polygon class="st0" points="150.2,869.2 136.9,857.5 136.9,876.7 140.3,876.7 140.3,865.4 153.5,877 153.5,857.9 150.1,857.9 "/>
<path class="st0" d="M165.2,857.5c-2.8,0-5.1,0.9-7,2.8c-1.8,1.8-2.8,4.2-2.8,7c0,2.8,0.9,5.1,2.8,7c1.8,1.8,4.2,2.8,7,2.8
	s5.1-0.9,7-2.8c1.8-1.8,2.8-4.2,2.8-7c0-2.8-0.9-5.1-2.8-7C170.3,858.6,167.9,857.5,165.2,857.5z M165.2,873.9
	c-1.8,0-3.4-0.6-4.6-1.8l0,0c-1.2-1.2-1.8-2.8-1.8-4.7c0-1.9,0.6-3.6,1.8-4.8c1.2-1.2,2.8-1.8,4.6-1.8c1.8,0,3.4,0.6,4.6,1.8
	c1.2,1.2,1.8,2.9,1.8,4.8s-0.6,3.5-1.8,4.7C168.6,873.3,167,873.9,165.2,873.9z"/>
<polygon class="st0" points="174.9,861.1 179.1,861.1 179.1,876.7 182.4,876.7 182.4,861.1 186.6,861.1 186.6,857.9 174.9,857.9 "/>
<path class="st0" d="M200.5,865.3l-1.8-0.7c-1.2-0.5-1.7-1.1-1.7-1.9c0-0.5,0.2-1,0.6-1.3c0.4-0.4,0.9-0.5,1.6-0.5
	c0.7,0,1.3,0.2,1.7,0.6c0.3,0.3,0.6,0.6,0.7,1l0.1,0.3l2.8-1.6l-0.1-0.2c-0.3-0.7-0.8-1.3-1.4-1.9c-1-0.8-2.4-1.3-3.8-1.3
	c-1.7,0-3.1,0.5-4.1,1.5c-1,1-1.5,2.3-1.5,3.6c0,2.2,1.3,3.8,3.9,4.9l1.7,0.7c0.7,0.3,1.3,0.7,1.8,1.1c0.4,0.4,0.6,1,0.6,1.7
	c0,0.8-0.2,1.5-0.7,2c-0.5,0.5-1.1,0.7-1.9,0.7c-0.9,0-1.6-0.3-2.2-1c-0.5-0.6-0.7-1.3-0.7-2.2v-0.3l-3.4,0.7v0.2
	c0.1,1.4,0.7,2.7,1.6,3.7c1.1,1.2,2.7,1.9,4.5,1.9c1.7,0,3.3-0.6,4.4-1.7c1.1-1.1,1.7-2.6,1.7-4.4
	C204.9,868.4,203.5,866.5,200.5,865.3z"/>
<rect x="207.9" y="857.9" class="st0" width="3.4" height="18.7"/>
<polygon class="st0" points="223.8,869.6 217.4,857.3 213.4,876.4 213.4,876.7 216.8,876.7 218.7,867.7 223.8,877 228.9,867.8 
	230.6,876.5 230.6,876.7 234,876.7 230.4,857.3 "/>
<path class="st0" d="M244.7,859c-1-0.7-2.5-1-4.1-1h-4.3v18.7h3.4v-7.4h0.9c1.9,0,3.5-0.5,4.6-1.5c1.2-1,1.8-2.5,1.8-4.2
	c0-0.9-0.2-1.8-0.6-2.7C246,860.1,245.4,859.5,244.7,859z M239.6,861h0.9c0.7,0,1.3,0.1,1.7,0.2c0.4,0.2,0.7,0.4,1,0.6
	c0.2,0.3,0.4,0.6,0.4,0.8c0.1,0.2,0.1,0.5,0.1,0.8c0,0.8-0.3,1.4-0.8,1.8c-0.6,0.5-1.4,0.7-2.5,0.7h-0.9V861z"/>
<polygon class="st0" points="252.7,857.9 249.3,857.9 249.3,876.7 258,876.7 258,873.5 252.7,873.5 "/>
<polygon class="st0" points="260,876.7 270.7,876.7 270.7,873.5 263.4,873.5 263.4,868.3 270.5,868.3 270.5,865.1 263.4,865.1 
	263.4,861.1 270.7,861.1 270.7,857.9 260,857.9 "/>
<path class="st0" d="M283.3,867.1c0.7-0.9,1.1-2.2,1.1-3.5c0-2-0.7-3.5-2.3-4.5c-1.1-0.7-2.8-1.1-4.9-1.1h-3.5v18.7h3.4v-7.5h0.1
	l5.1,7.4l0.1,0.1h4.1l-5.7-7.9C281.8,868.5,282.7,867.9,283.3,867.1z M280.9,864.8c-0.2,0.3-0.4,0.6-0.7,0.8c-0.3,0.2-0.6,0.3-1,0.4
	c-0.3,0.1-0.6,0.1-0.9,0.2c-0.2,0-0.4,0-0.7,0H277V861h0.7c2.4,0,3.5,0.8,3.5,2.6C281.3,864.1,281.2,864.5,280.9,864.8z"/>
<path class="st1" d="M96.6,898h-1.3l-0.9-1.8h-3.5l-0.8,1.8h-1.3l4-8L96.6,898z M92.9,892.5l-1.2,2.6H94L92.9,892.5z"/>
<path class="st1" d="M97.4,898v-8.1h1.1v8.1H97.4z"/>
<path class="st1" d="M99.8,890h1.1v4c0.3-0.4,0.8-0.6,1.3-0.6c0.6,0,1.1,0.2,1.6,0.6c0.4,0.4,0.6,1,0.6,1.7s-0.2,1.2-0.6,1.7
	s-0.9,0.7-1.6,0.7c-0.5,0-1-0.2-1.4-0.6v0.5h-1.1L99.8,890L99.8,890z M102.2,894.2c-0.4,0-0.7,0.1-0.9,0.4c-0.3,0.3-0.4,0.6-0.4,1.1
	c0,0.5,0.1,0.8,0.4,1.1c0.3,0.3,0.6,0.4,0.9,0.4c0.4,0,0.7-0.1,0.9-0.4c0.2-0.3,0.3-0.6,0.3-1c0-0.4-0.1-0.7-0.3-1
	C102.9,894.4,102.6,894.2,102.2,894.2z"/>
<path class="st1" d="M108.9,896.5l0.9,0.5c-0.2,0.4-0.5,0.6-0.8,0.8c-0.4,0.2-0.8,0.3-1.3,0.3c-0.6,0-1.1-0.2-1.5-0.6
	c-0.4-0.4-0.7-1-0.7-1.7c0-0.8,0.2-1.4,0.7-1.9c0.4-0.4,0.9-0.6,1.5-0.6c0.6,0,1.1,0.2,1.5,0.6c0.4,0.4,0.6,1.1,0.6,1.9v0.1h-3.4
	c0,0.4,0.2,0.7,0.4,0.9c0.2,0.2,0.5,0.3,0.8,0.3c0.3,0,0.5-0.1,0.7-0.2C108.7,896.9,108.8,896.7,108.9,896.5z M106.7,895.1h2.2
	c0-0.3-0.2-0.5-0.3-0.6c-0.2-0.2-0.4-0.3-0.7-0.3c-0.3,0-0.6,0.1-0.7,0.3C106.8,894.6,106.7,894.8,106.7,895.1z"/>
<path class="st1" d="M112.1,898H111v-4.6h1.1v0.4c0.1-0.2,0.3-0.3,0.4-0.4c0.2-0.1,0.4-0.2,0.6-0.2c0.3,0,0.6,0.1,0.8,0.2l-0.4,1
	c-0.2-0.1-0.4-0.2-0.5-0.2c-0.3,0-0.5,0.1-0.7,0.2c-0.2,0.2-0.3,0.6-0.3,1L112.1,898L112.1,898z"/>
<path class="st1" d="M116.6,893.4v1h-0.8v3.7h-1.1v-3.7h-0.4v-1h0.4v-1.7h1.1v1.7H116.6z"/>
<path class="st1" d="M120.1,890.7h4.1v1h-3v1.8h2.9v1h-2.9v2.4h3v1h-4.1V890.7z"/>
<path class="st1" d="M126,892.2c-0.2,0-0.4-0.1-0.5-0.2c-0.1-0.1-0.2-0.3-0.2-0.5s0.1-0.4,0.2-0.5c0.1-0.1,0.3-0.2,0.5-0.2
	s0.4,0.1,0.5,0.2c0.1,0.1,0.2,0.3,0.2,0.5s-0.1,0.4-0.2,0.5C126.4,892.1,126.3,892.2,126,892.2z M125.4,898v-4.6h1.1v4.6H125.4z"/>
<path class="st1" d="M129,898h-1.1v-4.6h1.1v0.4c0.3-0.4,0.7-0.5,1.2-0.5c0.6,0,1,0.2,1.3,0.6c0.2,0.3,0.3,0.7,0.3,1.3v2.9h-1.1
	v-2.6c0-0.3,0-0.5-0.1-0.7c0-0.2-0.1-0.3-0.2-0.4c-0.1-0.1-0.2-0.1-0.2-0.1c-0.1,0-0.2,0-0.3,0c-0.2,0-0.3,0-0.4,0
	c-0.1,0-0.2,0.1-0.3,0.2c-0.1,0.1-0.2,0.2-0.2,0.5c-0.1,0.2-0.1,0.5-0.1,0.9L129,898L129,898z"/>
<path class="st1" d="M136.1,894.1l-0.8,0.5c-0.2-0.3-0.4-0.4-0.6-0.4c-0.1,0-0.2,0-0.3,0.1c-0.1,0.1-0.1,0.1-0.1,0.2
	c0,0.1,0.6,0.4,0.6,0.4l0.5,0.3c0.3,0.2,0.5,0.3,0.6,0.4c0.2,0.2,0.3,0.5,0.3,0.8c0,0.4-0.1,0.7-0.4,1c-0.3,0.3-0.7,0.5-1.3,0.5
	c-0.4,0-0.7-0.1-1-0.3c-0.3-0.2-0.5-0.5-0.6-0.8l0.9-0.4c0.1,0.2,0.2,0.4,0.2,0.4c0.1,0.1,0.3,0.2,0.5,0.2s0.3,0,0.4-0.2
	c0.1-0.1,0.2-0.2,0.2-0.4c0-0.1,0-0.3-0.1-0.3c-0.1-0.1-0.3-0.2-0.5-0.3l-0.4-0.2c-0.3-0.1-0.5-0.3-0.6-0.4
	c-0.2-0.2-0.3-0.5-0.3-0.8c0-0.4,0.1-0.7,0.4-1c0.3-0.3,0.6-0.4,1.1-0.4c0.3,0,0.6,0.1,0.8,0.2C135.8,893.7,136,893.9,136.1,894.1z"
	/>
<path class="st1" d="M139.2,893.4v1h-0.8v3.7h-1.1v-3.7h-0.4v-1h0.4v-1.7h1.1v1.7H139.2z"/>
<path class="st1" d="M143.2,896.5l0.9,0.5c-0.2,0.4-0.5,0.6-0.8,0.8c-0.4,0.2-0.8,0.3-1.3,0.3c-0.6,0-1.1-0.2-1.5-0.6
	c-0.4-0.4-0.7-1-0.7-1.7c0-0.8,0.2-1.4,0.7-1.9c0.4-0.4,0.9-0.6,1.5-0.6s1.1,0.2,1.5,0.6c0.4,0.4,0.6,1.1,0.6,1.9v0.1h-3.4
	c0,0.4,0.2,0.7,0.4,0.9c0.2,0.2,0.5,0.3,0.8,0.3c0.3,0,0.5,0,0.7-0.1C142.9,896.9,143.1,896.7,143.2,896.5z M140.9,895.1h2.2
	c0-0.3-0.2-0.5-0.3-0.6c-0.2-0.2-0.4-0.3-0.7-0.3c-0.3,0-0.6,0.1-0.7,0.2C141,894.6,140.9,894.8,140.9,895.1z"/>
<path class="st1" d="M145.8,892.2c-0.2,0-0.4-0.1-0.5-0.2c-0.1-0.1-0.2-0.3-0.2-0.5s0.1-0.4,0.2-0.5c0.1-0.1,0.3-0.2,0.5-0.2
	s0.4,0.1,0.5,0.2c0.1,0.1,0.2,0.3,0.2,0.5s-0.1,0.4-0.2,0.5C146.1,892.1,146,892.2,145.8,892.2z M145.3,898v-4.6h1.1v4.6H145.3z"/>
<path class="st1" d="M148.8,898h-1.1v-4.6h1.1v0.4c0.3-0.4,0.7-0.5,1.2-0.5c0.6,0,1,0.2,1.3,0.6c0.2,0.3,0.3,0.7,0.3,1.3v2.9h-1.1
	v-2.6c0-0.3,0-0.5-0.1-0.7c0-0.2-0.1-0.3-0.2-0.4c-0.1-0.1-0.2-0.1-0.2-0.1c-0.1,0-0.2,0-0.3,0c-0.2,0-0.3,0-0.4,0
	c-0.1,0-0.2,0.1-0.3,0.2c-0.1,0.1-0.2,0.2-0.2,0.5c-0.1,0.2-0.1,0.5-0.1,0.9v2H148.8z"/>
</svg>
