<?xml version="1.0" encoding="utf-8"?>
<!-- Generator: Adobe Illustrator 24.3.0, SVG Export Plug-In . SVG Version: 6.00 Build 0)  -->
<svg version="1.1" id="Layer_1" xmlns="http://www.w3.org/2000/svg" xmlns:xlink="http://www.w3.org/1999/xlink" x="0px" y="0px"
	 viewBox="0 0 396.7 955" style="enable-background:new 0 0 396.7 955;" xml:space="preserve">
<style type="text/css">
	.st0{fill:#AD3A3A;}
	.st1{fill:#222222;}
</style>
<polygon class="st0" points="100.8,759.5 105.8,770.7 115.1,749.7 110.8,749.7 105.9,760.6 101,748.9 95.8,760.7 91.2,749.7 
	86.9,749.7 95.8,770.7 "/>
<polygon class="st0" points="120.1,761.1 127.2,761.1 127.2,769.9 131.2,769.9 131.2,749.7 127.2,749.7 127.2,757.3 120.1,757.3 
	120.1,749.7 116.1,749.7 116.1,769.9 120.1,769.9 "/>
<path class="st0" d="M138.7,765.3h7.4l2,4.6h4.4l-9.9-20.8l-10.4,20.8h4.4L138.7,765.3z M142.4,757.2l2,4.2h-4L142.4,757.2z"/>
<polygon class="st0" points="155.8,769.9 159.8,769.9 159.8,753.6 164.2,753.6 164.2,749.7 151.4,749.7 151.4,753.6 155.8,753.6 "/>
<rect x="172.3" y="749.7" class="st0" width="4" height="20.1"/>
<path class="st0" d="M178.6,763.6l0.1,0.5c0.2,1.6,0.7,2.9,1.7,4c1.2,1.4,2.9,2.1,4.9,2.1c1.9,0,3.5-0.6,4.8-1.9
	c1.2-1.2,1.9-2.8,1.9-4.8c0-2.7-1.6-4.8-4.8-6.1l-1.9-0.8c-1.7-0.7-1.7-1.5-1.7-1.8c0-0.5,0.2-0.9,0.5-1.2c0.4-0.3,0.9-0.5,1.6-0.5
	c0.7,0,1.2,0.2,1.7,0.5c0.3,0.3,0.6,0.6,0.7,1l0.2,0.6l3.3-1.9l-0.2-0.5c-0.4-0.8-0.9-1.5-1.6-2.1c-1.1-0.9-2.5-1.4-4.2-1.4
	c-1.9,0-3.3,0.6-4.4,1.6c-1.1,1.1-1.7,2.4-1.7,3.9c0,2.4,1.4,4.2,4.2,5.3l1.8,0.8c0.8,0.3,1.4,0.7,1.8,1.1c0.4,0.4,0.6,0.9,0.6,1.6
	c0,0.8-0.2,1.4-0.7,1.9c-0.5,0.5-1.1,0.7-1.9,0.7c-0.9,0-1.6-0.3-2.1-0.9c-0.5-0.6-0.7-1.3-0.7-2.1v-0.7L178.6,763.6z"/>
<path class="st0" d="M205.2,762.5l5.1,7.3h4.9l-6.1-8.4c1-0.4,1.9-1,2.6-1.8c0.8-1,1.3-2.3,1.3-3.8c0-2.2-0.8-3.8-2.5-4.9
	c-1.2-0.8-3-1.2-5.3-1.2h-3.9v20.1h4V762.5z M208.8,757.1c-0.2,0.3-0.4,0.6-0.6,0.7c-0.3,0.2-0.6,0.3-1,0.4
	c-0.3,0.1-0.7,0.1-0.9,0.2c-0.2,0-0.4,0-0.7,0h-0.4v-5h0.5c3.1,0,3.4,1.4,3.4,2.4C209.1,756.4,209,756.8,208.8,757.1z"/>
<rect x="216.4" y="749.7" class="st0" width="4" height="20.1"/>
<path class="st0" d="M232.9,770.2c2.8,0,5.1-0.9,6.9-2.6c2-1.9,3-4.7,3-8.1v-0.7h-8.9v3.8h4.6c-0.2,0.9-0.7,1.6-1.3,2.3
	c-1.1,1-2.3,1.5-3.9,1.5c-1.8,0-3.3-0.6-4.4-1.7c-1.2-1.3-1.8-2.9-1.8-4.8c0-1,0.2-1.9,0.5-2.8c0.4-0.9,0.8-1.6,1.4-2.2
	c1.2-1.2,2.7-1.8,4.6-1.8c1.2,0,2.2,0.3,3.1,0.8c0.8,0.4,1.5,1.1,2.2,2l0.3,0.4l3.2-2.2l-0.3-0.4c-0.8-1.2-1.9-2.3-3.3-3
	c-1.5-0.8-3.3-1.3-5.2-1.3c-1.5,0-2.9,0.3-4.2,0.8c-1.3,0.6-2.5,1.3-3.3,2.2c-0.9,0.9-1.6,2-2.1,3.3c-0.5,1.3-0.8,2.7-0.8,4.2
	c0,3,1,5.5,3,7.6C227.8,769.3,230.1,770.2,232.9,770.2z"/>
<polygon class="st0" points="249.3,761.1 256.4,761.1 256.4,769.9 260.4,769.9 260.4,749.7 256.4,749.7 256.4,757.3 249.3,757.3 
	249.3,749.7 245.3,749.7 245.3,769.9 249.3,769.9 "/>
<polygon class="st0" points="266.2,769.9 270.2,769.9 270.2,753.6 274.6,753.6 274.6,749.7 261.8,749.7 261.8,753.6 266.2,753.6 "/>
<rect x="89.3" y="772.8" class="st0" width="4" height="20.1"/>
<path class="st0" d="M107.1,791.4c1.2-1.2,1.9-2.8,1.9-4.8c0-2.7-1.6-4.8-4.8-6.1l-1.9-0.8c-1.7-0.7-1.7-1.5-1.7-1.8
	c0-0.5,0.2-0.9,0.5-1.2c0.4-0.3,0.9-0.5,1.6-0.5c0.7,0,1.2,0.2,1.7,0.5c0.3,0.3,0.6,0.6,0.7,1l0.2,0.6l3.3-1.9l-0.2-0.5
	c-0.4-0.8-0.9-1.5-1.6-2.1c-1.1-0.9-2.5-1.4-4.2-1.4c-1.9,0-3.3,0.6-4.4,1.6c-1.1,1.1-1.7,2.4-1.7,3.9c0,2.4,1.4,4.2,4.2,5.3
	l1.8,0.8c0.8,0.3,1.4,0.7,1.8,1.1c0.4,0.4,0.6,0.9,0.6,1.6c0,0.8-0.2,1.4-0.7,1.9c-0.5,0.5-1.1,0.7-1.9,0.7c-0.9,0-1.6-0.3-2.1-0.9
	c-0.5-0.6-0.7-1.3-0.7-2.1v-0.7l-4,0.9l0.1,0.5c0.2,1.6,0.7,2.9,1.7,4c1.2,1.4,2.9,2.1,4.9,2.1C104.2,793.3,105.8,792.7,107.1,791.4
	z"/>
<polygon class="st0" points="118.2,772.1 118.2,792.9 122.2,792.9 122.1,781.5 136,793.6 136,772.8 132,772.8 132,784.4 "/>
<path class="st0" d="M159.5,782.9c0-3-1-5.5-3-7.4c-2-2-4.5-3-7.5-3c-3,0-5.5,1-7.5,3c-2,2-3,4.5-3,7.4c0,3,1,5.5,3,7.4
	c2,2,4.5,3,7.5,3s5.5-1,7.5-3C158.5,788.3,159.5,785.8,159.5,782.9z M149,789.5c-1.9,0-3.4-0.6-4.6-1.9l0,0
	c-1.2-1.2-1.8-2.8-1.8-4.8c0-2,0.6-3.6,1.8-4.8c1.2-1.2,2.7-1.8,4.6-1.8c1.9,0,3.4,0.6,4.6,1.8c1.2,1.3,1.8,2.8,1.8,4.8
	c0,2-0.6,3.5-1.8,4.8C152.4,788.9,150.9,789.5,149,789.5z"/>
<polygon class="st0" points="168.4,792.9 168.4,776.6 172.8,776.6 172.8,772.8 160,772.8 160,776.6 164.4,776.6 164.4,792.9 "/>
<path class="st0" d="M184.9,788.3h7.4l2,4.6h4.4l-9.9-20.8l-10.4,20.8h4.4L184.9,788.3z M188.6,780.3l2,4.2h-4L188.6,780.3z"/>
<polygon class="st0" points="209.2,789.1 203.6,789.1 203.6,772.8 199.6,772.8 199.6,792.9 209.2,792.9 "/>
<polygon class="st0" points="212.8,772.8 208.4,772.8 217.4,793.7 222.4,782.6 227.4,793.7 236.7,772.8 232.4,772.8 227.5,783.7 
	222.6,772 217.4,783.8 "/>
<path class="st0" d="M241.7,788.3h7.4l2,4.6h4.4l-9.9-20.8l-10.4,20.8h4.4L241.7,788.3z M245.5,780.3l2,4.2h-4L245.5,780.3z"/>
<polygon class="st0" points="264.4,792.9 264.4,784.3 271.1,772.8 266.5,772.8 262.4,779.9 258.4,772.8 253.8,772.8 260.4,784.3 
	260.4,792.9 "/>
<path class="st0" d="M271.6,778c0,2.4,1.4,4.2,4.2,5.3l1.8,0.8c0.8,0.3,1.4,0.7,1.8,1.1c0.4,0.4,0.6,0.9,0.6,1.6
	c0,0.8-0.2,1.4-0.7,1.9c-0.5,0.5-1.1,0.7-1.9,0.7c-0.9,0-1.6-0.3-2.1-0.9c-0.5-0.6-0.7-1.3-0.7-2.1v-0.7l-4,0.9l0.1,0.5
	c0.2,1.6,0.7,2.9,1.7,4c1.2,1.4,2.9,2.1,4.9,2.1c1.9,0,3.5-0.6,4.8-1.9c1.2-1.2,1.9-2.8,1.9-4.8c0-2.7-1.6-4.8-4.8-6.1l-1.9-0.8
	c-1.7-0.7-1.7-1.5-1.7-1.8c0-0.5,0.2-0.9,0.5-1.2c0.4-0.3,0.9-0.5,1.6-0.5c0.7,0,1.2,0.2,1.7,0.5c0.3,0.3,0.6,0.6,0.7,1l0.2,0.6
	l3.3-1.9l-0.2-0.5c-0.4-0.8-0.9-1.5-1.6-2.1c-1.1-0.9-2.5-1.4-4.2-1.4c-1.9,0-3.3,0.6-4.4,1.6C272.2,775.2,271.6,776.5,271.6,778z"
	/>
<path class="st1" d="M89.3,816h4v-7.7h0.8c2.1,0,3.8-0.5,5-1.6c1.4-1.2,2-2.7,2-4.6c0-1-0.2-2-0.7-2.9c-0.5-0.9-1.1-1.7-2-2.2
	c-1.1-0.7-2.6-1.1-4.5-1.1h-4.7V816z M96.5,803.8c-0.5,0.5-1.4,0.7-2.4,0.7h-0.8v-4.9H94c0.7,0,1.3,0.1,1.8,0.2
	c0.4,0.2,0.7,0.4,0.9,0.6c0.3,0.4,0.4,0.6,0.4,0.8c0.1,0.2,0.1,0.4,0.1,0.8C97.2,802.8,97,803.4,96.5,803.8z"/>
<path class="st1" d="M112.5,816.4c3,0,5.5-1,7.5-3c2-2,3-4.5,3-7.4s-1-5.5-3-7.4c-2-2-4.5-3-7.5-3c-3,0-5.5,1-7.5,3
	c-2,2-3,4.5-3,7.4c0,3,1,5.5,3,7.4C107.1,815.4,109.6,816.4,112.5,816.4z M112.5,799.3c1.9,0,3.4,0.6,4.6,1.8
	c1.2,1.3,1.8,2.8,1.8,4.8c0,2-0.6,3.5-1.8,4.8c-1.2,1.3-2.7,1.9-4.6,1.9c-1.9,0-3.4-0.6-4.6-1.9l0,0c-1.2-1.2-1.8-2.8-1.8-4.8
	c0-2,0.6-3.6,1.8-4.8C109.1,799.9,110.6,799.3,112.5,799.3z"/>
<path class="st1" d="M129.6,808.3h0.8c2.1,0,3.8-0.5,5-1.6c1.4-1.2,2-2.7,2-4.6c0-1-0.2-2-0.7-2.9c-0.5-0.9-1.1-1.7-2-2.2
	c-1.1-0.7-2.6-1.1-4.5-1.1h-4.7V816h4V808.3z M129.6,799.6h0.7c0.7,0,1.3,0.1,1.8,0.2c0.4,0.2,0.7,0.4,0.9,0.6
	c0.3,0.4,0.4,0.6,0.4,0.8c0.1,0.2,0.1,0.4,0.1,0.8c0,0.8-0.2,1.3-0.8,1.8c-0.5,0.5-1.4,0.7-2.4,0.7h-0.8V799.6z"/>
<path class="st1" d="M139.3,795.9v12.8c0,2.1,0.6,3.9,1.9,5.3c1.5,1.6,3.4,2.4,5.7,2.4c2.3,0,4.2-0.8,5.7-2.4
	c1.3-1.4,1.9-3.2,1.9-5.3v-12.8h-4v12c0,1.4-0.2,2.4-0.5,3c-0.3,0.4-0.7,0.8-1.2,1.2c-1.1,0.7-2.5,0.7-3.7,0c-0.6-0.3-1-0.7-1.2-1.2
	c-0.4-0.6-0.5-1.7-0.5-3v-12H139.3z"/>
<path class="st1" d="M167.6,812.2H162v-16.3h-4V816h8.7h0.9h3.5l2.1-4.6h7.4l2,4.6h4.4l-9.9-20.8l-9.5,19.1V812.2z M176.9,803.4
	l2,4.2h-4L176.9,803.4z"/>
<path class="st1" d="M201.9,816l-6.1-8.4c1-0.4,1.9-1,2.6-1.8c0.8-1,1.3-2.3,1.3-3.8c0-2.2-0.8-3.8-2.5-4.9c-1.2-0.8-3-1.2-5.3-1.2
	h-3.9V816h4v-7.3l5.1,7.3H201.9z M195.6,803.3c-0.2,0.3-0.4,0.6-0.6,0.7c-0.3,0.2-0.6,0.3-1,0.4c-0.3,0.1-0.7,0.1-0.9,0.2
	c-0.2,0-0.4,0-0.7,0h-0.4v-5h0.5c3.1,0,3.4,1.4,3.4,2.4C195.8,802.5,195.7,802.9,195.6,803.3z"/>
<path class="st1" d="M93.3,834.5h7.4l2,4.6h4.4l-9.9-20.8l-10.4,20.8h4.4L93.3,834.5z M97,826.5l2,4.2h-4L97,826.5z"/>
<polygon class="st1" points="125.9,819 121.9,819 121.9,830.5 108,818.3 108,839.1 112,839.1 112,827.6 125.9,839.7 "/>
<path class="st1" d="M141.1,837.2c2.7-1.9,4.1-4.6,4.1-8.1c0-1.7-0.3-3.2-1-4.6c-0.7-1.4-1.7-2.6-2.9-3.5c-1.1-0.8-2.2-1.3-3.3-1.6
	c-1.1-0.3-2.5-0.4-4.1-0.4h-4.5v20.1h4.5c1.6,0,2.9-0.1,4-0.4C138.9,838.4,140,837.9,141.1,837.2z M141.2,829c0,2.1-0.8,3.8-2.4,5
	c-1.1,0.8-2.7,1.2-4.7,1.2h-0.7v-12.5h0.7c2,0,3.6,0.4,4.8,1.2c0.7,0.5,1.3,1.2,1.7,2.1C140.9,826.9,141.2,827.9,141.2,829z"/>
<polygon class="st1" points="165.9,828.7 170.9,839.9 180.2,819 175.9,819 171,829.9 166.1,818.1 160.9,830 156.3,819 151.9,819 
	160.9,839.9 "/>
<polygon class="st1" points="196.3,839.1 196.3,819 192.3,819 192.3,826.5 185.2,826.5 185.2,819 181.2,819 181.2,839.1 
	185.2,839.1 185.2,830.3 192.3,830.3 192.3,839.1 "/>
<path class="st1" d="M207.7,818.3l-10.4,20.8h4.4l2.1-4.6h7.4l2,4.6h4.4L207.7,818.3z M207.5,826.5l2,4.2h-4L207.5,826.5z"/>
<polygon class="st1" points="224.9,839.1 224.9,822.8 229.3,822.8 229.3,819 216.5,819 216.5,822.8 220.9,822.8 220.9,839.1 "/>
<rect x="237.4" y="819" class="st1" width="4" height="20.1"/>
<path class="st1" d="M252.2,826.7l-1.9-0.8c-1.7-0.7-1.7-1.5-1.7-1.8c0-0.5,0.2-0.9,0.5-1.2c0.4-0.3,0.9-0.5,1.6-0.5
	c0.7,0,1.2,0.2,1.7,0.5c0.3,0.3,0.6,0.6,0.7,1l0.2,0.6l3.3-1.9l-0.2-0.5c-0.4-0.8-0.9-1.5-1.6-2.1c-1.1-0.9-2.5-1.4-4.2-1.4
	c-1.9,0-3.3,0.6-4.4,1.6c-1.1,1.1-1.7,2.4-1.7,3.9c0,2.4,1.4,4.2,4.2,5.3l1.8,0.8c0.8,0.3,1.4,0.7,1.8,1.1c0.4,0.4,0.6,0.9,0.6,1.6
	c0,0.8-0.2,1.4-0.7,1.9c-0.5,0.5-1.1,0.7-1.9,0.7c-0.9,0-1.6-0.3-2.1-0.9c-0.5-0.6-0.7-1.3-0.7-2.1V832l-4,0.9l0.1,0.5
	c0.2,1.6,0.7,2.9,1.7,4c1.2,1.4,2.9,2.1,4.9,2.1c1.9,0,3.5-0.6,4.8-1.9c1.2-1.2,1.9-2.8,1.9-4.8C257,830.1,255.4,828,252.2,826.7z"
	/>
<path d="M98.5,843.3c-1.1-0.7-2.6-1.1-4.5-1.1h-4.7v20.1h4v-7.7h0.8c2.1,0,3.8-0.5,5-1.6c1.4-1.2,2-2.7,2-4.6c0-1-0.2-2-0.7-2.9
	C100,844.5,99.3,843.8,98.5,843.3z M93.3,845.9H94c0.7,0,1.3,0.1,1.8,0.2c0.4,0.2,0.7,0.4,0.9,0.6c0.3,0.4,0.4,0.6,0.4,0.8
	c0.1,0.2,0.1,0.4,0.1,0.8c0,0.8-0.2,1.3-0.8,1.8c-0.5,0.5-1.4,0.7-2.4,0.7h-0.8V845.9z"/>
<path class="st1" d="M105.1,844.8c-2,2-3,4.5-3,7.4s1,5.5,3,7.4c2,2,4.5,3,7.5,3s5.5-1,7.5-3c2-2,3-4.5,3-7.4s-1-5.5-3-7.4
	c-2-2-4.5-3-7.5-3C109.6,841.8,107.1,842.8,105.1,844.8z M112.5,858.9c-1.9,0-3.4-0.6-4.6-1.9l0,0c-1.2-1.2-1.8-2.8-1.8-4.8
	c0-2,0.6-3.6,1.8-4.8c1.2-1.2,2.7-1.8,4.6-1.8c1.9,0,3.4,0.6,4.6,1.8c1.2,1.3,1.8,2.8,1.8,4.8c0,2-0.6,3.5-1.8,4.8
	C116,858.3,114.5,858.9,112.5,858.9z"/>
<path d="M129.6,854.5h0.8c2.1,0,3.8-0.5,5-1.6c1.4-1.2,2-2.7,2-4.6c0-1-0.2-2-0.7-2.9c-0.5-0.9-1.1-1.7-2-2.2
	c-1.1-0.7-2.6-1.1-4.5-1.1h-4.7v20.1h4V854.5z M129.6,845.9h0.7c0.7,0,1.3,0.1,1.8,0.2c0.4,0.2,0.7,0.4,0.9,0.6
	c0.3,0.4,0.4,0.6,0.4,0.8c0.1,0.2,0.1,0.4,0.1,0.8c0,0.8-0.2,1.3-0.8,1.8c-0.5,0.5-1.4,0.7-2.4,0.7h-0.8V845.9z"/>
<path d="M146.9,862.6c2.3,0,4.2-0.8,5.7-2.4c1.3-1.4,1.9-3.2,1.9-5.3v-12.8h-4v12c0,1.4-0.2,2.4-0.5,3c-0.3,0.4-0.7,0.8-1.2,1.2
	c-1.1,0.7-2.5,0.7-3.7,0c-0.6-0.3-1-0.7-1.2-1.2c-0.4-0.6-0.5-1.7-0.5-3v-12h-4v12.8c0,2.1,0.6,3.9,1.9,5.3
	C142.7,861.8,144.6,862.6,146.9,862.6z"/>
<path class="st1" d="M167.6,862.3h3.5l2.1-4.6h7.4l2,4.6h4.4l-9.9-20.8l-9.5,19.1v-2.1H162v-16.3h-4v20.1h8.7H167.6z M176.9,849.6
	l2,4.2h-4L176.9,849.6z"/>
<path d="M195.8,853.9c1-0.4,1.9-1,2.6-1.8c0.8-1,1.3-2.3,1.3-3.8c0-2.2-0.8-3.8-2.5-4.9c-1.2-0.8-3-1.2-5.3-1.2h-3.9v20.1h4v-7.3
	l5.1,7.3h4.9L195.8,853.9z M194.9,850.2c-0.3,0.2-0.6,0.3-1,0.4c-0.3,0.1-0.7,0.1-0.9,0.2c-0.2,0-0.4,0-0.7,0h-0.4v-5h0.5
	c3.1,0,3.4,1.4,3.4,2.4c0,0.5-0.1,0.9-0.3,1.2C195.4,849.9,195.1,850.1,194.9,850.2z"/>
<rect x="209.8" y="842.1" width="4" height="20.1"/>
<path class="st1" d="M229.5,856c0-2.7-1.6-4.8-4.8-6.1l-1.9-0.8c-1.7-0.7-1.7-1.5-1.7-1.8c0-0.5,0.2-0.9,0.5-1.2
	c0.4-0.3,0.9-0.5,1.6-0.5c0.7,0,1.2,0.2,1.7,0.5c0.3,0.3,0.6,0.6,0.7,1l0.2,0.6l3.3-1.9l-0.2-0.5c-0.4-0.8-0.9-1.5-1.6-2.1
	c-1.1-0.9-2.5-1.4-4.2-1.4c-1.9,0-3.3,0.6-4.4,1.6c-1.1,1.1-1.7,2.4-1.7,3.9c0,2.4,1.4,4.2,4.2,5.3l1.8,0.8c0.8,0.3,1.4,0.7,1.8,1.1
	c0.4,0.4,0.6,0.9,0.6,1.6c0,0.8-0.2,1.4-0.7,1.9s-1.1,0.7-1.9,0.7c-0.9,0-1.6-0.3-2.1-0.9c-0.5-0.6-0.7-1.3-0.7-2.1v-0.7l-4,0.9
	l0.1,0.5c0.2,1.6,0.7,2.9,1.7,4c1.2,1.4,2.9,2.1,4.9,2.1c1.9,0,3.5-0.6,4.8-1.9C228.9,859.5,229.5,857.9,229.5,856z"/>
<polygon class="st1" points="256.5,842.1 252.5,842.1 252.6,853.7 238.7,841.5 238.7,862.3 242.7,862.3 242.7,850.8 256.5,862.9 "/>
<path class="st1" d="M269.6,841.8c-3,0-5.5,1-7.5,3c-2,2-3,4.5-3,7.4s1,5.5,3,7.4c2,2,4.5,3,7.5,3s5.5-1,7.5-3c2-2,3-4.5,3-7.4
	s-1-5.5-3-7.4C275,842.8,272.5,841.8,269.6,841.8z M269.6,858.9c-1.9,0-3.4-0.6-4.6-1.9l0,0c-1.2-1.2-1.8-2.8-1.8-4.8
	c0-2,0.6-3.6,1.8-4.8c1.2-1.2,2.7-1.8,4.6-1.8c1.9,0,3.4,0.6,4.6,1.8c1.2,1.3,1.8,2.8,1.8,4.8c0,2-0.6,3.5-1.8,4.8
	C273,858.3,271.5,858.9,269.6,858.9z"/>
<polygon points="280.6,842.1 280.6,846 284.9,846 284.9,862.3 288.9,862.3 288.9,846 293.3,846 293.3,842.1 "/>
<path class="st0" d="M86.9,884.6h4.4l2.1-4.6h7.4l2,4.6h4.4l-9.9-20.8L86.9,884.6z M97.1,872l2,4.2h-4L97.1,872z"/>
<polygon class="st0" points="112.2,864.5 108.2,864.5 108.2,884.6 117.7,884.6 117.7,880.8 112.2,880.8 "/>
<polygon class="st0" points="140.9,864.5 136,875.4 131.1,863.6 125.9,875.5 121.3,864.5 117,864.5 125.9,885.4 130.9,874.3 
	135.9,885.4 145.2,864.5 "/>
<path class="st0" d="M143.7,884.6h4.4l2.1-4.6h7.4l2,4.6h4.4l-9.9-20.8L143.7,884.6z M154,872l2,4.2h-4L154,872z"/>
<polygon class="st0" points="175,864.5 170.9,871.6 166.9,864.5 162.3,864.5 168.9,876 168.9,884.6 173,884.6 173,876 179.6,864.5 
	"/>
<path class="st0" d="M187.7,872.2l-1.9-0.8c-1.7-0.7-1.7-1.5-1.7-1.8c0-0.5,0.2-0.9,0.5-1.2c0.4-0.3,0.9-0.5,1.6-0.5
	c0.7,0,1.2,0.2,1.7,0.5c0.3,0.3,0.6,0.6,0.7,1l0.2,0.6l3.3-1.9l-0.2-0.5c-0.4-0.8-0.9-1.5-1.6-2.1c-1.1-0.9-2.5-1.4-4.2-1.4
	c-1.9,0-3.3,0.6-4.4,1.6c-1.1,1.1-1.7,2.4-1.7,3.9c0,2.4,1.4,4.2,4.2,5.3l1.8,0.8c0.8,0.3,1.4,0.7,1.8,1.1c0.4,0.4,0.6,0.9,0.6,1.6
	c0,0.8-0.2,1.4-0.7,1.9c-0.5,0.5-1.1,0.7-1.9,0.7c-0.9,0-1.6-0.3-2.1-0.9c-0.5-0.6-0.7-1.3-0.7-2.1v-0.7l-4,0.9l0.1,0.5
	c0.2,1.6,0.7,2.9,1.7,4c1.2,1.4,2.9,2.1,4.9,2.1c1.9,0,3.5-0.6,4.8-1.9c1.2-1.2,1.9-2.8,1.9-4.8
	C192.6,875.6,190.9,873.5,187.7,872.2z"/>
<path class="st0" d="M212.3,874.4c0.8-1,1.3-2.3,1.3-3.8c0-2.2-0.8-3.8-2.5-4.9c-1.2-0.8-3-1.2-5.3-1.2h-3.9v20.1h4v-7.3l5.1,7.3
	h4.9l-6.1-8.4C210.7,875.9,211.6,875.3,212.3,874.4z M208.8,872.6c-0.3,0.2-0.6,0.3-1,0.4c-0.3,0.1-0.7,0.1-0.9,0.2
	c-0.2,0-0.4,0-0.7,0h-0.4v-5h0.5c3.1,0,3.4,1.4,3.4,2.4c0,0.5-0.1,0.9-0.3,1.2C209.2,872.2,209,872.4,208.8,872.6z"/>
<rect x="217" y="864.5" class="st0" width="4" height="20.1"/>
<path class="st0" d="M234.4,877.4h4.6c-0.2,0.9-0.7,1.6-1.3,2.3c-1.1,1-2.3,1.5-3.9,1.5c-1.8,0-3.3-0.6-4.4-1.7
	c-1.2-1.3-1.8-2.9-1.8-4.8c0-1,0.2-1.9,0.5-2.8c0.4-0.9,0.8-1.6,1.4-2.2c1.2-1.2,2.7-1.8,4.6-1.8c1.2,0,2.2,0.3,3.1,0.8
	c0.8,0.4,1.5,1.1,2.2,2l0.3,0.4l3.2-2.2l-0.3-0.4c-0.8-1.2-1.9-2.3-3.3-3c-1.5-0.8-3.3-1.3-5.2-1.3c-1.5,0-2.9,0.3-4.2,0.8
	c-1.3,0.6-2.5,1.3-3.3,2.2c-0.9,0.9-1.6,2-2.1,3.3c-0.5,1.3-0.8,2.7-0.8,4.2c0,3,1,5.5,3,7.6c1.8,1.8,4.1,2.8,6.9,2.8
	c2.8,0,5.1-0.9,6.9-2.6c2-1.9,3-4.7,3-8.1v-0.7h-8.9V877.4z"/>
<polygon class="st0" points="257,872 249.9,872 249.9,864.5 245.9,864.5 245.9,884.6 249.9,884.6 249.9,875.8 257,875.8 257,884.6 
	261,884.6 261,864.5 257,864.5 "/>
<polygon class="st0" points="262.4,868.3 266.8,868.3 266.8,884.6 270.8,884.6 270.8,868.3 275.2,868.3 275.2,864.5 262.4,864.5 "/>
<g>
	<path class="st1" d="M96.9,909.4h-1.2l-0.8-1.8h-3.2l-0.8,1.8h-1.2l3.7-7.5L96.9,909.4z M93.3,904.1l-1.2,2.4h2.3L93.3,904.1z"/>
	<path class="st1" d="M97.6,909.4v-8.2h1.1v8.2H97.6z"/>
	<path class="st1" d="M100.1,901.2h1.1v4c0.3-0.5,0.8-0.7,1.4-0.7c0.6,0,1.2,0.2,1.6,0.7c0.4,0.5,0.7,1.1,0.7,1.8
		c0,0.7-0.2,1.3-0.6,1.8c-0.4,0.5-1,0.7-1.7,0.7c-0.6,0-1-0.2-1.4-0.6v0.5h-1.1V901.2z M102.5,905.5c-0.4,0-0.7,0.1-0.9,0.4
		c-0.3,0.3-0.4,0.7-0.4,1.1c0,0.5,0.1,0.8,0.4,1.1c0.3,0.3,0.6,0.4,0.9,0.4c0.4,0,0.7-0.1,1-0.4c0.2-0.3,0.4-0.7,0.4-1.1
		c0-0.4-0.1-0.8-0.4-1.1C103.2,905.7,102.9,905.5,102.5,905.5z"/>
	<path class="st1" d="M109.4,907.8l0.9,0.5c-0.2,0.4-0.5,0.7-0.8,0.9c-0.4,0.2-0.8,0.4-1.4,0.4c-0.7,0-1.2-0.2-1.6-0.6
		c-0.5-0.5-0.7-1.1-0.7-1.8c0-0.8,0.3-1.4,0.8-2c0.4-0.4,1-0.6,1.6-0.6c0.6,0,1.1,0.2,1.5,0.6c0.4,0.5,0.7,1.1,0.7,2v0.1H107
		c0,0.4,0.2,0.7,0.4,1c0.2,0.2,0.5,0.3,0.8,0.3c0.3,0,0.5-0.1,0.8-0.2C109.2,908.2,109.3,908,109.4,907.8z M107.1,906.4h2.2
		c0-0.3-0.2-0.5-0.3-0.6c-0.2-0.2-0.4-0.3-0.7-0.3c-0.3,0-0.6,0.1-0.8,0.3C107.2,905.9,107.1,906.1,107.1,906.4z"/>
	<path class="st1" d="M112.6,909.4h-1.1v-4.7h1.1v0.4c0.1-0.2,0.3-0.3,0.5-0.4c0.2-0.1,0.4-0.2,0.7-0.2c0.3,0,0.6,0.1,0.9,0.2
		l-0.5,1c-0.2-0.1-0.4-0.2-0.6-0.2c-0.3,0-0.5,0.1-0.7,0.3c-0.2,0.2-0.3,0.6-0.3,1.1V909.4z"/>
	<path class="st1" d="M117.3,904.6v1h-0.8v3.7h-1.1v-3.7h-0.5v-1h0.5v-1.7h1.1v1.7H117.3z"/>
	<path class="st1" d="M120.8,901.9h4.1v1.1h-3v1.9h2.9v1.1H122v2.4h3v1.1h-4.1V901.9z"/>
	<path class="st1" d="M126.8,903.4c-0.2,0-0.4-0.1-0.5-0.2c-0.1-0.1-0.2-0.3-0.2-0.5s0.1-0.4,0.2-0.5c0.1-0.1,0.3-0.2,0.5-0.2
		s0.4,0.1,0.5,0.2c0.1,0.1,0.2,0.3,0.2,0.5s-0.1,0.4-0.2,0.5C127.2,903.3,127,903.4,126.8,903.4z M126.3,909.4v-4.7h1.1v4.7H126.3z"
		/>
	<path class="st1" d="M129.9,909.4h-1.1v-4.7h1.1v0.4c0.3-0.4,0.8-0.6,1.3-0.6c0.6,0,1.1,0.2,1.4,0.6c0.2,0.3,0.3,0.7,0.3,1.3v2.9
		h-1.1v-2.6c0-0.3,0-0.5-0.1-0.7c0-0.2-0.1-0.3-0.2-0.4c-0.1-0.1-0.2-0.1-0.3-0.1c-0.1,0-0.2,0-0.3,0c-0.2,0-0.3,0-0.4,0
		c-0.1,0-0.2,0.1-0.3,0.2c-0.1,0.1-0.2,0.3-0.2,0.5c-0.1,0.2-0.1,0.5-0.1,0.9V909.4z"/>
	<path class="st1" d="M137.1,905.4l-0.8,0.5c-0.2-0.3-0.4-0.4-0.7-0.4c-0.1,0-0.3,0-0.3,0.1c-0.1,0.1-0.1,0.1-0.1,0.2
		c0,0.1,0.1,0.2,0.2,0.3l0.1,0c0,0,0.1,0,0.1,0.1c0,0,0.1,0,0.1,0.1c0,0,0.1,0,0.1,0l0.6,0.3c0.3,0.2,0.5,0.3,0.7,0.4
		c0.2,0.2,0.3,0.5,0.3,0.9c0,0.4-0.1,0.8-0.4,1.1c-0.3,0.4-0.8,0.5-1.3,0.5c-0.4,0-0.8-0.1-1-0.3c-0.3-0.2-0.5-0.5-0.6-0.9l0.9-0.4
		c0.1,0.2,0.2,0.4,0.3,0.5c0.1,0.1,0.3,0.2,0.5,0.2c0.2,0,0.3-0.1,0.5-0.2c0.1-0.1,0.2-0.2,0.2-0.4c0-0.1,0-0.3-0.1-0.4
		c-0.1-0.1-0.3-0.2-0.5-0.3l-0.4-0.2c-0.3-0.1-0.5-0.3-0.7-0.4c-0.2-0.2-0.3-0.5-0.3-0.8c0-0.4,0.1-0.7,0.4-1
		c0.3-0.3,0.7-0.5,1.2-0.5c0.3,0,0.6,0.1,0.9,0.2C136.8,904.9,137,905.1,137.1,905.4z"/>
	<path class="st1" d="M140.3,904.6v1h-0.8v3.7h-1.1v-3.7h-0.5v-1h0.5v-1.7h1.1v1.7H140.3z"/>
	<path class="st1" d="M144.4,907.8l0.9,0.5c-0.2,0.4-0.5,0.7-0.8,0.9c-0.4,0.2-0.8,0.4-1.4,0.4c-0.7,0-1.2-0.2-1.6-0.6
		c-0.5-0.5-0.7-1.1-0.7-1.8c0-0.8,0.3-1.4,0.8-2c0.4-0.4,1-0.6,1.6-0.6c0.6,0,1.1,0.2,1.5,0.6c0.4,0.5,0.7,1.1,0.7,2v0.1h-3.4
		c0,0.4,0.2,0.7,0.4,1c0.2,0.2,0.5,0.3,0.8,0.3c0.3,0,0.5-0.1,0.8-0.2C144.1,908.2,144.2,908,144.4,907.8z M142,906.4h2.2
		c0-0.3-0.2-0.5-0.3-0.6c-0.2-0.2-0.4-0.3-0.7-0.3c-0.3,0-0.6,0.1-0.8,0.3C142.2,905.9,142,906.1,142,906.4z"/>
	<path class="st1" d="M147,903.4c-0.2,0-0.4-0.1-0.5-0.2c-0.1-0.1-0.2-0.3-0.2-0.5s0.1-0.4,0.2-0.5c0.1-0.1,0.3-0.2,0.5-0.2
		s0.4,0.1,0.5,0.2c0.1,0.1,0.2,0.3,0.2,0.5s-0.1,0.4-0.2,0.5C147.4,903.3,147.2,903.4,147,903.4z M146.5,909.4v-4.7h1.1v4.7H146.5z"
		/>
	<path class="st1" d="M150.1,909.4H149v-4.7h1.1v0.4c0.3-0.4,0.8-0.6,1.3-0.6c0.6,0,1.1,0.2,1.4,0.6c0.2,0.3,0.3,0.7,0.3,1.3v2.9
		h-1.1v-2.6c0-0.3,0-0.5-0.1-0.7c0-0.2-0.1-0.3-0.2-0.4c-0.1-0.1-0.2-0.1-0.3-0.1c-0.1,0-0.2,0-0.3,0c-0.2,0-0.3,0-0.4,0
		c-0.1,0-0.2,0.1-0.3,0.2c-0.1,0.1-0.2,0.3-0.2,0.5c-0.1,0.2-0.1,0.5-0.1,0.9V909.4z"/>
</g>
</svg>
