<?xml version="1.0" encoding="utf-8"?>
<!-- Generator: Adobe Illustrator 24.3.0, SVG Export Plug-In . SVG Version: 6.00 Build 0)  -->
<svg version="1.1" id="Layer_1" xmlns="http://www.w3.org/2000/svg" xmlns:xlink="http://www.w3.org/1999/xlink" x="0px" y="0px"
	 viewBox="0 0 396.7 955" style="enable-background:new 0 0 396.7 955;" xml:space="preserve">
<style type="text/css">
	.st0{fill:#AD3A3A;}
	.st1{fill:#222222;}
</style>
<polygon class="st0" points="90.3,789.8 94,789.8 94,774.8 98,774.8 98,771.3 86.3,771.3 86.3,774.8 90.3,774.8 "/>
<polygon class="st0" points="103,781.7 109.5,781.7 109.5,789.8 113.2,789.8 113.2,771.3 109.5,771.3 109.5,778.2 103,778.2 
	103,771.3 99.3,771.3 99.3,789.8 103,789.8 "/>
<polygon class="st0" points="127,786.3 120.1,786.3 120.1,781.8 126.8,781.8 126.8,778.2 120.1,778.2 120.1,774.8 127,774.8 
	127,771.3 116.4,771.3 116.4,789.8 127,789.8 "/>
<polygon class="st0" points="150.4,771.3 146.4,771.3 141.9,781.3 137.3,771.3 133.4,771.3 141.9,790.6 "/>
<polygon class="st0" points="162,786.3 155,786.3 155,781.8 161.8,781.8 161.8,778.2 155,778.2 155,774.8 162,774.8 162,771.3 
	151.4,771.3 151.4,789.8 162,789.8 "/>
<path class="st0" d="M168.2,783l4.7,6.8h4.5l-5.6-7.7c1-0.3,1.8-0.9,2.4-1.7c0.8-0.9,1.2-2.1,1.2-3.5c0-2-0.8-3.5-2.3-4.5
	c-1.1-0.7-2.8-1.1-4.9-1.1h-3.6v18.5h3.7L168.2,783L168.2,783z M171.5,778.1c-0.2,0.3-0.4,0.5-0.6,0.7c-0.3,0.2-0.6,0.3-0.9,0.4
	c-0.3,0.1-0.6,0.1-0.9,0.2c-0.1,0-0.4,0-0.6,0h-0.3v-4.6h0.4c2.8,0,3.1,1.3,3.1,2.2C171.7,777.4,171.6,777.8,171.5,778.1z"/>
<polygon class="st0" points="182.1,789.8 185.8,789.8 185.8,781.9 191.9,771.3 187.7,771.3 184,777.8 180.2,771.3 176,771.3 
	182.1,781.9 "/>
<polygon class="st0" points="209.4,786.3 202.4,786.3 202.4,781.8 209.2,781.8 209.2,778.2 202.4,778.2 202.4,774.8 209.4,774.8 
	209.4,771.3 198.8,771.3 198.8,789.8 209.4,789.8 "/>
<path class="st0" d="M210.8,784.1v0.4c0.2,1.4,0.7,2.7,1.6,3.7c1.1,1.3,2.7,1.9,4.5,1.9s3.2-0.6,4.4-1.7c1.1-1.1,1.7-2.6,1.7-4.4
	c0-2.5-1.5-4.4-4.4-5.6l-1.8-0.7c-1.6-0.6-1.6-1.4-1.6-1.7c0-0.5,0.2-0.8,0.5-1.1s0.8-0.5,1.5-0.5c0.6,0,1.1,0.2,1.6,0.5
	c0.3,0.3,0.5,0.6,0.7,0.9l0.2,0.5l3-1.8l-0.2-0.4c-0.4-0.7-0.8-1.4-1.5-1.9c-1-0.9-2.3-1.3-3.8-1.3c-1.7,0-3.1,0.5-4.1,1.5
	s-1.5,2.2-1.5,3.6c0,2.2,1.3,3.8,3.9,4.9l1.7,0.7c0.7,0.3,1.3,0.6,1.7,1s0.5,0.9,0.5,1.5c0,0.7-0.2,1.3-0.7,1.8
	c-0.4,0.4-1,0.7-1.7,0.7c-0.8,0-1.4-0.3-1.9-0.9c-0.4-0.6-0.6-1.2-0.6-1.9v-0.6L210.8,784.1z"/>
<path class="st0" d="M224.3,784.1v0.4c0.2,1.4,0.7,2.7,1.6,3.7c1.1,1.3,2.7,1.9,4.5,1.9s3.2-0.6,4.4-1.7c1.1-1.1,1.7-2.6,1.7-4.4
	c0-2.5-1.5-4.4-4.4-5.6l-1.8-0.7c-1.6-0.6-1.6-1.4-1.6-1.7c0-0.5,0.2-0.8,0.5-1.1s0.8-0.5,1.5-0.5c0.6,0,1.1,0.2,1.6,0.5
	c0.3,0.3,0.5,0.6,0.7,0.9l0.2,0.5l3.1-1.8l-0.2-0.4c-0.4-0.7-0.8-1.4-1.5-1.9c-1-0.9-2.3-1.3-3.8-1.3c-1.7,0-3.1,0.5-4.1,1.5
	s-1.5,2.2-1.5,3.6c0,2.2,1.3,3.8,3.9,4.9l1.7,0.7c0.7,0.3,1.3,0.6,1.7,1s0.5,0.9,0.5,1.5c0,0.7-0.2,1.3-0.7,1.8
	c-0.5,0.4-1,0.7-1.7,0.7c-0.8,0-1.4-0.3-1.9-0.9c-0.4-0.6-0.6-1.2-0.6-1.9v-0.6L224.3,784.1z"/>
<polygon class="st0" points="249.6,786.3 242.6,786.3 242.6,781.8 249.4,781.8 249.4,778.2 242.6,778.2 242.6,774.8 249.6,774.8 
	249.6,771.3 239,771.3 239,789.8 249.6,789.8 "/>
<polygon class="st0" points="255.7,779.3 268.5,790.4 268.5,771.3 264.8,771.3 264.8,781.9 252.1,770.7 252.1,789.8 255.8,789.8 "/>
<path class="st0" d="M280.3,790.1c1.8,0,3.5-0.5,5.1-1.4l0.2-0.1V784l-0.8,0.8c-1.4,1.3-2.8,1.9-4.4,1.9c-1.7,0-3.1-0.6-4.2-1.7
	c-1.1-1.2-1.7-2.6-1.7-4.3c0-1.8,0.5-3.3,1.6-4.5c1.1-1.1,2.5-1.7,4.2-1.7c1.6,0,3.1,0.6,4.4,1.8l0.8,0.7v-4.5l-0.2-0.1
	c-1.4-0.9-3-1.3-4.9-1.3c-2.7,0-5,0.8-6.7,2.4c-2,1.9-3,4.3-3,7.2c0,2.8,1,5.1,3,7C275.6,789.3,277.8,790.1,280.3,790.1z"/>
<polygon class="st0" points="298.6,786.3 291.6,786.3 291.6,781.8 298.4,781.8 298.4,778.2 291.6,778.2 291.6,774.8 298.6,774.8 
	298.6,771.3 287.9,771.3 287.9,789.8 298.6,789.8 "/>
<path class="st0" d="M103.7,808.6c1.8-1.8,2.7-4.1,2.7-6.8s-0.9-5-2.7-6.8c-1.8-1.8-4.1-2.7-6.9-2.7c-2.7,0-5,0.9-6.9,2.7
	c-1.8,1.8-2.7,4.1-2.7,6.8s0.9,5,2.7,6.8c1.8,1.8,4.1,2.7,6.9,2.7S101.9,810.4,103.7,808.6z M96.9,795.6c1.7,0,3.1,0.6,4.3,1.7
	c1.1,1.2,1.7,2.6,1.7,4.4c0,1.8-0.5,3.3-1.7,4.4c-1.1,1.2-2.5,1.7-4.3,1.7c-1.7,0-3.1-0.6-4.3-1.7l0,0c-1.1-1.1-1.7-2.6-1.7-4.4
	c0-1.8,0.5-3.3,1.7-4.4C93.7,796.2,95.1,795.6,96.9,795.6z"/>
<polygon class="st0" points="118.6,796 118.6,792.5 108.8,792.5 108.8,811 112.5,811 112.5,803 118.4,803 118.4,799.4 112.5,799.4 
	112.5,796 "/>
<rect x="126.7" y="792.5" class="st0" width="3.7" height="18.5"/>
<polygon class="st0" points="150,792.5 146.3,792.5 146.3,803.1 133.6,791.9 133.6,811 137.3,811 137.3,800.5 150,811.6 "/>
<path class="st0" d="M154.5,793.7c-1,1-1.5,2.2-1.5,3.6c0,2.2,1.3,3.8,3.9,4.9l1.7,0.7c0.7,0.3,1.3,0.6,1.7,1s0.5,0.9,0.5,1.5
	c0,0.7-0.2,1.3-0.7,1.8c-0.4,0.4-1,0.7-1.7,0.7c-0.8,0-1.4-0.3-1.9-0.9c-0.4-0.6-0.6-1.2-0.6-1.9v-0.6l-3.7,0.8v0.4
	c0.2,1.4,0.7,2.7,1.6,3.7c1.1,1.3,2.7,1.9,4.5,1.9s3.2-0.6,4.4-1.7c1.1-1.1,1.7-2.6,1.7-4.4c0-2.5-1.5-4.4-4.4-5.6l-1.8-0.7
	c-1.6-0.6-1.6-1.4-1.6-1.7c0-0.5,0.2-0.8,0.5-1.1s0.8-0.5,1.5-0.5c0.6,0,1.1,0.2,1.6,0.5c0.3,0.3,0.5,0.6,0.7,0.9l0.2,0.5l3.1-1.8
	l-0.2-0.4c-0.4-0.7-0.8-1.4-1.5-1.9c-1-0.9-2.3-1.3-3.8-1.3C156.8,792.2,155.5,792.7,154.5,793.7z"/>
<polygon class="st0" points="164.9,796 168.9,796 168.9,811 172.6,811 172.6,796 176.6,796 176.6,792.5 164.9,792.5 "/>
<rect x="178" y="792.5" class="st0" width="3.7" height="18.5"/>
<polygon class="st0" points="184.8,791.9 184.8,811 188.5,811 188.5,800.5 201.2,811.6 201.2,792.5 197.5,792.5 197.6,803.1 "/>
<path class="st0" d="M213.1,795.6c1.6,0,3.1,0.6,4.4,1.8l0.8,0.7v-4.5l-0.2-0.1c-1.4-0.9-3-1.3-4.9-1.3c-2.7,0-5,0.8-6.7,2.4
	c-2,1.9-3,4.3-3,7.2c0,2.8,1,5.1,3,7c1.8,1.7,4,2.5,6.5,2.5c1.8,0,3.5-0.5,5.1-1.4l0.2-0.1v-4.6l-0.8,0.8c-1.3,1.3-2.8,1.9-4.4,1.9
	c-1.7,0-3.1-0.6-4.2-1.7c-1.1-1.2-1.7-2.6-1.7-4.3c0-1.8,0.5-3.3,1.6-4.5C210,796.2,211.4,795.6,213.1,795.6z"/>
<polygon class="st0" points="230.5,792.5 218.8,792.5 218.8,796 222.9,796 222.9,811 226.5,811 226.5,796 230.5,796 "/>
<rect x="238" y="792.5" class="st0" width="3.7" height="18.5"/>
<path class="st0" d="M244.6,797.3c0,2.2,1.3,3.8,3.9,4.9l1.7,0.7c0.7,0.3,1.3,0.6,1.7,1s0.5,0.9,0.5,1.5c0,0.7-0.2,1.3-0.7,1.8
	s-1,0.7-1.7,0.7c-0.8,0-1.4-0.3-1.9-0.9c-0.4-0.6-0.6-1.2-0.6-1.9v-0.6l-3.7,0.8v0.4c0.2,1.4,0.7,2.7,1.6,3.7
	c1.1,1.3,2.7,1.9,4.5,1.9s3.2-0.6,4.4-1.7c1.1-1.1,1.7-2.6,1.7-4.4c0-2.5-1.5-4.4-4.4-5.6l-1.8-0.7c-1.6-0.6-1.6-1.4-1.6-1.7
	c0-0.5,0.2-0.8,0.5-1.1s0.8-0.5,1.5-0.5c0.6,0,1.1,0.2,1.6,0.5c0.3,0.3,0.5,0.6,0.7,0.9l0.2,0.5l3-1.8l-0.2-0.4
	c-0.4-0.7-0.8-1.4-1.5-1.9c-1-0.9-2.3-1.3-3.8-1.3c-1.7,0-3.1,0.5-4.1,1.5C245.1,794.7,244.6,795.9,244.6,797.3z"/>
<polygon class="st0" points="270.4,811 270.4,796 274.4,796 274.4,792.5 262.7,792.5 262.7,796 266.7,796 266.7,811 "/>
<polygon class="st0" points="286,799.4 279.4,799.4 279.4,792.5 275.8,792.5 275.8,811 279.4,811 279.4,802.9 286,802.9 286,811 
	289.6,811 289.6,792.5 286,792.5 "/>
<path class="st0" d="M290.5,811h4l1.9-4.2h6.8l1.8,4.2h4l-9.1-19.1L290.5,811z M299.9,799.4l1.8,3.9H298L299.9,799.4z"/>
<polygon class="st0" points="308.2,792.5 308.2,796 312.2,796 312.2,811 315.9,811 315.9,796 319.9,796 319.9,792.5 "/>
<rect x="88.1" y="813.7" class="st1" width="3.7" height="18.5"/>
<polygon class="st1" points="97.2,832.2 100.8,832.2 100.8,817.2 104.8,817.2 104.8,813.7 93.1,813.7 93.1,817.2 97.2,817.2 "/>
<polygon points="105.9,821.7 108.7,821.7 109.2,813.7 105.3,813.7 "/>
<path class="st1" d="M116.6,832.5c1.8,0,3.2-0.6,4.4-1.7c1.1-1.1,1.7-2.6,1.7-4.4c0-2.5-1.5-4.4-4.4-5.6l-1.8-0.7
	c-1.6-0.6-1.6-1.4-1.6-1.7c0-0.5,0.2-0.8,0.5-1.1s0.8-0.5,1.5-0.5c0.6,0,1.1,0.2,1.6,0.5c0.3,0.3,0.5,0.6,0.7,0.9l0.2,0.5l3.1-1.8
	l-0.2-0.4c-0.4-0.7-0.8-1.4-1.5-1.9c-1-0.9-2.3-1.3-3.8-1.3c-1.7,0-3.1,0.5-4.1,1.5s-1.5,2.2-1.5,3.6c0,2.2,1.3,3.8,3.9,4.9l1.7,0.7
	c0.7,0.3,1.3,0.6,1.7,1c0.4,0.4,0.5,0.9,0.5,1.5c0,0.7-0.2,1.3-0.7,1.8c-0.4,0.4-1,0.7-1.7,0.7c-0.8,0-1.4-0.3-1.9-0.9
	c-0.4-0.6-0.6-1.2-0.6-1.9v-0.6l-3.7,0.8v0.4c0.2,1.4,0.7,2.7,1.6,3.7C113.2,831.9,114.8,832.5,116.6,832.5z"/>
<polygon class="st1" points="134.9,824.2 140.8,824.2 140.8,820.6 134.9,820.6 134.9,817.2 141,817.2 141,813.7 131.2,813.7 
	131.2,832.2 134.9,832.2 "/>
<path class="st1" d="M161.4,823c0-2.7-0.9-5-2.7-6.8s-4.1-2.7-6.9-2.7c-2.7,0-5,0.9-6.9,2.7c-1.8,1.8-2.7,4.1-2.7,6.8s0.9,5,2.7,6.8
	s4.1,2.7,6.9,2.7s5-0.9,6.9-2.7C160.5,828,161.4,825.7,161.4,823z M151.8,829.1c-1.7,0-3.1-0.6-4.3-1.7l0,0
	c-1.1-1.1-1.7-2.6-1.7-4.4c0-1.8,0.5-3.3,1.7-4.4c1.1-1.1,2.5-1.7,4.3-1.7c1.7,0,3.1,0.6,4.3,1.7c1.1,1.2,1.7,2.6,1.7,4.4
	c0,1.8-0.5,3.3-1.7,4.4C154.9,828.5,153.5,829.1,151.8,829.1z"/>
<polygon class="st1" points="172.6,828.7 167.4,828.7 167.4,813.7 163.7,813.7 163.7,832.2 172.6,832.2 "/>
<polygon class="st1" points="174.1,813.7 174.1,832.2 182.9,832.2 182.9,828.7 177.8,828.7 177.8,813.7 "/>
<path class="st1" d="M200,829.8c1.8-1.8,2.7-4.1,2.7-6.8s-0.9-5-2.7-6.8s-4.1-2.7-6.9-2.7c-2.7,0-5,0.9-6.9,2.7
	c-1.8,1.8-2.7,4.1-2.7,6.8s0.9,5,2.7,6.8s4.1,2.7,6.9,2.7S198.2,831.6,200,829.8z M193.2,816.8c1.7,0,3.1,0.6,4.3,1.7
	c1.1,1.2,1.7,2.6,1.7,4.4c0,1.8-0.5,3.3-1.7,4.4c-1.1,1.2-2.5,1.7-4.3,1.7c-1.7,0-3.1-0.6-4.3-1.7l0,0c-1.1-1.1-1.7-2.6-1.7-4.4
	c0-1.8,0.5-3.3,1.7-4.4C190,817.4,191.4,816.8,193.2,816.8z"/>
<polygon class="st1" points="228.9,813.7 224.9,813.7 220.4,823.7 215.9,812.9 211.1,823.8 206.9,813.7 202.9,813.7 211.1,832.9 
	215.7,822.7 220.3,832.9 "/>
<polygon class="st1" points="240.5,817.2 240.5,813.7 229.8,813.7 229.8,832.2 240.5,832.2 240.5,828.7 233.5,828.7 233.5,824.2 
	240.3,824.2 240.3,820.6 233.5,820.6 233.5,817.2 "/>
<path class="st1" d="M253.9,815.5c-1-0.7-2-1.2-3.1-1.4c-1-0.2-2.3-0.4-3.7-0.4h-4.2v18.5h4.1c1.5,0,2.7-0.1,3.6-0.4
	c1-0.3,2.1-0.7,3.1-1.4c2.5-1.8,3.7-4.3,3.7-7.5c0-1.5-0.3-2.9-0.9-4.2C255.9,817.4,255,816.3,253.9,815.5z M253.8,823
	c0,2-0.7,3.5-2.2,4.6c-1,0.8-2.5,1.1-4.3,1.1h-0.7v-11.5h0.7c1.9,0,3.4,0.4,4.4,1.1c0.6,0.5,1.2,1.1,1.6,1.9
	C253.6,821,253.8,821.9,253.8,823z"/>
<rect x="88.1" y="834.9" class="st1" width="3.7" height="18.5"/>
<polygon class="st1" points="111.3,834.9 107.7,834.9 107.7,845.5 95,834.3 95,853.4 98.7,853.4 98.6,842.9 111.3,854 "/>
<path class="st1" d="M128.2,839.9c-0.6-1.3-1.5-2.4-2.6-3.2c-1-0.7-2-1.2-3.1-1.4c-1-0.2-2.3-0.4-3.7-0.4h-4.2v18.5h4.1
	c1.5,0,2.7-0.1,3.6-0.4c1-0.3,2.1-0.7,3.1-1.4c2.5-1.8,3.7-4.3,3.7-7.5C129.1,842.6,128.8,841.2,128.2,839.9z M125.4,844.2
	c0,2-0.7,3.5-2.2,4.6c-1,0.8-2.5,1.1-4.3,1.1h-0.7v-11.5h0.7c1.9,0,3.4,0.4,4.4,1.1c0.6,0.5,1.2,1.1,1.6,1.9
	C125.2,842.2,125.4,843.1,125.4,844.2z"/>
<polygon class="st1" points="142.1,838.4 142.1,834.9 131.4,834.9 131.4,853.4 142.1,853.4 142.1,849.9 135.1,849.9 135.1,845.4 
	141.9,845.4 141.9,841.8 135.1,841.8 135.1,838.4 "/>
<path class="st1" d="M153,835.9c-1-0.7-2.4-1-4.1-1h-4.4v18.5h3.7v-7.1h0.7c1.9,0,3.4-0.5,4.6-1.5c1.2-1.1,1.9-2.5,1.9-4.2
	c0-0.9-0.2-1.8-0.6-2.6C154.4,837.1,153.8,836.4,153,835.9z M148.2,838.4h0.7c0.7,0,1.2,0.1,1.6,0.2c0.4,0.1,0.7,0.3,0.8,0.5
	c0.2,0.4,0.3,0.6,0.4,0.7c0.1,0.2,0.1,0.4,0.1,0.7c0,0.7-0.2,1.2-0.7,1.6c-0.5,0.4-1.2,0.6-2.2,0.6h-0.7L148.2,838.4L148.2,838.4z"
	/>
<polygon class="st1" points="167.8,838.4 167.8,834.9 157.2,834.9 157.2,853.4 167.8,853.4 167.8,849.9 160.8,849.9 160.8,845.4 
	167.6,845.4 167.6,841.8 160.8,841.8 160.8,838.4 "/>
<polygon class="st1" points="186.6,834.9 183,834.9 183,845.5 170.3,834.3 170.3,853.4 174,853.4 173.9,842.9 186.6,854 "/>
<path class="st1" d="M200.8,836.7c-1-0.7-2-1.2-3.1-1.4c-1-0.2-2.3-0.4-3.7-0.4h-4.2v18.5h4.1c1.5,0,2.7-0.1,3.6-0.4
	c1-0.3,2.1-0.7,3.1-1.4c2.5-1.8,3.7-4.3,3.7-7.5c0-1.5-0.3-2.9-0.9-4.2C202.8,838.6,202,837.5,200.8,836.7z M200.7,844.2
	c0,2-0.7,3.5-2.2,4.6c-1,0.8-2.5,1.1-4.3,1.1h-0.7v-11.5h0.7c1.9,0,3.4,0.4,4.4,1.1c0.6,0.5,1.2,1.1,1.6,1.9
	C200.5,842.2,200.7,843.1,200.7,844.2z"/>
<polygon class="st1" points="217.4,838.4 217.4,834.9 206.7,834.9 206.7,853.4 217.4,853.4 217.4,849.9 210.4,849.9 210.4,845.4 
	217.2,845.4 217.2,841.8 210.4,841.8 210.4,838.4 "/>
<polygon class="st1" points="232.6,845.5 219.9,834.3 219.9,853.4 223.5,853.4 223.5,842.9 236.2,854 236.2,834.9 232.6,834.9 "/>
<polygon class="st1" points="237.6,838.4 241.6,838.4 241.6,853.4 245.3,853.4 245.3,838.4 249.3,838.4 249.3,834.9 237.6,834.9 "/>
<polygon class="st1" points="254.3,834.9 250.7,834.9 250.7,853.4 259.5,853.4 259.5,849.9 254.3,849.9 "/>
<polygon class="st1" points="266.5,841.4 262.7,834.9 258.5,834.9 264.7,845.5 264.7,853.4 268.3,853.4 268.3,845.5 274.4,834.9 
	270.2,834.9 "/>
<path class="st0" d="M96.9,855.9c-2.7,0-5,0.9-6.9,2.7c-1.8,1.8-2.7,4.1-2.7,6.8s0.9,5,2.7,6.8c1.8,1.8,4.1,2.7,6.9,2.7
	s5-0.9,6.9-2.7c1.8-1.8,2.7-4.1,2.7-6.8s-0.9-5-2.7-6.8C101.9,856.8,99.6,855.9,96.9,855.9z M96.9,871.6c-1.7,0-3.1-0.6-4.3-1.7l0,0
	c-1.1-1.1-1.7-2.6-1.7-4.4c0-1.8,0.5-3.3,1.7-4.4c1.1-1.1,2.5-1.7,4.3-1.7c1.7,0,3.1,0.6,4.3,1.7c1.1,1.2,1.7,2.6,1.7,4.4
	c0,1.8-0.5,3.3-1.7,4.4C100,871,98.6,871.6,96.9,871.6z"/>
<polygon class="st0" points="108.8,874.7 112.5,874.7 112.5,866.7 118.4,866.7 118.4,863.1 112.5,863.1 112.5,859.7 118.6,859.7 
	118.6,856.2 108.8,856.2 "/>
<path class="st0" d="M136.4,865.3c0.8-0.9,1.2-2.1,1.2-3.5c0-2-0.8-3.5-2.3-4.5c-1.1-0.7-2.7-1.1-4.9-1.1h-3.6v18.5h3.7v-6.8
	l4.7,6.8h4.5L134,867C135,866.7,135.8,866.1,136.4,865.3z M133.2,863.6c-0.3,0.2-0.6,0.3-0.9,0.4c-0.3,0.1-0.6,0.1-0.9,0.2
	c-0.1,0-0.4,0-0.6,0h-0.3v-4.6h0.4c2.8,0,3.1,1.3,3.1,2.2c0,0.4-0.1,0.8-0.2,1.1C133.6,863.3,133.4,863.5,133.2,863.6z"/>
<polygon class="st0" points="140.8,874.7 151.4,874.7 151.4,871.2 144.4,871.2 144.4,866.7 151.2,866.7 151.2,863.1 144.4,863.1 
	144.4,859.7 151.4,859.7 151.4,856.2 140.8,856.2 "/>
<path class="st0" d="M151.6,874.7h4l1.9-4.2h6.8l1.8,4.2h4l-9.1-19.1L151.6,874.7z M161,863.1l1.8,3.9h-3.7L161,863.1z"/>
<path class="st0" d="M177.8,863.3l-1.8-0.7c-1.6-0.6-1.6-1.4-1.6-1.7c0-0.5,0.2-0.8,0.5-1.1s0.8-0.5,1.5-0.5c0.6,0,1.1,0.2,1.6,0.5
	c0.3,0.3,0.5,0.6,0.7,0.9l0.2,0.5l3.1-1.8l-0.2-0.4c-0.4-0.7-0.8-1.4-1.5-1.9c-1-0.9-2.3-1.3-3.8-1.3c-1.7,0-3.1,0.5-4.1,1.5
	s-1.5,2.2-1.5,3.6c0,2.2,1.3,3.8,3.9,4.9l1.7,0.7c0.7,0.3,1.3,0.6,1.7,1s0.5,0.9,0.5,1.5c0,0.7-0.2,1.3-0.7,1.8
	c-0.4,0.4-1,0.7-1.7,0.7c-0.8,0-1.4-0.3-1.9-0.9c-0.4-0.6-0.6-1.2-0.6-1.9v-0.6L170,869v0.4c0.2,1.4,0.7,2.7,1.6,3.7
	c1.1,1.3,2.7,1.9,4.5,1.9s3.2-0.6,4.4-1.7c1.1-1.1,1.7-2.6,1.7-4.4C182.3,866.4,180.8,864.5,177.8,863.3z"/>
<path class="st0" d="M193.4,855.9c-2.7,0-5,0.9-6.9,2.7c-1.8,1.8-2.7,4.1-2.7,6.8s0.9,5,2.7,6.8s4.1,2.7,6.9,2.7s5-0.9,6.9-2.7
	c1.8-1.8,2.7-4.1,2.7-6.8s-0.9-5-2.7-6.8C198.4,856.8,196.1,855.9,193.4,855.9z M193.4,871.6c-1.7,0-3.1-0.6-4.3-1.7l0,0
	c-1.1-1.1-1.7-2.6-1.7-4.4c0-1.8,0.5-3.3,1.7-4.4c1.1-1.1,2.5-1.7,4.3-1.7c1.7,0,3.1,0.6,4.3,1.7c1.1,1.2,1.7,2.6,1.7,4.4
	c0,1.8-0.5,3.3-1.7,4.4S195.1,871.6,193.4,871.6z"/>
<polygon class="st0" points="218.1,866.8 205.4,855.6 205.4,874.7 209,874.7 209,864.2 221.7,875.3 221.7,856.2 218.1,856.2 "/>
<g>
	<path class="st1" d="M93.6,887.8v1.3c-0.6-0.5-1.3-0.8-2-0.8c-0.8,0-1.4,0.3-1.9,0.8s-0.7,1.2-0.7,2s0.2,1.4,0.7,1.9
		s1.1,0.8,1.9,0.8c0.7,0,1.4-0.3,2-0.8v1.3c-0.6,0.4-1.3,0.5-2,0.5c-1,0-1.9-0.3-2.6-1c-0.8-0.7-1.2-1.6-1.2-2.7
		c0-1.2,0.4-2.1,1.2-2.8c0.7-0.6,1.5-0.9,2.6-0.9C92.5,887.2,93.1,887.4,93.6,887.8z"/>
	<path class="st1" d="M95.9,894.6h-1.1v-7.9h1.1v3.7c0.3-0.3,0.7-0.5,1.2-0.5c0.6,0,1,0.2,1.3,0.6c0.2,0.3,0.3,0.7,0.3,1.3v2.8h-1.1
		v-2.7c0-0.4-0.1-0.6-0.2-0.8s-0.3-0.2-0.6-0.2c-0.3,0-0.6,0.1-0.8,0.4c-0.1,0.2-0.2,0.6-0.2,1.1L95.9,894.6L95.9,894.6z"/>
	<path class="st1" d="M103.4,890.6V890h1.1v4.6h-1.1v-0.5c-0.4,0.4-0.8,0.6-1.4,0.6c-0.7,0-1.2-0.2-1.6-0.7s-0.6-1.1-0.6-1.7
		c0-0.7,0.2-1.3,0.7-1.7c0.4-0.4,0.9-0.7,1.6-0.7C102.6,889.9,103.1,890.1,103.4,890.6z M102.2,890.9c-0.4,0-0.7,0.1-0.9,0.4
		c-0.2,0.3-0.4,0.6-0.4,1s0.1,0.7,0.4,1c0.2,0.3,0.5,0.4,0.9,0.4s0.7-0.1,0.9-0.4c0.2-0.2,0.4-0.6,0.4-1.1s-0.1-0.8-0.4-1.1
		C102.9,891,102.6,890.9,102.2,890.9z"/>
	<path class="st1" d="M106.9,894.6h-1.1V890h1.1v0.4c0.1-0.2,0.3-0.3,0.4-0.4c0.2-0.1,0.4-0.2,0.7-0.2c0.3,0,0.6,0.1,0.8,0.2l-0.4,1
		c-0.2-0.1-0.4-0.2-0.5-0.2c-0.3,0-0.5,0.1-0.7,0.2c-0.2,0.2-0.3,0.6-0.3,1.1V894.6z"/>
	<path class="st1" d="M109.4,894.6v-7.9h1.1v7.9H109.4z"/>
	<path class="st1" d="M115,893.1l0.9,0.5c-0.2,0.4-0.5,0.6-0.8,0.8c-0.4,0.2-0.8,0.3-1.3,0.3c-0.6,0-1.1-0.2-1.5-0.6
		c-0.4-0.4-0.7-1-0.7-1.7c0-0.8,0.2-1.4,0.7-1.9c0.4-0.4,0.9-0.6,1.5-0.6s1.1,0.2,1.5,0.6c0.4,0.4,0.6,1.1,0.6,1.9v0.1h-3.3
		c0,0.4,0.2,0.7,0.4,0.9c0.2,0.2,0.5,0.3,0.8,0.3s0.5-0.1,0.7-0.2C114.8,893.4,114.9,893.3,115,893.1z M112.8,891.7h2.1
		c0-0.3-0.2-0.5-0.3-0.6c-0.2-0.2-0.4-0.3-0.7-0.3c-0.3,0-0.6,0.1-0.7,0.3C112.9,891.2,112.8,891.4,112.8,891.7z"/>
	<path class="st1" d="M119.9,890.7l-0.8,0.5c-0.2-0.3-0.4-0.4-0.7-0.4c-0.1,0-0.2,0-0.3,0.1c-0.1,0.1-0.1,0.1-0.1,0.2
		c0,0.1,0.1,0.2,0.2,0.3h0.1c0,0,0.1,0,0.1,0.1h0.1h0.1l0.5,0.3c0.3,0.2,0.5,0.3,0.6,0.4c0.2,0.2,0.3,0.5,0.3,0.8
		c0,0.4-0.1,0.8-0.4,1c-0.3,0.3-0.7,0.5-1.3,0.5c-0.4,0-0.7-0.1-1-0.3s-0.5-0.5-0.6-0.8l0.9-0.4c0.1,0.2,0.2,0.4,0.2,0.4
		c0.1,0.1,0.3,0.2,0.5,0.2s0.3-0.1,0.4-0.2c0.1-0.1,0.2-0.2,0.2-0.4c0-0.1,0-0.3-0.1-0.3c-0.1-0.1-0.3-0.2-0.5-0.3l-0.4-0.2
		c-0.3-0.1-0.5-0.3-0.6-0.4c-0.2-0.2-0.3-0.5-0.3-0.8c0-0.4,0.1-0.7,0.4-1s0.6-0.4,1.1-0.4c0.3,0,0.6,0.1,0.8,0.2
		C119.5,890.3,119.7,890.5,119.9,890.7z"/>
	<path class="st1" d="M123.7,894.6v-7.2h1.5c0.6,0,1.1,0,1.5,0.1s0.8,0.3,1.2,0.6s0.8,0.8,1,1.3s0.4,1.1,0.4,1.7
		c0,1.3-0.5,2.2-1.5,2.9c-0.4,0.3-0.8,0.5-1.2,0.6c-0.4,0.1-0.9,0.1-1.5,0.1L123.7,894.6L123.7,894.6z M125.3,888.4h-0.5v5.2h0.5
		c0.8,0,1.5-0.2,1.9-0.5c0.7-0.5,1-1.2,1-2.1c0-0.5-0.1-0.9-0.3-1.2c-0.2-0.4-0.4-0.6-0.7-0.9C126.7,888.6,126.1,888.4,125.3,888.4z
		"/>
	<path class="st1" d="M133.8,890.6V890h1.1v4.6h-1.1v-0.5c-0.4,0.4-0.8,0.6-1.4,0.6c-0.7,0-1.2-0.2-1.6-0.7
		c-0.4-0.5-0.6-1.1-0.6-1.7c0-0.7,0.2-1.3,0.7-1.7c0.4-0.4,0.9-0.7,1.6-0.7C133,889.9,133.5,890.1,133.8,890.6z M132.6,890.9
		c-0.4,0-0.7,0.1-0.9,0.4c-0.2,0.3-0.4,0.6-0.4,1s0.1,0.7,0.4,1c0.2,0.3,0.5,0.4,0.9,0.4s0.7-0.1,0.9-0.4c0.2-0.2,0.4-0.6,0.4-1.1
		s-0.1-0.8-0.4-1.1C133.3,891,133,890.9,132.6,890.9z"/>
	<path class="st1" d="M137.3,894.6h-1.1V890h1.1v0.4c0.1-0.2,0.3-0.3,0.4-0.4c0.2-0.1,0.4-0.2,0.7-0.2s0.6,0.1,0.8,0.2l-0.4,1
		c-0.2-0.1-0.4-0.2-0.5-0.2c-0.3,0-0.5,0.1-0.7,0.2c-0.2,0.2-0.3,0.6-0.3,1.1V894.6z"/>
	<path class="st1" d="M141.6,894.9l-2.4-4.9h1.2l1.2,2.6l1.3-3l1.3,3l1.2-2.6h1.2l-2.4,4.9l-1.3-2.9L141.6,894.9z"/>
	<path class="st1" d="M147.8,888.8c-0.2,0-0.4-0.1-0.5-0.2c-0.1-0.1-0.2-0.3-0.2-0.5s0.1-0.4,0.2-0.5c0.1-0.1,0.3-0.2,0.5-0.2
		s0.4,0.1,0.5,0.2c0.1,0.1,0.2,0.3,0.2,0.5s-0.1,0.4-0.2,0.5C148.2,888.8,148,888.8,147.8,888.8z M147.3,894.6V890h1.1v4.6H147.3z"
		/>
	<path class="st1" d="M150.7,894.6h-1.1V890h1.1v0.4c0.3-0.4,0.7-0.5,1.2-0.5c0.6,0,1,0.2,1.3,0.6c0.2,0.3,0.3,0.7,0.3,1.3v2.8h-1.1
		v-2.5c0-0.3,0-0.5-0.1-0.7c0-0.2-0.1-0.3-0.2-0.4c-0.1-0.1-0.2-0.1-0.2-0.1c-0.1,0-0.2,0-0.3,0c-0.2,0-0.3,0-0.4,0
		c-0.1,0-0.2,0.1-0.3,0.2c-0.1,0.1-0.2,0.2-0.2,0.5c-0.1,0.2-0.1,0.5-0.1,0.9v2.1H150.7z"/>
</g>
</svg>
