<?xml version="1.0" encoding="utf-8"?>
<!-- Generator: Adobe Illustrator 28.0.0, SVG Export Plug-In . SVG Version: 6.00 Build 0)  -->
<svg version="1.1" id="Layer_1" xmlns="http://www.w3.org/2000/svg" xmlns:xlink="http://www.w3.org/1999/xlink" x="0px" y="0px"
	 viewBox="0 0 800 800" style="enable-background:new 0 0 800 800;" xml:space="preserve">
<g id="_x32_069a460dcf28295e231f3111e03585e">
	<path d="M357.1,342.6l29,90.8h-94.6l28.5-90.8c6.6-21.9,12.1-47.6,17.5-68.9h1.1C344,295,350,320.2,357.1,342.6z M786.1,142.6
		v514.8c0,70.8-58,128.7-128.7,128.7H142.6c-70.8,0-128.7-58-128.7-128.7V142.6c0-70.8,57.9-128.7,128.7-128.7h514.8
		C728.1,13.9,786.1,71.9,786.1,142.6z M503.1,588.7L383.4,220h-85.9L179.3,588.7h69.5l31.8-104.4h117.1L431,588.7H503.1z
		 M616.9,322.3H549v266.4h67.9V322.3z M620.7,247.9c-0.6-20.8-14.8-36.7-37.7-36.7c-22.4,0-37.7,15.8-37.7,36.7
		c0,20.3,14.8,36.1,37.2,36.1C605.9,284.1,620.7,268.2,620.7,247.9z"/>
</g>
</svg>
