<svg xmlns="http://www.w3.org/2000/svg" xmlns:xlink="http://www.w3.org/1999/xlink" viewBox="0 0 108 108"><style type="text/css">.st0{fill:#f7f5e9;}</style><polygon class="st0" points="74.3,27.5 84.7,46 89.2,32.6 92.4,33.6 85.4,54.6 75.1,35.9 70.5,49.6 67.3,48.6 "/><polygon class="st0" points="67.3,59.5 66.2,62.7 57.8,59.8 55.5,66.9 63.9,69.7 62.8,72.9 51,68.9 58.2,47.4 69.9,51.3 68.9,54.4 60.5,51.6 58.8,56.6 "/><polygon class="st0" points="44.5,17.5 45.6,33 55.7,21.3 59.3,22.5 43.1,40.4 41,16.4 "/><rect x="23.4" y="24.1" transform="matrix(0.3169 -0.9485 0.9485 0.3169 -0.9789 50.282)" class="st0" width="22.1" height="3.5"/><polygon class="st0" points="32,38.6 32.8,52.8 42.4,42.1 43.8,56.5 53,45.6 56.4,46.8 40.6,65.4 39.4,51.1 29.9,61.8 28.4,37.4 "/><path class="st0" d="M23.8,74.6c-1,0.4-2.2,0.5-3.4,0.1c-1-0.3-1.8-0.9-2.3-1.7c-0.5-0.7-0.8-1.7-0.8-2.7l0.1-0.5l2.8-0.4l-0.1,0.9c-0.1,0.5,0,1,0.2,1.4c0.2,0.3,0.5,0.5,0.9,0.6c0.5,0.2,0.9,0.2,1.3,0s0.6-0.5,0.7-0.9c0.1-0.3,0.1-0.6,0-1s-0.4-0.7-0.9-1.1l-1.2-1.1c-0.8-0.6-1.2-1.3-1.5-2.1s-0.3-1.5,0-2.3c0.3-1,1-1.7,1.9-2c0.9-0.4,1.9-0.4,3,0c0.8,0.3,1.4,0.7,1.9,1.2s0.8,1.2,0.9,2l0.1,0.6L27.3,66l-1.9,0.5l-0.5,0.1l-0.1-0.7c-0.1-0.4-0.2-0.7-0.4-0.9c-0.2-0.2-0.3-0.3-0.6-0.4c-0.3-0.1-0.6-0.1-0.9,0s-0.4,0.3-0.5,0.6c-0.1,0.2,0,0.4,0,0.7c0.1,0.3,0.4,0.6,0.7,0.9l1.4,1.2c0.7,0.6,1.2,1.3,1.4,2c0.3,0.8,0.3,1.5,0,2.3C25.6,73.4,24.9,74.1,23.8,74.6z"/><polygon class="st0" points="37,69.3 33.8,68.3 30.6,77.8 27.9,76.9 31.1,67.4 27.9,66.3 28.8,63.8 37.8,66.8 "/><path class="st0" d="M46.3,77.8c-0.5,1.6-1.4,2.7-2.5,3.2c-1.2,0.6-2.5,0.6-4.2,0c-1.6-0.5-2.7-1.4-3.3-2.6c-0.5-1.1-0.6-2.5-0.1-4.1l2.4-7.2l2.7,0.9l-2.4,7.2c-0.3,0.9-0.3,1.7-0.1,2.2s0.8,0.9,1.6,1.2c0.8,0.3,1.5,0.3,2,0s1-0.9,1.3-1.8l2.4-7.2l2.7,0.9L46.3,77.8z"/><rect x="53.9" y="79.6" transform="matrix(0.3169 -0.9485 0.9485 0.3169 -35.7073 112.5082)" class="st0" width="12.7" height="2.8"/><path class="st0" d="M76.2,83.7c-0.2-0.8-0.4-1.7-0.8-2.5c-0.4-0.7-1.1-1.5-1.8-2c-0.8-0.6-1.5-1.1-2.4-1.4s-1.9-0.4-2.7-0.4c-0.9,0-1.8,0.2-2.6,0.6c-0.9,0.4-1.6,0.8-2.2,1.5c-0.5,0.6-1,1.3-1.3,2.2c-0.3,0.8-0.3,1.7-0.3,2.5c0.2,0.8,0.4,1.7,0.8,2.5c0.5,0.8,1,1.6,1.7,2.1c0.8,0.6,1.5,1.1,2.4,1.4s1.9,0.4,2.7,0.4c0.9-0.1,1.9-0.3,2.6-0.7c0.9-0.4,1.6-0.8,2.2-1.5s1-1.4,1.3-2.2C76.2,85.5,76.2,84.6,76.2,83.7z M73.3,85.3c-0.2,0.6-0.4,1-0.8,1.4c-0.3,0.3-0.8,0.6-1.3,0.9c-0.5,0.2-1,0.3-1.6,0.4c-0.5,0.1-1.1,0-1.6-0.2s-1-0.4-1.4-0.8c-0.5-0.3-0.8-0.7-1-1.2c-0.3-0.4-0.5-0.9-0.5-1.5s0-1.1,0.2-1.6s0.4-1,0.8-1.4c0.3-0.3,0.8-0.6,1.3-0.9c0.5-0.2,1-0.3,1.6-0.4c0.5-0.1,1.1,0,1.6,0.2s1,0.4,1.4,0.8s0.8,0.7,1,1.2s0.3,1,0.5,1.5C73.5,84.3,73.4,84.8,73.3,85.3z"/><path class="st0" d="M63,23.7L46.3,41.4l3.6,1.2l4.5-4.9l7.2,2.4l0.7,6.6l3.6,1.2L63,23.7z M56.4,35.3l4.4-4.6l0.7,6.3L56.4,35.3z"/><path class="st0" d="M58.8,77.5c-0.1-1-0.5-1.9-1-2.6c-0.5-0.6-1.1-1.1-1.7-1.6c-0.7-0.5-1.8-0.9-3.5-1.5l-2.8-0.9l-4,12.1l3.3,1.1c1.4,0.5,2.4,0.7,3.2,0.7s1.5-0.1,2.2-0.3c1-0.3,1.7-0.9,2.4-1.5c0.7-0.8,1.2-1.6,1.6-2.5C58.8,79.5,58.9,78.4,58.8,77.5zM55.6,79.2c-0.2,0.7-0.5,1.3-0.9,1.7c-0.4,0.4-0.8,0.7-1.3,0.9C53,82,52.6,82,52.1,81.9c-0.3,0-2.9-0.8-2.9-0.8l2.4-7c0,0,2.5,1,2.8,1.2c0.5,0.3,0.7,0.6,0.9,0.9c0.3,0.4,0.5,0.9,0.6,1.2C56,77.9,55.9,78.5,55.6,79.2z"/><path class="st0" d="M83.5,59.4c-0.1-1-0.5-1.9-1-2.6c-0.4-0.6-1-1.1-1.7-1.6c-0.8-0.4-1.8-0.8-3.4-1.4l-4.8-1.6l-7.2,21.4l4.8,1.6c2.1,0.7,3.6,1,4.6,1.1c1.1,0.1,2-0.1,2.8-0.5s1.5-0.9,2.1-1.6s0.9-1.5,1.2-2.3c0.5-1.5,0.5-2.8,0-4.1c-0.3-0.9-0.7-1.6-1.4-2.1c0.6-0.1,1.2-0.4,1.7-0.8c0.9-0.6,1.5-1.5,1.9-2.7C83.5,61.2,83.6,60.3,83.5,59.4z M77.7,70.8c-0.2,0.6-0.5,1.1-0.8,1.5c-0.4,0.4-0.8,0.6-1.3,0.8c-0.4,0.2-0.8,0.2-1.4,0.1c-0.6-0.2-1.5-0.4-2.8-0.8l-1.5-0.5l2.2-6.7l1.5,0.5l0.7,0.2c0.8,0.3,1.5,0.5,1.9,0.7s0.6,0.4,0.9,0.7c0.3,0.3,0.6,0.9,0.8,1.5C78,69.4,77.9,70.1,77.7,70.8z M79.7,61.4c-0.3,1-0.9,1.7-1.6,1.9s-2,0.1-3.6-0.4L73,62.4l2-6.1l1.5,0.5c2.2,0.7,2.9,1.4,3.2,1.9C80.1,59.3,80.1,60.2,79.7,61.4z"/></svg>
