<?xml version="1.0" encoding="utf-8"?>
<!-- Generator: Adobe Illustrator 23.0.3, SVG Export Plug-In . SVG Version: 6.00 Build 0)  -->
<svg version="1.1" id="Слой_1" xmlns="http://www.w3.org/2000/svg" xmlns:xlink="http://www.w3.org/1999/xlink" x="0px" y="0px"
	 viewBox="0 0 58.8 58.8" style="enable-background:new 0 0 58.8 58.8;" xml:space="preserve">
<style type="text/css">
	.st0{fill:#FFFFFF;}
</style>
<path class="st0" d="M46.1,34.6v8.6L15.6,12.8h8.6c1.1,0,2-0.9,2-2l0,0c0-1.1-0.9-2-2-2H11.1c-0.1,0-0.3,0-0.4,0
	c-0.6,0-1.1,0.2-1.4,0.6c-0.4,0.4-0.6,0.9-0.6,1.4c0,0.1,0,0.3,0,0.4v13.1c0,1.1,0.9,2,2,2h0c1.1,0,2-0.9,2-2v-8.7l30.5,30.5h-8.7
	c-1.1,0-2,0.9-2,2l0,0c0,1.1,0.9,2,2,2h13.1c0.1,0,0.3,0,0.4,0c0.6,0,1.1-0.2,1.4-0.6c0.4-0.4,0.6-0.9,0.6-1.4c0-0.1,0-0.3,0-0.4
	V34.6c0-1.1-0.9-2-2-2S46.1,33.5,46.1,34.6z"/>
</svg>
