<?xml version="1.0" encoding="utf-8"?>
<!-- Generator: Adobe Illustrator 23.0.3, SVG Export Plug-In . SVG Version: 6.00 Build 0)  -->
<svg version="1.1" id="Слой_1" xmlns="http://www.w3.org/2000/svg" xmlns:xlink="http://www.w3.org/1999/xlink" x="0px" y="0px"
	 viewBox="0 0 742 398.6" style="enable-background:new 0 0 742 398.6;" xml:space="preserve">
<style type="text/css">
	.st0{fill:#D84C42;}
	.st1{fill:#333333;}
</style>
<circle class="st0" cx="30.8" cy="16.1" r="5.6"/>
<circle class="st0" cx="15.8" cy="16.1" r="5.6"/>
<circle class="st0" cx="475.8" cy="281.2" r="5.6"/>
<circle class="st0" cx="460.8" cy="281.2" r="5.6"/>
<polygon class="st0" points="64,66.2 73,66.2 73,20.1 87.7,20.1 87.7,11.4 49.3,11.4 49.3,20.1 64,20.1 "/>
<polygon class="st0" points="100.7,40.1 125.6,40.1 125.6,66.2 134.7,66.2 134.7,11.4 125.6,11.4 125.6,31.4 100.7,31.4 100.7,11.4 
	91.8,11.4 91.8,66.2 100.7,66.2 "/>
<polygon class="st0" points="174.6,57.7 153.3,57.7 153.3,40.5 174.6,40.5 174.6,32 153.3,32 153.3,19.8 174.6,19.8 174.6,11.4 
	144.4,11.4 144.4,66.2 174.6,66.2 "/>
<polygon class="st0" points="244,11.4 234.3,11.4 220,45.6 205.7,11.4 196,11.4 220,66.4 "/>
<polygon class="st0" points="276.2,57.7 255,57.7 255,40.5 276.2,40.5 276.2,32 255,32 255,19.8 276.2,19.8 276.2,11.4 246,11.4 
	246,66.2 276.2,66.2 "/>
<path class="st0" d="M292.8,42.9l17.8,23.3H322l-19.9-24.9c4.1-0.3,7.4-1.5,9.7-3.6c2.7-2.5,4-6.1,4-10.7c0-2.6-0.5-5.1-1.4-7.3
	s-2.3-4.1-4-5.4c-1.4-1.1-3-1.8-4.8-2.3c-1.7-0.4-4.4-0.6-8-0.6H284v54.8h8.8V42.9L292.8,42.9z M292.8,19.4h3.3
	c5.5,0,7.8,0.9,8.8,1.7c1.3,1.1,2,3.1,2,5.9c0,2.6-0.6,4.5-1.9,5.4c-0.9,0.7-3.3,1.6-8.9,1.6h-3.3V19.4z"/>
<polygon class="st0" points="334.4,66.2 343.3,66.2 343.3,41.4 362,11.4 351.6,11.4 338.9,32.6 326,11.4 315.6,11.4 334.4,41.4 "/>
<polygon class="st0" points="416.2,57.7 395,57.7 395,40.5 416.2,40.5 416.2,32 395,32 395,19.8 416.2,19.8 416.2,11.4 386,11.4 
	386,66.2 416.2,66.2 "/>
<path class="st0" d="M437.9,59.5c-2.3,0-4.1-0.7-5.6-2.1c-1.5-1.4-2.7-3.6-3.3-6.5l-0.4-1.7l-8.2,4l0.3,1.1c1,4.2,3.1,7.4,6.1,9.7
	c3,2.3,6.8,3.4,11.1,3.4c5.4,0,9.8-1.6,13.1-4.8c3.3-3.2,5-7.4,5-12.6c0-3.6-1-6.7-2.8-9.3c-1.9-2.6-4.6-4.7-8.2-6.2l-7.4-3.3
	c-2.2-1-3.8-2-4.8-3.2c-0.9-1.1-1.4-2.4-1.4-3.9c0-1.8,0.6-3.3,1.8-4.4c1.2-1.2,2.8-1.7,4.7-1.7c1.6,0,2.9,0.4,4.1,1.2
	c1.3,0.9,2.4,2.2,3.5,4l0.7,1.3l7.4-4.7l-0.6-1.1c-1.4-2.8-3.4-5-5.9-6.5c-2.5-1.4-5.5-2.2-8.8-2.2c-4.6,0-8.4,1.3-11.4,4
	c-3.1,2.7-4.6,6.1-4.6,10.2c0,3.5,0.9,6.5,2.8,9c1.8,2.5,4.6,4.5,8.3,6l6.3,2.7c2.5,1.1,4.3,2.4,5.5,3.9s1.7,3.2,1.7,5.2
	c0,2.5-0.8,4.4-2.4,6C442.8,58.7,440.6,59.5,437.9,59.5z"/>
<path class="st0" d="M475.3,59.5c-2.3,0-4.1-0.7-5.6-2.1c-1.5-1.4-2.7-3.6-3.3-6.5l-0.4-1.7l-8.2,4l0.3,1.1c1,4.2,3.1,7.4,6.1,9.7
	c3,2.3,6.8,3.4,11.1,3.4c5.4,0,9.8-1.6,13.1-4.8c3.3-3.2,5-7.4,5-12.6c0-3.6-1-6.7-2.8-9.3c-1.9-2.6-4.6-4.7-8.2-6.2l-7.4-3.3
	c-2.2-1-3.8-2-4.8-3.2c-0.9-1.1-1.4-2.4-1.4-3.9c0-1.8,0.6-3.3,1.8-4.4c1.2-1.2,2.8-1.7,4.7-1.7c1.6,0,2.9,0.4,4.1,1.2
	c1.3,0.9,2.4,2.2,3.5,4l0.7,1.3l7.4-4.7l-0.6-1.1c-1.4-2.8-3.4-5-5.9-6.5c-2.5-1.4-5.5-2.2-8.8-2.2c-4.6,0-8.4,1.3-11.4,4
	c-3.1,2.7-4.6,6.1-4.6,10.2c0,3.5,0.9,6.5,2.8,9c1.8,2.5,4.6,4.5,8.3,6l6.3,2.7c2.5,1.1,4.3,2.4,5.5,3.9s1.7,3.2,1.7,5.2
	c0,2.5-0.8,4.4-2.4,6C480.2,58.7,478.1,59.5,475.3,59.5z"/>
<polygon class="st0" points="529.1,57.7 507.8,57.7 507.8,40.5 529.1,40.5 529.1,32 507.8,32 507.8,19.8 529.1,19.8 529.1,11.4 
	498.8,11.4 498.8,66.2 529.1,66.2 "/>
<polygon class="st0" points="545.5,32.4 583.5,67.3 583.5,11.4 574.8,11.4 574.8,45.6 536.8,11.3 536.8,66.2 545.5,66.2 "/>
<polygon class="st1" points="445.7,231.9 483.7,266.9 483.7,211 475.1,211 475.1,245.2 437,210.9 437,265.8 445.7,265.8 "/>
<polygon class="st0" points="405.6,298.3 443.7,333.3 443.7,277.3 435,277.3 435,311.6 396.9,277.2 396.9,332.2 405.6,332.2 "/>
<polygon class="st1" points="301.3,231.9 339.4,266.9 339.4,211 330.7,211 330.7,245.2 292.6,210.9 292.6,265.8 301.3,265.8 "/>
<polygon class="st1" points="79.9,231.9 118,266.9 118,211 109.3,211 109.3,245.2 71.2,210.9 71.2,265.8 79.9,265.8 "/>
<polygon class="st0" points="350.4,98 388.5,132.9 388.5,77 379.8,77 379.8,111.2 341.7,76.9 341.7,131.8 350.4,131.8 "/>
<polygon class="st0" points="201,98.1 239.1,133 239.1,77.1 230.4,77.1 230.4,111.3 192.3,77 192.3,131.9 201,131.9 "/>
<path class="st0" d="M601.1,62.5c2.4,1.6,5,2.9,7.7,3.8s5.6,1.3,8.5,1.3c3.3,0,6.6-0.5,9.7-1.5c3.1-1,6-2.5,8.7-4.4l0.6-0.4V48.6
	l-2.4,2.8c-2.2,2.6-4.7,4.5-7.3,5.8s-5.5,1.9-8.6,1.9c-3.3,0-6.4-0.8-9.2-2.2c-2.8-1.5-5.3-3.6-7.2-6.4c-1.1-1.6-1.9-3.3-2.5-5.2
	s-0.8-4-0.8-6.3c0-2.9,0.5-5.6,1.4-7.9c0.9-2.4,2.3-4.5,4.2-6.5c1.8-1.8,3.9-3.3,6.4-4.3c2.4-1,5-1.6,7.5-1.6c3.2,0,6.1,0.6,8.8,1.8
	c2.6,1.2,5.2,3.1,7.5,5.7l2.4,2.6V16.4l-0.6-0.4c-2.8-2-5.8-3.5-8.7-4.4c-2.9-1-6-1.4-9.2-1.4c-4,0-7.7,0.7-11.1,2
	c-3.4,1.3-6.5,3.4-9.3,6c-2.9,2.8-5,6-6.4,9.4s-2.1,7.3-2.1,11.5c0,4.8,1.1,9.3,3.2,13.3C594.1,56.4,597.1,59.8,601.1,62.5z"/>
<polygon class="st0" points="674.2,57.7 652.9,57.7 652.9,40.5 674.2,40.5 674.2,32 652.9,32 652.9,19.8 674.2,19.8 674.2,11.4 
	644,11.4 644,66.2 674.2,66.2 "/>
<path class="st0" d="M81.7,133.3c3.8,0,7.6-0.7,11.2-2.2c3.6-1.4,6.8-3.5,9.5-6.2c2.8-2.7,4.9-5.8,6.3-9.2c1.4-3.4,2.2-7.2,2.2-11.1
	s-0.7-7.6-2.2-11.1c-1.4-3.5-3.6-6.6-6.3-9.3c-2.7-2.7-5.9-4.7-9.5-6.2c-7.1-2.9-15.2-2.9-22.4,0c-3.6,1.4-6.8,3.5-9.5,6.2
	c-2.8,2.7-4.9,5.8-6.4,9.3s-2.2,7.2-2.2,11.1s0.7,7.6,2.2,11c1.5,3.5,3.6,6.6,6.4,9.3c2.7,2.7,5.9,4.8,9.5,6.2
	C74.1,132.5,77.9,133.3,81.7,133.3z M81.7,84.4c2.7,0,5.2,0.5,7.6,1.5s4.6,2.5,6.5,4.4s3.3,4.1,4.3,6.5c1,2.5,1.5,5.1,1.5,7.8
	c0,2.7-0.5,5.3-1.5,7.7c-1,2.4-2.5,4.6-4.4,6.5s-4.1,3.4-6.5,4.4s-4.9,1.5-7.6,1.5s-5.2-0.5-7.6-1.5s-4.6-2.5-6.5-4.4
	s-3.4-4.1-4.4-6.5s-1.5-5-1.5-7.6c0-2.7,0.5-5.3,1.5-7.8c1-2.4,2.5-4.6,4.4-6.6c1.9-1.9,4-3.4,6.4-4.3C76.4,84.9,79,84.4,81.7,84.4z
	"/>
<polygon class="st0" points="127.2,106.2 148.5,106.2 148.5,97.6 127.2,97.6 127.2,85.5 148.5,85.5 148.5,77 118.2,77 118.2,131.9 
	127.2,131.9 "/>
<rect x="176.7" y="77" class="st0" width="9" height="54.8"/>
<path class="st0" d="M263.1,75.8c-4.6,0-8.4,1.3-11.4,4c-3.1,2.7-4.6,6.1-4.6,10.2c0,3.5,0.9,6.5,2.8,9c1.8,2.5,4.6,4.5,8.3,6
	l6.3,2.7c2.5,1.1,4.3,2.4,5.5,3.9s1.7,3.2,1.7,5.2c0,2.5-0.8,4.4-2.4,6c-1.7,1.6-3.8,2.3-6.6,2.3c-2.3,0-4.1-0.7-5.6-2.1
	s-2.7-3.6-3.3-6.5l-0.4-1.7l-8.2,4l0.3,1.1c1,4.2,3.1,7.4,6.1,9.7s6.8,3.4,11.1,3.4c5.4,0,9.8-1.6,13.1-4.8c3.3-3.2,5-7.4,5-12.6
	c0-3.6-1-6.7-2.8-9.3c-1.9-2.6-4.6-4.7-8.2-6.2l-7.4-3.3c-2.2-1-3.8-2-4.8-3.2c-0.9-1.1-1.4-2.4-1.4-3.9c0-1.8,0.6-3.3,1.8-4.4
	c1.2-1.2,2.8-1.7,4.7-1.7c1.6,0,2.9,0.4,4.1,1.2c1.3,0.9,2.4,2.2,3.5,4l0.7,1.3l7.4-4.7l-0.6-1.1c-1.4-2.8-3.4-5-5.9-6.5
	C269.4,76.5,266.4,75.8,263.1,75.8z"/>
<polygon class="st0" points="295.3,131.9 304.4,131.9 304.4,85.7 319,85.7 319,77 280.6,77 280.6,85.7 295.3,85.7 "/>
<rect x="323.2" y="77" class="st0" width="9" height="54.8"/>
<path class="st0" d="M398.1,93.2c-1.4,3.4-2.1,7.3-2.1,11.5c0,4.8,1.1,9.3,3.2,13.3s5.2,7.5,9.1,10.2c2.4,1.6,5,2.9,7.7,3.8
	c2.7,0.9,5.6,1.3,8.5,1.3c3.3,0,6.6-0.5,9.7-1.5s6-2.5,8.7-4.4l0.6-0.4v-12.7l-2.4,2.8c-2.2,2.6-4.7,4.5-7.3,5.8
	c-2.6,1.3-5.5,1.9-8.6,1.9c-3.3,0-6.4-0.8-9.2-2.2c-2.8-1.5-5.3-3.6-7.2-6.4c-1.1-1.6-1.9-3.3-2.5-5.2c-0.6-1.9-0.8-4-0.8-6.3
	c0-2.9,0.5-5.6,1.4-7.9c0.9-2.4,2.3-4.5,4.2-6.5c1.8-1.8,3.9-3.3,6.4-4.3c2.4-1,5-1.6,7.5-1.6c3.2,0,6.1,0.6,8.8,1.8
	c2.6,1.2,5.2,3.1,7.5,5.7l2.4,2.6V82.1l-0.6-0.4c-2.8-2-5.8-3.5-8.7-4.4c-2.9-1-6-1.4-9.2-1.4c-4,0-7.7,0.7-11.1,2s-6.5,3.4-9.3,6
	C401.7,86.6,399.5,89.8,398.1,93.2z"/>
<polygon class="st0" points="484,77 445.6,77 445.6,85.7 460.3,85.7 460.3,131.9 469.3,131.9 469.3,85.7 484,85.7 "/>
<rect x="505.5" y="77" class="st0" width="9" height="54.8"/>
<path class="st0" d="M533.6,105l6.3,2.7c2.5,1.1,4.3,2.4,5.5,3.9s1.7,3.2,1.7,5.2c0,2.5-0.8,4.4-2.4,6c-1.7,1.6-3.8,2.3-6.6,2.3
	c-2.3,0-4.1-0.7-5.6-2.1s-2.7-3.6-3.3-6.5l-0.4-1.7l-8.2,4l0.3,1.1c1,4.2,3.1,7.4,6.1,9.7s6.8,3.4,11.1,3.4c5.4,0,9.8-1.6,13.1-4.8
	s5-7.4,5-12.6c0-3.6-1-6.7-2.8-9.3c-1.9-2.6-4.6-4.7-8.2-6.2l-7.4-3.3c-2.2-1-3.8-2-4.8-3.2c-0.9-1.1-1.4-2.4-1.4-3.9
	c0-1.8,0.6-3.3,1.8-4.4c1.2-1.2,2.8-1.7,4.7-1.7c1.6,0,2.9,0.4,4.1,1.2c1.3,0.9,2.4,2.2,3.5,4l0.7,1.3l7.4-4.7l-0.6-1.1
	c-1.4-2.8-3.4-5-5.9-6.5c-2.5-1.4-5.5-2.2-8.8-2.2c-4.6,0-8.4,1.3-11.4,4c-3.1,2.7-4.6,6.1-4.6,10.2c0,3.5,0.9,6.5,2.8,9
	C527.2,101.5,530,103.5,533.6,105z"/>
<polygon class="st0" points="567.2,85.7 581.9,85.7 581.9,131.9 591,131.9 591,85.7 605.6,85.7 605.6,77 567.2,77 "/>
<polygon class="st0" points="643.6,97 618.7,97 618.7,77 609.7,77 609.7,131.9 618.7,131.9 618.7,105.7 643.6,105.7 643.6,131.9 
	652.7,131.9 652.7,77 643.6,77 "/>
<path class="st0" d="M654.4,131.9h9.8l6.8-16h18.5l6.8,16h9.8l-25.8-56L654.4,131.9z M674,107.8l6.2-13.3l6.2,13.3H674z"/>
<polygon class="st0" points="697.2,77 697.2,85.7 711.9,85.7 711.9,131.9 720.9,131.9 720.9,85.7 735.6,85.7 735.6,77 "/>
<rect x="54.9" y="144.8" class="st1" width="9" height="54.8"/>
<polygon class="st1" points="82.8,199.6 91.9,199.6 91.9,153.4 106.5,153.4 106.5,144.8 68.1,144.8 68.1,153.4 82.8,153.4 "/>
<polygon class="st1" points="116.1,144.1 110.3,160.8 115.2,162.8 122.8,146.4 "/>
<path class="st1" d="M142,192.9c-2.3,0-4.1-0.7-5.6-2.1c-1.5-1.4-2.7-3.6-3.3-6.5l-0.4-1.7l-8.2,4l0.3,1.1c1,4.2,3.1,7.4,6.1,9.7
	c3,2.3,6.8,3.4,11.1,3.4c5.4,0,9.8-1.6,13.1-4.8s5-7.4,5-12.6c0-3.6-1-6.7-2.8-9.3c-1.9-2.6-4.6-4.7-8.2-6.2l-7.4-3.3
	c-2.2-1-3.8-2-4.8-3.2c-0.9-1.1-1.4-2.4-1.4-3.9c0-1.8,0.6-3.3,1.8-4.4c1.2-1.2,2.8-1.7,4.7-1.7c1.6,0,2.9,0.4,4.1,1.2
	c1.3,0.9,2.4,2.2,3.5,4l0.7,1.3l7.4-4.7l-0.6-1.1c-1.4-2.8-3.4-5-5.9-6.5c-2.5-1.4-5.5-2.2-8.8-2.2c-4.6,0-8.4,1.3-11.4,4
	c-3.1,2.7-4.6,6.1-4.6,10.2c0,3.5,0.9,6.5,2.8,9c1.8,2.5,4.6,4.5,8.3,6l6.3,2.7c2.5,1.1,4.3,2.4,5.5,3.9s1.7,3.2,1.7,5.2
	c0,2.5-0.8,4.4-2.4,6C146.9,192.1,144.7,192.9,142,192.9z"/>
<polygon class="st1" points="192.9,173.9 214.2,173.9 214.2,165.3 192.9,165.3 192.9,153.2 214.2,153.2 214.2,144.8 184,144.8 
	184,199.6 192.9,199.6 "/>
<path class="st1" d="M258.9,198.8c3.6-1.4,6.8-3.5,9.5-6.2c2.8-2.7,4.9-5.8,6.3-9.2s2.2-7.2,2.2-11.1c0-3.9-0.7-7.6-2.2-11.1
	c-1.4-3.5-3.6-6.6-6.3-9.3c-2.7-2.7-5.9-4.7-9.5-6.2c-7.1-2.9-15.2-2.9-22.4,0c-3.6,1.4-6.8,3.5-9.5,6.2c-2.8,2.7-4.9,5.8-6.4,9.3
	s-2.2,7.2-2.2,11.1c0,3.9,0.7,7.6,2.2,11c1.5,3.5,3.6,6.6,6.4,9.3c2.8,2.7,5.9,4.8,9.5,6.2s7.3,2.2,11.1,2.2
	C251.5,201,255.3,200.2,258.9,198.8z M247.7,152.1c2.7,0,5.2,0.5,7.6,1.5s4.6,2.5,6.5,4.4s3.3,4.1,4.3,6.5c1,2.5,1.5,5.1,1.5,7.8
	s-0.5,5.3-1.5,7.7s-2.5,4.6-4.4,6.5s-4.1,3.4-6.5,4.4s-4.9,1.5-7.6,1.5c-2.7,0-5.2-0.5-7.6-1.5c-2.4-1-4.6-2.5-6.5-4.4
	s-3.4-4.1-4.4-6.5s-1.5-5-1.5-7.6c0-2.7,0.5-5.3,1.5-7.8c1-2.4,2.5-4.6,4.4-6.6c1.9-1.9,4-3.4,6.4-4.3
	C242.4,152.6,245,152.1,247.7,152.1z"/>
<polygon class="st1" points="284.2,144.8 284.2,199.6 312.9,199.6 312.9,190.9 293.2,190.9 293.2,144.8 "/>
<polygon class="st1" points="346.1,190.9 326.4,190.9 326.4,144.8 317.4,144.8 317.4,199.6 346.1,199.6 "/>
<path class="st1" d="M402.5,183.3c1.4-3.4,2.2-7.2,2.2-11.1c0-3.9-0.7-7.6-2.2-11.1c-1.4-3.5-3.6-6.6-6.3-9.3
	c-2.7-2.7-5.9-4.7-9.5-6.2c-7.1-2.9-15.2-2.9-22.4,0c-3.6,1.4-6.8,3.5-9.5,6.2c-2.8,2.7-4.9,5.8-6.4,9.3s-2.2,7.2-2.2,11.1
	c0,3.9,0.7,7.6,2.2,11c1.5,3.5,3.6,6.6,6.4,9.3s5.9,4.8,9.5,6.2s7.3,2.2,11.1,2.2c3.8,0,7.6-0.7,11.2-2.2c3.6-1.4,6.8-3.5,9.5-6.2
	C398.9,189.9,401.1,186.8,402.5,183.3z M375.5,152.1c2.7,0,5.2,0.5,7.6,1.5s4.6,2.5,6.5,4.4s3.3,4.1,4.3,6.5c1,2.5,1.5,5.1,1.5,7.8
	s-0.5,5.3-1.5,7.7s-2.5,4.6-4.4,6.5s-4.1,3.4-6.5,4.4s-4.9,1.5-7.6,1.5s-5.2-0.5-7.6-1.5s-4.6-2.5-6.5-4.4s-3.4-4.1-4.4-6.5
	s-1.5-5-1.5-7.6c0-2.7,0.5-5.3,1.5-7.8c1-2.4,2.5-4.6,4.4-6.6c1.9-1.9,4-3.4,6.4-4.3C370.2,152.6,372.8,152.1,375.5,152.1z"/>
<polygon class="st1" points="440.3,168.4 453.9,200.4 476.1,144.8 466.4,144.8 454.2,178.2 440.2,144.8 426.5,178.1 414.3,144.8 
	404.6,144.8 426.8,200.4 "/>
<polygon class="st1" points="508.7,153.2 508.7,144.8 478.5,144.8 478.5,199.6 508.7,199.6 508.7,191.1 487.4,191.1 487.4,173.9 
	508.7,173.9 508.7,165.3 487.4,165.3 487.4,153.2 "/>
<path class="st1" d="M552.2,149.9c-2.4-1.9-5.3-3.2-8.5-4s-8.4-1.2-16-1.2h-11.4v54.8H530c6.3,0,10.9-0.4,13.9-1.2
	c3.1-0.8,5.9-2.1,8.3-4c3.2-2.4,5.6-5.6,7.2-9.4c1.6-3.7,2.4-8.1,2.4-12.9c0-4.8-0.8-9.2-2.4-12.9
	C557.8,155.5,555.4,152.4,552.2,149.9z M552.6,172.1c0,3.4-0.5,6.5-1.6,9.1c-1,2.6-2.5,4.7-4.5,6.3c-1.5,1.2-3.3,2.1-5.6,2.6
	c-2.4,0.5-6.7,0.8-13,0.8h-2.6v-37.7h2.6c6.1,0,10.5,0.3,12.9,0.8c2.3,0.5,4.2,1.4,5.7,2.6c2,1.6,3.5,3.8,4.5,6.3
	C552.1,165.6,552.6,168.7,552.6,172.1z"/>
<rect x="54.9" y="211.5" class="st1" width="9" height="54.8"/>
<path class="st1" d="M161.8,216.6c-2.4-1.9-5.3-3.2-8.5-4s-8.4-1.2-16-1.2H126v54.8h13.6c6.3,0,10.9-0.4,13.9-1.2
	c3.1-0.8,5.9-2.1,8.3-4c3.2-2.4,5.6-5.6,7.2-9.4c1.6-3.7,2.4-8.1,2.4-12.9c0-4.8-0.8-9.2-2.4-12.9C167.4,222.2,165,219,161.8,216.6z
	 M162.2,238.8c0,3.4-0.5,6.5-1.6,9.1c-1,2.6-2.5,4.7-4.5,6.3c-1.5,1.2-3.3,2.1-5.6,2.6c-2.4,0.5-6.7,0.8-13,0.8H135V220h2.6
	c6.1,0,10.5,0.3,12.9,0.8c2.3,0.5,4.2,1.4,5.7,2.6c2,1.6,3.5,3.8,4.5,6.3C161.7,232.3,162.2,235.4,162.2,238.8z"/>
<polygon class="st1" points="209,219.9 209,211.5 178.8,211.5 178.8,266.3 209,266.3 209,257.7 187.8,257.7 187.8,240.6 209,240.6 
	209,232 187.8,232 187.8,219.9 "/>
<path class="st1" d="M243,214.3c-1.5-1-3.2-1.8-5.2-2.2c-1.9-0.4-4.8-0.6-8.7-0.6h-12.3v54.8h8.8v-23.4h3.5c4,0,6.8-0.2,8.7-0.6
	c2-0.4,3.7-1.2,5.2-2.3c1.9-1.3,3.3-3.2,4.4-5.4c1-2.2,1.5-4.7,1.5-7.4s-0.5-5.2-1.5-7.4C246.3,217.5,244.8,215.6,243,214.3z
	 M225.6,219.9h1.7c6.1,0,8.7,1,9.8,1.8c1.5,1.1,2.2,3,2.2,5.9c0,2.6-0.7,4.4-2.1,5.4c-1.1,0.7-3.7,1.6-9.9,1.6h-1.7V219.9z"/>
<polygon class="st1" points="283.9,219.9 283.9,211.5 253.7,211.5 253.7,266.3 283.9,266.3 283.9,257.7 262.7,257.7 262.7,240.6 
	283.9,240.6 283.9,232 262.7,232 262.7,219.9 "/>
<path class="st1" d="M383.9,216.6c-2.4-1.9-5.3-3.2-8.5-4s-8.4-1.2-16-1.2H348v54.8h13.6c6.3,0,10.9-0.4,13.9-1.2
	c3.1-0.8,5.9-2.1,8.3-4c3.2-2.4,5.6-5.6,7.2-9.4c1.6-3.7,2.4-8.1,2.4-12.9c0-4.8-0.8-9.2-2.4-12.9C389.5,222.2,387,219,383.9,216.6z
	 M384.3,238.8c0,3.4-0.5,6.5-1.6,9.1c-1,2.6-2.5,4.7-4.5,6.3c-1.5,1.2-3.3,2.1-5.6,2.6c-2.4,0.5-6.7,0.8-13,0.8H357V220h2.6
	c6.1,0,10.5,0.3,12.9,0.8c2.3,0.5,4.2,1.4,5.7,2.6c2,1.6,3.5,3.8,4.5,6.3C383.7,232.3,384.3,235.4,384.3,238.8z"/>
<polygon class="st1" points="431.1,219.9 431.1,211.5 400.9,211.5 400.9,266.3 431.1,266.3 431.1,257.7 409.8,257.7 409.8,240.6 
	431.1,240.6 431.1,232 409.8,232 409.8,219.9 "/>
<polygon class="st1" points="489.6,220.1 504.3,220.1 504.3,266.3 513.4,266.3 513.4,220.1 528,220.1 528,211.5 489.6,211.5 "/>
<polygon class="st1" points="541.1,211.5 532.1,211.5 532.1,266.3 560.8,266.3 560.8,257.6 541.1,257.6 "/>
<polygon class="st1" points="581.3,232.7 568.5,211.5 558,211.5 576.8,241.5 576.8,266.3 585.8,266.3 585.8,241.5 604.5,211.5 
	594.1,211.5 "/>
<path class="st0" d="M102.4,284.3c-2.7-2.7-5.9-4.7-9.5-6.2c-7.1-2.9-15.2-2.9-22.4,0c-3.6,1.4-6.8,3.5-9.5,6.2
	c-2.8,2.7-4.9,5.8-6.4,9.3s-2.2,7.2-2.2,11.1s0.7,7.6,2.2,11c1.5,3.5,3.6,6.6,6.4,9.3c2.8,2.7,5.9,4.8,9.5,6.2
	c3.6,1.4,7.3,2.2,11.1,2.2c3.8,0,7.6-0.7,11.2-2.2c3.6-1.4,6.8-3.5,9.5-6.2c2.8-2.7,4.9-5.8,6.3-9.2c1.4-3.4,2.2-7.2,2.2-11.1
	s-0.7-7.6-2.2-11.1C107.3,290.1,105.2,286.9,102.4,284.3z M81.7,284.5c2.7,0,5.2,0.5,7.6,1.5s4.6,2.5,6.5,4.4s3.3,4.1,4.3,6.5
	c1,2.5,1.5,5.1,1.5,7.8c0,2.7-0.5,5.3-1.5,7.7c-1,2.4-2.5,4.6-4.4,6.5s-4.1,3.4-6.5,4.4s-4.9,1.5-7.6,1.5s-5.2-0.5-7.6-1.5
	s-4.6-2.5-6.5-4.4s-3.4-4.1-4.4-6.5s-1.5-5-1.5-7.6c0-2.7,0.5-5.3,1.5-7.8c1-2.4,2.5-4.6,4.4-6.6c1.9-1.9,4-3.4,6.4-4.3
	C76.4,285,79,284.5,81.7,284.5z"/>
<polygon class="st0" points="117.2,331.9 126.2,331.9 126.2,306.2 147.5,306.2 147.5,297.7 126.2,297.7 126.2,285.5 147.5,285.5 
	147.5,277.1 117.2,277.1 "/>
<path class="st0" d="M204.4,303.4c2.7-2.5,4-6.1,4-10.7c0-2.6-0.5-5.1-1.4-7.3c-0.9-2.2-2.3-4.1-4-5.4c-1.4-1.1-3-1.8-4.8-2.3
	c-1.7-0.4-4.4-0.6-8-0.6h-13.6v54.8h8.8v-23.3l17.8,23.3h11.4L194.7,307C198.9,306.8,202.1,305.6,204.4,303.4z M185.4,285.1h3.3
	c5.5,0,7.8,0.9,8.8,1.7c1.3,1.1,2,3.1,2,5.9c0,2.6-0.6,4.5-1.9,5.4c-0.9,0.7-3.3,1.6-8.9,1.6h-3.3L185.4,285.1L185.4,285.1z"/>
<path class="st0" d="M245.8,331.5v-8.1h-21.3v-17.2h21.3v-8.5h-21.3v-12.2h21.3v-8.4h-30.2v54.8h30.1h0.2h9.6l6.8-16h18.5l6.8,16
	h9.8l-26-54.9L245.8,331.5z M265.2,307.9l6.2-13.3l6.2,13.3H265.2z"/>
<path class="st0" d="M319.9,300.4l-7.4-3.3c-2.2-1-3.8-2-4.8-3.2c-0.9-1.1-1.4-2.4-1.4-3.9c0-1.8,0.6-3.3,1.8-4.4
	c1.2-1.2,2.8-1.7,4.7-1.7c1.6,0,2.9,0.4,4.1,1.2c1.3,0.9,2.4,2.2,3.5,4l0.7,1.3l7.4-4.7l-0.6-1.1c-1.4-2.8-3.4-5-5.9-6.5
	c-2.5-1.4-5.5-2.2-8.8-2.2c-4.6,0-8.4,1.3-11.4,4c-3.1,2.7-4.6,6.1-4.6,10.2c0,3.5,0.9,6.5,2.8,9c1.8,2.5,4.6,4.5,8.3,6l6.3,2.7
	c2.5,1.1,4.3,2.4,5.5,3.9s1.7,3.2,1.7,5.2c0,2.5-0.8,4.4-2.4,6c-1.7,1.6-3.8,2.3-6.6,2.3c-2.3,0-4.1-0.7-5.6-2.1s-2.7-3.6-3.3-6.5
	l-0.4-1.7l-8.2,4l0.3,1.1c1,4.2,3.1,7.4,6.1,9.7c3,2.3,6.8,3.4,11.1,3.4c5.4,0,9.8-1.6,13.1-4.8c3.3-3.2,5-7.4,5-12.6
	c0-3.6-1-6.7-2.8-9.3C326.3,304,323.5,301.9,319.9,300.4z"/>
<path class="st0" d="M384,284.3c-2.7-2.7-5.9-4.7-9.5-6.2c-7.1-2.9-15.2-2.9-22.4,0c-3.6,1.4-6.8,3.5-9.5,6.2
	c-2.8,2.7-4.9,5.8-6.4,9.3s-2.2,7.2-2.2,11.1s0.7,7.6,2.2,11c1.5,3.5,3.6,6.6,6.4,9.3c2.8,2.7,5.9,4.8,9.5,6.2
	c3.6,1.4,7.3,2.2,11.1,2.2c3.8,0,7.6-0.7,11.2-2.2c3.6-1.4,6.8-3.5,9.5-6.2c2.8-2.7,4.9-5.8,6.3-9.2c1.4-3.4,2.2-7.2,2.2-11.1
	s-0.7-7.6-2.2-11.1C388.9,290.1,386.8,286.9,384,284.3z M363.3,284.5c2.7,0,5.2,0.5,7.6,1.5s4.6,2.5,6.5,4.4s3.3,4.1,4.3,6.5
	c1,2.5,1.5,5.1,1.5,7.8c0,2.7-0.5,5.3-1.5,7.7c-1,2.4-2.5,4.6-4.4,6.5s-4.1,3.4-6.5,4.4s-4.9,1.5-7.6,1.5s-5.2-0.5-7.6-1.5
	s-4.6-2.5-6.5-4.4s-3.4-4.1-4.4-6.5s-1.5-5-1.5-7.6c0-2.7,0.5-5.3,1.5-7.8c1-2.4,2.5-4.6,4.4-6.6c1.9-1.9,4-3.4,6.4-4.3
	C358,285,360.6,284.5,363.3,284.5z"/>
<g>
	<path class="st1" d="M69.5,369.5c-1-1.1-2-1.9-3.1-2.4c-1.1-0.5-2.3-0.8-3.7-0.8c-1.1,0-2.1,0.2-3.2,0.7s-1.9,1.1-2.7,1.8
		c-0.8,0.8-1.4,1.7-1.8,2.7c-0.4,1-0.6,2.1-0.6,3.3c0,1,0.1,1.8,0.4,2.6s0.6,1.5,1.1,2.2c0.8,1.2,1.8,2.1,3,2.7
		c1.2,0.6,2.5,0.9,3.9,0.9c1.3,0,2.5-0.3,3.6-0.8c1.1-0.5,2.1-1.4,3.1-2.4v3.2c-1,0.7-2.1,1.3-3.3,1.7c-1.2,0.4-2.4,0.6-3.6,0.6
		c-1.1,0-2.1-0.2-3.2-0.5c-1-0.3-2-0.8-2.9-1.4c-1.5-1-2.6-2.3-3.4-3.8c-0.8-1.5-1.2-3.2-1.2-5c0-1.6,0.3-3,0.8-4.3
		c0.5-1.3,1.3-2.5,2.4-3.5c1-1,2.2-1.8,3.5-2.3s2.7-0.8,4.2-0.8c1.2,0,2.3,0.2,3.5,0.5c1.1,0.4,2.2,0.9,3.3,1.7V369.5z"/>
	<path class="st1" d="M72.5,385.1v-21.7h2.1v10.9c0.6-0.8,1.2-1.4,2-1.8s1.7-0.6,2.7-0.6c1.5,0,2.7,0.4,3.5,1.2
		c0.9,0.8,1.3,1.9,1.3,3.4v8.7h-2.2v-7.6c0-1.3-0.3-2.3-0.8-2.9s-1.4-0.9-2.5-0.9c-0.7,0-1.3,0.1-1.8,0.4s-1,0.6-1.3,1
		c-0.3,0.3-0.5,0.7-0.6,1.2c-0.1,0.4-0.2,1.2-0.2,2.2v6.6H72.5z"/>
	<path class="st1" d="M99.6,372.3v12.8h-2.1v-2.3c-0.5,0.9-1.2,1.6-2,2.1c-0.8,0.5-1.7,0.7-2.7,0.7c-1.8,0-3.3-0.6-4.5-1.9
		c-1.1-1.3-1.7-2.9-1.7-5c0-2.1,0.5-3.8,1.6-5c1.1-1.2,2.6-1.9,4.4-1.9c1.1,0,2,0.2,2.8,0.7c0.8,0.5,1.4,1.2,1.9,2.2v-2.4H99.6z
		 M97.4,378.8c0-1.4-0.4-2.6-1.2-3.5c-0.8-0.9-1.8-1.3-3.1-1.3c-1.3,0-2.3,0.4-3.1,1.2c-0.7,0.8-1.1,2-1.1,3.4
		c0,1.6,0.4,2.7,1.1,3.6c0.7,0.8,1.8,1.3,3.2,1.3c1.3,0,2.3-0.4,3.1-1.2C97.1,381.4,97.4,380.3,97.4,378.8z"/>
	<path class="st1" d="M103.1,385.1v-12.8h2v2.7c0.6-1.1,1.2-1.9,1.9-2.4c0.7-0.5,1.5-0.7,2.4-0.7c0.3,0,0.5,0,0.8,0.1
		s0.5,0.1,0.7,0.2l-0.7,2c-0.3-0.1-0.5-0.1-0.7-0.2c-0.2,0-0.4-0.1-0.6-0.1c-1.2,0-2,0.4-2.6,1.3c-0.6,0.8-0.9,2.1-0.9,3.8v6.3
		H103.1z"/>
	<path class="st1" d="M112.3,385.1v-21.7h2.2v21.7H112.3z"/>
	<path class="st1" d="M129.7,379h-10.2v0.2c0,1.4,0.4,2.5,1.2,3.3c0.8,0.8,1.8,1.3,3.1,1.3c0.9,0,1.6-0.2,2.3-0.7
		c0.7-0.5,1.3-1.2,1.8-2.1l1.7,1.1c-0.6,1.2-1.5,2-2.5,2.6c-1,0.6-2.2,0.9-3.5,0.9c-2,0-3.5-0.6-4.7-1.9s-1.8-3-1.8-5.1
		c0-2,0.6-3.7,1.8-4.9c1.2-1.3,2.7-1.9,4.6-1.9c1.9,0,3.4,0.6,4.5,1.8s1.7,2.9,1.7,5V379z M127.4,377.3c-0.1-1.1-0.5-2-1.1-2.6
		c-0.7-0.6-1.6-0.9-2.8-0.9c-1.1,0-2,0.3-2.7,1s-1.1,1.5-1.2,2.6H127.4z"/>
	<path class="st1" d="M130.7,383l1.9-1.3c0.4,0.7,0.8,1.2,1.3,1.5c0.5,0.3,1.2,0.5,1.9,0.5c0.7,0,1.3-0.2,1.7-0.5
		c0.4-0.4,0.7-0.8,0.7-1.4c0-0.4-0.2-0.8-0.5-1.1c-0.3-0.3-0.8-0.6-1.6-0.8l-0.4-0.1c-3.1-1.1-4.7-2.4-4.7-4c0-1.1,0.4-2.1,1.3-2.8
		c0.8-0.7,1.9-1.1,3.3-1.1c1.1,0,2.1,0.2,2.9,0.7c0.8,0.4,1.4,1.1,1.7,1.9l-1.8,1.1c-0.3-0.6-0.6-1-1.2-1.4s-1.1-0.5-1.8-0.5
		c-0.6,0-1.2,0.2-1.6,0.5s-0.6,0.8-0.6,1.4c0,0.8,0.9,1.4,2.6,2c0.3,0.1,0.6,0.2,0.8,0.2c1.4,0.4,2.4,1,2.9,1.5s0.8,1.3,0.8,2.3
		c0,1.2-0.4,2.2-1.3,3s-2,1.1-3.4,1.1c-1.2,0-2.2-0.2-3.1-0.7C131.9,384.5,131.2,383.9,130.7,383z"/>
	<path class="st1" d="M150.7,385.1v-20.5h3.9c2.9,0,5,0.1,6.2,0.4s2.2,0.8,3.1,1.5c1.2,0.9,2.1,2.1,2.7,3.5c0.6,1.4,0.9,3,0.9,4.9
		c0,1.8-0.3,3.5-0.9,4.9c-0.6,1.4-1.5,2.6-2.7,3.5c-0.9,0.7-1.9,1.2-3.1,1.5s-2.9,0.4-5.4,0.4h-0.9H150.7z M153.1,382.8h1.6
		c2.5,0,4.3-0.1,5.2-0.3s1.8-0.6,2.4-1.1c0.8-0.7,1.5-1.6,1.9-2.7s0.7-2.4,0.7-3.8c0-1.4-0.2-2.7-0.7-3.8c-0.4-1.1-1.1-2-1.9-2.7
		c-0.6-0.5-1.5-0.9-2.5-1.2c-1-0.2-2.7-0.3-5.2-0.3h-1.6V382.8z"/>
	<path class="st1" d="M182.3,372.3v12.8h-2.1v-2.3c-0.5,0.9-1.2,1.6-2,2.1c-0.8,0.5-1.7,0.7-2.7,0.7c-1.8,0-3.3-0.6-4.5-1.9
		c-1.1-1.3-1.7-2.9-1.7-5c0-2.1,0.5-3.8,1.6-5c1.1-1.2,2.6-1.9,4.4-1.9c1.1,0,2,0.2,2.8,0.7c0.8,0.5,1.4,1.2,1.9,2.2v-2.4H182.3z
		 M180.2,378.8c0-1.4-0.4-2.6-1.2-3.5s-1.8-1.3-3.1-1.3c-1.3,0-2.3,0.4-3.1,1.2s-1.1,2-1.1,3.4c0,1.6,0.4,2.7,1.1,3.6
		s1.8,1.3,3.2,1.3c1.3,0,2.3-0.4,3.1-1.2S180.2,380.3,180.2,378.8z"/>
	<path class="st1" d="M185.8,385.1v-12.8h2v2.7c0.6-1.1,1.2-1.9,1.9-2.4c0.7-0.5,1.5-0.7,2.4-0.7c0.3,0,0.5,0,0.8,0.1
		c0.2,0,0.5,0.1,0.7,0.2l-0.7,2c-0.3-0.1-0.5-0.1-0.7-0.2c-0.2,0-0.4-0.1-0.6-0.1c-1.2,0-2,0.4-2.6,1.3c-0.6,0.8-0.9,2.1-0.9,3.8
		v6.3H185.8z"/>
	<path class="st1" d="M202.8,371.8l3.8,9.2l3.5-8.8h2.5l-5.7,13.6l-4.2-9.8l-4.2,9.8l-5.7-13.6h2.4l3.4,8.8l3.9-9.2H202.8z"/>
	<path class="st1" d="M213.5,366.1c0-0.4,0.2-0.8,0.5-1.1c0.3-0.3,0.7-0.5,1.1-0.5c0.4,0,0.8,0.2,1.1,0.5c0.3,0.3,0.5,0.7,0.5,1.2
		c0,0.4-0.2,0.8-0.5,1.1c-0.3,0.3-0.7,0.5-1.1,0.5s-0.8-0.2-1.1-0.5C213.7,366.9,213.5,366.6,213.5,366.1z M214,385.1v-12.8h2.2
		v12.8H214z"/>
	<path class="st1" d="M219.9,385.1v-12.8h2.1v2c0.6-0.8,1.2-1.4,2-1.8s1.7-0.6,2.7-0.6c1.5,0,2.7,0.4,3.5,1.2
		c0.9,0.8,1.3,1.9,1.3,3.4v8.7h-2.2v-7.6c0-1.3-0.3-2.3-0.8-2.9s-1.4-0.9-2.5-0.9c-0.7,0-1.3,0.1-1.8,0.4s-1,0.6-1.3,1
		c-0.3,0.3-0.5,0.7-0.6,1.2c-0.1,0.4-0.2,1.2-0.2,2.2v6.6H219.9z"/>
</g>
</svg>
