<?xml version="1.0" encoding="utf-8"?>
<!-- Generator: Adobe Illustrator 23.0.3, SVG Export Plug-In . SVG Version: 6.00 Build 0)  -->
<svg version="1.1" id="Слой_1" xmlns="http://www.w3.org/2000/svg" xmlns:xlink="http://www.w3.org/1999/xlink" x="0px" y="0px"
	 viewBox="0 0 767.7 525.1" style="enable-background:new 0 0 767.7 525.1;" xml:space="preserve">
<style type="text/css">
	.st0{fill:#D84C42;}
	.st1{fill:#333333;}
</style>
<circle class="st0" cx="27.1" cy="36.5" r="5.1"/>
<circle class="st0" cx="13.4" cy="36.5" r="5.1"/>
<circle class="st0" cx="432" cy="368.2" r="5.1"/>
<circle class="st0" cx="418.3" cy="368.2" r="5.1"/>
<polygon class="st0" points="68.1,75.9 48.8,75.9 48.8,30.5 40,30.5 40,84.4 68.1,84.4 "/>
<polygon class="st0" points="102.3,76 81.4,76 81.4,59.1 102.3,59.1 102.3,50.8 81.4,50.8 81.4,38.8 102.3,38.8 102.3,30.5 
	72.6,30.5 72.6,84.4 102.3,84.4 "/>
<polygon class="st0" points="120.8,84.4 129.7,84.4 129.7,39.1 144.1,39.1 144.1,30.5 106.4,30.5 106.4,39.1 120.8,39.1 "/>
<polygon class="st0" points="160.4,32.8 153.9,30.5 148.3,46.6 153.1,48.5 "/>
<path class="st0" d="M175.6,78c-2.2,0-4-0.6-5.4-2c-1.5-1.4-2.6-3.5-3.2-6.2l-0.4-1.6l-7.8,3.9l0.3,1c1,4,3,7.1,5.9,9.3
	c2.9,2.2,6.5,3.3,10.7,3.3c5.2,0,9.4-1.5,12.6-4.6c3.2-3.1,4.8-7.1,4.8-12.1c0-3.4-0.9-6.4-2.7-8.9s-4.4-4.5-7.9-6l-7.1-3.1
	c-2.1-0.9-3.7-2-4.6-3.1c-0.9-1.1-1.3-2.3-1.3-3.8c0-1.8,0.6-3.2,1.7-4.3c1.2-1.1,2.7-1.7,4.6-1.7c1.5,0,2.8,0.4,4,1.2
	s2.3,2.1,3.4,3.9l0.7,1.2l7.1-4.5l-0.5-1.1c-1.3-2.7-3.2-4.8-5.7-6.2c-2.4-1.4-5.2-2.1-8.5-2.1c-4.4,0-8.1,1.3-11,3.8
	c-2.9,2.6-4.4,5.9-4.4,9.8c0,3.3,0.9,6.2,2.7,8.7c1.8,2.4,4.5,4.3,8,5.8l6.1,2.6c2.4,1,4.2,2.3,5.3,3.8c1.1,1.4,1.7,3.1,1.7,5
	c0,2.4-0.8,4.3-2.3,5.7C180.3,77.3,178.2,78,175.6,78z"/>
<path class="st0" d="M226.7,82.6c1.9,1,4.1,1.8,6.4,2.4c2.3,0.5,4.7,0.8,7.2,0.8c8.2,0,14.9-2.5,19.7-7.4c4.8-4.9,7.2-11.6,7.2-20
	v-3.1h-23.8v8.2h14.5c-0.6,4-2.2,7.2-5.1,9.8c-3.2,2.9-7.1,4.3-11.9,4.3c-5.5,0-9.9-1.8-13.4-5.5c-3.5-3.6-5.3-8.4-5.3-14.1
	c0-6.1,1.7-11.1,5.2-14.8c3.5-3.8,7.9-5.6,13.5-5.6c3.4,0,6.4,0.7,8.9,2.1c2.5,1.4,4.7,3.6,6.4,6.5l0.8,1.3l7.3-5.8l-0.7-1
	c-2.5-3.8-5.7-6.6-9.5-8.5c-3.8-1.9-8.3-2.8-13.4-2.8c-3.8,0-7.4,0.6-10.6,1.8c-3.2,1.2-6.1,2.9-8.5,5.3c-2.9,2.7-5.1,5.9-6.5,9.6
	c-1.4,3.6-2.1,7.6-2.1,12c0,5.4,1.2,10.3,3.6,14.5C218.8,76.8,222.3,80.2,226.7,82.6z"/>
<path class="st0" d="M279.5,77.5c2.7,2.6,5.8,4.7,9.3,6.1s7.2,2.1,10.9,2.1c3.8,0,7.5-0.7,11-2.1s6.7-3.5,9.4-6.1
	c2.7-2.6,4.8-5.7,6.2-9.1c1.4-3.4,2.1-7,2.1-10.9c0-3.8-0.7-7.5-2.1-10.9s-3.5-6.5-6.2-9.1s-5.8-4.6-9.3-6.1c-7-2.8-14.9-2.8-22,0
	c-3.5,1.4-6.6,3.4-9.3,6.1c-2.7,2.7-4.8,5.7-6.3,9.1c-1.4,3.4-2.2,7.1-2.2,10.9c0,3.8,0.7,7.4,2.2,10.8
	C274.7,71.8,276.8,74.9,279.5,77.5z M299.8,37.8c2.6,0,5.2,0.5,7.5,1.5c2.4,1,4.5,2.4,6.4,4.3c1.8,1.8,3.3,4,4.3,6.4s1.5,5,1.5,7.7
	s-0.5,5.2-1.5,7.6s-2.4,4.5-4.3,6.4s-4,3.4-6.4,4.3c-2.4,1-4.9,1.5-7.5,1.5s-5.1-0.5-7.5-1.5c-2.3-1-4.5-2.4-6.4-4.4
	c-1.9-1.9-3.3-4.1-4.3-6.4c-1-2.3-1.5-4.9-1.5-7.5c0-2.7,0.5-5.2,1.5-7.6c1-2.4,2.4-4.6,4.3-6.5c1.8-1.9,3.9-3.3,6.3-4.3
	C294.6,38.3,297.1,37.8,299.8,37.8z"/>
<rect x="346.9" y="30.5" class="st0" width="8.8" height="53.9"/>
<polygon class="st0" points="371.9,52.1 409.3,85.5 409.3,30.5 400.8,30.5 400.8,64.3 363.3,30.4 363.3,84.4 371.9,84.4 "/>
<polygon class="st1" points="256.9,318.6 294.3,352 294.3,297 285.8,297 285.8,330.8 248.3,296.9 248.3,350.9 256.9,350.9 "/>
<polygon class="st1" points="430.7,187.8 468.1,221.2 468.1,166.2 459.6,166.2 459.6,200 422.1,166.1 422.1,220.1 430.7,220.1 "/>
<polygon class="st0" points="506.3,52.1 543.7,85.5 543.7,30.5 535.2,30.5 535.2,64.3 497.8,30.4 497.8,84.4 506.3,84.4 "/>
<polygon class="st0" points="513.8,121.1 551.2,154.5 551.2,99.5 542.7,99.5 542.7,133.3 505.3,99.4 505.3,153.4 513.8,153.4 "/>
<polygon class="st0" points="460.3,30.5 450.8,30.5 436.8,64.3 422.7,30.5 413.1,30.5 436.8,84.6 "/>
<polygon class="st0" points="492,76 471.1,76 471.1,59.1 492,59.1 492,50.8 471.1,50.8 471.1,38.8 492,38.8 492,30.5 462.3,30.5 
	462.3,84.4 492,84.4 "/>
<polygon class="st0" points="564,84.4 572.9,84.4 572.9,39.1 587.3,39.1 587.3,30.5 549.5,30.5 549.5,39.1 564,39.1 "/>
<polygon class="st0" points="53.3,153 62.1,153 62.1,107.7 76.5,107.7 76.5,99.2 38.8,99.2 38.8,107.7 53.3,107.7 "/>
<path class="st0" d="M83.7,146.1c2.7,2.6,5.8,4.7,9.3,6.1c3.5,1.4,7.2,2.1,10.9,2.1c3.8,0,7.5-0.7,11-2.1c3.5-1.4,6.7-3.5,9.4-6.1
	c2.7-2.6,4.8-5.7,6.2-9.1c1.4-3.4,2.1-7,2.1-10.9c0-3.8-0.7-7.5-2.1-10.9c-1.4-3.4-3.5-6.5-6.2-9.1s-5.8-4.6-9.3-6.1
	c-7-2.8-14.9-2.8-22,0c-3.5,1.4-6.6,3.4-9.3,6.1c-2.7,2.7-4.8,5.7-6.3,9.1c-1.4,3.4-2.2,7.1-2.2,10.9c0,3.8,0.7,7.4,2.2,10.8
	C78.8,140.4,81,143.5,83.7,146.1z M104,106.4c2.6,0,5.2,0.5,7.5,1.5c2.4,1,4.5,2.4,6.4,4.3c1.8,1.8,3.3,4,4.3,6.4s1.5,5,1.5,7.7
	s-0.5,5.2-1.5,7.6c-1,2.4-2.4,4.5-4.3,6.4s-4,3.4-6.4,4.3c-2.4,1-4.9,1.5-7.5,1.5s-5.1-0.5-7.5-1.5c-2.3-1-4.5-2.4-6.4-4.4
	c-1.9-1.9-3.3-4.1-4.3-6.4c-1-2.3-1.5-4.9-1.5-7.5c0-2.7,0.5-5.2,1.5-7.6s2.4-4.6,4.3-6.5c1.8-1.9,3.9-3.3,6.3-4.3
	C98.8,106.9,101.3,106.4,104,106.4z"/>
<polygon class="st0" points="182.4,98.9 164.1,137.3 145.7,98.9 134.2,153 142.9,153 148.7,123.5 164.1,154.1 179.4,123.5 
	185.3,153 194,153 "/>
<path class="st0" d="M251.8,137.1c1.4-3.4,2.1-7,2.1-10.9c0-3.8-0.7-7.5-2.1-10.9s-3.5-6.5-6.2-9.1s-5.8-4.6-9.3-6.1
	c-7-2.8-14.9-2.8-22,0c-3.5,1.4-6.6,3.4-9.3,6.1s-4.8,5.7-6.3,9.1c-1.4,3.4-2.2,7.1-2.2,10.9c0,3.8,0.7,7.4,2.2,10.8
	c1.4,3.4,3.5,6.5,6.3,9.1c2.7,2.6,5.8,4.7,9.3,6.1c3.5,1.4,7.2,2.1,10.9,2.1c3.8,0,7.5-0.7,11-2.1c3.5-1.4,6.7-3.5,9.4-6.1
	C248.3,143.5,250.4,140.5,251.8,137.1z M225.2,106.4c2.6,0,5.2,0.5,7.5,1.5c2.4,1,4.5,2.4,6.4,4.3c1.8,1.8,3.3,4,4.3,6.4
	s1.5,5,1.5,7.7s-0.5,5.2-1.5,7.6c-1,2.4-2.4,4.5-4.3,6.4c-1.9,1.9-4,3.4-6.4,4.3c-2.4,1-4.9,1.5-7.5,1.5s-5.1-0.5-7.5-1.5
	c-2.3-1-4.5-2.4-6.4-4.4c-1.9-1.9-3.3-4.1-4.3-6.4c-1-2.3-1.5-4.9-1.5-7.5c0-2.7,0.5-5.2,1.5-7.6s2.4-4.6,4.3-6.5
	c1.8-1.9,3.9-3.3,6.3-4.3C220,106.9,222.5,106.4,225.2,106.4z"/>
<path class="st0" d="M287.4,125c2.6-2.4,3.9-6,3.9-10.5c0-2.6-0.5-5-1.4-7.1c-0.9-2.2-2.3-4-4-5.3c-1.4-1-2.9-1.8-4.7-2.2
	c-1.7-0.4-4.3-0.6-7.8-0.6H260V153h8.6v-22.9l17.5,22.9h11.2l-19.6-24.4C282,128.3,285.2,127.1,287.4,125z M268.8,107h3.3
	c5.4,0,7.7,0.9,8.6,1.7c1.3,1,2,3,2,5.8c0,2.6-0.6,4.4-1.9,5.3c-0.9,0.7-3.2,1.6-8.7,1.6h-3.3V107z"/>
<path class="st0" d="M328.7,125c2.6-2.4,3.9-6,3.9-10.5c0-2.6-0.5-5-1.4-7.1c-0.9-2.2-2.3-4-4-5.3c-1.4-1-2.9-1.8-4.7-2.2
	c-1.7-0.4-4.3-0.6-7.8-0.6h-13.4V153h8.6v-22.9l17.5,22.9h11.2L319,128.6C323.3,128.3,326.5,127.1,328.7,125z M310.1,107h3.3
	c5.4,0,7.7,0.9,8.6,1.7c1.3,1,2,3,2,5.8c0,2.6-0.6,4.4-1.9,5.3c-0.9,0.7-3.2,1.6-8.7,1.6h-3.3V107z"/>
<path class="st0" d="M384.4,106.2c-2.7-2.6-5.8-4.6-9.3-6.1c-7-2.8-14.9-2.8-22,0c-3.5,1.4-6.6,3.4-9.3,6.1
	c-2.7,2.7-4.8,5.7-6.3,9.1c-1.4,3.4-2.2,7.1-2.2,10.9s0.7,7.4,2.2,10.8c1.4,3.4,3.5,6.5,6.3,9.1c2.7,2.6,5.8,4.7,9.3,6.1
	c3.5,1.4,7.2,2.1,10.9,2.1c3.8,0,7.5-0.7,11-2.1c3.5-1.4,6.7-3.5,9.4-6.1c2.7-2.6,4.8-5.7,6.2-9.1c1.4-3.4,2.1-7,2.1-10.9
	c0-3.8-0.7-7.5-2.1-10.9C389.2,111.9,387.1,108.8,384.4,106.2z M364.1,106.4c2.6,0,5.2,0.5,7.5,1.5c2.4,1,4.5,2.4,6.4,4.3
	c1.8,1.8,3.3,4,4.3,6.4s1.5,5,1.5,7.7s-0.5,5.2-1.5,7.6c-1,2.4-2.4,4.5-4.3,6.4s-4,3.4-6.4,4.3c-2.4,1-4.9,1.5-7.5,1.5
	s-5.1-0.5-7.5-1.5c-2.3-1-4.5-2.4-6.4-4.4c-1.9-1.9-3.3-4.1-4.3-6.4c-1-2.3-1.5-4.9-1.5-7.5c0-2.7,0.5-5.2,1.5-7.6s2.4-4.6,4.3-6.5
	c1.8-1.9,3.9-3.3,6.3-4.3C358.9,106.9,361.4,106.4,364.1,106.4z"/>
<polygon class="st0" points="452.5,99.2 440.4,131 426.8,99.3 413.2,131 401.2,99.2 391.8,99.2 413.6,154.7 426.8,123.3 
	440.2,154.7 462,99.2 "/>
<polygon class="st1" points="214.4,165.9 202.4,197.7 188.7,166.1 175.2,197.7 163.2,165.9 153.7,165.9 175.5,221.5 188.8,190.1 
	202.1,221.4 223.9,165.9 "/>
<polygon class="st1" points="352.6,232.8 340.6,264.6 326.9,233.1 313.4,264.6 301.4,232.8 291.9,232.8 313.7,288.4 327,257 
	340.3,288.3 362.1,232.8 "/>
<path class="st1" d="M261.3,218.9c3.5-1.4,6.7-3.5,9.4-6.1c2.7-2.6,4.8-5.7,6.2-9.1c1.4-3.4,2.1-7,2.1-10.9c0-3.8-0.7-7.5-2.1-10.9
	s-3.5-6.5-6.2-9.1s-5.8-4.6-9.3-6.1c-7-2.8-14.9-2.8-22,0c-3.5,1.4-6.6,3.4-9.3,6.1c-2.7,2.7-4.8,5.7-6.3,9.1
	c-1.4,3.4-2.2,7.1-2.2,10.9c0,3.8,0.7,7.4,2.2,10.8c1.4,3.4,3.5,6.5,6.3,9.1c2.7,2.6,5.8,4.7,9.3,6.1c3.5,1.4,7.2,2.1,10.9,2.1
	C254.1,221,257.8,220.3,261.3,218.9z M250.3,173c2.6,0,5.2,0.5,7.5,1.5c2.4,1,4.5,2.4,6.4,4.3c1.8,1.8,3.3,4,4.3,6.4s1.5,5,1.5,7.7
	s-0.5,5.2-1.5,7.6c-1,2.4-2.4,4.5-4.3,6.4s-4,3.4-6.4,4.3c-2.4,1-4.9,1.5-7.5,1.5s-5.1-0.5-7.5-1.5c-2.3-1-4.5-2.4-6.4-4.4
	c-1.9-1.9-3.3-4.1-4.3-6.4c-1-2.3-1.5-4.9-1.5-7.5c0-2.7,0.5-5.2,1.5-7.6c1-2.4,2.4-4.6,4.3-6.5c1.8-1.9,3.9-3.3,6.3-4.3
	S247.6,173,250.3,173z"/>
<path class="st1" d="M284.2,165.8v53.9h8.6v-22.9l17.5,22.9h11.2L302,195.2c4-0.3,7.2-1.5,9.5-3.6c2.6-2.4,3.9-6,3.9-10.5
	c0-2.6-0.5-5-1.4-7.1c-0.9-2.2-2.3-4-4-5.3c-1.4-1-2.9-1.8-4.7-2.2c-1.7-0.4-4.3-0.6-7.8-0.6L284.2,165.8L284.2,165.8z M296.2,173.6
	c5.4,0,7.7,0.9,8.6,1.7c1.3,1,2,3,2,5.8c0,2.6-0.6,4.4-1.9,5.3c-0.9,0.7-3.2,1.6-8.7,1.6h-3.3v-14.4L296.2,173.6L296.2,173.6z"/>
<path class="st1" d="M355.8,181.1c0-2.6-0.5-5-1.4-7.1c-0.9-2.2-2.3-4-4-5.3c-1.4-1-2.9-1.8-4.7-2.2c-1.7-0.4-4.3-0.6-7.8-0.6h-13.4
	v53.9h8.6v-22.9l17.5,22.9h11.2l-19.6-24.4c4-0.3,7.2-1.5,9.5-3.6C354.4,189.2,355.8,185.7,355.8,181.1z M333.2,173.6h3.3
	c5.4,0,7.7,0.9,8.6,1.7c1.3,1,2,3,2,5.8c0,2.6-0.6,4.4-1.9,5.3c-0.9,0.7-3.2,1.6-8.7,1.6h-3.3V173.6z"/>
<polygon class="st1" points="382.9,219.7 382.9,195.3 401.2,165.8 391,165.8 378.5,186.7 365.9,165.8 355.7,165.8 374.1,195.3 
	374.1,219.7 "/>
<rect x="403.8" y="165.8" class="st1" width="8.8" height="53.9"/>
<path class="st1" d="M505.9,198.7h14.5c-0.6,4-2.2,7.2-5.1,9.8c-3.2,2.9-7.1,4.3-11.9,4.3c-5.5,0-9.9-1.8-13.4-5.5
	c-3.5-3.6-5.3-8.4-5.3-14.1c0-6.1,1.7-11.1,5.2-14.8c3.5-3.8,7.9-5.6,13.5-5.6c3.4,0,6.4,0.7,8.9,2.1c2.5,1.4,4.7,3.6,6.4,6.5
	l0.8,1.3l7.3-5.8l-0.7-1c-2.5-3.8-5.7-6.6-9.5-8.5s-8.3-2.8-13.4-2.8c-3.8,0-7.4,0.6-10.6,1.8s-6.1,2.9-8.5,5.3
	c-2.9,2.7-5.1,5.9-6.5,9.6c-1.4,3.6-2.1,7.6-2.1,12c0,5.4,1.2,10.3,3.6,14.5c2.4,4.3,5.8,7.7,10.3,10.1c1.9,1,4.1,1.8,6.4,2.4
	c2.3,0.5,4.7,0.8,7.2,0.8c8.2,0,14.9-2.5,19.7-7.4s7.2-11.6,7.2-20v-3.1h-23.8v8.1L505.9,198.7L505.9,198.7z"/>
<path class="st1" d="M36.2,287.4h9.6l6.6-15.7h18.2l6.6,15.7h9.6l-25.3-53.9L36.2,287.4z M55.4,263.8l6.1-13.1l6.1,13.1H55.4z"/>
<path class="st1" d="M84.7,351.4h9.6l6.6-15.7h18.2l6.6,15.7h9.6L110,297.5L84.7,351.4z M103.9,327.8l6.1-13.1l6.1,13.1H103.9z"/>
<path class="st1" d="M411,287.4h9.6l6.6-15.7h18.2l6.6,15.7h9.6l-25.3-53.9L411,287.4z M430.2,263.8l6.1-13.1l6.1,13.1H430.2z"/>
<path class="st0" d="M315.9,418.1h9.6l6.6-15.7h18.2l6.6,15.7h9.6l-25.3-53.9L315.9,418.1z M335.1,394.5l6.1-13.1l6.1,13.1H335.1z"
	/>
<path class="st1" d="M118.9,255.9c1.5-2,2.2-4.6,2.2-7.6c0-2.5-0.5-4.7-1.5-6.8s-2.4-3.8-4.2-5.2c-1.4-1-3.1-1.8-5.1-2.2
	c-1.9-0.4-4.7-0.6-8.6-0.6h-12v53.9h12c5.2,0,8.8-0.3,11.1-0.9c2.3-0.6,4.3-1.8,5.9-3.4c1.5-1.5,2.6-3.2,3.4-5.2s1.2-4.2,1.2-6.4
	c0-3.7-1-6.9-2.9-9.3c-1.2-1.5-2.7-2.7-4.4-3.5C117.2,257.9,118.1,257,118.9,255.9z M110.1,254.3c-1.5,1.1-4.3,1.6-8.4,1.6h-3.4
	v-14.4h3.4c5.3,0,7.5,0.9,8.5,1.7c1.3,1,2,3,2,5.8C112.2,251.6,111.5,253.3,110.1,254.3z M101.7,279.4h-3.4v-16h5.1
	c2.2,0,3.8,0.1,4.7,0.3c0.9,0.2,1.7,0.5,2.4,0.9c1.2,0.6,2,1.5,2.6,2.7s0.9,2.6,0.9,4.2c0,1.4-0.3,2.7-0.8,3.8c-0.5,1.1-1.2,2-2,2.6
	c-0.7,0.5-1.7,0.9-2.9,1.1C107.1,279.3,104.9,279.4,101.7,279.4z"/>
<path class="st1" d="M184,260.6c0-3.8-0.7-7.5-2.1-10.9c-1.4-3.4-3.5-6.5-6.2-9.1s-5.8-4.6-9.3-6.1c-7-2.8-14.9-2.8-22,0
	c-3.5,1.4-6.6,3.4-9.3,6.1c-2.7,2.7-4.8,5.7-6.3,9.1c-1.4,3.4-2.2,7.1-2.2,10.9s0.7,7.4,2.2,10.8c1.4,3.4,3.5,6.5,6.3,9.1
	c2.7,2.6,5.8,4.7,9.3,6.1s7.2,2.1,10.9,2.1c3.8,0,7.5-0.7,11-2.1s6.7-3.5,9.4-6.1s4.8-5.7,6.2-9.1C183.3,268.1,184,264.4,184,260.6z
	 M155.3,240.8c2.6,0,5.2,0.5,7.5,1.5c2.4,1,4.5,2.4,6.4,4.3c1.8,1.8,3.3,4,4.3,6.4s1.5,5,1.5,7.7s-0.5,5.2-1.5,7.6s-2.4,4.5-4.3,6.4
	c-1.9,1.9-4,3.4-6.4,4.3c-2.4,1-4.9,1.5-7.5,1.5s-5.1-0.5-7.5-1.5c-2.3-1-4.5-2.4-6.4-4.4c-1.9-1.9-3.3-4.1-4.3-6.4
	s-1.5-4.9-1.5-7.5c0-2.7,0.5-5.2,1.5-7.6c1-2.4,2.4-4.6,4.3-6.5c1.8-1.9,3.9-3.3,6.3-4.3C150.1,241.3,152.6,240.8,155.3,240.8z"/>
<path class="st1" d="M233.4,266.7v-33.2h-8.9v33.2c0,4.8-1,8.3-3,10.5c-1.9,2.1-5.1,3.2-9.4,3.2c-4.3,0-7.4-1.1-9.4-3.2
	c-2-2.2-3-5.7-3-10.5v-33.2H191v33.2c0,7.2,1.8,12.8,5.3,16.5s8.9,5.6,15.8,5.6c7,0,12.3-1.9,15.9-5.6
	C231.6,279.5,233.4,274,233.4,266.7z"/>
<polygon class="st1" points="260.5,287.4 260.5,242.1 274.9,242.1 274.9,233.5 237.2,233.5 237.2,242.1 251.7,242.1 251.7,287.4 "/>
<polygon class="st1" points="398.7,253.2 374.3,253.2 374.3,233.5 365.5,233.5 365.5,287.4 374.3,287.4 374.3,261.7 398.7,261.7 
	398.7,287.4 407.6,287.4 407.6,233.5 398.7,233.5 "/>
<polygon class="st1" points="479.7,287.4 479.7,242.1 494.1,242.1 494.1,233.5 456.4,233.5 456.4,242.1 470.8,242.1 470.8,287.4 "/>
<polygon class="st1" points="74.2,317.1 49.8,317.1 49.8,297.4 41,297.4 41,351.3 49.8,351.3 49.8,325.6 74.2,325.6 74.2,351.3 
	83.1,351.3 83.1,297.4 74.2,297.4 "/>
<path class="st1" d="M163.1,300.2c-1.4-1-3.2-1.7-5.1-2.2c-1.9-0.4-4.7-0.6-8.6-0.6h-12.1v53.9h8.6v-23h3.4c3.9,0,6.7-0.2,8.6-0.6
	c1.9-0.4,3.6-1.2,5.1-2.2c1.8-1.3,3.3-3.1,4.3-5.3c1-2.2,1.5-4.7,1.5-7.3c0-2.7-0.5-5.1-1.5-7.3C166.4,303.3,165,301.5,163.1,300.2z
	 M146,305.7h1.7c6,0,8.6,0.9,9.7,1.7c1.5,1.1,2.2,3,2.2,5.8c0,2.6-0.7,4.3-2.1,5.3c-1.1,0.7-3.7,1.6-9.8,1.6H146V305.7z"/>
<path class="st1" d="M199.5,300.2c-1.4-1-3.2-1.7-5.1-2.2c-1.9-0.4-4.7-0.6-8.6-0.6h-12.1v53.9h8.6v-23h3.4c3.9,0,6.7-0.2,8.6-0.6
	c1.9-0.4,3.6-1.2,5.1-2.2c1.8-1.3,3.3-3.1,4.3-5.3c1-2.2,1.5-4.7,1.5-7.3c0-2.7-0.5-5.1-1.5-7.3
	C202.8,303.3,201.3,301.5,199.5,300.2z M182.4,305.7h1.7c6,0,8.6,0.9,9.7,1.7c1.5,1.1,2.2,3,2.2,5.8c0,2.6-0.7,4.3-2.1,5.3
	c-1.1,0.7-3.7,1.6-9.8,1.6h-1.7L182.4,305.7L182.4,305.7z"/>
<polygon class="st1" points="210.1,351.3 239.8,351.3 239.8,342.9 218.9,342.9 218.9,326 239.8,326 239.8,317.7 218.9,317.7 
	218.9,305.7 239.8,305.7 239.8,297.4 210.1,297.4 "/>
<polygon class="st1" points="302.8,351.3 332.5,351.3 332.5,342.9 311.6,342.9 311.6,326 332.5,326 332.5,317.7 311.6,317.7 
	311.6,305.7 332.5,305.7 332.5,297.4 302.8,297.4 "/>
<path class="st1" d="M375.3,302.5c-2.4-1.8-5.2-3.2-8.3-3.9c-3.1-0.8-8.2-1.1-15.7-1.1h-11.2v53.9h13.4c6.2,0,10.7-0.4,13.7-1.1
	c3-0.8,5.8-2.1,8.1-3.9c3.1-2.4,5.5-5.5,7.1-9.2s2.4-7.9,2.4-12.6c0-4.8-0.8-9-2.4-12.7C380.8,308,378.4,304.9,375.3,302.5z
	 M375.7,324.3c0,3.4-0.5,6.4-1.5,9c-1,2.5-2.5,4.6-4.4,6.2c-1.4,1.2-3.3,2-5.5,2.5c-2.3,0.5-6.6,0.8-12.8,0.8H349v-37.1h2.5
	c6,0,10.3,0.3,12.7,0.8c2.3,0.5,4.1,1.4,5.6,2.6c1.9,1.6,3.4,3.7,4.4,6.2C375.2,317.9,375.7,320.9,375.7,324.3z"/>
<polygon class="st0" points="60.1,385.2 47.5,364.3 37.3,364.3 55.7,393.8 55.7,418.2 64.5,418.2 64.5,393.8 82.9,364.3 72.7,364.3 
	"/>
<polygon class="st0" points="85.4,418.2 115,418.2 115,409.8 94.1,409.8 94.1,392.9 115,392.9 115,384.6 94.1,384.6 94.1,372.6 
	115,372.6 115,364.3 85.4,364.3 "/>
<path class="st0" d="M143.2,387.2l-7.3-3.2c-2.1-0.9-3.7-2-4.7-3.2c-0.9-1.1-1.4-2.3-1.4-3.8c0-1.8,0.6-3.2,1.8-4.4
	c1.2-1.2,2.7-1.7,4.7-1.7c1.5,0,2.9,0.4,4.1,1.2c1.2,0.8,2.4,2.2,3.4,4l0.7,1.2l7.2-4.6l-0.5-1.1c-1.4-2.8-3.3-4.9-5.8-6.3
	c-2.4-1.4-5.4-2.1-8.7-2.1c-4.5,0-8.3,1.3-11.2,3.9c-3,2.6-4.5,6-4.5,10c0,3.4,0.9,6.4,2.8,8.8c1.8,2.4,4.6,4.4,8.2,5.9l6.2,2.7
	c2.4,1.1,4.3,2.4,5.4,3.9c1.1,1.5,1.7,3.1,1.7,5.1c0,2.4-0.8,4.4-2.4,5.9c-1.6,1.5-3.8,2.3-6.5,2.3c-2.3,0-4.1-0.7-5.5-2
	c-1.5-1.4-2.6-3.5-3.3-6.4l-0.4-1.6l-8,4l0.3,1.1c1,4.1,3.1,7.3,6,9.5c3,2.2,6.6,3.4,11,3.4c5.3,0,9.6-1.6,12.8-4.7
	c3.3-3.1,4.9-7.3,4.9-12.4c0-3.5-0.9-6.6-2.8-9.1C149.4,390.7,146.7,388.7,143.2,387.2z"/>
<polygon class="st0" points="153.9,372.8 168.4,372.8 168.4,418.2 177.2,418.2 177.2,372.8 191.6,372.8 191.6,364.3 153.9,364.3 "/>
<polygon class="st0" points="195.7,418.2 225.4,418.2 225.4,409.8 204.5,409.8 204.5,392.9 225.4,392.9 225.4,384.6 204.5,384.6 
	204.5,372.6 225.4,372.6 225.4,364.3 195.7,364.3 "/>
<path class="st0" d="M260.3,390.2c2.6-2.4,3.9-6,3.9-10.5c0-2.6-0.5-5-1.4-7.1c-0.9-2.2-2.3-4-4-5.3c-1.4-1-2.9-1.8-4.7-2.2
	c-1.7-0.4-4.3-0.6-7.8-0.6H233v53.9h8.6v-22.9l17.5,22.9h11.2L250.7,394C254.8,393.5,258,392.3,260.3,390.2z M241.6,372.2h3.3
	c5.4,0,7.7,0.9,8.6,1.7c1.3,1,2,3,2,5.8c0,2.6-0.6,4.4-1.9,5.3c-0.9,0.7-3.2,1.6-8.7,1.6h-3.3L241.6,372.2L241.6,372.2z"/>
<path class="st0" d="M315.6,378.6c-1.6-3.7-4-6.8-7.1-9.2c-2.4-1.8-5.2-3.2-8.3-3.9c-3.1-0.8-8.2-1.1-15.7-1.1h-11.2v53.9h13.4
	c6.2,0,10.7-0.4,13.7-1.1c3-0.8,5.8-2.1,8.1-3.9c3.1-2.4,5.5-5.5,7.1-9.2s2.4-7.9,2.4-12.6C317.9,386.5,317.1,382.3,315.6,378.6z
	 M308.9,391.2c0,3.4-0.5,6.4-1.5,9c-1,2.5-2.5,4.6-4.4,6.2c-1.4,1.2-3.3,2-5.5,2.5c-2.3,0.5-6.6,0.8-12.8,0.8h-2.5v-37.1h2.5
	c6,0,10.3,0.3,12.7,0.8c2.3,0.5,4.1,1.4,5.6,2.6c1.9,1.6,3.4,3.7,4.4,6.2C308.4,384.8,308.9,387.8,308.9,391.2z"/>
<polygon class="st0" points="379.6,385.2 367,364.3 356.8,364.3 375.2,393.8 375.2,418.2 384,418.2 384,393.8 402.3,364.3 
	392.2,364.3 "/>
<rect x="489.7" y="98.9" class="st0" width="8.9" height="54.8"/>
<path class="st0" d="M578.8,122.1l-7.4-3.3c-2.2-1-3.8-2-4.8-3.2c-0.9-1.1-1.4-2.4-1.4-3.9c0-1.8,0.6-3.3,1.8-4.5s2.8-1.8,4.8-1.8
	c1.6,0,2.9,0.4,4.2,1.2c1.3,0.9,2.5,2.2,3.5,4.1l0.7,1.2l7.3-4.7l-0.5-1.1c-1.4-2.8-3.4-5-5.9-6.4s-5.4-2.2-8.8-2.2
	c-4.6,0-8.4,1.3-11.4,4s-4.6,6.1-4.6,10.2c0,3.5,0.9,6.5,2.8,9c1.8,2.5,4.6,4.5,8.3,6l6.3,2.7c2.5,1.1,4.4,2.4,5.5,4
	c1.2,1.5,1.7,3.2,1.7,5.2c0,2.5-0.8,4.5-2.5,6c-1.7,1.6-3.8,2.3-6.6,2.3c-2.3,0-4.2-0.7-5.6-2.1c-1.5-1.4-2.7-3.6-3.4-6.5l-0.4-1.6
	l-8.1,4l0.3,1c1,4.2,3.1,7.4,6.1,9.7s6.7,3.4,11.1,3.4c5.4,0,9.7-1.6,13-4.8s5-7.4,5-12.5c0-3.5-1-6.7-2.8-9.3
	C585.1,125.7,582.4,123.7,578.8,122.1z"/>
<polygon class="st0" points="589.8,107.4 604.5,107.4 604.5,153.6 613.4,153.6 613.4,107.4 628.1,107.4 628.1,98.9 589.8,98.9 "/>
<path class="st0" d="M662.4,153.5v-8.3h-21.3v-17.3h21.3v-8.4h-21.3v-12.3h21.3v-8.3h-30.1v54.8L662.4,153.5L662.4,153.5l9.6,0.1
	l6.8-16h18.6l6.8,16h9.7l-25.7-55.8L662.4,153.5z M681.8,129.7l6.3-13.5l6.3,13.5H681.8z"/>
<path class="st0" d="M758.7,113.4c-1.6-3.8-4-6.9-7.2-9.4c-2.4-1.9-5.3-3.2-8.4-4c-3.2-0.8-8.4-1.2-16-1.2h-11.3v54.8h13.6
	c6.3,0,10.9-0.4,13.9-1.2c3.1-0.8,5.8-2.1,8.3-4c3.2-2.4,5.6-5.6,7.2-9.3c1.6-3.7,2.4-8,2.4-12.9
	C761.2,121.4,760.3,117.1,758.7,113.4z M752,126.2c0,3.4-0.5,6.5-1.6,9.2c-1,2.6-2.5,4.7-4.5,6.3c-1.5,1.2-3.3,2.1-5.6,2.6
	c-2.4,0.5-6.7,0.8-13,0.8h-2.6v-37.8h2.6c6.2,0,10.5,0.3,12.9,0.8c2.3,0.5,4.2,1.4,5.7,2.7c2,1.7,3.5,3.8,4.5,6.3
	C751.5,119.7,752,122.7,752,126.2z"/>
<g>
	<path class="st1" d="M85.3,173.9c-2.7-2.6-5.8-4.6-9.3-6c-7-2.8-14.9-2.8-21.8,0c-3.5,1.4-6.6,3.4-9.3,6s-4.8,5.7-6.2,9.1
		c-1.4,3.4-2.1,7-2.1,10.8s0.7,7.4,2.1,10.8c1.4,3.4,3.5,6.4,6.2,9.1c2.7,2.6,5.8,4.7,9.3,6.1c3.5,1.4,7.1,2.1,10.9,2.1
		c3.7,0,7.4-0.7,10.9-2.1c3.5-1.4,6.6-3.5,9.3-6.1c2.7-2.6,4.8-5.7,6.2-9c1.4-3.4,2.1-7,2.1-10.8s-0.7-7.5-2.1-10.8
		C90,179.6,88,176.5,85.3,173.9z M65.1,174.1c2.6,0,5.1,0.5,7.5,1.5c2.3,1,4.5,2.4,6.3,4.3c1.8,1.8,3.3,4,4.2,6.4
		c1,2.4,1.5,5,1.5,7.6s-0.5,5.2-1.5,7.5s-2.4,4.5-4.3,6.3c-1.9,1.9-4,3.3-6.4,4.3c-2.3,1-4.8,1.5-7.4,1.5s-5.1-0.5-7.4-1.5
		c-2.3-1-4.5-2.4-6.4-4.3c-1.9-1.9-3.3-4-4.3-6.4c-1-2.3-1.4-4.8-1.4-7.5s0.5-5.2,1.5-7.6c1-2.4,2.4-4.5,4.3-6.4
		c1.8-1.9,3.9-3.3,6.3-4.2C59.9,174.6,62.4,174.1,65.1,174.1z"/>
	<polygon class="st1" points="130.3,175.1 130.3,166.9 100.8,166.9 100.8,220.4 109.5,220.4 109.5,195.3 130.3,195.3 130.3,187 
		109.5,187 109.5,175.1 	"/>
</g>
<path class="st1" d="M48.9,466.7c1.4,0.6,2.4,1.4,3.1,2.4c0.7,1,1.1,2.1,1.1,3.5c0,2-0.6,3.6-1.9,4.8s-2.9,1.8-5,1.8
	c-1.7,0-3.1-0.4-4.2-1.3c-1.1-0.9-1.9-2.1-2.3-3.7L42,473c0.3,1.3,0.8,2.3,1.5,2.9s1.6,1,2.7,1c1.3,0,2.3-0.4,3.1-1.1
	c0.8-0.7,1.2-1.7,1.2-2.9c0-1-0.3-1.8-0.8-2.5c-0.6-0.7-1.4-1.3-2.5-1.8l-2.6-1.1c-1.4-0.6-2.5-1.4-3.2-2.3c-0.7-0.9-1-2.1-1-3.4
	c0-1.5,0.6-2.8,1.7-3.8c1.1-1,2.6-1.5,4.3-1.5c1.3,0,2.4,0.3,3.3,0.8c0.9,0.5,1.7,1.3,2.2,2.4l-2.1,1.3c-0.5-0.8-1-1.4-1.6-1.8
	c-0.6-0.4-1.3-0.6-2-0.6c-1,0-1.7,0.3-2.3,0.9c-0.6,0.6-0.9,1.3-0.9,2.2c0,0.8,0.2,1.4,0.7,2c0.5,0.6,1.2,1,2.2,1.5L48.9,466.7z"/>
<path class="st1" d="M55.6,467.1h-2.5v-1.9h2.5v-5.4H58v5.4h2.5v1.9H58v11.5h-2.3V467.1z"/>
<path class="st1" d="M74,472.3H63.4v0.2c0,1.4,0.4,2.6,1.2,3.5c0.8,0.9,1.9,1.3,3.2,1.3c0.9,0,1.7-0.2,2.4-0.7
	c0.7-0.5,1.4-1.2,1.9-2.2l1.7,1.2c-0.7,1.2-1.5,2.1-2.6,2.7c-1,0.6-2.3,0.9-3.6,0.9c-2,0-3.7-0.7-4.9-2c-1.3-1.3-1.9-3.1-1.9-5.3
	c0-2.1,0.6-3.8,1.9-5.1c1.2-1.3,2.9-2,4.8-2c2,0,3.5,0.6,4.7,1.9c1.2,1.3,1.7,3,1.7,5.2V472.3z M71.6,470.4
	c-0.1-1.2-0.5-2.1-1.2-2.7c-0.7-0.6-1.7-1-2.9-1c-1.1,0-2,0.3-2.8,1c-0.7,0.7-1.2,1.6-1.3,2.7H71.6z"/>
<path class="st1" d="M80.9,479.4l-6.6-14.2h2.6l4,9.3l4-9.3h2.6L80.9,479.4z"/>
<path class="st1" d="M100.9,472.3H90.3v0.2c0,1.4,0.4,2.6,1.2,3.5c0.8,0.9,1.9,1.3,3.2,1.3c0.9,0,1.7-0.2,2.4-0.7
	c0.7-0.5,1.4-1.2,1.9-2.2l1.7,1.2c-0.7,1.2-1.5,2.1-2.6,2.7c-1,0.6-2.3,0.9-3.6,0.9c-2,0-3.7-0.7-4.9-2c-1.3-1.3-1.9-3.1-1.9-5.3
	c0-2.1,0.6-3.8,1.9-5.1c1.2-1.3,2.9-2,4.8-2c2,0,3.5,0.6,4.7,1.9c1.2,1.3,1.7,3,1.7,5.2V472.3z M98.5,470.4
	c-0.1-1.2-0.5-2.1-1.2-2.7c-0.7-0.6-1.7-1-2.9-1c-1.1,0-2,0.3-2.8,1s-1.2,1.6-1.3,2.7H98.5z"/>
<path class="st1" d="M115.6,457.2h2.6v16.7c0,1.8-0.4,3.1-1.2,4c-0.8,0.9-2,1.3-3.7,1.3c-0.9,0-1.7-0.2-2.4-0.5
	c-0.7-0.3-1.4-0.9-2-1.6l1.7-1.7c0.5,0.5,1,0.9,1.5,1.2c0.4,0.2,0.9,0.4,1.4,0.4c0.8,0,1.3-0.3,1.6-0.9c0.3-0.6,0.5-1.7,0.5-3.4
	V457.2z"/>
<path class="st1" d="M120.9,472c0-1,0.2-1.9,0.5-2.8c0.4-0.9,0.9-1.6,1.6-2.3c0.7-0.7,1.5-1.2,2.4-1.6c0.9-0.4,1.8-0.5,2.8-0.5
	c1,0,1.9,0.2,2.8,0.5c0.9,0.4,1.7,0.9,2.4,1.6c0.7,0.7,1.2,1.4,1.6,2.3c0.4,0.9,0.5,1.8,0.5,2.8c0,1-0.2,1.9-0.5,2.8
	c-0.4,0.9-0.9,1.6-1.6,2.3c-0.7,0.7-1.5,1.2-2.4,1.6c-0.9,0.4-1.8,0.6-2.8,0.6c-1,0-1.9-0.2-2.8-0.5c-0.9-0.4-1.7-0.9-2.4-1.6
	c-0.7-0.7-1.2-1.5-1.6-2.3C121,473.9,120.9,472.9,120.9,472z M123.3,472c0,1.4,0.5,2.6,1.4,3.6c0.9,1,2.1,1.5,3.4,1.5
	c1.3,0,2.5-0.5,3.4-1.5c0.9-1,1.4-2.2,1.4-3.6s-0.5-2.6-1.4-3.6c-0.9-1-2.1-1.5-3.4-1.5c-1.4,0-2.5,0.5-3.4,1.5
	C123.8,469.4,123.3,470.5,123.3,472z"/>
<path class="st1" d="M138,456h2.3v11.8c0.5-1,1.2-1.7,2-2.2c0.8-0.5,1.8-0.8,2.9-0.8c1.9,0,3.5,0.7,4.6,2c1.1,1.3,1.7,3.1,1.7,5.2
	c0,2.2-0.6,3.9-1.8,5.2c-1.2,1.3-2.7,2-4.6,2c-1,0-2-0.3-2.8-0.8c-0.8-0.5-1.5-1.3-2.1-2.2v2.4H138V456z M140.2,472
	c0,1.6,0.4,2.8,1.2,3.7c0.8,0.9,1.9,1.3,3.3,1.3c1.4,0,2.4-0.5,3.2-1.4c0.8-0.9,1.2-2.2,1.2-3.9c0-1.5-0.4-2.6-1.1-3.4
	c-0.8-0.8-1.8-1.2-3.2-1.2c-1.4,0-2.5,0.5-3.3,1.4C140.6,469.3,140.2,470.5,140.2,472z"/>
<path class="st1" d="M152.7,476.4l2-1.3c0.4,0.7,0.8,1.2,1.4,1.6c0.6,0.4,1.2,0.5,2,0.5c0.8,0,1.4-0.2,1.8-0.6
	c0.5-0.4,0.7-0.9,0.7-1.5c0-0.5-0.2-0.9-0.5-1.2c-0.3-0.3-0.9-0.6-1.6-0.9l-0.4-0.1c-3.3-1.1-4.9-2.5-4.9-4.2c0-1.2,0.4-2.2,1.3-2.9
	c0.9-0.7,2-1.1,3.4-1.1c1.2,0,2.2,0.2,3,0.7s1.4,1.1,1.8,2l-1.9,1.1c-0.3-0.6-0.7-1.1-1.2-1.4c-0.5-0.3-1.1-0.5-1.8-0.5
	c-0.7,0-1.2,0.2-1.6,0.6c-0.4,0.4-0.6,0.9-0.6,1.4c0,0.8,0.9,1.5,2.7,2.1c0.3,0.1,0.6,0.2,0.8,0.2c1.5,0.5,2.5,1,3,1.6
	c0.6,0.6,0.9,1.4,0.9,2.4c0,1.3-0.5,2.3-1.4,3.1s-2.1,1.2-3.5,1.2c-1.2,0-2.3-0.2-3.2-0.7C154,478,153.3,477.3,152.7,476.4z"/>
</svg>
