<?xml version="1.0" encoding="utf-8"?>
<!-- Generator: Adobe Illustrator 23.0.3, SVG Export Plug-In . SVG Version: 6.00 Build 0)  -->
<svg version="1.1" id="Слой_1" xmlns="http://www.w3.org/2000/svg" xmlns:xlink="http://www.w3.org/1999/xlink" x="0px" y="0px"
	 viewBox="0 0 742 488.3" style="enable-background:new 0 0 742 488.3;" xml:space="preserve">
<style type="text/css">
	.st0{fill:#D9544B;}
	.st1{fill:#333333;}
	.st2{fill:#D84C42;}
</style>
<polygon class="st0" points="57.1,37.6 98.6,76.1 98.6,14.3 88.5,14.3 88.5,53.6 47,14.6 47,74.7 57.1,74.7 "/>
<polygon class="st1" points="56.7,317.3 98.2,355.8 98.2,294 88.1,294 88.1,333.3 46.6,294.3 46.6,354.4 56.7,354.4 "/>
<polygon class="st0" points="392.9,385.3 434.5,423.8 434.5,362 424.4,362 424.4,401.3 382.9,362.3 382.9,422.4 392.9,422.4 "/>
<path class="st0" d="M113.5,67c3,2.9,6.5,5.2,10.5,6.8c3.9,1.6,8,2.4,12.3,2.4c4.2,0,8.4-0.8,12.3-2.4c3.9-1.6,7.5-3.9,10.5-6.8
	c3-3,5.4-6.4,7-10.2s2.4-7.9,2.4-12.2s-0.8-8.4-2.4-12.2c-1.6-3.8-3.9-7.2-7-10.2c-3-2.9-6.5-5.2-10.5-6.8
	c-3.9-1.6-8.1-2.4-12.3-2.4s-8.4,0.8-12.3,2.4s-7.4,3.9-10.4,6.8c-3.1,3-5.4,6.4-7,10.2s-2.4,7.9-2.4,12.2s0.8,8.3,2.4,12.1
	C108.1,60.5,110.5,64,113.5,67z M114.8,44.6c0-2.9,0.5-5.7,1.6-8.3s2.6-5,4.7-7.1c2-2,4.3-3.6,6.9-4.7c2.6-1.1,5.4-1.6,8.3-1.6
	c2.9,0,5.6,0.5,8.2,1.6c2.6,1.1,4.9,2.6,7,4.7c2,2,3.6,4.4,4.7,7c1.1,2.6,1.6,5.5,1.6,8.4c0,2.9-0.5,5.7-1.6,8.3s-2.6,4.9-4.7,7
	c-2.1,2.1-4.4,3.7-7,4.7c-2.6,1.1-5.3,1.6-8.2,1.6s-5.6-0.5-8.2-1.6c-2.5-1.1-4.9-2.7-7-4.8s-3.7-4.5-4.7-7
	C115.3,50.3,114.8,47.5,114.8,44.6z"/>
<path class="st0" d="M184.2,49.9l19,24.8h8h5.3h5.1l6.3-34.2L244.7,76l16.9-35.5l6.4,34.2h6.3h4.1h7.3l7.4-17.4h19.8l7.4,17.4h11.3
	L303,14.8l-26,53.4l-11.8-55.1l-20.5,39.4l-20.5-39.4l-12,56.3l-17.5-21.9c4.3-0.4,7.7-1.7,10.2-4c3-2.8,4.5-6.8,4.5-11.9
	c0-2.9-0.5-5.6-1.5-8.1s-2.6-4.5-4.5-6c-1.5-1.2-3.3-2-5.4-2.5c-1.9-0.5-4.8-0.7-8.8-0.7H174v60.4h10.2V49.9z M184.2,23.6h3.3
	c5.9,0,8.3,1,9.4,1.8c1.4,1.1,2.1,3.2,2.1,6.2c0,2.8-0.7,4.7-2,5.7c-1,0.8-3.5,1.7-9.5,1.7h-3.3V23.6z M296.5,47.9l6.3-13.6
	l6.3,13.6H296.5z"/>
<polygon class="st0" points="364.4,64.6 343,64.6 343,14.3 332.6,14.3 332.6,74.7 364.4,74.7 "/>
<rect x="368.9" y="14.3" class="st0" width="10.4" height="60.4"/>
<polygon class="st0" points="399.3,74.7 409.8,74.7 409.8,24.4 425.7,24.4 425.7,21.2 442.1,47.4 442.1,74.7 452.5,74.7 452.5,47.4 
	473.1,14.3 461.1,14.3 447.3,37.2 433.5,14.3 425.7,14.3 421.4,14.3 383.2,14.3 383.2,24.4 399.3,24.4 "/>
<rect x="47.1" y="84.6" class="st0" width="10.4" height="60.4"/>
<polygon class="st0" points="103.9,84.6 61.4,84.6 61.4,94.6 77.5,94.6 77.5,145 87.9,145 87.9,94.6 103.9,94.6 "/>
<path class="st0" d="M216.2,93.8c-1.2-2.5-2.8-4.6-4.8-6l0,0c-1.6-1.1-3.6-2-5.8-2.5c-2.1-0.5-5.3-0.7-9.6-0.7h-13.7V145h10.2v-25.5
	h3.5c4.4,0,7.5-0.2,9.6-0.7c2.2-0.5,4.1-1.3,5.8-2.5c2.1-1.5,3.7-3.5,4.8-6s1.7-5.2,1.7-8.2C217.9,99,217.3,96.2,216.2,93.8z
	 M192.5,94.4h1.6c6.6,0,9.4,1,10.6,1.9c1.6,1.1,2.3,3.1,2.3,6.2c0,2.8-0.7,4.6-2.2,5.6c-1.2,0.8-4,1.7-10.7,1.7h-1.6L192.5,94.4
	L192.5,94.4z"/>
<polygon class="st0" points="305,84.7 293.7,84.7 278.4,123 263,84.7 251.7,84.7 278.4,145.8 "/>
<polygon class="st0" points="342.7,135 319.5,135 319.5,116.9 342.7,116.9 342.7,107 319.5,107 319.5,94.4 342.7,94.4 342.7,84.6 
	309.1,84.6 309.1,145 342.7,145 "/>
<path class="st0" d="M390,139.3c3.5-2.7,6.2-6.2,8-10.3c1.8-4.1,2.6-8.9,2.6-14.2c0-5.3-0.9-10.1-2.7-14.2c-1.8-4.2-4.5-7.7-8-10.3
	c-2.7-2.1-5.8-3.5-9.3-4.4s-9.2-1.3-17.5-1.3h-12.7V145h15.2c6.9,0,11.9-0.4,15.2-1.3C384.3,142.8,387.4,141.3,390,139.3z
	 M390,114.7c0,3.7-0.6,7-1.7,9.9c-1.1,2.8-2.7,5-4.8,6.8c-1.6,1.3-3.6,2.2-5.9,2.7c-2.5,0.6-7.3,0.9-14.1,0.9H361V94.4h2.5
	c6.7,0,11.4,0.3,14,0.9c2.5,0.6,4.5,1.5,6,2.8c2.1,1.8,3.7,4,4.8,6.7C389.4,107.7,390,111,390,114.7z"/>
<path class="st0" d="M425.6,145h10.2v-24.8l19,24.8H468l-21.8-27.2c4.3-0.4,7.7-1.7,10.2-4c3-2.8,4.5-6.8,4.5-11.9
	c0-2.9-0.5-5.6-1.5-8.1s-2.6-4.5-4.5-6c-1.5-1.2-3.3-2-5.4-2.5c-1.9-0.5-4.8-0.7-8.8-0.7h-15.2L425.6,145L425.6,145z M448.6,107.6
	c-1,0.8-3.5,1.7-9.5,1.7h-3.3V93.9h3.3c5.9,0,8.3,1,9.4,1.8c1.4,1.1,2.1,3.2,2.1,6.2C450.6,104.7,449.9,106.6,448.6,107.6z"/>
<path class="st0" d="M474.9,137.2c3,2.9,6.5,5.2,10.5,6.8c3.9,1.6,8,2.4,12.3,2.4c4.2,0,8.4-0.8,12.3-2.4c3.9-1.6,7.5-3.9,10.5-6.8
	c3-3,5.4-6.4,7-10.2s2.4-7.9,2.4-12.2c0-4.3-0.8-8.4-2.4-12.2c-1.6-3.8-3.9-7.2-7-10.2c-3-2.9-6.5-5.2-10.5-6.8
	c-3.9-1.6-8.1-2.4-12.3-2.4s-8.4,0.8-12.3,2.4s-7.4,3.9-10.4,6.8c-3.1,3-5.4,6.4-7,10.2c-1.6,3.8-2.4,7.9-2.4,12.2
	c0,4.3,0.8,8.3,2.4,12.1C469.5,130.8,471.9,134.3,474.9,137.2z M476.2,114.9c0-2.9,0.5-5.7,1.6-8.3c1.1-2.6,2.6-5,4.7-7.1
	c2-2,4.3-3.6,6.9-4.7s5.4-1.6,8.3-1.6s5.6,0.5,8.2,1.6s4.9,2.6,7,4.7c2,2,3.6,4.4,4.7,7c1.1,2.6,1.6,5.5,1.6,8.4s-0.5,5.7-1.6,8.3
	c-1.1,2.6-2.6,4.9-4.7,7c-2.1,2.1-4.4,3.7-7,4.7c-2.6,1.1-5.3,1.6-8.2,1.6s-5.6-0.5-8.2-1.6c-2.5-1.1-4.9-2.7-7-4.8s-3.7-4.5-4.7-7
	C476.7,120.5,476.2,117.8,476.2,114.9z"/>
<path class="st0" d="M614.5,143.7c3.4-0.9,6.5-2.4,9.1-4.4c3.5-2.7,6.2-6.2,8-10.3c1.8-4.1,2.6-8.9,2.6-14.2
	c0-5.3-0.9-10.1-2.7-14.2c-1.8-4.2-4.5-7.7-8-10.3c-2.7-2.1-5.8-3.5-9.3-4.4s-9.2-1.3-17.5-1.3H584V145h15.2
	C606.1,145,611.1,144.5,614.5,143.7z M617.1,131.3c-1.6,1.3-3.6,2.2-5.9,2.7c-2.5,0.6-7.3,0.9-14.1,0.9h-2.5V94.4h2.5
	c6.7,0,11.4,0.3,14,0.9c2.5,0.6,4.5,1.5,6,2.8c2.1,1.8,3.7,4,4.8,6.7c1.1,2.8,1.7,6.1,1.7,9.8c0,3.7-0.6,7-1.7,9.9
	C620.7,127.3,619.1,129.6,617.1,131.3z"/>
<path class="st0" d="M649.3,134.7c1.8,0,3.3-0.6,4.6-1.9c1.2-1.2,1.8-2.8,1.8-4.5c0-1.8-0.6-3.3-1.9-4.5c-1.2-1.2-2.8-1.8-4.5-1.8
	c-1.8,0-3.3,0.6-4.6,1.8c-1.2,1.2-1.9,2.7-1.9,4.5s0.6,3.3,1.9,4.5C646,134.1,647.6,134.7,649.3,134.7z"/>
<path class="st0" d="M649.3,108.7c1.8,0,3.3-0.6,4.6-1.9c1.2-1.2,1.8-2.8,1.8-4.6c0-1.8-0.6-3.3-1.9-4.5c-1.2-1.2-2.8-1.9-4.5-1.9
	c-1.8,0-3.3,0.6-4.5,1.9c-1.3,1.3-1.9,2.8-1.9,4.5c0,1.8,0.6,3.3,1.9,4.6C646,108.1,647.6,108.7,649.3,108.7z"/>
<rect x="47.1" y="153.8" class="st1" width="10.4" height="60.4"/>
<polygon class="st1" points="87.9,214.2 87.9,163.9 103.9,163.9 103.9,153.8 61.4,153.8 61.4,163.9 77.5,163.9 77.5,214.2 "/>
<path class="st1" d="M110.9,211.9c3.3,2.5,7.5,3.8,12.3,3.8c5.9,0,10.8-1.8,14.5-5.3c3.7-3.5,5.5-8.2,5.5-13.9
	c0-3.9-1.1-7.4-3.2-10.3c-2.1-2.9-5.1-5.2-9.1-6.9l-8.1-3.6c-2.3-1-4.1-2.2-5.1-3.4c-1-1.1-1.4-2.5-1.4-4.1c0-1.9,0.6-3.4,1.9-4.6
	c1.3-1.2,2.9-1.8,5-1.8c1.6,0,3,0.4,4.3,1.3c1.3,0.9,2.6,2.4,3.7,4.3l1,1.7l8.6-5.5l-0.7-1.5c-1.6-3.1-3.8-5.5-6.6-7.2
	c-2.8-1.6-6.1-2.4-9.8-2.4c-5.1,0-9.4,1.5-12.7,4.4c-3.4,3-5.1,6.8-5.1,11.4c0,3.8,1.1,7.2,3.1,10c2,2.7,5.1,5,9.2,6.7l6.9,2.9
	c2.7,1.2,4.6,2.6,5.9,4.2c1.2,1.6,1.8,3.4,1.8,5.5c0,2.6-0.8,4.7-2.6,6.3s-4,2.4-7,2.4c-2.4,0-4.3-0.7-5.9-2.2s-2.8-3.8-3.6-6.9
	l-0.5-2.2l-9.5,4.7l0.4,1.4C105.3,205.7,107.6,209.3,110.9,211.9z"/>
<path class="st1" d="M221,209.2l0.8-0.5v-14.8l-3.2,3.7c-2.4,2.8-5,4.9-7.9,6.3c-2.8,1.4-6,2.1-9.3,2.1c-3.5,0-6.9-0.8-9.9-2.4
	c-3-1.6-5.7-3.9-7.7-6.9c-1.2-1.7-2.1-3.6-2.7-5.6c-0.6-2-0.9-4.3-0.9-6.8c0-3.1,0.5-6,1.5-8.5s2.5-4.9,4.5-6.9
	c1.9-2,4.2-3.6,6.8-4.7c2.6-1.1,5.3-1.7,8.1-1.7c3.4,0,6.6,0.7,9.4,1.9c2.8,1.3,5.6,3.4,8.1,6.1l3.2,3.4v-14.4L221,159
	c-3.1-2.2-6.4-3.8-9.6-4.9c-3.2-1-6.6-1.6-10.1-1.6c-4.4,0-8.5,0.7-12.2,2.2s-7.2,3.7-10.2,6.7c-3.2,3.1-5.6,6.6-7.1,10.4
	c-1.5,3.8-2.3,8-2.3,12.6c0,5.3,1.2,10.2,3.5,14.6c2.3,4.4,5.7,8.2,10.1,11.2c2.6,1.8,5.5,3.2,8.5,4.1c3,0.9,6.1,1.4,9.3,1.4
	c3.6,0,7.2-0.6,10.6-1.7C214.8,213,218,211.3,221,209.2z"/>
<path class="st1" d="M259.2,215.7c4.2,0,8.4-0.8,12.3-2.4c3.9-1.6,7.5-3.9,10.5-6.8c3-3,5.4-6.4,7-10.2s2.4-7.9,2.4-12.2
	s-0.8-8.4-2.4-12.2s-3.9-7.2-7-10.2c-3-2.9-6.5-5.2-10.5-6.8c-3.9-1.6-8.1-2.4-12.3-2.4c-4.2,0-8.4,0.8-12.3,2.4
	c-3.9,1.6-7.4,3.9-10.4,6.8c-3.1,3-5.4,6.4-7,10.2s-2.4,7.9-2.4,12.2s0.8,8.3,2.4,12.1c1.6,3.8,4,7.2,7,10.2c3,2.9,6.5,5.2,10.5,6.8
	C250.8,214.9,254.9,215.7,259.2,215.7z M237.7,184.1c0-2.9,0.5-5.7,1.6-8.3s2.6-5,4.7-7.1c2-2,4.3-3.6,6.9-4.7
	c2.6-1.1,5.4-1.6,8.3-1.6s5.6,0.5,8.2,1.6s4.9,2.6,7,4.7c2,2,3.6,4.4,4.7,7s1.6,5.5,1.6,8.4s-0.5,5.7-1.6,8.3s-2.6,4.9-4.7,7
	s-4.4,3.7-7,4.7c-2.6,1.1-5.3,1.6-8.2,1.6c-2.9,0-5.6-0.5-8.2-1.6c-2.5-1.1-4.9-2.7-7-4.8s-3.7-4.5-4.7-7l0,0
	C238.2,189.8,237.7,187,237.7,184.1z"/>
<polygon class="st1" points="310,184.6 326.9,214.7 343.8,184.6 350.2,214.2 360.5,214.2 347.4,154.5 326.9,191.1 306.4,154.5 
	293.4,214.2 303.7,214.2 "/>
<polygon class="st1" points="398.8,163.6 398.8,153.8 365.2,153.8 365.2,214.2 375.6,214.2 375.6,186.2 398.8,186.2 398.8,176.3 
	375.6,176.3 375.6,163.6 "/>
<path class="st1" d="M467.2,184.1c0-4.3-0.8-8.4-2.4-12.2s-3.9-7.2-7-10.2c-3-2.9-6.5-5.2-10.5-6.8c-3.9-1.6-8.1-2.4-12.3-2.4
	c-4.2,0-8.4,0.8-12.3,2.4c-3.9,1.6-7.4,3.9-10.4,6.8c-3.1,3-5.4,6.4-7,10.2s-2.4,7.9-2.4,12.2s0.8,8.3,2.4,12.1s4,7.2,7,10.2
	c3,2.9,6.5,5.2,10.5,6.8c3.9,1.6,8,2.4,12.3,2.4c4.2,0,8.4-0.8,12.3-2.4c3.9-1.6,7.5-3.9,10.5-6.8c3-3,5.4-6.4,7-10.2
	C466.4,192.5,467.2,188.4,467.2,184.1z M454.9,192.4c-1.1,2.6-2.6,4.9-4.7,7s-4.4,3.7-7,4.7c-2.6,1.1-5.3,1.6-8.2,1.6
	c-2.9,0-5.6-0.5-8.2-1.6c-2.5-1.1-4.9-2.7-7-4.8s-3.7-4.5-4.7-7c-1.1-2.6-1.6-5.3-1.6-8.2s0.5-5.7,1.6-8.3s2.6-5,4.7-7.1
	c2-2,4.3-3.6,6.9-4.7c2.6-1.1,5.4-1.6,8.3-1.6s5.6,0.5,8.2,1.6s4.9,2.6,7,4.7c2,2,3.6,4.4,4.7,7s1.6,5.5,1.6,8.4
	C456.5,187,455.9,189.8,454.9,192.4L454.9,192.4z"/>
<path class="st1" d="M509.8,171.1c0-2.9-0.5-5.6-1.5-8.1s-2.6-4.5-4.5-6c-1.5-1.2-3.3-2-5.4-2.5c-1.9-0.5-4.8-0.7-8.8-0.7h-15.2
	v60.4h10.2v-24.8l19,24.8H517L495.2,187c4.3-0.4,7.7-1.7,10.2-4C508.3,180.3,509.8,176.3,509.8,171.1z M497.6,176.9
	c-1,0.8-3.5,1.7-9.5,1.7h-3.3v-15.4h3.3c5.9,0,8.3,1,9.4,1.8c1.4,1.1,2.1,3.2,2.1,6.2C499.5,174,498.9,175.9,497.6,176.9z"/>
<polygon class="st1" points="537.4,214.2 537.4,163.9 553.4,163.9 553.4,153.8 510.9,153.8 510.9,163.9 526.9,163.9 526.9,214.2 "/>
<path class="st1" d="M639.9,179.2c1.7-2.3,2.5-5.2,2.5-8.6c0-2.8-0.6-5.4-1.7-7.7c-1.1-2.4-2.7-4.3-4.8-5.9c-1.6-1.2-3.6-2-5.8-2.5
	c-2.1-0.5-5.3-0.7-9.6-0.7h-13.6v60.4h13.6c5.8,0,9.8-0.3,12.3-1c2.6-0.7,4.9-2,6.7-3.8c1.6-1.6,2.9-3.6,3.9-5.9
	c0.9-2.3,1.4-4.7,1.4-7.2c0-4.2-1.1-7.8-3.3-10.6c-1.2-1.6-2.7-2.8-4.5-3.7C638.1,181.2,639.1,180.3,639.9,179.2z M620.5,163.3
	c5.8,0,8.2,1,9.2,1.8c1.4,1.1,2.1,3.2,2.1,6.2c0,2.7-0.7,4.5-2.2,5.6c-1.1,0.8-3.6,1.8-9.1,1.8h-3.4v-15.4L620.5,163.3L620.5,163.3z
	 M620.5,204.7h-3.4v-17.1h5.4c2.4,0,4.1,0.1,5.2,0.3c1,0.2,1.8,0.5,2.6,1c1.2,0.7,2.1,1.6,2.8,2.8c0.7,1.3,1,2.8,1,4.5
	c0,1.5-0.3,2.9-0.8,4.1c-0.5,1.2-1.2,2.1-2.2,2.7c-0.7,0.5-1.8,0.9-3.1,1.2C626.5,204.6,624,204.7,620.5,204.7z"/>
<polygon class="st1" points="651.5,153.8 651.5,214.2 683.3,214.2 683.3,204.2 661.9,204.2 661.9,153.8 "/>
<polygon class="st1" points="721.3,163.6 721.3,153.8 687.7,153.8 687.7,214.2 721.3,214.2 721.3,204.3 698.1,204.3 698.1,186.2 
	721.3,186.2 721.3,176.3 698.1,176.3 698.1,163.6 "/>
<polygon class="st1" points="62.4,285.2 72.9,285.2 72.9,234.9 88.9,234.9 88.9,224.8 46.4,224.8 46.4,234.9 62.4,234.9 "/>
<path class="st1" d="M152.1,267.3c1.6-3.8,2.4-7.9,2.4-12.2s-0.8-8.4-2.4-12.2c-1.6-3.8-3.9-7.2-7-10.2c-3-2.9-6.5-5.2-10.5-6.8
	c-3.9-1.6-8.1-2.4-12.3-2.4c-4.2,0-8.4,0.8-12.3,2.4c-3.9,1.6-7.4,3.9-10.4,6.8c-3.1,3-5.4,6.4-7,10.2s-2.4,7.9-2.4,12.2
	s0.8,8.3,2.4,12.1s4,7.2,7,10.2c3,2.9,6.5,5.2,10.5,6.8c3.9,1.6,8,2.4,12.3,2.4c4.2,0,8.4-0.8,12.3-2.4s7.5-3.9,10.5-6.8
	C148.1,274.6,150.5,271.1,152.1,267.3z M122.3,233.5c2.9,0,5.6,0.5,8.2,1.6c2.6,1.1,4.9,2.6,7,4.7c2,2,3.6,4.4,4.7,7
	c1.1,2.6,1.6,5.5,1.6,8.4c0,2.9-0.5,5.7-1.6,8.3s-2.6,4.9-4.7,7c-2.1,2.1-4.4,3.7-7,4.7c-2.6,1.1-5.3,1.6-8.2,1.6
	c-2.9,0-5.6-0.5-8.2-1.6c-2.5-1.1-4.9-2.7-7-4.8c-2.1-2.1-3.7-4.5-4.7-7c-1.1-2.6-1.6-5.3-1.6-8.2c0-2.9,0.5-5.7,1.6-8.3
	s2.6-5,4.7-7.1c2-2,4.3-3.6,6.9-4.7C116.6,234,119.4,233.5,122.3,233.5z"/>
<path class="st1" d="M233.1,285.2h11.3l7.4-17.4h19.8l7.4,17.4h11.3l-28.6-60.8L233.1,285.2z M255.3,258.4l6.3-13.6l6.3,13.6H255.3z
	"/>
<path class="st1" d="M543.9,214.2h11.3l7.4-17.4h19.8l7.4,17.4h11.3l-28.6-60.8L543.9,214.2z M566.2,187.4l6.3-13.6l6.3,13.6H566.2z
	"/>
<path class="st0" d="M208.8,145.6h11.3l7.4-17.4h19.8l7.4,17.4H266l-28.6-60.8L208.8,145.6z M231.1,118.7l6.3-13.6l6.3,13.6H231.1z"
	/>
<path class="st0" d="M108.6,145.6h11.3l7.4-17.4h19.8l7.4,17.4h11.3l-28.6-60.8L108.6,145.6z M130.9,118.7l6.3-13.6l6.3,13.6H130.9z
	"/>
<path class="st0" d="M523.3,145.6h11.3l7.4-17.4h19.8l7.4,17.4h11.3l-28.6-60.8L523.3,145.6z M545.6,118.7l6.3-13.6l6.3,13.6H545.6z
	"/>
<polygon class="st1" points="326.2,275.2 304.7,275.2 304.7,224.8 294.4,224.8 294.4,285.2 326.2,285.2 "/>
<polygon class="st1" points="349.1,252.3 375.2,224.8 362.1,224.8 340.9,247.3 340.9,224.8 330.6,224.8 330.6,285.2 340.9,285.2 
	340.9,257.9 363.8,285.2 377.3,285.2 "/>
<polygon class="st1" points="387.4,271.2 378.9,288.4 386.6,290.5 397.6,273.7 "/>
<path class="st1" d="M160.5,301.9L160.5,301.9c-3-2.9-6.5-5.2-10.5-6.8c-3.9-1.6-8.1-2.4-12.3-2.4s-8.4,0.8-12.3,2.4
	c-3.9,1.6-7.4,3.9-10.4,6.8c-3.1,3-5.4,6.4-7,10.2c-1.6,3.8-2.4,7.9-2.4,12.2c0,4.3,0.8,8.3,2.4,12.1c1.6,3.8,4,7.2,7,10.2
	c3,2.9,6.5,5.2,10.5,6.8c3.9,1.6,8,2.4,12.3,2.4c4.2,0,8.4-0.8,12.3-2.4c3.9-1.6,7.5-3.9,10.5-6.8c3-3,5.4-6.4,7-10.2
	c1.6-3.8,2.4-7.9,2.4-12.2c0-4.3-0.8-8.4-2.4-12.2C165.9,308.3,163.5,304.8,160.5,301.9z M157.6,332.6c-1.1,2.6-2.6,4.9-4.7,7
	c-2.1,2.1-4.4,3.7-7,4.7c-2.6,1.1-5.3,1.6-8.2,1.6s-5.6-0.5-8.2-1.6c-2.5-1.1-4.9-2.7-7-4.8c-2.1-2.1-3.7-4.5-4.7-7
	c-1.1-2.6-1.6-5.3-1.6-8.2c0-2.9,0.5-5.7,1.6-8.3c1.1-2.6,2.6-5,4.7-7.1c2-2,4.3-3.6,6.9-4.7c2.6-1.1,5.4-1.6,8.3-1.6
	c2.9,0,5.6,0.5,8.2,1.6c2.6,1.1,4.9,2.6,7,4.7c2,2,3.6,4.4,4.7,7c1.1,2.6,1.6,5.5,1.6,8.4C159.2,327.2,158.6,330,157.6,332.6
	L157.6,332.6z"/>
<polygon class="st1" points="198.6,354.4 209,354.4 209,326.4 232.2,326.4 232.2,316.4 209,316.4 209,303.8 232.2,303.8 232.2,294 
	198.6,294 "/>
<polygon class="st1" points="249.3,294 238.9,294 238.9,354.4 270.7,354.4 270.7,344.3 249.3,344.3 "/>
<path class="st1" d="M327.5,301.9L327.5,301.9c-3-2.9-6.5-5.2-10.5-6.8c-3.9-1.6-8.1-2.4-12.3-2.4c-4.2,0-8.4,0.8-12.3,2.4
	s-7.4,3.9-10.4,6.8c-3.1,3-5.4,6.4-7,10.2c-1.6,3.8-2.4,7.9-2.4,12.2c0,4.3,0.8,8.3,2.4,12.1c1.6,3.8,4,7.2,7,10.2
	c3,2.9,6.5,5.2,10.5,6.8c3.9,1.6,8,2.4,12.3,2.4c4.2,0,8.4-0.8,12.3-2.4s7.5-3.9,10.5-6.8c3-3,5.4-6.4,7-10.2
	c1.6-3.8,2.4-7.9,2.4-12.2c0-4.3-0.8-8.4-2.4-12.2C332.8,308.3,330.5,304.8,327.5,301.9z M324.5,332.6c-1.1,2.6-2.6,4.9-4.7,7
	s-4.4,3.7-7,4.7c-2.6,1.1-5.3,1.6-8.2,1.6c-2.9,0-5.6-0.5-8.2-1.6c-2.5-1.1-4.9-2.7-7-4.8c-2.1-2.1-3.7-4.5-4.7-7
	c-1.1-2.6-1.6-5.3-1.6-8.2c0-2.9,0.5-5.7,1.6-8.3c1.1-2.6,2.6-5,4.7-7.1c2-2,4.3-3.6,6.9-4.7s5.4-1.6,8.3-1.6s5.6,0.5,8.2,1.6
	s4.9,2.6,7,4.7c2,2,3.6,4.4,4.7,7s1.6,5.5,1.6,8.4C326.1,327.2,325.6,330,324.5,332.6L324.5,332.6z"/>
<polygon class="st1" points="416.7,354.4 450.2,354.4 450.2,344.5 427.1,344.5 427.1,326.4 450.2,326.4 450.2,316.4 427.1,316.4 
	427.1,303.8 450.2,303.8 450.2,294 416.7,294 "/>
<path class="st1" d="M488.9,323.2c3-2.8,4.5-6.8,4.5-11.9c0-2.9-0.5-5.6-1.5-8.1s-2.6-4.5-4.5-6c-1.5-1.2-3.3-2-5.4-2.5
	c-1.9-0.5-4.8-0.7-8.8-0.7H458v60.4h10.2v-24.8l19,24.8h13.3l-21.8-27.2C483,326.9,486.4,325.5,488.9,323.2z M468.3,303.3h3.3
	c5.9,0,8.3,1,9.4,1.8c1.4,1.1,2.1,3.2,2.1,6.2c0,2.8-0.7,4.7-2,5.7c-1,0.8-3.5,1.7-9.5,1.7h-3.3V303.3z"/>
<path class="st1" d="M523.7,319.4l-8.1-3.6c-2.3-1-4.1-2.2-5.1-3.4c-1-1.1-1.4-2.5-1.4-4.1c0-1.9,0.6-3.4,1.9-4.6
	c1.3-1.2,2.9-1.8,5-1.8c1.6,0,3,0.4,4.3,1.3s2.6,2.4,3.7,4.3l1,1.7l8.6-5.5l-0.7-1.5c-1.6-3.1-3.8-5.5-6.6-7.2
	c-2.8-1.6-6.1-2.4-9.8-2.4c-5.1,0-9.4,1.5-12.7,4.4c-3.4,3-5.1,6.8-5.1,11.4c0,3.8,1.1,7.2,3.1,10c2,2.7,5.1,5,9.2,6.7l6.9,2.9
	c2.7,1.2,4.6,2.6,5.9,4.2c1.2,1.6,1.8,3.4,1.8,5.5c0,2.6-0.8,4.7-2.6,6.3c-1.8,1.6-4,2.4-7,2.4c-2.4,0-4.3-0.7-5.9-2.2
	s-2.8-3.8-3.6-6.9l-0.5-2.2l-9.5,4.7l0.4,1.4c1.2,4.6,3.4,8.2,6.8,10.8c3.3,2.5,7.5,3.8,12.3,3.8c5.9,0,10.8-1.8,14.5-5.3
	s5.5-8.2,5.5-13.9c0-3.9-1.1-7.4-3.2-10.3C530.8,323.4,527.7,321.1,523.7,319.4z"/>
<path class="st0" d="M79.4,399.1h16c-0.7,4.2-2.5,7.6-5.5,10.3c-3.5,3.2-7.7,4.7-13,4.7c-6,0-10.8-1.9-14.6-6
	c-3.9-4-5.8-9.1-5.8-15.4c0-6.7,1.9-12.1,5.7-16.2c3.8-4.1,8.6-6.1,14.7-6.1c3.7,0,7,0.8,9.7,2.3c2.8,1.6,5.1,3.9,7,7.1l1.1,1.8
	l8.6-6.9l-0.9-1.4c-2.8-4.2-6.4-7.5-10.7-9.6c-4.2-2.1-9.3-3.2-15-3.2c-4.3,0-8.3,0.7-11.9,2s-6.8,3.3-9.5,5.9
	c-3.2,3.1-5.7,6.7-7.3,10.7s-2.4,8.5-2.4,13.5c0,6,1.4,11.5,4,16.3c2.7,4.8,6.6,8.6,11.5,11.3c2.2,1.2,4.6,2,7.1,2.6s5.2,0.9,8,0.9
	c9.2,0,16.6-2.8,22-8.3s8.1-13,8.1-22.4v-3.7H79.4V399.1z"/>
<path class="st0" d="M143.6,391.2c3-2.8,4.5-6.8,4.5-11.9c0-2.9-0.5-5.6-1.5-8.1s-2.6-4.5-4.5-6c-1.5-1.2-3.3-2-5.4-2.5
	c-1.9-0.5-4.8-0.7-8.8-0.7h-15.2v60.4H123v-24.8l19,24.8h13.3l-21.8-27.2C137.7,394.9,141.1,393.5,143.6,391.2z M123,371.3h3.3
	c5.9,0,8.3,1,9.4,1.8c1.4,1.1,2.1,3.2,2.1,6.2c0,2.8-0.7,4.7-2,5.7c-1,0.8-3.5,1.7-9.5,1.7H123V371.3z"/>
<path class="st0" d="M207.6,369.9L207.6,369.9c-3-2.9-6.5-5.2-10.5-6.8c-3.9-1.6-8.1-2.4-12.3-2.4s-8.4,0.8-12.3,2.4
	c-3.9,1.6-7.4,3.9-10.4,6.8c-3.1,3-5.4,6.4-7,10.2c-1.6,3.8-2.4,7.9-2.4,12.2c0,4.3,0.8,8.3,2.4,12.1c1.6,3.8,4,7.2,7,10.2
	c3,2.9,6.5,5.2,10.5,6.8c3.9,1.6,8,2.4,12.3,2.4c4.2,0,8.4-0.8,12.3-2.4c3.9-1.6,7.5-3.9,10.5-6.8c3-3,5.4-6.4,7-10.2
	c1.6-3.8,2.4-7.9,2.4-12.2c0-4.3-0.8-8.4-2.4-12.2C213,376.3,210.7,372.8,207.6,369.9z M184.8,370.6c2.9,0,5.6,0.5,8.2,1.6
	c2.6,1.1,4.9,2.6,7,4.7c2,2,3.6,4.4,4.7,7c1.1,2.6,1.6,5.5,1.6,8.4s-0.5,5.7-1.6,8.3c-1.1,2.6-2.6,4.9-4.7,7c-2.1,2.1-4.4,3.7-7,4.7
	c-2.6,1.1-5.3,1.6-8.2,1.6s-5.6-0.5-8.2-1.6c-2.5-1.1-4.9-2.7-7-4.8c-2.1-2.1-3.7-4.5-4.7-7c-1.1-2.6-1.6-5.3-1.6-8.2
	c0-2.9,0.5-5.7,1.6-8.3c1.1-2.6,2.6-5,4.7-7.1c2-2,4.3-3.6,6.9-4.7C179.1,371.2,181.9,370.6,184.8,370.6z"/>
<polygon class="st1" points="388.6,328.2 373.4,294.6 358.4,328.1 345.3,293.8 334.1,293.8 358.8,354.6 373.5,322.8 388.3,354.6 
	413,293.8 401.8,293.8 "/>
<polygon class="st0" points="268.8,396.2 253.7,362.6 238.6,396.1 225.6,361.8 214.4,361.8 239.1,422.6 253.7,390.8 268.5,422.6 
	293.2,361.8 282,361.8 "/>
<polygon class="st1" points="224.1,258.7 208.9,225.1 193.9,258.7 180.8,224.4 169.6,224.4 194.3,285.1 209,253.3 223.8,285.1 
	248.5,224.4 237.3,224.4 "/>
<path class="st0" d="M364.6,369.9L364.6,369.9c-3-2.9-6.5-5.2-10.5-6.8c-3.9-1.6-8.1-2.4-12.3-2.4c-4.2,0-8.4,0.8-12.3,2.4
	s-7.4,3.9-10.4,6.8c-3.1,3-5.4,6.4-7,10.2c-1.6,3.8-2.4,7.9-2.4,12.2c0,4.3,0.8,8.3,2.4,12.1c1.6,3.8,4,7.2,7,10.2
	c3,2.9,6.5,5.2,10.5,6.8c3.9,1.6,8,2.4,12.3,2.4c4.2,0,8.4-0.8,12.3-2.4s7.5-3.9,10.5-6.8c3-3,5.4-6.4,7-10.2
	c1.6-3.8,2.4-7.9,2.4-12.2c0-4.3-0.8-8.4-2.4-12.2C370,376.3,367.7,372.8,364.6,369.9z M341.8,370.6c2.9,0,5.6,0.5,8.2,1.6
	s4.9,2.6,7,4.7c2,2,3.6,4.4,4.7,7s1.6,5.5,1.6,8.4s-0.5,5.7-1.6,8.3c-1.1,2.6-2.6,4.9-4.7,7s-4.4,3.7-7,4.7
	c-2.6,1.1-5.3,1.6-8.2,1.6c-2.9,0-5.6-0.5-8.2-1.6c-2.5-1.1-4.9-2.7-7-4.8c-2.1-2.1-3.7-4.5-4.7-7c-1.1-2.6-1.6-5.3-1.6-8.2
	c0-2.9,0.5-5.7,1.6-8.3c1.1-2.6,2.6-5,4.7-7.1c2-2,4.3-3.6,6.9-4.7C336.1,371.2,338.9,370.6,341.8,370.6z"/>
<rect x="466.4" y="362" class="st0" width="10.4" height="60.4"/>
<polygon class="st0" points="480.7,372.1 496.8,372.1 496.8,422.4 507.2,422.4 507.2,372.1 523.2,372.1 523.2,362 480.7,362 "/>
<circle class="st2" cx="30.8" cy="18.6" r="5.6"/>
<circle class="st2" cx="15.8" cy="18.6" r="5.6"/>
<circle class="st2" cx="557.1" cy="367.6" r="5.6"/>
<circle class="st2" cx="542.1" cy="367.6" r="5.6"/>
<g>
	<path class="st1" d="M54.9,477.1l-9.3-22.9h2.9l6.5,16.9l6.5-16.9h2.8L54.9,477.1z"/>
	<path class="st1" d="M64.1,455.8c0-0.5,0.2-0.9,0.5-1.2s0.7-0.5,1.2-0.5c0.5,0,0.9,0.2,1.2,0.5c0.3,0.3,0.5,0.8,0.5,1.2
		c0,0.5-0.2,0.9-0.5,1.2c-0.3,0.3-0.7,0.5-1.2,0.5c-0.5,0-0.9-0.2-1.2-0.5S64.1,456.3,64.1,455.8z M64.7,476.2v-13.8h2.4v13.8H64.7z
		"/>
	<path class="st1" d="M70.3,476.2v-13.8h2.3v2.1c0.6-0.9,1.3-1.5,2.1-2c0.8-0.4,1.8-0.6,2.9-0.6c1.6,0,2.9,0.4,3.8,1.3
		s1.4,2.1,1.4,3.6v9.4h-2.4v-8.1c0-1.4-0.3-2.4-0.9-3.1c-0.6-0.7-1.5-1-2.7-1c-0.7,0-1.3,0.1-1.9,0.4c-0.6,0.3-1.1,0.6-1.4,1.1
		c-0.3,0.4-0.5,0.8-0.6,1.2c-0.1,0.5-0.2,1.3-0.2,2.4v7.1H70.3z"/>
	<path class="st1" d="M96.4,473v2.7c-0.6,0.4-1.3,0.7-2.1,0.8c-0.8,0.2-1.6,0.3-2.5,0.3c-2.1,0-3.8-0.7-5.2-2c-1.3-1.4-2-3.1-2-5.3
		c0-2.2,0.7-4,2-5.4c1.3-1.4,3.1-2.1,5.2-2.1c0.8,0,1.5,0.1,2.2,0.2c0.7,0.2,1.4,0.4,2.1,0.7v2.5c-0.6-0.4-1.2-0.7-1.9-0.9
		s-1.3-0.3-2-0.3c-1.5,0-2.8,0.5-3.7,1.5c-0.9,1-1.4,2.3-1.4,3.9c0,1.4,0.5,2.6,1.4,3.6c0.9,1,2.1,1.4,3.5,1.4
		c0.7,0,1.4-0.1,2.1-0.4C94.9,473.9,95.7,473.5,96.4,473z"/>
	<path class="st1" d="M110.3,469.7H99.4v0.2c0,1.5,0.4,2.7,1.3,3.6s1.9,1.4,3.3,1.4c0.9,0,1.8-0.2,2.5-0.7c0.7-0.5,1.4-1.2,2-2.3
		l1.8,1.2c-0.7,1.2-1.6,2.2-2.7,2.8c-1.1,0.6-2.3,1-3.7,1c-2.1,0-3.8-0.7-5.1-2.1s-1.9-3.2-1.9-5.5c0-2.2,0.6-3.9,1.9-5.3
		c1.3-1.4,2.9-2.1,5-2.1c2,0,3.7,0.7,4.8,2c1.2,1.3,1.8,3.1,1.8,5.4V469.7z M107.8,467.8c-0.1-1.2-0.5-2.2-1.2-2.8
		c-0.7-0.7-1.7-1-3-1c-1.1,0-2.1,0.3-2.9,1c-0.8,0.7-1.2,1.6-1.3,2.8H107.8z"/>
	<path class="st1" d="M112.1,476.2v-13.8h2.3v2.1c0.6-0.9,1.3-1.5,2.1-2c0.8-0.4,1.8-0.6,2.9-0.6c1.6,0,2.9,0.4,3.8,1.3
		s1.4,2.1,1.4,3.6v9.4h-2.4v-8.1c0-1.4-0.3-2.4-0.9-3.1c-0.6-0.7-1.5-1-2.7-1c-0.7,0-1.3,0.1-1.9,0.4c-0.6,0.3-1.1,0.6-1.4,1.1
		c-0.3,0.4-0.5,0.8-0.6,1.2c-0.1,0.5-0.2,1.3-0.2,2.4v7.1H112.1z"/>
	<path class="st1" d="M128,464.4h-2.5v-1.9h2.5v-5.6h2.4v5.6h2.5v1.9h-2.5v11.9H128V464.4z"/>
	<path class="st1" d="M145.8,477.1l-6.8-14.7h2.7l4.1,9.6l4.2-9.6h2.7L145.8,477.1z"/>
	<path class="st1" d="M166.2,462.4v13.8H164v-2.5c-0.6,1-1.3,1.8-2.1,2.3c-0.9,0.5-1.8,0.8-2.9,0.8c-2,0-3.6-0.7-4.8-2
		c-1.2-1.4-1.8-3.2-1.8-5.4c0-2.3,0.6-4.1,1.8-5.4c1.2-1.3,2.8-2,4.7-2c1.2,0,2.2,0.3,3,0.8c0.8,0.5,1.5,1.3,2.1,2.3v-2.6H166.2z
		 M164,469.5c0-1.6-0.4-2.8-1.3-3.8c-0.9-1-2-1.4-3.3-1.4c-1.4,0-2.5,0.4-3.3,1.3c-0.8,0.9-1.2,2.1-1.2,3.7c0,1.7,0.4,3,1.2,3.9
		c0.8,0.9,1.9,1.4,3.4,1.4c1.4,0,2.5-0.4,3.3-1.3S164,471,164,469.5z"/>
	<path class="st1" d="M169.2,476.2v-13.8h2.3v2.1c0.6-0.9,1.3-1.5,2.1-2s1.8-0.6,2.9-0.6c1.6,0,2.9,0.4,3.8,1.3s1.4,2.1,1.4,3.6v9.4
		h-2.4v-8.1c0-1.4-0.3-2.4-0.9-3.1c-0.6-0.7-1.5-1-2.7-1c-0.7,0-1.3,0.1-1.9,0.4c-0.6,0.3-1.1,0.6-1.4,1.1c-0.3,0.4-0.5,0.8-0.6,1.2
		c-0.1,0.5-0.2,1.3-0.2,2.4v7.1H169.2z"/>
	<path class="st1" d="M204.5,464.8h9.1v0.7c0,3.5-1,6.2-3,8.2c-2,2-4.7,3-8.1,3c-1,0-2-0.1-3-0.3c-0.9-0.2-1.8-0.5-2.6-1
		c-1.8-1-3.2-2.4-4.2-4.1c-1-1.8-1.5-3.7-1.5-6c0-1.8,0.3-3.5,0.9-5c0.6-1.5,1.5-2.8,2.7-3.9c1-0.9,2.2-1.7,3.5-2.1
		c1.3-0.5,2.8-0.7,4.4-0.7c2.1,0,4,0.4,5.5,1.2c1.6,0.8,2.9,1.9,3.9,3.5l-2.2,1.8c-0.8-1.3-1.8-2.3-3-3s-2.6-1-4.1-1
		c-2.6,0-4.6,0.9-6.2,2.6s-2.4,4-2.4,6.8c0,2.6,0.8,4.8,2.4,6.5c1.6,1.7,3.7,2.5,6.2,2.5c2.2,0,4.1-0.7,5.5-2
		c1.5-1.3,2.3-3.1,2.5-5.2h-6.3V464.8z"/>
	<path class="st1" d="M214.4,469.4c0-1,0.2-2,0.6-2.9c0.4-0.9,0.9-1.7,1.6-2.4c0.7-0.7,1.5-1.2,2.4-1.6s1.9-0.6,2.9-0.6
		c1,0,2,0.2,2.9,0.6c0.9,0.4,1.7,0.9,2.5,1.6c0.7,0.7,1.3,1.5,1.6,2.4c0.4,0.9,0.6,1.9,0.6,2.9s-0.2,2-0.6,2.8
		c-0.4,0.9-0.9,1.7-1.6,2.4c-0.7,0.7-1.6,1.3-2.5,1.7c-0.9,0.4-1.9,0.6-2.8,0.6c-1,0-2-0.2-2.9-0.6c-0.9-0.4-1.7-0.9-2.4-1.6
		c-0.7-0.7-1.3-1.5-1.6-2.4S214.4,470.4,214.4,469.4z M216.9,469.4c0,1.5,0.5,2.7,1.5,3.7c1,1,2.2,1.5,3.5,1.5
		c1.4,0,2.5-0.5,3.5-1.5c1-1,1.4-2.2,1.4-3.7s-0.5-2.7-1.4-3.7c-1-1-2.1-1.5-3.5-1.5c-1.4,0-2.6,0.5-3.6,1.5
		C217.4,466.7,216.9,467.9,216.9,469.4z"/>
	<path class="st1" d="M244.2,462.4V476c0,1.5-0.1,2.6-0.3,3.2c-0.2,0.6-0.5,1.2-1,1.7c-0.6,0.7-1.4,1.2-2.4,1.6
		c-0.9,0.3-2,0.5-3.2,0.5c-2.1,0-3.7-0.5-4.9-1.4c-1.2-1-1.8-2.3-1.8-4.1h2.7v0.2c0,1,0.4,1.8,1.1,2.4c0.7,0.6,1.7,0.8,3,0.8
		c0.9,0,1.8-0.2,2.4-0.5c0.7-0.3,1.2-0.8,1.5-1.4c0.2-0.3,0.4-0.7,0.5-1.2c0.1-0.5,0.1-1.1,0.1-1.9v-1.1v-1.2
		c-0.5,1-1.2,1.7-2.1,2.3c-0.9,0.5-1.8,0.8-2.9,0.8c-2,0-3.6-0.7-4.8-2s-1.8-3.1-1.8-5.4c0-2.3,0.6-4,1.8-5.4s2.8-2,4.7-2
		c1.1,0,2.2,0.3,3,0.8c0.9,0.5,1.5,1.3,2.1,2.3v-2.6H244.2z M241.9,469.4c0-1.5-0.4-2.8-1.3-3.7s-2-1.4-3.3-1.4
		c-1.4,0-2.5,0.4-3.3,1.3c-0.8,0.9-1.2,2.1-1.2,3.7c0,1.7,0.4,3,1.2,3.9s1.9,1.4,3.4,1.4c1.4,0,2.5-0.4,3.3-1.3
		S241.9,470.9,241.9,469.4z"/>
	<path class="st1" d="M247.3,476.2v-23.4h2.3v11.7c0.6-0.9,1.3-1.5,2.1-2c0.8-0.4,1.8-0.6,2.9-0.6c1.6,0,2.9,0.4,3.8,1.3
		c0.9,0.9,1.4,2.1,1.4,3.6v9.4h-2.4v-8.1c0-1.4-0.3-2.4-0.9-3.1c-0.6-0.7-1.5-1-2.7-1c-0.7,0-1.3,0.1-1.9,0.4
		c-0.6,0.3-1.1,0.6-1.4,1.1c-0.3,0.4-0.5,0.8-0.6,1.2c-0.1,0.5-0.2,1.3-0.2,2.4v7.1H247.3z"/>
</g>
</svg>
