<?xml version="1.0" encoding="utf-8"?>
<!-- Generator: Adobe Illustrator 23.0.3, SVG Export Plug-In . SVG Version: 6.00 Build 0)  -->
<svg version="1.1" id="Слой_1" xmlns="http://www.w3.org/2000/svg" xmlns:xlink="http://www.w3.org/1999/xlink" x="0px" y="0px"
	 viewBox="0 0 688.5 525.1" style="enable-background:new 0 0 688.5 525.1;" xml:space="preserve">
<style type="text/css">
	.st0{fill:#D84C42;}
	.st1{fill:#333333;}
</style>
<circle class="st0" cx="27.1" cy="48.5" r="5.1"/>
<circle class="st0" cx="13.4" cy="48.5" r="5.1"/>
<circle class="st0" cx="579.3" cy="373.2" r="5.1"/>
<circle class="st0" cx="565.6" cy="373.2" r="5.1"/>
<polygon class="st0" points="76.4,67.1 90.3,99.1 113,42.9 103.2,42.9 90.6,79.4 76.3,42.9 62.2,79.4 49.6,42.9 39.8,42.9 
	62.5,99.1 "/>
<polygon class="st0" points="415.4,132 429.2,164 452,107.8 442.2,107.8 429.5,144.3 415.3,107.8 401.1,144.3 388.6,107.8 
	378.8,107.8 401.5,164 "/>
<polygon class="st1" points="250.7,263 264.6,295 287.3,238.8 277.5,238.8 264.8,275.3 250.6,238.8 236.4,275.3 223.9,238.8 
	214.1,238.8 236.8,295 "/>
<polygon class="st0" points="156.7,393.7 170.6,425.7 193.3,369.5 183.5,369.5 170.9,406 156.6,369.5 142.5,406 129.9,369.5 
	120.1,369.5 142.8,425.7 "/>
<polygon class="st0" points="125.6,72.3 151.3,72.3 151.3,99.1 160.5,99.1 160.5,42.9 151.3,42.9 151.3,63.5 125.6,63.5 125.6,42.9 
	116.5,42.9 116.5,99.1 125.6,99.1 "/>
<path class="st0" d="M180.2,82.7h19.1l6.9,16.4h9.9l-26.4-56.2l-26.3,56.2h9.9L180.2,82.7z M183.3,74.5l6.4-13.4l6.4,13.4H183.3z"/>
<path class="st0" d="M311.5,147h19.1l6.9,16.4h9.9L321,107.2l-26.3,56.2h9.9L311.5,147z M314.5,138.9l6.4-13.4l6.4,13.4H314.5z"/>
<path class="st0" d="M461.2,147h19.1l6.9,16.4h9.9l-26.4-56.2l-26.3,56.2h9.9L461.2,147z M464.3,138.9l6.4-13.4l6.4,13.4H464.3z"/>
<path class="st1" d="M57.1,278h19.1l6.9,16.4H93l-26.4-56.2l-26.3,56.2h9.9L57.1,278z M60.2,269.8l6.4-13.4l6.4,13.4H60.2z"/>
<path class="st1" d="M357.3,278h19.1l6.9,16.4h9.9l-26.4-56.2l-26.3,56.2h9.9L357.3,278z M360.4,269.8l6.4-13.4l6.4,13.4H360.4z"/>
<path class="st0" d="M59,409.3h19.1l6.9,16.4h9.9l-26.4-56.2l-26.3,56.2h9.9L59,409.3z M62.1,401.2l6.4-13.4l6.4,13.4H62.1z"/>
<path class="st0" d="M201.4,409.3h19.1l6.9,16.4h9.9l-26.4-56.2l-26.3,56.2h9.9L201.4,409.3z M204.5,401.2l6.4-13.4l6.4,13.4H204.5z
	"/>
<polygon class="st0" points="225.6,99.1 234.8,99.1 234.8,51.7 249.8,51.7 249.8,42.9 210.5,42.9 210.5,51.7 225.6,51.7 "/>
<rect x="276.3" y="42.9" class="st0" width="9.1" height="56.2"/>
<path class="st0" d="M309.8,100.5c5.5,0,10-1.6,13.4-4.9s5.1-7.6,5.1-12.9c0-3.6-1-6.8-2.9-9.5s-4.7-4.8-8.4-6.4l-7.6-3.4
	c-2.2-1-3.9-2.1-4.9-3.3c-1-1.1-1.4-2.5-1.4-4c0-1.9,0.6-3.4,1.9-4.6c1.3-1.2,2.9-1.8,4.9-1.8c1.6,0,3,0.4,4.3,1.3
	c1.3,0.9,2.5,2.3,3.6,4.2l0.7,1.2l7.5-4.8l-0.5-1.1c-1.4-2.9-3.5-5.1-6-6.6c-2.6-1.5-5.6-2.2-9-2.2c-4.7,0-8.6,1.4-11.7,4.1
	s-4.7,6.3-4.7,10.4c0,3.5,1,6.6,2.9,9.2c1.9,2.5,4.7,4.6,8.5,6.2l6.5,2.8c2.6,1.1,4.5,2.5,5.7,4.1c1.2,1.5,1.8,3.3,1.8,5.4
	c0,2.6-0.8,4.6-2.5,6.2s-3.9,2.4-6.8,2.4c-2.4,0-4.3-0.7-5.8-2.1c-1.6-1.5-2.7-3.7-3.5-6.7l-0.4-1.7l-8.3,4.1l0.3,1.1
	c1.1,4.3,3.2,7.6,6.3,9.9C301.5,99.3,305.3,100.5,309.8,100.5z"/>
<path class="st0" d="M365,75.1l18.4,24H395l-20.4-25.5c4.3-0.3,7.6-1.5,10-3.7c2.7-2.5,4.1-6.2,4.1-11c0-2.7-0.5-5.2-1.4-7.4
	c-1-2.3-2.3-4.1-4.1-5.5c-1.4-1.1-3.1-1.9-4.9-2.3s-4.5-0.6-8.2-0.6H356v56.2h9V75.1z M365,51h3.5c5.6,0,8,1,9,1.8
	c1.4,1.1,2.1,3.2,2.1,6.1c0,2.7-0.7,4.6-2,5.6c-1,0.7-3.4,1.6-9.1,1.6H365V51z"/>
<rect x="396.1" y="42.9" class="st0" width="9.1" height="56.2"/>
<path class="st0" d="M427.4,97.2c2,1.1,4.2,1.9,6.6,2.5s4.9,0.8,7.5,0.8c8.6,0,15.5-2.6,20.5-7.7s7.5-12.1,7.5-20.9v-3.2h-24.8v8.4
	h15.1c-0.6,4.2-2.3,7.6-5.3,10.3c-3.3,3-7.4,4.5-12.5,4.5c-5.7,0-10.3-1.9-14-5.7c-3.7-3.8-5.5-8.8-5.5-14.7
	c0-6.4,1.8-11.6,5.4-15.5s8.2-5.8,14.1-5.8c3.5,0,6.7,0.8,9.3,2.3c2.6,1.5,4.9,3.8,6.7,6.8l0.8,1.4l7.5-6l-0.7-1
	c-2.6-3.9-5.9-6.9-9.9-8.9c-3.9-1.9-8.6-2.9-14-2.9c-4,0-7.7,0.6-11.1,1.8c-3.3,1.2-6.3,3.1-8.9,5.5c-3,2.9-5.3,6.2-6.8,10
	c-1.5,3.7-2.2,8-2.2,12.6c0,5.6,1.3,10.7,3.8,15.1C419.2,91.2,422.8,94.7,427.4,97.2z"/>
<polygon class="st0" points="485.3,72.3 511,72.3 511,99.1 520.2,99.1 520.2,42.9 511,42.9 511,63.5 485.3,63.5 485.3,42.9 
	476.2,42.9 476.2,99.1 485.3,99.1 "/>
<polygon class="st0" points="539.6,99.1 548.7,99.1 548.7,51.7 563.8,51.7 563.8,42.9 524.5,42.9 524.5,51.7 539.6,51.7 "/>
<rect x="47.4" y="107.1" class="st0" width="9.1" height="56.2"/>
<path class="st0" d="M80.9,156.5c-2.4,0-4.3-0.7-5.8-2.1c-1.6-1.5-2.7-3.7-3.5-6.7l-0.4-1.7l-8.3,4.1l0.3,1.1
	c1.1,4.3,3.2,7.6,6.3,9.9c3.1,2.3,6.9,3.5,11.4,3.5c5.5,0,10-1.6,13.4-4.9c3.4-3.3,5.1-7.6,5.1-12.9c0-3.6-1-6.8-2.9-9.5
	s-4.7-4.8-8.4-6.4l-7.6-3.4c-2.2-1-3.9-2.1-4.9-3.3c-1-1.1-1.4-2.5-1.4-4c0-1.9,0.6-3.4,1.9-4.6s2.9-1.8,4.9-1.8
	c1.6,0,3,0.4,4.3,1.3s2.5,2.3,3.6,4.2l0.7,1.2l7.5-4.8l-0.5-1.1c-1.4-2.9-3.5-5.1-6-6.6c-2.6-1.5-5.6-2.2-9-2.2
	c-4.7,0-8.6,1.4-11.7,4.1s-4.7,6.3-4.7,10.4c0,3.5,1,6.6,2.9,9.2c1.9,2.5,4.7,4.6,8.5,6.2l6.5,2.8c2.6,1.1,4.5,2.5,5.7,4.1
	c1.2,1.5,1.8,3.3,1.8,5.4c0,2.6-0.8,4.6-2.5,6.2C86,155.7,83.8,156.5,80.9,156.5z"/>
<polygon class="st0" points="161.7,142.8 122.6,107.1 122.6,163.3 131.4,163.3 131.4,127.8 170.5,163.9 170.5,107.1 161.7,107.1 "/>
<polygon class="st1" points="494.3,339.1 455.2,303.4 455.2,359.6 464,359.6 464,324.1 503.1,360.2 503.1,303.4 494.3,303.4 "/>
<polygon class="st1" points="134.9,274.2 95.8,238.5 95.8,294.7 104.6,294.7 104.6,259.2 143.7,295.3 143.7,238.5 134.9,238.5 "/>
<path class="st0" d="M219.5,108.1c-3.7-1.5-7.5-2.2-11.5-2.2c-3.9,0-7.8,0.7-11.4,2.2c-3.7,1.5-6.9,3.6-9.7,6.3
	c-2.8,2.8-5,6-6.5,9.5s-2.2,7.4-2.2,11.4s0.8,7.8,2.2,11.3c1.5,3.5,3.7,6.7,6.5,9.5c2.8,2.7,6.1,4.9,9.7,6.4
	c3.6,1.5,7.5,2.2,11.4,2.2s7.8-0.8,11.5-2.2c3.7-1.5,7-3.6,9.8-6.4c2.8-2.7,5-5.9,6.5-9.5c1.5-3.5,2.2-7.3,2.2-11.3
	s-0.7-7.8-2.2-11.4s-3.7-6.7-6.5-9.5C226.4,111.7,223.2,109.6,219.5,108.1z M208,114.6c2.8,0,5.4,0.5,7.9,1.5s4.7,2.5,6.7,4.5
	c1.9,1.9,3.4,4.2,4.5,6.7c1,2.5,1.6,5.2,1.6,8s-0.5,5.4-1.5,7.9s-2.5,4.7-4.5,6.7s-4.2,3.5-6.7,4.5s-5.1,1.6-7.8,1.6
	c-2.8,0-5.4-0.5-7.8-1.5c-2.4-1-4.7-2.6-6.7-4.6s-3.5-4.3-4.5-6.7s-1.5-5.1-1.5-7.9s0.5-5.5,1.5-8s2.5-4.8,4.5-6.8
	c1.9-1.9,4.1-3.5,6.6-4.5C202.6,115.1,205.2,114.6,208,114.6z"/>
<polygon class="st0" points="264.1,163.3 264.1,115.9 279.1,115.9 279.1,107.1 239.8,107.1 239.8,115.9 254.9,115.9 254.9,163.3 "/>
<polygon class="st0" points="352.2,107.1 352.2,163.3 381.5,163.3 381.5,154.5 361.3,154.5 361.3,107.1 "/>
<polygon class="st0" points="489.2,107.1 508.4,137.9 508.4,163.3 517.5,163.3 517.5,137.9 536.7,107.1 526.1,107.1 513,129 
	499.8,107.1 "/>
<path class="st0" d="M542.3,109.9c-3.1,2.7-4.7,6.3-4.7,10.4c0,3.5,1,6.6,2.9,9.2c1.9,2.5,4.7,4.6,8.5,6.2l6.5,2.8
	c2.6,1.1,4.5,2.5,5.7,4.1c1.2,1.5,1.8,3.3,1.8,5.4c0,2.6-0.8,4.6-2.5,6.2c-1.7,1.6-3.9,2.4-6.8,2.4c-2.4,0-4.3-0.7-5.8-2.1
	c-1.6-1.5-2.7-3.7-3.5-6.7L544,146l-8.3,4.1l0.3,1.1c1.1,4.3,3.2,7.6,6.3,9.9c3.1,2.3,6.9,3.5,11.4,3.5c5.5,0,10-1.6,13.4-4.9
	c3.4-3.3,5.1-7.6,5.1-12.9c0-3.6-1-6.8-2.9-9.5s-4.7-4.8-8.4-6.4l-7.6-3.4c-2.2-1-3.9-2.1-4.9-3.3c-1-1.1-1.4-2.5-1.4-4
	c0-1.9,0.6-3.4,1.9-4.6c1.3-1.2,2.9-1.8,4.9-1.8c1.6,0,3,0.4,4.3,1.3s2.5,2.3,3.6,4.2l0.7,1.2l7.5-4.8l-0.5-1.1
	c-1.4-2.9-3.5-5.1-6-6.6c-2.6-1.5-5.6-2.2-9-2.2C549.3,105.9,545.4,107.2,542.3,109.9z"/>
<path class="st1" d="M56.4,205.8H60c4.1,0,7-0.2,9-0.7s3.8-1.2,5.3-2.3c1.9-1.4,3.4-3.2,4.4-5.6c1-2.3,1.6-4.8,1.6-7.6
	s-0.5-5.3-1.6-7.6s-2.6-4.2-4.5-5.6c-1.5-1-3.3-1.8-5.3-2.3c-2-0.4-4.9-0.7-8.9-0.7H47.4v56.2h9V205.8z M56.4,182.2h1.8
	c6.3,0,9,1,10.1,1.8c1.6,1.1,2.3,3.1,2.3,6.1c0,2.7-0.7,4.5-2.2,5.6c-1.1,0.8-3.8,1.7-10.2,1.7h-1.8
	C56.4,197.4,56.4,182.2,56.4,182.2z"/>
<path class="st1" d="M91.7,222.6c2.8,2.7,6.1,4.9,9.7,6.4s7.5,2.2,11.4,2.2s7.8-0.8,11.5-2.2c3.7-1.5,7-3.6,9.8-6.4
	c2.8-2.7,5-5.9,6.5-9.5c1.5-3.5,2.2-7.3,2.2-11.3s-0.7-7.8-2.2-11.4c-1.5-3.6-3.7-6.7-6.5-9.5c-2.8-2.7-6.1-4.8-9.7-6.3
	c-7.3-2.9-15.6-2.9-22.9,0c-3.7,1.5-6.9,3.6-9.7,6.3c-2.8,2.8-5,6-6.5,9.5s-2.2,7.4-2.2,11.4s0.8,7.8,2.2,11.3
	C86.7,216.7,88.9,219.9,91.7,222.6z M112.9,181.1c2.8,0,5.4,0.5,7.9,1.5s4.7,2.5,6.7,4.5c1.9,1.9,3.4,4.2,4.5,6.7
	c1,2.5,1.6,5.2,1.6,8s-0.5,5.4-1.5,7.9s-2.5,4.7-4.5,6.7s-4.2,3.5-6.7,4.5s-5.1,1.6-7.8,1.6c-2.8,0-5.4-0.5-7.8-1.5
	s-4.7-2.6-6.7-4.6s-3.5-4.3-4.5-6.7s-1.5-5.1-1.5-7.9c0-2.8,0.5-5.5,1.5-8s2.5-4.8,4.5-6.8c1.9-1.9,4.1-3.5,6.6-4.5
	C107.4,181.6,110.1,181.1,112.9,181.1z"/>
<path class="st1" d="M177.3,202.9c1.9-1.4,3.4-3.2,4.4-5.6c1-2.3,1.6-4.8,1.6-7.6s-0.5-5.3-1.6-7.6s-2.6-4.2-4.5-5.6
	c-1.5-1-3.3-1.8-5.3-2.3c-2-0.4-4.9-0.7-8.9-0.7h-12.6v56.2h9v-24h3.6c4.1,0,7-0.2,9-0.7C174,204.7,175.8,203.9,177.3,202.9z
	 M159.4,182.2h1.8c6.3,0,9,1,10.1,1.8c1.6,1.1,2.3,3.1,2.3,6.1c0,2.7-0.7,4.5-2.2,5.6c-1.1,0.8-3.8,1.7-10.2,1.7h-1.8L159.4,182.2
	L159.4,182.2z"/>
<path class="st1" d="M210.2,231.2c7.3,0,12.9-2,16.6-5.8c3.7-3.8,5.5-9.6,5.5-17.2v-34.6h-9.2v34.6c0,5-1,8.7-3.1,11
	c-2,2.2-5.3,3.3-9.8,3.3s-7.8-1.1-9.8-3.3c-2.1-2.3-3.1-6-3.1-11v-34.6h-9.2v34.6c0,7.6,1.9,13.3,5.5,17.2
	C197.4,229.3,203,231.2,210.2,231.2z"/>
<path class="st1" d="M271.5,222.3V221h-20.2v-47.4h-9.1v56.2h26h3.3h6.7l6.9-16.4h19.1l6.9,16.4h9.9l-26.4-60.4L271.5,222.3z
	 M288.2,205.2l6.4-14.8l6.4,14.8H288.2z"/>
<path class="st1" d="M341.5,204.3c4.3-0.3,7.6-1.5,10-3.7c2.7-2.5,4.1-6.2,4.1-11c0-2.7-0.5-5.2-1.4-7.4c-1-2.3-2.3-4.1-4.1-5.5
	c-1.4-1.1-3.1-1.9-4.9-2.3c-1.8-0.4-4.5-0.6-8.2-0.6h-14V230h9v-24l18.4,24H362L341.5,204.3z M332,181.7h3.5c5.6,0,8,1,9,1.8
	c1.4,1.1,2.1,3.2,2.1,6.1c0,2.7-0.7,4.6-2,5.6c-1,0.7-3.4,1.6-9.1,1.6H332V181.7z"/>
<path class="st1" d="M196.1,279.4c1.6-3.8,2.5-8.3,2.5-13.2c0-5-0.8-9.4-2.5-13.2c-1.7-3.9-4.2-7.1-7.4-9.6
	c-2.5-1.9-5.4-3.3-8.7-4.1c-3.2-0.8-8.6-1.2-16.4-1.2H152v56.2h13.9c6.5,0,11.1-0.4,14.3-1.2c3.1-0.8,6-2.2,8.5-4.1
	C191.9,286.5,194.4,283.3,196.1,279.4z M189.1,266.2c0,3.5-0.5,6.7-1.6,9.4s-2.6,4.8-4.6,6.5c-1.5,1.2-3.4,2.1-5.7,2.7
	c-2.4,0.5-6.9,0.8-13.3,0.8h-2.7v-38.8h2.7c6.3,0,10.8,0.3,13.3,0.9c2.4,0.5,4.3,1.5,5.8,2.7c2,1.7,3.6,3.9,4.6,6.5
	C188.6,259.4,189.1,262.6,189.1,266.2z"/>
<polygon class="st1" points="301,267.5 326.7,267.5 326.7,294.3 335.9,294.3 335.9,238.1 326.7,238.1 326.7,258.6 301,258.6 
	301,238.1 291.9,238.1 291.9,294.3 301,294.3 "/>
<polygon class="st1" points="411.1,294.3 411.1,246.9 426.2,246.9 426.2,238.1 386.8,238.1 386.8,246.9 401.9,246.9 401.9,294.3 "/>
<rect x="452.6" y="238.1" class="st1" width="9.1" height="56.2"/>
<path class="st1" d="M486.1,287.5c-2.4,0-4.3-0.7-5.8-2.1c-1.6-1.5-2.7-3.7-3.5-6.7l-0.4-1.7l-8.3,4.1l0.3,1.1
	c1.1,4.3,3.2,7.6,6.3,9.9c3.1,2.3,6.9,3.5,11.4,3.5c5.5,0,10-1.6,13.4-4.9s5.1-7.6,5.1-12.9c0-3.6-1-6.8-2.9-9.5s-4.7-4.8-8.4-6.4
	l-7.6-3.4c-2.2-1-3.9-2.1-4.9-3.3c-1-1.1-1.4-2.5-1.4-4c0-1.9,0.6-3.4,1.9-4.6c1.3-1.2,2.9-1.8,4.9-1.8c1.6,0,3,0.4,4.3,1.3
	c1.3,0.9,2.5,2.3,3.6,4.2l0.7,1.2l7.5-4.8l-0.5-1.1c-1.4-2.9-3.5-5.1-6-6.6c-2.6-1.5-5.6-2.2-9-2.2c-4.7,0-8.6,1.4-11.7,4.1
	c-3.1,2.7-4.7,6.3-4.7,10.4c0,3.5,1,6.6,2.9,9.2c1.9,2.5,4.7,4.6,8.5,6.2l6.5,2.8c2.5,1.1,4.5,2.5,5.7,4.1c1.2,1.5,1.8,3.3,1.8,5.4
	c0,2.6-0.8,4.6-2.5,6.2C491.2,286.7,489,287.5,486.1,287.5z"/>
<path class="st1" d="M74.2,306.4c-1.5-1-3.3-1.8-5.3-2.3c-2-0.4-4.9-0.7-8.9-0.7H47.4v56.2h9v-24H60c4.1,0,7-0.2,9-0.7
	s3.8-1.2,5.3-2.3c1.9-1.4,3.4-3.2,4.4-5.6c1-2.3,1.6-4.8,1.6-7.6c0-2.8-0.5-5.3-1.6-7.6C77.7,309.6,76.2,307.7,74.2,306.4z
	 M56.4,312h1.8c6.3,0,9,1,10.1,1.8c1.6,1.1,2.3,3.1,2.3,6.1c0,2.7-0.7,4.5-2.2,5.6c-1.1,0.8-3.8,1.7-10.2,1.7h-1.8
	C56.4,327.2,56.4,312,56.4,312z"/>
<path class="st1" d="M134.1,352.5c2.8-2.7,5-5.9,6.5-9.5c1.5-3.5,2.2-7.3,2.2-11.3s-0.7-7.8-2.2-11.4s-3.7-6.7-6.5-9.5
	c-2.8-2.7-6.1-4.8-9.7-6.3c-7.3-2.9-15.6-2.9-22.9,0c-3.7,1.5-6.9,3.6-9.7,6.3c-2.8,2.8-5,6-6.5,9.5s-2.2,7.4-2.2,11.4
	s0.8,7.8,2.2,11.3c1.5,3.5,3.7,6.7,6.5,9.5c2.8,2.7,6.1,4.9,9.7,6.4s7.5,2.2,11.4,2.2s7.8-0.8,11.5-2.2
	C128,357.3,131.3,355.2,134.1,352.5z M112.9,310.9c2.8,0,5.4,0.5,7.9,1.5s4.7,2.5,6.7,4.5c1.9,1.9,3.4,4.2,4.5,6.7
	c1,2.5,1.6,5.2,1.6,8s-0.5,5.4-1.5,7.9s-2.5,4.7-4.5,6.7s-4.2,3.5-6.7,4.5s-5.1,1.6-7.8,1.6c-2.8,0-5.4-0.5-7.8-1.5
	s-4.7-2.6-6.7-4.6s-3.5-4.3-4.5-6.7c-1-2.4-1.5-5.1-1.5-7.9s0.5-5.5,1.5-8s2.5-4.8,4.5-6.8c1.9-2,4.1-3.5,6.6-4.5
	C107.4,311.4,110.1,310.9,112.9,310.9z"/>
<path class="st1" d="M181.7,327.2c1-2.3,1.6-4.8,1.6-7.6c0-2.8-0.5-5.3-1.6-7.6c-1.1-2.3-2.6-4.2-4.5-5.6c-1.5-1-3.3-1.8-5.3-2.3
	c-2-0.4-4.9-0.7-8.9-0.7h-12.6v56.2h9v-24h3.6c4.1,0,7-0.2,9-0.7s3.8-1.2,5.3-2.3C179.2,331.4,180.7,329.5,181.7,327.2z M159.4,312
	h1.8c6.3,0,9,1,10.1,1.8c1.6,1.1,2.3,3.1,2.3,6.1c0,2.7-0.7,4.5-2.2,5.6c-1.1,0.8-3.8,1.7-10.2,1.7h-1.8L159.4,312L159.4,312z"/>
<path class="st1" d="M188.2,303.5v34.6c0,7.6,1.9,13.3,5.5,17.2c3.7,3.9,9.3,5.8,16.5,5.8c7.3,0,12.9-2,16.6-5.8
	c3.7-3.8,5.5-9.6,5.5-17.2v-34.6h-9.2v34.6c0,5-1,8.7-3.1,11c-2,2.2-5.3,3.3-9.8,3.3s-7.8-1.1-9.8-3.3c-2.1-2.3-3.1-6-3.1-11v-34.6
	H188.2z"/>
<path class="st1" d="M311.1,359.6h9.9l-26.4-56.4l-23.1,48.9v-1.4h-20.2v-47.4h-9.1v56.2h26h3.3h6.7l6.9-16.4h19.1L311.1,359.6z
	 M301,335.1h-12.8l6.4-13.8L301,335.1z"/>
<path class="st1" d="M351.5,330.4c2.7-2.5,4.1-6.2,4.1-11c0-2.7-0.5-5.2-1.4-7.4c-1-2.3-2.3-4.1-4.1-5.5c-1.4-1.1-3.1-1.9-4.9-2.3
	s-4.5-0.6-8.2-0.6h-14v56.2h9v-24l18.4,24H362l-20.4-25.5C345.7,333.9,349.1,332.6,351.5,330.4z M332,311.6h3.5c5.6,0,8,1,9,1.8
	c1.4,1.1,2.1,3.2,2.1,6.1c0,2.7-0.7,4.6-2,5.6c-1,0.7-3.4,1.6-9.1,1.6H332V311.6z"/>
<rect x="381.5" y="304.1" class="st1" width="9.1" height="56.2"/>
<path class="st1" d="M422.1,328l-7.6-3.4c-2.2-1-3.9-2.1-4.9-3.3c-1-1.1-1.4-2.5-1.4-4c0-1.9,0.6-3.4,1.9-4.6s2.9-1.8,4.9-1.8
	c1.6,0,3,0.4,4.3,1.3s2.5,2.3,3.6,4.2l0.7,1.2l7.5-4.8l-0.5-1.1c-1.4-2.9-3.5-5.1-6-6.6s-5.6-2.2-9-2.2c-4.7,0-8.6,1.4-11.7,4.1
	s-4.7,6.3-4.7,10.4c0,3.5,1,6.6,2.9,9.2c1.9,2.5,4.7,4.6,8.5,6.2l6.5,2.8c2.5,1.1,4.5,2.5,5.7,4.1c1.2,1.5,1.8,3.3,1.8,5.4
	c0,2.6-0.8,4.6-2.5,6.2s-3.9,2.4-6.8,2.4c-2.4,0-4.3-0.7-5.8-2.1c-1.6-1.5-2.7-3.7-3.5-6.7l-0.4-1.7l-8.3,4.1l0.3,1.1
	c1.1,4.3,3.2,7.6,6.3,9.9c3.1,2.3,6.9,3.5,11.4,3.5c5.5,0,10-1.6,13.4-4.9s5.1-7.6,5.1-12.9c0-3.6-1-6.8-2.9-9.5
	C428.6,331.7,425.8,329.6,422.1,328z"/>
<path class="st1" d="M560,311.4c-2.8-2.7-6.1-4.8-9.7-6.3c-7.3-2.9-15.6-2.9-22.9,0c-3.7,1.5-6.9,3.6-9.7,6.3c-2.8,2.8-5,6-6.5,9.5
	s-2.2,7.4-2.2,11.4s0.8,7.8,2.2,11.3c1.5,3.5,3.7,6.7,6.5,9.5c2.8,2.7,6.1,4.9,9.7,6.4c3.6,1.5,7.5,2.2,11.4,2.2s7.8-0.8,11.5-2.2
	c3.7-1.5,7-3.6,9.8-6.4c2.8-2.7,5-5.9,6.5-9.5c1.5-3.5,2.2-7.3,2.2-11.3s-0.7-7.8-2.2-11.4C565,317.4,562.8,314.2,560,311.4z
	 M538.8,311.6c2.8,0,5.4,0.5,7.9,1.5s4.7,2.5,6.7,4.5c1.9,1.9,3.4,4.2,4.5,6.7c1,2.5,1.6,5.2,1.6,8s-0.5,5.4-1.5,7.9
	s-2.5,4.7-4.5,6.7s-4.2,3.5-6.7,4.5s-5.1,1.6-7.8,1.6c-2.8,0-5.4-0.5-7.8-1.5c-2.4-1-4.7-2.6-6.7-4.6s-3.5-4.3-4.5-6.7
	c-1-2.4-1.5-5.1-1.5-7.9s0.5-5.5,1.5-8s2.5-4.8,4.5-6.8c1.9-1.9,4.1-3.5,6.6-4.5C533.4,312.1,536,311.6,538.8,311.6z"/>
<polygon class="st1" points="570.6,312.9 585.7,312.9 585.7,360.3 594.9,360.3 594.9,312.9 609.9,312.9 609.9,304.1 570.6,304.1 "/>
<polygon class="st0" points="108,369.3 98.9,369.3 98.9,425.5 128.2,425.5 128.2,416.7 108,416.7 "/>
<polygon class="st0" points="265.5,369.3 252.4,391.2 239.2,369.3 228.6,369.3 247.8,400.1 247.8,425.5 256.9,425.5 256.9,400.1 
	276,369.3 "/>
<path class="st0" d="M300.1,393.2l-7.6-3.4c-2.2-1-3.9-2.1-4.9-3.3c-1-1.1-1.4-2.5-1.4-4c0-1.9,0.6-3.4,1.9-4.6s2.9-1.8,4.9-1.8
	c1.6,0,3,0.4,4.3,1.3s2.5,2.3,3.6,4.2l0.7,1.2l7.5-4.8l-0.5-1.1c-1.4-2.9-3.5-5.1-6-6.6s-5.6-2.2-9-2.2c-4.7,0-8.6,1.4-11.7,4.1
	s-4.7,6.3-4.7,10.4c0,3.5,1,6.6,2.9,9.2c1.9,2.5,4.7,4.6,8.5,6.2l6.5,2.8c2.5,1.1,4.5,2.5,5.7,4.1c1.2,1.5,1.8,3.3,1.8,5.4
	c0,2.6-0.8,4.6-2.5,6.2s-3.9,2.4-6.8,2.4c-2.4,0-4.3-0.7-5.8-2.1c-1.6-1.5-2.7-3.7-3.5-6.7l-0.4-1.7l-8.3,4.1l0.3,1.1
	c1.1,4.3,3.2,7.6,6.3,9.9c3.1,2.3,6.9,3.5,11.4,3.5c5.5,0,10-1.6,13.4-4.9s5.1-7.6,5.1-12.9c0-3.6-1-6.8-2.9-9.5
	C306.7,396.9,303.8,394.8,300.1,393.2z"/>
<path class="st0" d="M367.7,396.2c2.7-2.5,4.1-6.2,4.1-11c0-2.7-0.5-5.2-1.4-7.4c-1-2.3-2.3-4.1-4.1-5.5c-1.4-1.1-3.1-1.9-4.9-2.3
	s-4.5-0.6-8.2-0.6h-13.9v56.2h9v-24l18.4,24h11.6L357.7,400C362,399.7,365.3,398.5,367.7,396.2z M348.2,377.4h3.5c5.6,0,8,1,9,1.8
	c1.4,1.1,2.1,3.2,2.1,6.1c0,2.7-0.7,4.6-2,5.6c-1,0.7-3.4,1.6-9.1,1.6h-3.5V377.4z"/>
<rect x="381.2" y="369.3" class="st0" width="9.1" height="56.2"/>
<path class="st0" d="M428,403.6h15.1c-0.6,4.2-2.3,7.6-5.3,10.3c-3.3,3-7.4,4.5-12.5,4.5c-5.7,0-10.3-1.9-14-5.7
	c-3.7-3.8-5.5-8.8-5.5-14.7c0-6.4,1.8-11.6,5.4-15.5s8.2-5.8,14.1-5.8c3.5,0,6.7,0.8,9.3,2.2c2.6,1.5,4.9,3.8,6.7,6.8l0.8,1.4l7.5-6
	l-0.7-1c-2.6-3.9-5.9-6.9-9.9-8.9c-3.9-1.9-8.6-2.9-14-2.9c-4,0-7.7,0.6-11.1,1.8c-3.3,1.2-6.3,3.1-8.9,5.5c-3,2.9-5.3,6.2-6.8,10
	c-1.5,3.7-2.2,8-2.2,12.6c0,5.6,1.3,10.7,3.8,15.1c2.5,4.5,6.1,8,10.7,10.5c2,1.1,4.2,1.9,6.6,2.5s4.9,0.8,7.5,0.8
	c8.6,0,15.5-2.6,20.5-7.7s7.5-12.1,7.5-20.9v-3.2h-24.8L428,403.6z"/>
<polygon class="st0" points="494.2,389.9 468.5,389.9 468.5,369.3 459.4,369.3 459.4,425.5 468.5,425.5 468.5,398.7 494.2,398.7 
	494.2,425.5 503.4,425.5 503.4,369.3 494.2,369.3 "/>
<polygon class="st0" points="507.7,378.1 522.8,378.1 522.8,425.5 531.9,425.5 531.9,378.1 547,378.1 547,369.3 507.7,369.3 "/>
<path class="st1" d="M55.4,458.9l9.9,22.7h-2.8l-2.8-6.7h-8.5l-2.8,6.7h-2.8L55.4,458.9z M55.4,464.6l-3.5,8h7L55.4,464.6z"/>
<path class="st1" d="M67.4,481.6v-23.1h2.4v23.1H67.4z"/>
<path class="st1" d="M74.7,458.4H77v12c0.5-1,1.2-1.8,2-2.3s1.8-0.8,2.9-0.8c2,0,3.5,0.7,4.7,2s1.8,3.1,1.8,5.4c0,2.2-0.6,4-1.8,5.4
	c-1.2,1.3-2.8,2-4.7,2c-1.1,0-2-0.3-2.9-0.8s-1.6-1.3-2.1-2.3v2.5h-2.2C74.7,481.5,74.7,458.4,74.7,458.4z M76.9,474.8
	c0,1.6,0.4,2.8,1.2,3.7c0.8,0.9,1.9,1.3,3.4,1.3c1.4,0,2.5-0.5,3.3-1.4c0.8-1,1.2-2.3,1.2-3.9c0-1.5-0.4-2.7-1.2-3.5
	c-0.8-0.8-1.9-1.3-3.2-1.3c-1.4,0-2.5,0.5-3.4,1.4C77.4,472.1,76.9,473.3,76.9,474.8z"/>
<path class="st1" d="M104.4,475.1H93.6v0.2c0,1.5,0.4,2.6,1.3,3.5c0.8,0.9,1.9,1.4,3.3,1.4c0.9,0,1.7-0.2,2.5-0.7
	c0.7-0.5,1.4-1.2,2-2.2l1.8,1.2c-0.7,1.2-1.6,2.2-2.6,2.8c-1.1,0.6-2.3,0.9-3.7,0.9c-2.1,0-3.8-0.7-5-2.1c-1.3-1.4-1.9-3.2-1.9-5.4
	c0-2.1,0.6-3.9,1.9-5.3s2.9-2,4.9-2s3.6,0.6,4.8,1.9c1.2,1.3,1.8,3.1,1.8,5.3v0.5H104.4z M101.9,473.2c-0.1-1.2-0.5-2.1-1.2-2.8
	c-0.7-0.7-1.7-1-3-1c-1.1,0-2.1,0.3-2.8,1s-1.2,1.6-1.3,2.7L101.9,473.2L101.9,473.2z"/>
<path class="st1" d="M108,481.6v-13.7h2.1v2.8c0.6-1.2,1.3-2,2-2.5s1.6-0.8,2.6-0.8c0.3,0,0.5,0,0.8,0.1c0.3,0,0.5,0.1,0.8,0.2
	l-0.8,2.1c-0.3-0.1-0.5-0.2-0.8-0.2c-0.2,0-0.5-0.1-0.7-0.1c-1.2,0-2.2,0.4-2.8,1.3c-0.6,0.9-0.9,2.2-0.9,4v6.7H108V481.6z"/>
<path class="st1" d="M119,469.9h-2.5V468h2.5v-5.5h2.4v5.5h2.5v1.9h-2.5v11.7H119V469.9z"/>
<path class="st1" d="M135.8,481.6v-21.9h11.5v2.4h-8.9v6.3h8.9v2.4h-8.9v8.4h8.9v2.4L135.8,481.6L135.8,481.6z"/>
<path class="st1" d="M151.1,461.3c0-0.5,0.2-0.9,0.5-1.2c0.3-0.3,0.7-0.5,1.2-0.5s0.9,0.2,1.2,0.5s0.5,0.7,0.5,1.2s-0.2,0.9-0.5,1.2
	c-0.3,0.3-0.7,0.5-1.2,0.5s-0.9-0.2-1.2-0.5S151.1,461.8,151.1,461.3z M151.6,481.6v-13.7h2.4v13.7H151.6z"/>
<path class="st1" d="M158.9,481.6v-13.7h2.3v2.1c0.6-0.9,1.3-1.5,2.1-2c0.8-0.4,1.8-0.6,2.9-0.6c1.6,0,2.9,0.4,3.8,1.3
	c0.9,0.9,1.4,2,1.4,3.6v9.3H169v-8c0-1.4-0.3-2.4-0.9-3.1c-0.6-0.7-1.5-1-2.7-1c-0.7,0-1.3,0.1-1.9,0.4c-0.6,0.3-1,0.6-1.4,1.1
	c-0.3,0.4-0.5,0.8-0.6,1.2c-0.1,0.5-0.2,1.3-0.2,2.4v7.1L158.9,481.6L158.9,481.6z"/>
<path class="st1" d="M174.5,479.3l2-1.3c0.4,0.7,0.9,1.3,1.4,1.6c0.6,0.4,1.3,0.5,2,0.5c0.8,0,1.4-0.2,1.9-0.6s0.7-0.9,0.7-1.5
	c0-0.5-0.2-0.9-0.5-1.2c-0.3-0.3-0.9-0.6-1.7-0.9l-0.4-0.1c-3.3-1.1-5-2.6-5-4.3c0-1.2,0.4-2.2,1.3-3c0.9-0.8,2.1-1.2,3.5-1.2
	c1.2,0,2.2,0.2,3,0.7s1.5,1.1,1.8,2l-1.9,1.2c-0.3-0.6-0.7-1.1-1.2-1.4s-1.2-0.5-1.9-0.5s-1.2,0.2-1.7,0.6c-0.4,0.4-0.6,0.9-0.6,1.5
	c0,0.8,0.9,1.5,2.7,2.1c0.3,0.1,0.6,0.2,0.8,0.3c1.5,0.5,2.5,1,3.1,1.6s0.9,1.4,0.9,2.4c0,1.3-0.5,2.3-1.4,3.1
	c-0.9,0.8-2.1,1.2-3.6,1.2c-1.3,0-2.4-0.2-3.2-0.7C175.8,481,175,480.3,174.5,479.3z"/>
<path class="st1" d="M188.8,469.9h-2.5V468h2.5v-5.5h2.4v5.5h2.5v1.9h-2.5v11.7h-2.4V469.9z"/>
<path class="st1" d="M208.5,475.1h-10.8v0.2c0,1.5,0.4,2.6,1.3,3.5c0.8,0.9,1.9,1.4,3.3,1.4c0.9,0,1.7-0.2,2.5-0.7
	c0.7-0.5,1.4-1.2,2-2.2l1.8,1.2c-0.7,1.2-1.6,2.2-2.6,2.8c-1.1,0.6-2.3,0.9-3.7,0.9c-2.1,0-3.8-0.7-5-2.1c-1.3-1.4-1.9-3.2-1.9-5.4
	c0-2.1,0.6-3.9,1.9-5.3c1.3-1.4,2.9-2,4.9-2s3.6,0.6,4.8,1.9s1.8,3.1,1.8,5.3v0.5H208.5z M206,473.2c-0.1-1.2-0.5-2.1-1.2-2.8
	c-0.7-0.7-1.7-1-3-1c-1.1,0-2.1,0.3-2.8,1c-0.8,0.7-1.2,1.6-1.3,2.7L206,473.2L206,473.2z"/>
<path class="st1" d="M211.6,461.3c0-0.5,0.2-0.9,0.5-1.2c0.3-0.3,0.7-0.5,1.2-0.5s0.9,0.2,1.2,0.5s0.5,0.7,0.5,1.2s-0.2,0.9-0.5,1.2
	c-0.3,0.3-0.7,0.5-1.2,0.5s-0.9-0.2-1.2-0.5S211.6,461.8,211.6,461.3z M212.2,481.6v-13.7h2.4v13.7H212.2z"/>
<path class="st1" d="M219.5,481.6v-13.7h2.3v2.1c0.6-0.9,1.3-1.5,2.1-2c0.8-0.4,1.8-0.6,2.9-0.6c1.6,0,2.9,0.4,3.8,1.3
	c0.9,0.9,1.4,2,1.4,3.6v9.3h-2.4v-8c0-1.4-0.3-2.4-0.9-3.1c-0.6-0.7-1.5-1-2.7-1c-0.7,0-1.3,0.1-1.9,0.4c-0.6,0.3-1,0.6-1.4,1.1
	c-0.3,0.4-0.5,0.8-0.6,1.2c-0.1,0.5-0.2,1.3-0.2,2.4v7.1L219.5,481.6L219.5,481.6z"/>
</svg>
