<?xml version="1.0" encoding="utf-8"?>
<!-- Generator: Adobe Illustrator 28.0.0, SVG Export Plug-In . SVG Version: 6.00 Build 0)  -->
<svg version="1.1" id="Layer_1" xmlns="http://www.w3.org/2000/svg" xmlns:xlink="http://www.w3.org/1999/xlink" x="0px" y="0px"
	 viewBox="0 0 800 800" style="enable-background:new 0 0 800 800;" xml:space="preserve">
<g id="_x32_069a460dcf28295e231f3111e02fda7">
	<path d="M294.6,342.8l25.7,80.4h-83.8l25.2-80.4c5.8-19.4,10.7-42.2,15.5-61.1h1C283,300.7,288.3,323,294.6,342.8z M557.7,360.3
		c-36.8,0-52.3,33.4-54.8,57.7h103.7C607.1,396.1,597.4,360.3,557.7,360.3z M742,172v456c0,62.7-51.3,114-114,114H172
		c-62.7,0-114-51.3-114-114V172c0-62.7,51.3-114,114-114h456C690.7,58,742,109.3,742,172z M424,560.9L317.9,234.3h-76.1L137.1,560.9
		h61.5l28.1-92.5h103.7l29.6,92.5H424z M662.9,434.4c0-51.8-25.2-114.8-101.8-114.8c-75.6,0-115.3,61.5-115.3,126.9
		c0,72.2,45.1,119.2,121.6,119.2c33.9,0,62-6.3,82.4-14.5L641,510c-17.9,6.8-37.8,10.7-65.4,10.7c-37.8,0-71.2-18.4-72.7-61.1h158
		C661.9,454.3,662.9,445.5,662.9,434.4z"/>
</g>
</svg>
