<?xml version="1.0" encoding="utf-8"?>
<!-- Generator: Adobe Illustrator 28.0.0, SVG Export Plug-In . SVG Version: 6.00 Build 0)  -->
<svg version="1.1" id="Layer_1" xmlns="http://www.w3.org/2000/svg" xmlns:xlink="http://www.w3.org/1999/xlink" x="0px" y="0px"
	 viewBox="0 0 800 800" style="enable-background:new 0 0 800 800;" xml:space="preserve">
<g id="_x32_069a460dcf28295e231f3111e02fda7">
	<path d="M280.1,334.9l29.2,91.5H214l28.7-91.5c6.6-22.1,12.2-48,17.6-69.5h1.1C266.9,287,272.9,312.4,280.1,334.9z M579.4,354.8
		c-41.9,0-59.5,38-62.3,65.6h118C635.6,395.6,624.6,354.8,579.4,354.8z M789.1,140.6v518.8c0,71.3-58.4,129.7-129.7,129.7H140.6
		c-71.3,0-129.7-58.4-129.7-129.7V140.6c0-71.3,58.4-129.7,129.7-129.7h518.8C730.7,10.9,789.1,69.3,789.1,140.6z M427.3,583.1
		L306.6,211.5H220L100.9,583.1h70l32-105.2h118l33.7,105.2H427.3z M699.1,439.1c0-58.9-28.7-130.6-115.8-130.6
		c-86,0-131.2,70-131.2,144.4c0,82.1,51.3,135.6,138.4,135.6c38.6,0,70.5-7.2,93.8-16.5l-10-46.9c-20.4,7.7-43,12.2-74.4,12.2
		c-43,0-81-20.9-82.7-69.5H697C698,461.8,699.1,451.8,699.1,439.1z"/>
</g>
</svg>
