<?xml version="1.0" encoding="utf-8"?>
<!-- Generator: Adobe Illustrator 28.0.0, SVG Export Plug-In . SVG Version: 6.00 Build 0)  -->
<svg version="1.1" id="Layer_1" xmlns="http://www.w3.org/2000/svg" xmlns:xlink="http://www.w3.org/1999/xlink" x="0px" y="0px"
	 viewBox="0 0 800 800" style="enable-background:new 0 0 800 800;" xml:space="preserve">
<style type="text/css">
	.st0{fill:#FFFFFF;}
	.st1{fill:#EB7700;}
	.st2{fill:#001E36;}
</style>
<ellipse class="st0" cx="509.9" cy="493.4" rx="233" ry="241.5"/>
<path class="st1" d="M726.1,682.3c21.5-28.7,36.6-61.2,44.9-96.6c7.2-30.9,9-63.1,5.2-95.6h0.1l-44.2-337c0-0.3-0.1-0.6-0.1-0.8
	c-1.5-11.2-7.4-22.4-16.6-31.7c-9.2-9.2-20.8-15.5-32.6-17.6c-12.7-2.2-23.8,0.4-31.5,7.5c-7.1,6.6-10.5,16.5-9.4,27.8
	c2.6,21.9,4.9,44.1,7.3,66.2c2.3,21.5,4.6,43.7,7.2,65.5L423.1,36.6C396.4,9.9,365.7,4.2,341,21.5c-10.8,7.6-18,20.6-19.3,34.8
	c-1.3,15.1,4.1,29.6,15.4,40.8l17.8,17.8c24.6,24.6,49.3,49.2,74.1,73.8l23.6,23.5L83.8,157.1l-1.5-0.2
	c-20.9-2.8-41.4,2.2-56.1,13.6c-11.2,8.7-17.9,20-19.5,32.9c-1.9,15.4,3.9,30.6,16.2,43C35,258.6,52,266.3,70.8,268.3l208.1,20.8
	c-5.1,4.1-12.4,10.2-17.2,15.1c-7.6,7.8-20.6,25.8-29.2,42.3c-17.7,33.9-27.7,71.2-29.6,110.7c-2,41.1,4.7,82.1,20,121.6
	c16.2,41.8,40.8,79.5,73.3,111.9l0.3,0.3c32.7,32.5,70.5,57.1,112.6,73.3c39.8,15.2,80.7,21.8,121.8,19.7
	c39.6-2.1,76.9-12.1,110.7-29.8c16.7-8.8,32.5-19.4,46.9-31.6C702.3,710.7,714.9,697.1,726.1,682.3z M394,597.6
	c-71.6-71.6-77.7-181.5-13.6-245.5c64-64,174-57.9,245.5,13.6s77.7,181.5,13.6,245.5C575.5,675.3,465.5,669.2,394,597.6z"/>
<path class="st2" d="M594.8,546.2c-18.1,20.2-43.4,30.3-70,30c-27-0.3-54.9-11.3-76.6-33.1c-21.8-21.8-32.8-49.6-33.1-76.6
	c-0.3-26.5,9.9-51.9,30-69.9c19.6-17.5,45-24.9,70.3-22.8c24.8,2,49.8,13.1,69.5,32.7c19.7,19.7,30.7,44.6,32.7,69.5
	C619.7,501.2,612.4,526.6,594.8,546.2z"/>
</svg>
