<?xml version="1.0" encoding="utf-8"?>
<!-- Generator: Adobe Illustrator 28.0.0, SVG Export Plug-In . SVG Version: 6.00 Build 0)  -->
<svg version="1.1" id="Layer_1" xmlns="http://www.w3.org/2000/svg" xmlns:xlink="http://www.w3.org/1999/xlink" x="0px" y="0px"
	 viewBox="0 0 800 800" style="enable-background:new 0 0 800 800;" xml:space="preserve">
<g id="c133de6af664cd4f011a55de6b001b19">
	<path d="M680,99l-52.5,568.7L400,729l-227.5-61.3L120,99H680z M574.2,214.6H399.8H222.3l8.5,68.7h169h9.5l-9.5,4L237,355.1
		l5.4,67.1l157.4,0.5l84.4,0.3l-5.4,89.5l-79,22.2v-0.1l-0.6,0.2l-76.3-19.3l-4.6-55.6H318h-70.7H247l9.3,107.3l143.5,42.4v-0.1
		l0.3,0.1l142.8-41.7l18.5-213H399.8h-0.4l0.4-0.2l167.5-71.6L574.2,214.6z"/>
</g>
</svg>
