<?xml version="1.0" encoding="utf-8"?>
<!-- Generator: Adobe Illustrator 28.0.0, SVG Export Plug-In . SVG Version: 6.00 Build 0)  -->
<svg version="1.1" id="Layer_1" xmlns="http://www.w3.org/2000/svg" xmlns:xlink="http://www.w3.org/1999/xlink" x="0px" y="0px"
	 viewBox="0 0 800 800" style="enable-background:new 0 0 800 800;" xml:space="preserve">
<g id="c133de6af664cd4f011a55de6b001b19">
	<path d="M727.2,31.9l-61.4,664.6L400,768.1l-265.9-71.6L72.8,31.9H727.2z M603.6,167H399.8H192.3l9.9,80.3h197.5h11.1l-11.1,4.7
		l-190.2,79.2l6.3,78.4l183.9,0.6l98.6,0.4l-6.3,104.6l-92.3,25.9v-0.1l-0.7,0.2l-89.2-22.6l-5.4-65h-0.4h-82.6h-0.4L232.1,579
		l167.7,49.5v-0.1l0.4,0.1L567,579.8l21.6-248.9H399.8h-0.5l0.5-0.2L595.5,247L603.6,167z"/>
</g>
</svg>
