<?xml version="1.0" encoding="utf-8"?>
<!-- Generator: Adobe Illustrator 28.0.0, SVG Export Plug-In . SVG Version: 6.00 Build 0)  -->
<svg version="1.1" id="Layer_1" xmlns="http://www.w3.org/2000/svg" xmlns:xlink="http://www.w3.org/1999/xlink" x="0px" y="0px"
	 viewBox="0 0 100 100" style="enable-background:new 0 0 100 100;" xml:space="preserve">
<path d="M50,4C24.6,4,4,24.6,4,50s20.6,46,46,46s46-20.6,46-46S75.4,4,50,4z M50,8c23.2,0,42,18.8,42,42S73.2,92,50,92S8,73.2,8,50
	S26.8,8,50,8z M50,16c-7.7,0-14,5.9-14,13.2c0,7.1,6.6,15.1,12.7,20.3c0.4,0.3,0.8,0.5,1.3,0.5s0.9-0.2,1.3-0.5
	C57.4,44.4,64,36.3,64,29.2C64,21.9,57.7,16,50,16z M30.9,50c-3.1,0.1-6,0.7-8.4,2c-3,1.7-5.1,4.5-6,7.9c-1,3.6-0.4,7.6,1.5,10.9
	c2.7,4.6,7.5,7.2,12.3,7.2c2.2,0,4.4-0.5,6.4-1.7C42.8,72.8,46.6,63,48,55.1c0.2-1-0.4-1.9-1.3-2.2C41.9,51.2,36.1,49.9,30.9,50z
	 M69.1,50c-5.2-0.1-11.1,1.2-15.8,2.9c-0.9,0.3-1.5,1.3-1.3,2.2c1.4,7.9,5.1,17.6,11.4,21.2c2,1.1,4.2,1.7,6.4,1.7
	c4.8,0,9.6-2.6,12.3-7.2c1.9-3.3,2.5-7.3,1.5-10.9c-0.9-3.4-3-6.2-6-7.9C75.2,50.7,72.3,50.1,69.1,50z"/>
</svg>
