<?xml version="1.0" encoding="utf-8"?>
<!-- Generator: Adobe Illustrator 28.0.0, SVG Export Plug-In . SVG Version: 6.00 Build 0)  -->
<svg version="1.1" id="Layer_1" xmlns="http://www.w3.org/2000/svg" xmlns:xlink="http://www.w3.org/1999/xlink" x="0px" y="0px"
	 viewBox="0 0 100 100" style="enable-background:new 0 0 100 100;" xml:space="preserve">
<style type="text/css">
	.st0{fill:url(#SVGID_1_);}
	.st1{fill:#161616;}
	.st2{fill:url(#path37_00000077324896043908614820000005992488483563494317_);}
	.st3{fill:url(#path39_00000164496703706832239760000014663622345238915500_);}
	.st4{fill:url(#path33_00000072240692524596238840000009061943843426048689_);}
</style>
<radialGradient id="SVGID_1_" cx="50" cy="50" r="47.9533" gradientUnits="userSpaceOnUse">
	<stop  offset="0" style="stop-color:#FFFFFF"/>
	<stop  offset="1" style="stop-color:#0474A2"/>
</radialGradient>
<circle class="st0" cx="50" cy="50" r="48"/>
<circle class="st1" cx="50" cy="50" r="45.7"/>
<g id="g6228">
	
		<radialGradient id="path37_00000170978377967741012430000003767862512804516738_" cx="52.47" cy="405.7196" r="11.2754" gradientTransform="matrix(1.1284 9.520000e-02 -0.1759 2.0859 62.4686 -805.5043)" gradientUnits="userSpaceOnUse">
		<stop  offset="0" style="stop-color:#FFFFFF"/>
		<stop  offset="1" style="stop-color:#0474A2"/>
	</radialGradient>
	<path id="path37" style="fill:url(#path37_00000170978377967741012430000003767862512804516738_);" d="M38.4,29.7
		c0,0.8,0.2,1.8,0.3,2.7c0.5,1.8,1.3,3.5,2.2,5c2.2,3.5,4.8,6.5,7.8,9.3c0.2,0.2,0.5,0.5,0.8,0.5c0.3,0.2,0.7,0.2,1,0
		c0.3-0.2,0.5-0.3,0.8-0.7c1-1,2-2.2,3-3.2c1.3-1.5,2.7-3.2,3.8-4.8c1-1.5,2-3.2,2.7-5c0.7-1.8,1-3.5,0.8-5.5
		c-0.3-3.2-1.7-5.8-4-7.8c-2.7-2.5-5.8-3.5-9.3-2.8C42.6,18.4,38.4,23.7,38.4,29.7L38.4,29.7z"/>
	
		<radialGradient id="path39_00000083050151177578441400000003747609331343421060_" cx="-111.9527" cy="512.5406" r="12.8862" gradientTransform="matrix(2.0291 0.8106 -0.4331 1.0843 502.6898 -412.1693)" gradientUnits="userSpaceOnUse">
		<stop  offset="0" style="stop-color:#FFFFFF"/>
		<stop  offset="1" style="stop-color:#DD1A27"/>
	</radialGradient>
	<path id="path39" style="fill:url(#path39_00000083050151177578441400000003747609331343421060_);" d="M68.2,72.3
		c-0.7,0-1.5,0-2.3-0.2c-2.3-0.5-4.5-1.7-6-3.5c-1-1.2-1.8-2.5-2.5-3.8c-0.8-1.7-1.5-3.2-2.2-5c-0.7-2-1.3-4.2-1.8-6.2
		c-0.3-1.2,0-1.8,1.3-2.3c1.7-0.5,3.3-1,5-1.3c2.8-0.7,5.7-1,8.5-0.8c0.8,0,1.7,0.2,2.5,0.3c2.3,0.3,4.3,1.5,6,3.2
		c2.8,2.8,3.8,6.3,3.2,10.3C78.9,68.3,73.9,72.3,68.2,72.3z"/>
	
		<radialGradient id="path33_00000047047930199252714400000001520453224904115643_" cx="-478.2831" cy="-869.6429" r="12.8862" gradientTransform="matrix(-1.8375 1.2244 -0.5566 -0.8352 -1316.3832 -88.8739)" gradientUnits="userSpaceOnUse">
		<stop  offset="0" style="stop-color:#FFFFFF"/>
		<stop  offset="1" style="stop-color:#F2BE2B"/>
	</radialGradient>
	<path id="path33" style="fill:url(#path33_00000047047930199252714400000001520453224904115643_);" d="M32,72.3
		c0.7,0,1.5,0,2.3-0.2c2.3-0.5,4.5-1.7,6-3.5c1-1.2,1.8-2.5,2.5-3.8c0.8-1.7,1.5-3.2,2.2-5c0.7-2,1.3-4.2,1.8-6.2
		c0.3-1.2,0-1.8-1.3-2.3c-1.7-0.5-3.3-1-5-1.3c-2.8-0.7-5.7-1-8.6-1c-0.8,0-1.7,0.2-2.5,0.3c-2.3,0.3-4.3,1.5-6,3.2
		c-2.8,2.8-3.8,6.3-3.2,10.3C21.3,68.3,26.3,72.3,32,72.3z"/>
</g>
</svg>
