<?xml version="1.0" encoding="utf-8"?>
<!-- Generator: Adobe Illustrator 28.0.0, SVG Export Plug-In . SVG Version: 6.00 Build 0)  -->
<svg version="1.1" id="Layer_1" xmlns="http://www.w3.org/2000/svg" xmlns:xlink="http://www.w3.org/1999/xlink" x="0px" y="0px"
	 viewBox="0 0 800 800" style="enable-background:new 0 0 800 800;" xml:space="preserve">
<style type="text/css">
	.st0{fill:#0F0F0F;}
	.st1{fill-rule:evenodd;clip-rule:evenodd;fill:#0F0F0F;}
</style>
<path class="st0" d="M279.6,205.8c-9.3,0-18,4.3-23.7,11.6c-5.7,7.3-7.7,16.8-5.5,25.8l30.1,120.4c3.4,13.4,15.4,22.8,29.2,22.8
	h144.5c3.3,0,6,2.7,6,6v69.3c0,1.6-0.6,3.1-1.8,4.3l-54.2,54.2c-2.4,2.4-6.2,2.4-8.5,0L331,455.5c-11.8-11.8-30.8-11.8-42.6,0
	c-11.8,11.8-11.8,30.8,0,42.6l90.3,90.3c11.8,11.8,30.8,11.8,42.6,0l90.3-90.3c5.6-5.6,8.8-13.3,8.8-21.3V356.3
	c0-16.6-13.5-30.1-30.1-30.1H337.9c-2.8,0-5.2-1.9-5.8-4.6l-12-48.2c-1-3.8,1.9-7.5,5.8-7.5h194.6c16.6,0,30.1-13.5,30.1-30.1
	s-13.5-30.1-30.1-30.1H279.6z"/>
<path class="st1" d="M168.3,85.4c-55,0-97.2,48.7-89.4,103.1l47.2,330.7c3.1,21.4,13.7,41,29.9,55.2l184.4,161.4
	c34.1,29.8,84.9,29.8,119,0l184.4-161.4c16.3-14.2,26.9-33.8,29.9-55.2l47.2-330.7c7.8-54.4-34.5-103.1-89.4-103.1H168.3z
	 M138.5,179.9c-2.6-18.1,11.5-34.4,29.8-34.4h463.3c18.3,0,32.4,16.2,29.8,34.4l-47.2,330.7c-1,7.1-4.6,13.7-10,18.4L419.8,690.4
	c-11.4,9.9-28.3,9.9-39.7,0L195.8,529c-5.4-4.7-9-11.3-10-18.4L138.5,179.9z"/>
</svg>
