<?xml version="1.0" encoding="utf-8"?>
<!-- Generator: Adobe Illustrator 28.0.0, SVG Export Plug-In . SVG Version: 6.00 Build 0)  -->
<svg version="1.1" id="Layer_1" xmlns="http://www.w3.org/2000/svg" xmlns:xlink="http://www.w3.org/1999/xlink" x="0px" y="0px"
	 viewBox="0 0 800 800" style="enable-background:new 0 0 800 800;" xml:space="preserve">
<g id="_x32_069a460dcf28295e231f3111e03585e">
	<path d="M362.3,349.6l25.5,79.7h-83.1l25-79.7c5.8-19.2,10.6-41.8,15.4-60.5h1C350.8,307.8,356.1,329.9,362.3,349.6z M739,174v452
		c0,62.2-50.9,113-113,113H174c-62.2,0-113-50.9-113-113V174c0-62.2,50.8-113,113-113h452C688.1,61,739,111.9,739,174z M490.5,565.7
		L385.4,242H310L206.2,565.7h61l27.9-91.7h102.8l29.3,91.7H490.5z M590.4,331.8h-59.6v233.9h59.6V331.8z M593.8,266.5
		c-0.5-18.3-13-32.2-33.1-32.2c-19.7,0-33.1,13.9-33.1,32.2c0,17.8,13,31.7,32.7,31.7C580.8,298.2,593.8,284.3,593.8,266.5z"/>
</g>
</svg>
