<?xml version="1.0" encoding="utf-8"?>
<!-- Generator: Adobe Illustrator 28.0.0, SVG Export Plug-In . SVG Version: 6.00 Build 0)  -->
<svg version="1.1" id="Layer_1" xmlns="http://www.w3.org/2000/svg" xmlns:xlink="http://www.w3.org/1999/xlink" x="0px" y="0px"
	 viewBox="0 0 800 800" style="enable-background:new 0 0 800 800;" xml:space="preserve">
<style type="text/css">
	.st0{fill:#A3A3A3;}
	.st1{fill:#FCB316;}
</style>
<path class="st0" d="M486.9,625.8h-175c-6.9,0-12.5,5.6-12.5,12.5c0,6.9,5.6,12.5,12.5,12.5h175c6.9,0,12.5-5.6,12.5-12.5
	C499.4,631.4,493.7,625.8,486.9,625.8z M486.9,675.8h-175c-6.9,0-12.5,5.6-12.5,12.5c0,6.9,5.6,12.5,12.5,12.5h175
	c6.9,0,12.5-5.6,12.5-12.5C499.4,681.4,493.7,675.8,486.9,675.8z M324.4,725.8c0,0,0,11.2,0,25c0,13.8,11.2,25,25,25h100.3
	c13.8,0,25-11.2,25-25c0-13.8,0-25,0-25H324.4L324.4,725.8z"/>
<path class="st1" d="M403.2,44.5c-134.3,0-204.7,105.9-204.7,202.2c0,108.1,100.6,176.1,100.6,352.9H401c0,0,95.7,0.5,98.6,0.5
	c2.9-178.1,102-248.1,102-354.2C601.5,155.4,537.5,44.5,403.2,44.5L403.2,44.5z"/>
</svg>
