<?xml version="1.0" encoding="utf-8"?>
<!-- Generator: Adobe Illustrator 28.0.0, SVG Export Plug-In . SVG Version: 6.00 Build 0)  -->
<svg version="1.1" id="Layer_1" xmlns="http://www.w3.org/2000/svg" xmlns:xlink="http://www.w3.org/1999/xlink" x="0px" y="0px"
	 viewBox="0 0 800 800" style="enable-background:new 0 0 800 800;" xml:space="preserve">
<g id="_x32_069a460dcf28295e231f3111e037552">
	<path d="M660.1,9.9H139.9c-71.6,0-130,58.5-130,130V660c0,71.6,58.5,130,130,130H660c71.6,0,130-58.5,130-130V139.9
		C790.1,68.5,731.5,9.9,660.1,9.9z M383.7,406.9c-27,27-69.7,39.8-117.7,39.8c-12.7,0-24.3-0.6-33.1-2.3v140.4h-67.4V217.4
		c24.3-4.4,58-7.7,103.9-7.7c49.8,0,86.3,10.5,110,30.4c22.2,18.2,36.5,47.5,36.5,82.3C415.7,357.7,404.7,387,383.7,406.9z
		 M525.2,590.4c-32.6,0-61.9-7.7-81.8-18.8l13.2-49.2c15.5,9.4,44.8,19.3,69.1,19.3c29.9,0,43.1-12.2,43.1-29.9
		c0-18.2-11.1-27.6-44.2-39.2c-52.5-18.2-74.6-46.9-74.1-78.5c0-47.5,39.2-84.6,101.7-84.6c29.9,0,55.9,7.7,71.4,16.1l-13.2,48.1
		c-11.6-6.7-33.1-15.5-56.9-15.5c-24.3,0-37.5,11.6-37.5,28.2c0,17.2,12.7,25.4,46.9,37.5c48.6,17.6,71.4,42.5,71.8,82.3
		C634.6,555,596.5,590.4,525.2,590.4z M347.8,325.1c0,43.6-31,68.5-81.8,68.5c-13.8,0-24.9-0.6-33.1-2.7v-126
		c7.2-1.7,20.5-3.3,39.2-3.3C319,261.6,347.8,283.6,347.8,325.1z"/>
</g>
</svg>
