<?xml version="1.0" encoding="utf-8"?>
<!-- Generator: Adobe Illustrator 28.0.0, SVG Export Plug-In . SVG Version: 6.00 Build 0)  -->
<svg version="1.1" id="Layer_1" xmlns="http://www.w3.org/2000/svg" xmlns:xlink="http://www.w3.org/1999/xlink" x="0px" y="0px"
	 viewBox="0 0 800 800" style="enable-background:new 0 0 800 800;" xml:space="preserve">
<g id="_x32_069a460dcf28295e231f3111e037552">
	<path d="M630,55H170c-63.3,0-115,51.7-115,115v460c0,63.3,51.7,115,115,115h460c63.3,0,115-51.7,115-115V170
		C745,106.8,693.2,55,630,55z M385.6,406.1c-23.9,23.9-61.6,35.2-104.1,35.2c-11.2,0-21.5-0.5-29.3-2v124.2h-59.6v-325
		c21.5-3.9,51.3-6.8,91.9-6.8c44,0,76.3,9.3,97.3,26.9c19.6,16.1,32.3,42,32.3,72.8C413.9,362.6,404.2,388.5,385.6,406.1z
		 M510.7,568.4c-28.8,0-54.7-6.8-72.3-16.6l11.7-43.5c13.7,8.3,39.6,17.1,61.1,17.1c26.4,0,38.1-10.8,38.1-26.4
		c0-16.1-9.8-24.4-39.1-34.7c-46.4-16.1-66-41.5-65.5-69.4c0-42,34.7-74.8,89.9-74.8c26.4,0,49.4,6.8,63.1,14.2L586,376.8
		c-10.3-5.9-29.3-13.7-50.3-13.7c-21.5,0-33.2,10.3-33.2,24.9c0,15.2,11.2,22.5,41.5,33.2c43,15.6,63.1,37.6,63.5,72.8
		C607.5,537.1,573.8,568.4,510.7,568.4z M353.8,333.8c0,38.6-27.4,60.6-72.3,60.6c-12.2,0-22-0.5-29.3-2.4V280.5
		c6.4-1.5,18.1-2.9,34.7-2.9C328.4,277.6,353.8,297.1,353.8,333.8z"/>
</g>
</svg>
