<?xml version="1.0" encoding="utf-8"?>
<!-- Generator: Adobe Illustrator 28.0.0, SVG Export Plug-In . SVG Version: 6.00 Build 0)  -->
<svg version="1.1" id="Layer_1" xmlns="http://www.w3.org/2000/svg" xmlns:xlink="http://www.w3.org/1999/xlink" x="0px" y="0px"
	 viewBox="0 0 800 800" style="enable-background:new 0 0 800 800;" xml:space="preserve">
<style type="text/css">
	.st0{fill:#FFFFFF;}
</style>
<path d="M787.1,400c0-19.2-8.4-36.4-21.8-48.1c9.8-14.8,13.5-33.6,8.6-52.1c-5-18.5-17.5-32.9-33.5-40.8c5.7-16.8,4.4-35.9-5.2-52.5
	s-25.5-27.3-42.9-30.8c1.1-17.7-5.1-35.8-18.6-49.4s-31.7-19.7-49.4-18.6c-3.5-17.4-14.2-33.3-30.8-42.9s-35.7-10.9-52.5-5.2
	c-7.9-15.9-22.3-28.5-40.8-33.5c-18.5-5-37.3-1.3-52.1,8.6c-11.7-13.3-28.9-21.8-48.1-21.8s-36.4,8.4-48.1,21.8
	c-14.8-9.8-33.6-13.5-52.1-8.6c-18.5,5-32.9,17.5-40.8,33.5c-16.8-5.7-35.9-4.4-52.5,5.2s-27.3,25.5-30.8,42.9
	c-17.7-1.1-35.8,5.1-49.4,18.6s-19.7,31.7-18.6,49.4c-17.4,3.5-33.3,14.2-42.9,30.8s-10.9,35.7-5.2,52.5
	c-15.9,7.9-28.5,22.3-33.5,40.8c-5,18.5-1.3,37.3,8.6,52.1c-13.3,11.7-21.8,28.9-21.8,48.1s8.4,36.4,21.8,48.1
	c-9.8,14.8-13.5,33.6-8.6,52.1c5,18.5,17.5,32.9,33.5,40.8c-5.7,16.8-4.4,35.9,5.2,52.5s25.5,27.3,42.9,30.8
	c-1.1,17.7,5.1,35.8,18.6,49.4s31.7,19.7,49.4,18.6c3.5,17.4,14.2,33.3,30.8,42.9s35.7,10.9,52.5,5.2c7.9,15.9,22.3,28.5,40.8,33.5
	c18.5,5,37.3,1.3,52.1-8.6c11.7,13.3,28.9,21.8,48.1,21.8s36.4-8.4,48.1-21.8c14.8,9.8,33.6,13.5,52.1,8.6
	c18.5-5,32.9-17.5,40.8-33.5c16.8,5.7,35.9,4.4,52.5-5.2s27.3-25.5,30.8-42.9c17.7,1.1,35.8-5.1,49.4-18.6s19.7-31.7,18.6-49.4
	c17.4-3.5,33.3-14.2,42.9-30.8s10.9-35.7,5.2-52.5c15.9-7.9,28.5-22.3,33.5-40.8c5-18.5,1.3-37.3-8.6-52.1
	C778.6,436.4,787.1,419.2,787.1,400z"/>
<g>
	<path class="st0" d="M399.5,245.8c-9.6,1.4-15.3,4.1-17.2,8.1c-1.8,4-2.8,11.7-2.8,22.9v48.9c0,14.5-4.3,26.1-12.9,34.7
		c-8.6,8.7-19.8,13-33.6,13c-16.3,0-28.9-4.2-37.9-12.5c-9-8.4-13.5-20.1-13.5-35.4v-67.2c0-6.7-4.4-10.8-13.1-12.3l-2.3-0.4v-7
		h60.2v7c-6.8,0.9-11.2,2.1-13.1,3.6c-1.9,1.5-2.8,4.2-2.8,8.1v66.3c0,24.9,9.8,37.4,29.5,37.4c9.4,0,16.8-3.4,22-10.1
		c5.3-6.7,7.9-16.2,7.9-28.6v-44.5c0-12.3-1.3-20.4-3.8-24.2c-2.5-3.8-8.1-6.4-16.6-7.8v-7.2h49.9V245.8z"/>
	<path class="st0" d="M464,369.8v-7.2c10.5-0.6,15.7-2.4,15.7-5.5c0-3.5-7.1-17-21.4-40.5c-17.4,23.1-26,36.4-26,39.8
		c0,3.4,4.2,5.5,12.6,6.2v7.2h-44.6v-7.2c5.9-0.4,10.6-2.2,14.2-5.2c3.6-3,6.9-6.6,10.1-10.7l29.1-38.1L428,265.9
		c-5.2-8.2-9.7-13.5-13.5-16c-3.8-2.4-8.4-3.8-13.8-4.2v-7.2H471v7.2c-10.7,0.6-16.1,2.4-16.1,5.6c0,2.3,6.4,14.4,19.1,36.3
		c15.4-20.8,23.1-32.7,23.1-35.8c0-1.8-0.8-3.1-2.3-4c-1.6-0.9-5.1-1.6-10.6-2.2v-7.2h44.7v7.2c-6.4,0.4-11.8,2.7-16.1,6.9
		c-4.3,4.2-15.7,18.6-34.1,43c18,30.7,29.4,49.4,34.3,56.1c4.9,6.7,11.9,10.3,20.9,10.8v7.2H464z"/>
	<path class="st0" d="M439.2,395.7c-12.5,1.8-19.9,5.3-22.3,10.5c-2.4,5.2-3.6,15.2-3.6,29.7v63.5c0,18.8-5.6,33.9-16.8,45.1
		c-11.2,11.3-25.7,16.9-43.7,16.9c-21.2,0-37.6-5.4-49.2-16.3c-11.7-10.8-17.5-26.2-17.5-45.9v-87.3c0-8.7-5.7-14.1-17-16l-3-0.5
		v-9.1h78.2v9.1c-8.9,1.1-14.6,2.7-17,4.6c-2.5,2-3.7,5.5-3.7,10.5v86.1c0,32.4,12.8,48.5,38.4,48.5c12.3,0,21.8-4.4,28.6-13.1
		c6.8-8.7,10.2-21.1,10.2-37.1v-57.8c0-16-1.6-26.5-4.9-31.4c-3.3-4.9-10.5-8.3-21.5-10.1v-9.4h64.8V395.7z"/>
	<path class="st0" d="M446,556.8v-9.4c11-0.5,17.5-2,19.6-4.6c2.1-2.6,3.1-5.9,3.1-10V412.1c0-4-1.1-7.3-3.2-9.8
		c-2.1-2.6-8.6-4.8-19.5-6.6v-9.4h82.7v9.4c-1,0.2-2.2,0.3-3.6,0.5c-8.1,1-13.3,2.4-15.6,4.3c-2.3,1.9-3.4,5.4-3.4,10.5v120.7
		c0,4.3,1.2,7.7,3.6,10.3c2.4,2.5,8.7,4.3,19,5.5v9.4H446z"/>
</g>
</svg>
