<?xml version="1.0" encoding="utf-8"?>
<!-- Generator: Adobe Illustrator 24.3.0, SVG Export Plug-In . SVG Version: 6.00 Build 0)  -->
<svg version="1.1" id="Layer_1" xmlns="http://www.w3.org/2000/svg" xmlns:xlink="http://www.w3.org/1999/xlink" x="0px" y="0px"
	 viewBox="0 0 396.7 955" style="enable-background:new 0 0 396.7 955;" xml:space="preserve">
<style type="text/css">
	.st0{fill:#84847C;}
	.st1{fill:#E3E2D5;}
	.st2{fill:#CECEC2;}
	.st3{fill:#DDB779;}
	.st4{fill:#D2A96E;}
	.st5{fill:#846442;}
	.st6{fill:#F7DEC8;}
	.st7{fill:#99867C;}
	.st8{fill:#EDD1BC;}
	.st9{fill:#9B7E72;}
</style>
<g>
	<rect x="12.1" y="841.3" class="st0" width="2.1" height="113.7"/>
</g>
<g>
	<rect x="383.7" y="840.8" class="st0" width="2.1" height="114.3"/>
</g>
<g>
	<polygon class="st1" points="14.1,955 14.1,831 57.6,831 57.8,955 	"/>
</g>
<path class="st2" d="M44.6,841.6c0,0,0,52.2,2.5,56.9s4.2,30.2-1.3,33.6c-5.5,3.4-28.1,9-12.2,9.5s19.6,0.6,15.8,3.1
	s-18.2,0-10.8,5.1c7.3,5.1,9,5.1,9,5.1h9.5V840L44.6,841.6z"/>
<polygon class="st1" points="383.8,836.8 383.8,955 343.5,955 341.8,834.6 "/>
<path class="st2" d="M371.9,846.8c0,0-19.4-0.1-28.1-6.5c0,0,11.3-2.8,28.5,0C372.3,840.3,377.3,844.4,371.9,846.8z"/>
<path class="st2" d="M45.1,851.8c0,0-19.4-0.1-28.1-6.5c0,0,11.3-2.8,28.5,0C45.5,845.3,50.4,849.4,45.1,851.8z"/>
<path class="st3" d="M9,838.9c0,0-11.3-113.9,20.2-139.1c41.4-33.1,106.7-73.1,106.7-73.1l118.5-6.7c0,0,100.8,39.9,116.8,95.4
	s18.5,121,18.5,121s0.8,10.1-47.1,2.5l0.8,116H57.8V841C57.8,841,42.6,855.7,9,838.9z"/>
<path class="st4" d="M390.7,833c0,0-7.9-110.5-28-135.8s-46-51.7-107.9-76.8c0.1-0.1,7,25.8,0.2,30.5c0,0,4.1,1,10.6,3.1
	c-0.9,13.7-8.7,30.1-34,44.8c0,0,45.9-10.3,45.1-40.8c25.5,8.8,69.4,28.6,82.2,69.8c0,0,18.7,85.2,18.4,113.5
	C377.3,841.3,391.3,842.4,390.7,833z"/>
<path class="st4" d="M39.3,847.1c0,0-1-10.6-2.3-16.5s-11.1-16.7-11.1-16.7l22.9-1.3l-12.2-18.2c-0.9-1.3,0.6-2.8,1.9-2
	c4.6,2.8,10.9,7.6,12.4,14.1c2.4,10.4-7.5-30.7-7.5-30.7l14.3,22.1V841C57.8,841,46.9,847.1,39.3,847.1z"/>
<path class="st4" d="M360.2,841.4c0,0-5.5-11.8-4.2-16.7c0.5-1.9,3.2-4,6.4-5.8c2.7-1.6,1.7-5.8-1.4-5.9l-10.2-0.5l15.3-19.2
	c0,0-15.1,5.3-17.5,14s7.5-25.8,7.5-25.8L341.7,800l0.9,38.9C342.7,838.9,352.6,841.4,360.2,841.4z"/>
<path class="st4" d="M245.2,955c0,0,81.9-84.8,88.7-133.8c0,0-15.5,12.9-28.6,13.4l31.2-28.9l4.3-1.2l2.7,150.4L245.2,955z"/>
<path class="st4" d="M57.8,805.7c0,0,4.6,40.1,29.4,55.5c0,0-14.9,17.7-16,12.9s38.4,49.9,38.4,49.9s-21.4,10.7-28.7,0
	c-7.4-10.7,17.6,31,17.6,31s-40.7,0.1-40.1-0.1c0.6-0.2-0.6-147.1-0.6-147.1"/>
<path class="st2" d="M371.2,841.6c0,0,0,52.2,2.5,56.9s4.2,30.2-1.3,33.6c-5.5,3.4-28.1,9-12.2,9.5s19.6,0.6,15.8,3.1
	s-18.2,0-10.8,5.1c7.3,5.1,9,5.1,9,5.1h9.5V840.1L371.2,841.6z"/>
<g>
	<path class="st5" d="M342.2,955l-0.9-117.5l1.5,0.2c33.5,5.3,42.4,1.7,44.7-0.1c0.9-0.7,0.9-1.2,0.9-1.2c0-0.6-2.7-66-18.4-120.7
		c-15.2-52.9-110.1-92.2-115.8-94.5L136.3,628c-4.6,2.8-66.8,41.2-106.3,72.9C0.6,724.3,9.4,828.5,10.2,838.1
		c31.9,15.7,46.5,2.2,46.7,2l2.1-2v3V955h-2.5V843.6c-5.3,3.5-20.7,10.1-48-3.5l-0.6-0.3L7.8,839c-0.5-4.7-11-114.8,20.6-140.2
		c41-32.8,106.2-72.8,106.9-73.2l0.3-0.2h0.3l118.8-6.7l0.3,0.1c4.1,1.6,101.6,40.8,117.5,96.2c15.8,55,18.5,120.7,18.5,121.3
		c0,0.2,0,1.5-1.4,2.9c-3.5,3.2-14.2,6-45.6,1.2l0.8,114.6L342.2,955z"/>
</g>
<path class="st6" d="M156.1,529l8.7,53.8c0,0,9,31.7-28.9,44c0,0-5.9,56.3,67.5,50.7s51-57.4,51-57.4s-20.8-2.2-17.1-26.3
	s9.2-64.7,9.2-64.7L156.1,529z"/>
<g>
	<path class="st7" d="M171.2,604.9c1.5,4.6,2.9,9.3,4.3,14c1.4,4.7,2.7,9.4,4,14c1.3,4.7,2.6,9.4,3.8,14.1l1.8,7.1
		c0.6,2.4,1.2,4.7,1.7,7.1c-0.8-2.3-1.5-4.6-2.2-7l-2.1-7c-1.4-4.7-2.7-9.4-4-14c-1.3-4.7-2.6-9.4-3.8-14.1
		C173.5,614.3,172.3,609.6,171.2,604.9z"/>
</g>
<g>
	<path class="st7" d="M225,646c-0.5,3.1-1.8,6.1-3.5,8.8c-0.9,1.3-1.9,2.6-3,3.7c-1.2,1.1-2.5,2-4,2.6c1.3-0.9,2.4-2,3.4-3.1
		c1-1.2,1.9-2.4,2.8-3.7c0.8-1.3,1.6-2.7,2.3-4C223.7,648.9,224.4,647.5,225,646z"/>
</g>
<g>
	<path class="st7" d="M189.2,598.4c0.5,1.1,0.9,2.2,1.4,3.3c0.4,1.1,0.9,2.2,1.4,3.2c1,2.1,1.9,4.3,3,6.4c1.1,2.1,2.2,4.1,3.5,6
		c0.7,1,1.4,1.9,2.2,2.7c0.8,0.9,1.7,1.6,2.7,2.2c-1.1-0.4-2.1-1.1-3.1-1.8c-0.9-0.8-1.7-1.7-2.5-2.6c-1.5-1.9-2.7-3.9-3.8-6
		s-2-4.3-2.8-6.5C190.5,603,189.7,600.7,189.2,598.4z"/>
</g>
<path class="st5" d="M6.8,825.2c2,1.1,4,2.2,6,3.1c2,1,4.1,1.9,6.2,2.7c4.2,1.7,8.4,3.1,12.8,4.1c2.2,0.5,4.4,0.8,6.6,1
	c2.2,0.2,4.4,0.2,6.7,0.1c4.4-0.3,8.8-1.7,12.6-4.1c-1.8,1.4-3.8,2.5-5.9,3.4c-2.1,0.8-4.4,1.3-6.6,1.7c-4.6,0.6-9.2,0.1-13.6-0.8
	c-4.5-1-8.8-2.5-12.9-4.4C14.4,830,10.4,827.8,6.8,825.2z"/>
<path class="st5" d="M17.6,715.8c4.6,5.6,8.7,11.6,12.4,17.9c1.9,3.1,3.6,6.3,5.3,9.5c1.6,3.2,3.2,6.5,4.7,9.8l1.1,2.5l1,2.5
	c0.7,1.7,1.4,3.3,2.1,5c1.2,3.4,2.6,6.8,3.6,10.3c2.3,6.9,3.9,14,5.1,21.1c-2.2-6.9-4.4-13.7-7-20.5c-2.5-6.7-5.2-13.4-8.2-19.9
	c-2.9-6.6-6.1-13-9.5-19.4C24.9,728.2,21.4,721.9,17.6,715.8z"/>
<path class="st4" d="M262.6,662.6c0,0-19.6,49.5-105.8,25.6C156.8,688.3,237.6,725.2,262.6,662.6z"/>
<path class="st4" d="M263.4,842.7c0,0-19.6,49.5-105.8,25.6C157.6,868.4,238.4,905.3,263.4,842.7z"/>
<path class="st4" d="M256.4,650.7c0,0-19.6,49.5-105.8,25.6C150.5,676.4,231.3,713.3,256.4,650.7z"/>
<path class="st5" d="M43.5,789.7c1.3,2.3,2.6,4.7,3.9,7c1.3,2.4,2.5,4.7,3.7,7.1c2.4,4.8,4.7,9.6,6.9,14.5l0.4,1l-1-0.4
	c-1.4-0.5-2.8-1.1-4.3-1.6c-1.4-0.6-2.8-1.1-4.2-1.7c1.5,0.4,2.9,0.8,4.4,1.2s2.9,0.9,4.4,1.3l-0.5,0.6c-2.5-4.7-4.9-9.5-7.2-14.3
	c-1.1-2.4-2.3-4.8-3.3-7.3C45.5,794.7,44.5,792.2,43.5,789.7z"/>
<path class="st5" d="M131.4,635.5c-9.4,5.2-18.6,10.8-27.6,16.6c-9.1,5.7-18,11.7-26.7,18c-4.3,3.1-8.6,6.4-12.8,9.7
	s-8.4,6.7-12.3,10.3c-4,3.6-7.9,7.3-11.5,11.2s-7,8.1-9.9,12.5c-2.9,4.5-5.1,9.3-7,14.3c-1.8,5-3.2,10.2-4.4,15.4
	c-2.3,10.5-3.6,21.1-4.6,31.8c-0.9,10.7-1.3,21.4-1.4,32.2c-0.1,10.7,0.1,21.5,0.7,32.2c-1.6-21.4-1.8-43-0.3-64.5
	c0.8-10.7,2.1-21.4,4.4-32c1.2-5.3,2.5-10.5,4.4-15.6c1.8-5.1,4.1-10.1,7-14.6c3-4.5,6.4-8.7,10.1-12.7s7.6-7.7,11.6-11.2
	c4-3.6,8.2-7,12.4-10.3s8.6-6.5,13-9.6C94,656.9,112.4,645.7,131.4,635.5z"/>
<path class="st5" d="M260.7,627.1c19.1,10,37.7,21.1,55.3,33.6c8.8,6.2,17.3,13,25.3,20.3c7.9,7.4,15.5,15.3,21,24.7
	c0.7,1.2,1.4,2.4,1.9,3.6c0.6,1.2,1.2,2.5,1.6,3.8c1,2.6,1.6,5.2,2.4,7.8s1.3,5.2,2,7.9l0.9,3.9l0.8,4c2.2,10.6,4,21.2,5.4,31.9
	c1.5,10.7,2.7,21.4,3.8,32.2c1,10.7,2,21.5,2.7,32.3c-0.9-10.8-2-21.5-3.3-32.2c-1.2-10.7-2.6-21.4-4.2-32.1
	c-1.6-10.7-3.4-21.3-5.6-31.8l-0.8-4l-0.9-4c-0.6-2.6-1.2-5.2-2-7.8c-0.7-2.6-1.4-5.2-2.3-7.7c-0.4-1.3-1-2.5-1.6-3.7
	c-0.5-1.2-1.2-2.4-1.9-3.5c-5.4-9.3-12.9-17.1-20.7-24.5c-7.9-7.3-16.4-14-25.1-20.3c-8.7-6.4-17.7-12.3-26.8-18
	S270.2,632.3,260.7,627.1z"/>
<path class="st5" d="M341.8,826.7c2,0.1,4.1,0.2,6.1,0.3s4.1,0.2,6.1,0.3c4.1,0.1,8.1,0.2,12.2,0.1c2,0,4-0.1,6.1-0.3
	c2-0.1,4-0.4,6-0.7s3.9-0.8,5.8-1.6c1.9-0.7,3.6-1.8,4.8-3.5c-0.9,1.9-2.7,3.2-4.5,4.1c-1.9,0.9-3.9,1.5-5.9,2
	c-4,0.9-8.1,1.2-12.2,1.4c-4.1,0.1-8.2,0-12.2-0.4C349.9,827.9,345.8,827.5,341.8,826.7z"/>
<path class="st4" d="M128.4,649.8c0,0,11.3,55.6,91.1,37.6C219.4,687.4,136.2,712.4,128.4,649.8z"/>
<path class="st5" d="M340.8,783.9c1.3-6.4,3-12.8,4.8-19.1s3.8-12.5,6-18.7s4.6-12.3,7.4-18.3c1.4-3,2.9-5.9,4.6-8.8
	c0.4-0.7,0.9-1.4,1.3-2.1c0.4-0.7,0.9-1.4,1.5-2c1-1.3,2.1-2.6,3.6-3.3c-1.3,1-2.2,2.4-3.1,3.7c-0.8,1.4-1.6,2.8-2.3,4.3
	c-1.4,2.9-2.6,5.9-3.9,9c-2.4,6.1-4.6,12.2-6.8,18.3C349.6,759.2,345.4,771.6,340.8,783.9z"/>
<g>
	<path class="st5" d="M336.2,828c0.9,11.8-0.2,23.7-2.4,35.3c-2.2,11.6-5.6,23-10.2,33.9c-2.3,5.5-4.9,10.8-7.8,16
		c-2.8,5.2-6,10.2-9.4,15.1c-1.8,2.4-3.4,4.8-5.3,7.1l-2.8,3.5l-2.9,3.4c-1.9,2.3-4,4.4-6,6.5s-4.2,4.1-6.3,6.2
		c8.4-8.3,16-17.4,22.7-27.1c6.6-9.7,12.4-20.1,16.8-31c4.6-10.8,8-22.2,10.3-33.7c1.2-5.8,2-11.6,2.6-17.5
		C336.2,839.8,336.5,833.9,336.2,828z"/>
</g>
<g>
	<path class="st5" d="M71.2,889.8c1.2,2.9,2.5,5.8,3.8,8.7c0.6,1.4,1.3,2.9,2,4.3c0.7,1.4,1.3,2.9,2,4.3c2.8,5.7,5.6,11.4,8.7,16.9
		s6.3,11,9.9,16.2c0.8,1.3,1.8,2.6,2.8,3.9l1.4,1.9c0.5,0.6,1,1.2,1.5,1.8l1.5,1.8c0.5,0.6,1,1.2,1.5,1.8l3.2,3.5
		c-4.7-4.2-8.8-9.2-12.6-14.3l-2.7-3.9l-2.6-4c-0.9-1.3-1.7-2.7-2.5-4.1c-0.8-1.4-1.6-2.7-2.4-4.1l-2.3-4.2l-2.2-4.3
		c-0.7-1.4-1.4-2.9-2.1-4.3c-0.7-1.4-1.4-2.9-2-4.3C75.8,901.6,73.3,895.8,71.2,889.8z"/>
</g>
<path class="st5" d="M121,635.5c-0.3,4.7,0.1,9.4,1.1,13.9c1,4.6,2.5,9,4.7,13.1c2.1,4.1,4.8,8,8.1,11.3c3.2,3.4,6.9,6.2,10.9,8.6
	c4,2.4,8.3,4.2,12.6,5.8c2.2,0.7,4.4,1.5,6.7,2l3.4,0.8l3.4,0.6c9.2,1.6,18.5,2,27.8,1.8c9.3-0.3,18.6-1.2,27.6-3.8
	c8.9-2.5,17.5-6.5,24.3-12.9c6.8-6.3,11.5-14.7,13.6-23.8c1.1-4.5,1.7-9.2,1.8-13.8c0.2-4.7-0.1-9.3-0.5-14c1,9.3,1.4,18.8-0.7,28
	c-2,9.2-6.6,17.9-13.5,24.4c-3.4,3.3-7.3,6-11.5,8.1c-1,0.6-2.1,1-3.2,1.5c-1.1,0.5-2.1,1-3.3,1.4l-3.3,1.2l-3.4,1
	c-9.1,2.6-18.5,3.6-27.9,3.9c-9.4,0.2-18.8-0.2-28.1-1.9l-3.5-0.7l-3.4-0.8c-2.3-0.5-4.5-1.3-6.8-2c-4.4-1.6-8.8-3.5-12.8-6
	s-7.7-5.5-10.9-8.9s-5.9-7.4-8-11.6c-2.1-4.2-3.5-8.7-4.4-13.3C121,644.9,120.6,640.2,121,635.5z"/>
<path class="st5" d="M137.6,661.2c2.3,2.6,5,4.8,7.8,6.8s5.7,3.9,8.7,5.5c6.1,3.2,12.6,5.6,19.3,7c6.7,1.5,13.6,2,20.5,1.8
	s13.8-1.2,20.5-2.6c-1.7,0.4-3.4,0.9-5,1.3c-1.7,0.3-3.4,0.7-5.1,1c-1.7,0.2-3.4,0.6-5.2,0.7l-2.6,0.3c-0.9,0.1-1.7,0.1-2.6,0.2
	c-6.9,0.4-13.9-0.2-20.8-1.6c-6.8-1.5-13.4-3.9-19.5-7.3C147.7,670.7,142,666.5,137.6,661.2z"/>
<path class="st5" d="M167.9,676.2c0.2,1.3,0.1,2.6-0.1,3.8c-0.2,1.3-0.6,2.5-1.1,3.7c-0.5,1.1-0.9,2.3-1.2,3.5s-0.4,2.5-0.3,3.7
	c-0.4-1.2-0.4-2.5-0.2-3.8s0.6-2.5,1.1-3.7c0.5-1.1,0.9-2.3,1.3-3.5C167.6,678.7,167.8,677.5,167.9,676.2z"/>
<path class="st5" d="M156.8,675.3c-1.1,1.4-2.3,2.8-3.2,4.3c-0.5,0.7-0.9,1.5-1.3,2.3c-0.4,0.8-0.6,1.6-0.7,2.5
	c-0.2-0.9-0.1-1.8,0.2-2.7s0.7-1.7,1.2-2.4c0.5-0.8,1.1-1.5,1.7-2.1C155.4,676.5,156.1,675.8,156.8,675.3z"/>
<path class="st5" d="M146.9,669.4c-1.3,1.1-2.7,2.1-3.9,3.2c-0.6,0.6-1.2,1.2-1.7,1.8c-0.5,0.7-0.9,1.4-1.1,2.2
	c-0.1-0.9,0.2-1.7,0.7-2.5c0.4-0.8,1-1.4,1.6-2s1.3-1.1,2-1.6C145.3,670.1,146.1,669.7,146.9,669.4z"/>
<path class="st5" d="M139.1,661.2c0.1,1,0.1,2.1-0.1,3.1c-0.2,1-0.5,2.1-1.3,2.9c-0.2,0.2-0.4,0.4-0.7,0.5l-0.6,0.4
	c-0.4,0.3-0.8,0.6-1.2,0.9c-0.8,0.6-1.5,1.3-2.2,2.1c0.5-0.9,1.1-1.7,1.8-2.5c0.4-0.4,0.8-0.7,1.2-1c0.5-0.3,0.9-0.5,1.2-0.9
	c0.6-0.7,1-1.6,1.3-2.6C138.8,663.2,139,662.2,139.1,661.2z"/>
<path class="st8" d="M254.5,620c0,0-16.3-0.5-17.7-19.8c0.1,0,0.1,0,0.1,0c-1-6.1,9.6-71.1,9.6-71.1l-90.4-0.1
	c8.5,26.5,30.1,53.8,47.5,61.8c0.8,6.4,3.8,19.6,15.3,34.3c-2.2,13.7-5.8,28.3-11.8,37.5c0,0,12.7-8.6,19.9-28.4
	c7.1,7.7,13.6,12.5,26.4,19.9C253.5,654.1,262.9,639,254.5,620z"/>
<path class="st5" d="M129.7,641c-1.4,0.9-2.8,1.6-4.2,2.4c-0.7,0.4-1.4,0.8-2,1.3c-0.3,0.2-0.6,0.5-0.9,0.8s-0.5,0.6-0.5,1
	c-0.1-0.4,0-0.9,0.3-1.2c0.2-0.4,0.5-0.7,0.8-0.9c0.6-0.6,1.3-1,2-1.4C126.7,642.1,128.2,641.4,129.7,641z"/>
<path class="st5" d="M187.4,680.7c0.4,0.9,0.6,1.9,0.8,2.8c0.2,1,0.3,2,0.4,2.9c0,1,0,2-0.2,3s-0.5,2-1,2.8c0.6-1.9,0.7-3.8,0.6-5.7
	C187.9,684.6,187.7,682.7,187.4,680.7z"/>
<path class="st5" d="M201.7,682.8c0.5,1.2,0.8,2.4,1,3.6c0.1,0.6,0.1,1.3,0.1,1.9c0,0.6-0.1,1.3-0.5,1.9c0.1-0.6,0-1.2,0-1.9
	c-0.1-0.6-0.1-1.2-0.2-1.8C201.9,685.3,201.8,684,201.7,682.8z"/>
<path class="st5" d="M211,680.7c0.8,1.1,1.3,2.3,1.7,3.6c0.2,0.6,0.4,1.3,0.5,2s0.1,1.4,0,2c-0.1-0.7-0.3-1.3-0.5-1.9l-0.6-1.9
	C211.8,683.3,211.4,682,211,680.7z"/>
<path class="st5" d="M251.6,657.1c0.8,0.2,1.6,0.5,2.4,0.8c0.8,0.3,1.5,0.7,2.2,1.1c0.7,0.4,1.4,0.9,2,1.5s1.2,1.3,1.4,2.1
	c-0.4-0.7-1.1-1.2-1.7-1.7s-1.3-0.9-2-1.3C254.5,658.7,253,658,251.6,657.1z"/>
<path class="st5" d="M257.7,650.9c1.1,0.1,2.2,0.4,3.3,0.9c0.5,0.2,1,0.5,1.5,0.9c0.4,0.4,1,0.8,0.9,1.5c-0.2-0.5-0.7-0.8-1.2-1.1
	s-1-0.5-1.5-0.7C259.7,651.9,258.7,651.4,257.7,650.9z"/>
<path class="st5" d="M259.6,645.3c0.1-0.3,0.2-0.5,0.4-0.7c0.2-0.2,0.5-0.3,0.8-0.3s0.7,0.1,0.9,0.3c0.2,0.2,0.4,0.5,0.4,0.7
	c-0.5-0.3-0.9-0.5-1.2-0.4C260.5,644.9,260.1,645.1,259.6,645.3z"/>
<path class="st0" d="M365.3,944.7c-2.4,1-4.8,2-7.2,3.1c-1.2,0.5-2.4,1.1-3.5,1.7c-0.6,0.3-1.1,0.6-1.6,1c-0.2,0.2-0.5,0.4-0.7,0.5
	c-0.2,0.2-0.3,0.4-0.3,0.4l-0.7-0.6c3.3-0.2,6.6-0.1,9.8,0.3c1.6,0.2,3.3,0.6,4.8,1.1c0.8,0.3,1.5,0.6,2.3,1.1
	c0.7,0.4,1.4,1,1.8,1.7c-1.1-1.3-2.7-1.8-4.2-2.1c-1.6-0.4-3.2-0.6-4.8-0.7c-3.2-0.3-6.4-0.2-9.6-0.1h-0.7l0.1-0.6
	c0.1-0.7,0.4-1,0.7-1.3c0.3-0.3,0.6-0.5,0.9-0.7c0.6-0.4,1.2-0.7,1.8-1c1.2-0.6,2.4-1.1,3.7-1.5C360.2,946,362.7,945.3,365.3,944.7z
	"/>
<path class="st0" d="M43.5,941.9c-1.7,0.1-3.4,0.2-5,0.4c-1.7,0.2-3.3,0.5-4.9,1c-1.6,0.5-3.2,1-4.6,1.9c-1.4,0.8-2.6,1.9-3.5,3.2
	l-0.5-0.9c1.6,0.1,3.3,0.2,4.9,0.4s3.2,0.4,4.8,0.8c1.6,0.3,3.2,0.7,4.8,1.3c1.5,0.6,3.1,1.3,4.3,2.7l0.3,0.4l-0.5,0.1
	c-1.1,0.3-2.2,0.6-3.3,0.9c-1.1,0.3-2.2,0.6-3.3,0.9c1-0.4,2.1-0.9,3.2-1.3c1.1-0.4,2.1-0.8,3.2-1.2l-0.2,0.5c-1-1.1-2.5-1.7-4-2.2
	c-1.5-0.4-3.1-0.8-4.7-1.1c-3.2-0.5-6.4-0.9-9.6-1.1l-1-0.1l0.5-0.9c1-1.6,2.4-2.7,4-3.5c1.5-0.9,3.2-1.4,4.9-1.7
	c1.7-0.4,3.4-0.6,5.1-0.7C40.1,941.7,41.8,941.7,43.5,941.9z"/>
<g>
	<path class="st5" d="M57.8,801.3L57.8,801.3c0.7,0,1.2,0.6,1.2,1.2V841h-2.5v-38.5C56.5,801.9,57.1,801.3,57.8,801.3z"/>
</g>
<g>
	<path class="st5" d="M340.8,799.5L340.8,799.5c0.7,0,1.3,0.5,1.3,1.2l1.8,38.2l-2.5,0.1l-1.8-38.2
		C339.6,800.1,340.1,799.5,340.8,799.5z"/>
</g>
<path class="st5" d="M348.5,799.4c-0.7,2.3-1.7,4.5-2.8,6.6c-1.1,2.1-2.4,4.1-3.9,6c0.7-2.3,1.7-4.5,2.8-6.6
	C345.8,803.3,347,801.3,348.5,799.4z"/>
<path class="st4" d="M292,860.1c0,0-65.7,75.5-145.2,62.3C146.9,922.4,207.6,973.1,292,860.1z"/>
<path class="st4" d="M30.8,716.7c0,0,21.9,21.4,26.7,73C57.6,789.7,57.5,734.7,30.8,716.7z"/>
<path class="st5" d="M346.6,786.7c-0.4,4.2-1.1,8.4-2,12.7c-0.9,4.2-2,8.5-3.2,12.7c-1.3,4.3-2.7,8.5-4.6,12.8
	c-0.9,2.1-2,4.3-3.2,6.4c-0.3,0.5-0.6,1.1-1,1.6c-0.3,0.5-0.7,1-1.1,1.6c-0.8,1-1.7,2.1-3.1,2.9c1.2-0.9,1.8-2,2.5-3
	c0.6-1,1.2-2.1,1.6-3.1c1-2.1,1.7-4.2,2.5-6.3c1.5-4.2,2.8-8.5,4-12.7C341.6,803.7,343.9,795.3,346.6,786.7z"/>
<path class="st2" d="M17.7,950.6c0,0,15-0.6,22.1,3c0,0-8.7,2.1-22.1,1C17.7,954.6,13.7,952.2,17.7,950.6z"/>
<path class="st2" d="M17.7,950.4c0,0,15-0.6,22.1,3c0,0-8.7,2.1-22.1,1C17.7,954.4,13.7,952,17.7,950.4z"/>
<path class="st2" d="M20.8,930.4c0,0,11.6-3,17.8-0.6c0,0-6.3,3.5-17,4.5C21.6,934.3,18,932.7,20.8,930.4z"/>
<path class="st2" d="M349.6,930.4c0,0,11.6-3,17.8-0.6c0,0-6.3,3.5-17,4.5C350.4,934.3,346.8,932.7,349.6,930.4z"/>
<path class="st9" d="M255.7,619.7l-0.3-0.7l-0.7-0.1c0,0-7.8-1-12.6-7.2c-3.4-4.4-4.5-10.3-3.4-17.7c3.6-23.8,9.2-64.9,9.2-64.9
	h-2.5l-4.2,28.1l0,0c-1.7,12.1-3.6,25.9-5.2,36.1c-1.2,8.1,0.1,14.8,3.9,19.7c4.6,5.9,11.3,7.6,13.6,8c1.3,3.3,6.6,19.6-1.8,33.4
	c-7.5,12.5-23.8,19.7-48.4,21.6c-24.6,1.9-42.8-3-54-14.6c-12.5-12.8-12.4-30-12.2-33.9c36.7-12.4,29.4-43.3,28.8-45.1l-4.5-28.1
	l0,0l-4.1-25.4H155l8.7,54v0.1c0.4,1.2,8.2,30.6-28,42.4l-0.8,0.3l-0.1,0.8c-0.1,0.8-2.1,21.4,12.8,36.7
	c10.2,10.5,25.6,15.8,46,15.8c3.2,0,6.6-0.2,10.1-0.2c25.5-1.9,42.4-9.6,50.4-22.8C264,639.5,256,620.5,255.7,619.7z"/>
<path class="st5" d="M255.4,619L255.4,619l-1.9,2l0,0c1.3,3.3,6.6,19.6-1.8,33.4c-7.5,12.5-23.8,19.7-48.4,21.6
	c-24.6,1.9-42.8-3-54-14.6c-12.5-12.8-12.4-30-12.2-33.9h0.1l-2.2-1.8h-0.1l-0.1,0.8c-0.1,0.8-2.1,21.4,12.8,36.7
	c10.2,10.5,25.6,15.8,46,15.8c3.2,0,6.6-0.2,10.1-0.2c25.5-1.9,42.4-9.6,50.4-22.8c9.9-16.5,1.9-35.5,1.6-36.3L255.4,619z"/>
</svg>
