<?xml version="1.0" encoding="utf-8"?>
<!-- Generator: Adobe Illustrator 24.3.0, SVG Export Plug-In . SVG Version: 6.00 Build 0)  -->
<svg version="1.1" id="Layer_1" xmlns="http://www.w3.org/2000/svg" xmlns:xlink="http://www.w3.org/1999/xlink" x="0px" y="0px"
	 viewBox="0 0 396.7 955" style="enable-background:new 0 0 396.7 955;" xml:space="preserve">
<style type="text/css">
	.st0{fill:#443B37;}
	.st1{fill:#0D0F21;}
	.st2{fill:#F7DEC7;}
	.st3{fill:#EDD1BC;}
	.st4{fill:#514844;}
	.st5{fill:#221F1F;}
	.st6{fill:#7A2B2B;}
	.st7{fill:#E2C28F;}
	.st8{fill:#000222;}
	.st9{fill:#AD3A3A;}
	.st10{fill:#AD3A3A;stroke:#000222;stroke-width:2;stroke-miterlimit:10;}
	.st11{fill:#EEE5DE;}
	.st12{fill:#BC5820;}
</style>
<path class="st0" d="M87.3,495.3c0,0-5.3,19.5-13.9,21.6l4.3,15.9l16.7-2.1l-11.7,11.8l33.7-0.6c0,0-21.3,20-25.3,19.8l26.7-2.6
	l46.1-22l-33-92.3L87.3,495.3z"/>
<path class="st1" d="M91.2,562.9l-0.1-2.5l0.5-0.1c2.6-0.7,12.6-8.8,21.6-17.2l-33.5,0.6L91,532.4l-14.2,1.7L71.9,516l1.2-0.3
	c6.4-1.6,11.4-15.1,13-20.5l45.7-52.2l33.9,94.6l-47.4,22.5l-26.7,2.6C91.4,562.9,91.3,562.9,91.2,562.9z M119.7,540.5l-2.4,2.3
	c-3.7,3.4-13.2,12.2-19.9,17l20.1-2.1l44.9-21.4l-32.2-90l-41.7,49.3v0.2c-0.2,0.8-5.2,18.5-13.6,22.1l3.7,13.7l19.3-2.4l-12,12.1
	L119.7,540.5z"/>
<path class="st0" d="M320.8,484.7l10.9-5.3l-7.1-18.4l-33.8,20.4l-38.9,55.7l21.6,17.9l-3.3-18.9l5.5,5.8h11.8l3.9-16.5l20.7-7.6
	l-2.8-6.2l5.3-12.5l9.9,3.9C324.6,503,318,492.8,320.8,484.7z"/>
<path class="st1" d="M275.3,558.2l-25.1-20.8l39.8-56.9l35.3-21.3l8.1,20.9l-11.5,5.6c-2.1,7.4,3.7,16.7,3.8,16.8l2.1,3.3l-12.4-4.9
	l-4.6,10.8l3.1,6.9l-21.4,7.8l-4,16.8h-13.3l-3-3.1L275.3,558.2z M253.6,536.8l18.1,15l-3.4-19.7l8,8.4h10.2l3.8-16.1l20.1-7.4
	l-2.5-5.5l6-14.1l7.9,3.1c-1.8-3.8-4.2-10.5-2.2-16.3l0.2-0.5l10.4-5l-6.2-15.9l-32.2,19.5L253.6,536.8z"/>
<path class="st2" d="M81.5,400.1c0,0-1.1,84.6,61.1,129.1c0,0,9.6,8.2,22.6,17.3c16.7,11.6,39,24.6,53.6,23.4
	c26.1-2.2,67.5-33.5,98-116.8l26.1-109.2l-12-75.9l-86.4-34L126,246.3L81.5,400.1z"/>
<path class="st3" d="M118.1,487.7c0,0,25.4,47.9,90.1,81.1c0,0-82.1-33.3-101.1-81.1L118.1,487.7L118.1,487.7z"/>
<path class="st3" d="M246.5,437.9c0,0,12.2,24.9,42.9,37.6c0,0,3.9,53.8-61.8,92.6c0,0,52.3-10.1,91.7-124.7l24.3-95.7l-23-85.4
	l-47.2-14.6l-24.1,21.8c0,0,40.1-2.8,58.4,51.7C316.7,347.7,318,364.2,246.5,437.9z"/>
<path class="st3" d="M241.4,266.6c-16.4-8.2-13.9-30.3-13.9-30.3L159,247.2l-21.6,66.1l-26.8,175.5c18.7-9.4,17.7-12.8,30.2-19.1
	c35.3,10.3,66.5-12.2,77.4-37.9c13.1-30.9-21.3-52.2-52.3-65.2l-0.8-14C155.9,249.5,241.4,266.6,241.4,266.6z"/>
<polygon class="st0" points="290.6,332.3 289.1,334.7 281.4,335.8 279.6,338.6 270.4,339.9 269,342.1 261.9,343.1 253.6,355.9 
	262.2,352.7 273.1,348.6 282.4,345.2 303.3,337.4 311.9,334.2 322.9,330.1 332.1,326.6 "/>
<path class="st4" d="M249.4,269.6c0,0-64.7-43.7-92.9,33.6c0,0-4.6,8.6,0,39.5C162.6,383.3,204,483,47.3,511.6l14.3-14.3l-14.3,1.3
	l11.8-8l-14.7,0.8v-7.1l10.9-16l-13.9,2.9l18.1-41.6l-24.8,27.7c0,0,16-16.8,15.1-52.5s-13-182.8,72.3-208.4s113.9-4.6,113.9-4.6
	s24.4-9.7,52.5,5.9s79,50,70.6,191.6c0,0-11.2,49.2,0.9,75.6l-13.6-16l6.8,22.3L341,460.7l-4.2,13.9l-11.3-5.9l-11.8,18.9l-6.7-9.7
	c0,0,35.7-79.8,25.6-153.8C318.8,223.1,249.4,269.6,249.4,269.6z"/>
<polygon class="st0" points="181.1,343.8 182.6,346.2 190.3,347.3 192.1,350.1 201.3,351.4 202.7,353.6 209.9,354.6 218.1,367.4 
	209.6,364.2 198.6,360.1 189.4,356.7 168.4,348.8 159.9,345.7 148.9,341.6 139.7,338.1 "/>
<circle class="st5" cx="161.4" cy="403.2" r="60.8"/>
<circle class="st6" cx="161.4" cy="403.2" r="41.8"/>
<path class="st7" d="M256.3,506.5c1.8,2.3,5.2,8.2-2.5,14.9c-0.2,0.2-0.6,0-0.5-0.3c0.9-2.5,2.5-8.7-2-12.7
	c-0.5-0.5-1.6-2.4-1.1-2.9c0.5-0.4,2.3,0,3.1,0C254.7,505.5,255.6,505.6,256.3,506.5z"/>
<path class="st8" d="M253.6,521.9c-0.2,0-0.3,0-0.4-0.1c-0.3-0.2-0.4-0.6-0.3-0.9c0.8-2.4,2.4-8.4-1.9-12.1
	c-0.5-0.4-1.4-1.9-1.4-2.9c0-0.4,0.2-0.7,0.3-0.8c0.5-0.4,1.5-0.3,2.5-0.2c0.4,0,0.7,0.1,1,0.1c1.4,0,2.5,0.1,3.4,1.2l0,0
	c1.9,2.3,5.4,8.6-2.6,15.6C254,521.9,253.8,521.9,253.6,521.9z M251,505.8c-0.2,0-0.4,0-0.5,0.1c-0.1,0.3,0.6,1.7,1.1,2.2
	c4.3,3.8,3.3,9.5,2.4,12.5c6.6-6.2,3.6-11.6,1.9-13.7c-0.6-0.7-1.2-0.8-2.6-0.8c-0.3,0-0.7,0-1.1-0.1
	C251.9,505.8,251.4,505.8,251,505.8z"/>
<path class="st7" d="M201.8,504.5c-2,2.1-5.8,7.7,1.3,15.1c0.2,0.2,0.6,0,0.5-0.3c-0.7-2.5-0.4-9.7,4.4-13.3
	c0.6-0.4,0.7-1.3,0.2-1.8s-2.4-0.1-3.3-0.4C203.8,503.4,202.6,503.7,201.8,504.5z"/>
<path class="st8" d="M203.3,520.1c-0.2,0-0.4-0.1-0.6-0.2c-7.4-7.7-3.4-13.6-1.3-15.8l0,0c0.9-1,2.3-1.3,3.6-0.9
	c0.3,0.1,0.8,0.1,1.3,0.1c0.9,0,1.7,0,2.1,0.4c0.3,0.3,0.5,0.8,0.5,1.3s-0.3,1-0.7,1.3c-4.7,3.6-4.7,10.7-4.2,12.8
	c0.1,0.4-0.1,0.7-0.4,0.9C203.6,520.1,203.4,520.1,203.3,520.1z M202.2,504.8c-2.3,2.4-5.1,7.3,0.8,13.8c-0.4-2.9-0.1-9.6,4.7-13.1
	c0.2-0.1,0.3-0.3,0.3-0.5s-0.1-0.4-0.2-0.5c-0.2-0.1-0.9-0.1-1.4-0.1c-0.6,0-1.2,0-1.7-0.2C203.8,503.9,202.8,504.1,202.2,504.8
	L202.2,504.8z"/>
<path class="st0" d="M285.7,257.4c0,0,58.7,0.4,57,73.5S307.8,476,307.8,476s28.7-74.7,26.2-140.2S294.3,255.4,285.7,257.4z"/>
<path class="st3" d="M207.1,514c0,0,5.8,13.1,19.3,13.8c13.4,0.7,20.2-12.8,20.2-12.8S234.1,521.3,207.1,514z"/>
<path class="st3" d="M213.7,471.1c0,0,5.2,9.8,18.6,9.9c13.4,0.2,18.4-14.2,18.4-14.2s-3.1-2.4-8.6,2.6c-2,1.8-6.2,0.4-10.7,0.2
	C227.4,469.4,217.2,468,213.7,471.1z"/>
<path class="st0" d="M206.5,257.2c-70.6,10.5-47.5,98.7-47.5,98.7c-32.3-102.3,47.1-99.8,47.1-99.8L206.5,257.2z"/>
<path class="st5" d="M210.2,459.5c-0.8,1.5-1.4,2.9-1.9,4.4s-0.7,3-0.5,4.5c0.2,1.4,1,2.7,2.2,3.6c1.1,1,2.6,1.7,4.1,2.3
	c-1.6-0.1-3.3-0.6-4.7-1.5c-0.7-0.4-1.3-1.1-1.9-1.8c-0.5-0.7-0.8-1.6-0.9-2.5c-0.3-1.7,0.1-3.5,0.8-5
	C208.1,462,209,460.7,210.2,459.5z"/>
<path class="st5" d="M253.8,456.2c1.6,1.2,3,2.8,4,4.6c1,1.8,1.6,4,1.2,6.1c-0.3,2.2-1.8,4-3.3,5.3c-1.6,1.3-3.5,2.2-5.4,2.8
	c1.8-1,3.3-2.2,4.7-3.5s2.5-2.9,2.7-4.7c0.3-1.8-0.1-3.7-0.9-5.5C256.1,459.4,255,457.7,253.8,456.2z"/>
<path class="st5" d="M217,470c2.3-1.1,4.7-1.7,7.1-2c2.5-0.3,5-0.4,7.7,0.3c0.3,0.1,0.7,0.2,1,0.4l0.9,0.4c0.3,0.1,0.5,0.2,0.8,0.3
	c0.3,0,0.5,0.1,0.8,0.2c1,0.2,2.1,0.1,3.2,0c2.1-0.3,4.4-1.2,6.4-2.4l-0.1,0.1c0.4-0.5,0.9-0.7,1.5-1c0.5-0.3,1.1-0.4,1.6-0.4
	c0.6-0.1,1.1,0.1,1.7,0.2c0.5,0.1,1,0.5,1.4,0.8c-1-0.4-2-0.4-2.9-0.2c-0.4,0.2-0.8,0.3-1.1,0.6c-0.3,0.3-0.7,0.7-0.9,0.9l0,0
	l-0.1,0.1c-2,1.7-4.3,2.9-6.8,3.6c-1.3,0.2-2.7,0.3-4,0.1c-0.7-0.1-1.4-0.3-2-0.6l-0.9-0.4c-0.3-0.1-0.5-0.2-0.8-0.3
	c-2.1-0.6-4.5-0.9-6.9-0.9C222,469.7,219.6,469.9,217,470z"/>
<g>
	<path class="st3" d="M128.3,214.2c0.3,0,0.6,0,0.9,0C129.2,214.2,128.9,214.2,128.3,214.2z"/>
	<path class="st3" d="M128.3,214.2c-13.5-0.2-23.5,4-31,10.7c3.4-5.2,7.1-9.3,11-11.2c0,0-16.8,4-25.2,32.6c-9.3,23.5-7,51.2-7,51.2
		c2.2-27.6,8.4-46,15.9-58.4c-3.5,8.8-6,21-5.5,38c0,0,5.1-33.7,15.6-50.8C113.5,215.4,125,214.3,128.3,214.2z"/>
</g>
<path class="st5" d="M196.4,503.4c5.4-0.3,10.9-0.4,16.3-0.5c5.4-0.1,10.8-0.2,16.2-0.6c2.6-0.2,5.5-0.4,8.3-0.1
	c2.8,0.2,5.5,0.7,8.2,1.3c2.7,0.5,5.3,1.2,7.9,1.5c2.6,0.4,5.3,0.3,7.7-1.1c-1,0.9-2.3,1.6-3.7,1.9c-1.4,0.3-2.8,0.5-4.2,0.4
	c-2.8,0-5.5-0.4-8.2-0.8c-2.7-0.3-5.3-0.7-8-0.8c-2.7-0.2-5.2,0-8,0.3c-5.5,0.3-10.9,0.3-16.3,0
	C207.2,504.6,201.8,504.2,196.4,503.4z"/>
<path class="st5" d="M260.1,499.1c0.5,0.5,0.9,1.1,1.2,1.7c0.3,0.6,0.5,1.3,0.7,2c0.1,0.7,0.2,1.4,0.1,2.1s-0.3,1.4-0.7,2
	c-0.2-1.4-0.4-2.6-0.6-3.9C260.5,501.8,260.2,500.5,260.1,499.1z"/>
<path class="st0" d="M297.7,237.6c0,0,44.5,15.9,51.3,40.6c0,0-3.8-34.5-41.2-67.9l10.2,16.4c0,0-7.8-13.9-28.6-16.4
	c-20.7-2.5-1.8,0-1.8,0s15.1,7.7,22,15.3c1,1.1,1.8,2.2,2.4,3.2c4.6,8.4-12.2-14.3-28.6-11.3l26.9,18L297.7,237.6z"/>
<circle class="st9" cx="163.9" cy="400.6" r="37"/>
<path class="st4" d="M154.1,336.8c0,0,42.3,110-33.3,147.3l-21.8-26c0,0,26.2-11.3,31.1-71.6c0,0-1.7,38.7-25.1,50.5
	c0,0,27.9-23.8,17.4-100.3h31.7V336.8z"/>
<g>
	<path class="st1" d="M43.5,513.6l14.7-14.7l-15.7,1.4l12-8.1L43,492.9V484l9.4-13.7L39.3,473l15.9-36.7L36,457.7
		c-0.2,0.3-0.4,0.5-0.5,0.5l-1.9-1.7l0.2-0.2c1.8-2,15.4-18.8,14.6-51.4c-0.1-2.5-0.2-5.7-0.3-9.2c-1.8-48.2-6.7-176.3,73.5-200.4
		c79.5-23.9,109.9-7.7,114.4-4.8c4.1-1.4,26.8-8.3,53,6.2c16.3,9,34.9,21.9,49.5,49c18.1,33.7,25.4,82,21.7,143.7v0.2
		c-0.1,0.5-10.9,49.1,0.8,74.8l3.8,8.3l-15.5-18.3l6.3,20.6l-14-12.1l-4.1,13.5l-11.7-6l-12.2,19.5l-8.2-11.8l0.3-0.6
		c0.4-0.8,35.5-80.4,25.5-153.1c-4.5-32.9-15.3-53.4-32.1-61c-22.7-10.2-48.9,7-49.1,7.2l-0.7,0.5l-0.7-0.5
		c-0.3-0.2-27.6-18.3-53.7-9.8c-16.3,5.3-28.8,19.7-37.2,42.8l-0.1,0.2c0,0.1-4.3,8.9,0.1,38.7c0.7,4.5,1.8,9.8,3,15.4
		c5.6,26.7,14.2,66.9-8.2,100.4c-17.9,26.8-53.3,45.1-105,54.5L43.5,513.6z M64.9,495.7L51,509.6c48.9-9.5,82.3-27.2,99.4-52.7
		c21.8-32.5,13.8-70.6,7.9-98.4c-1.2-5.7-2.3-11-3-15.6c-4.4-29.6-0.4-39.1,0.1-40.2c8.7-23.8,21.8-38.7,38.8-44.3
		c25.3-8.2,50.6,6.7,55.2,9.7c4.5-2.8,28.8-16.9,50.9-7c17.7,8,29,29.1,33.6,62.9c9.5,69.9-22.1,146-25.4,153.8l5.2,7.5l11.4-18.3
		l11,5.7l4.3-14.3l10.4,8.9l-7.3-23.9l12.9,15.2c-7.9-26.8,0.8-66.7,1.5-69.6c7.7-130.2-33.3-170.1-69.9-190.3
		c-27.3-15.1-51.2-5.9-51.4-5.8l-0.6,0.3l-0.6-0.4c-0.3-0.2-29.3-20.3-112.8,4.8c-78.3,23.5-73.5,150.2-71.7,197.9
		c0.1,3.6,0.3,6.7,0.3,9.3c0.4,18.6-3.6,32.1-7.6,40.8L63.7,423l-20.2,46.5l14.6-3.1l-12.5,18.2v5.4l17.9-1L52,496.9L64.9,495.7z"/>
</g>
<path class="st5" d="M189.2,501.6c0.9,1.4,1.4,2.9,2,4.3l0.7,2.2c0.3,0.7,0.4,1.5,1,2c-0.4,0-0.8-0.3-1.1-0.6
	c-0.3-0.3-0.6-0.6-0.8-1c-0.4-0.7-0.8-1.4-1-2.2C189.5,504.8,189.1,503.2,189.2,501.6z"/>
<path class="st5" d="M203.4,512.8c4.1,0.9,8.2,1.7,12.2,2.4c4.1,0.6,8.2,1.1,12.3,1.3s8.2,0.1,12.2-0.5c2-0.3,4-0.7,6-1.3
	s3.9-1.4,5.8-2.3c-1.6,1.4-3.4,2.5-5.3,3.4c-1.9,0.9-4,1.6-6,2.1c-4.2,1-8.5,1.3-12.7,1.1s-8.4-0.9-12.5-1.9
	C211.2,516,207.2,514.7,203.4,512.8z"/>
<path class="st5" d="M192.9,241.8c-12.4,0.3-24.3,6.1-32.6,14.9c-4.2,4.4-7.6,9.5-10.3,15s-4.9,11.2-6.4,17.2
	c-0.2,0.7-0.4,1.5-0.6,2.2l-0.5,2.2c-0.3,1.5-0.7,3-1,4.5l-0.7,4.6l-0.4,2.3l-0.3,2.3c-0.4,3.1-0.7,6.1-0.9,9.2l-0.3,4.6
	c-0.1,1.5-0.1,3.1-0.1,4.6c-0.3,12.3,0.3,24.7,1.2,37.1c-1.9-12.3-3.2-24.7-3.2-37.1s1-25,4.3-37.2c1.5-6.1,3.8-12,6.7-17.6
	s6.5-10.8,11.1-15.3c2.2-2.2,4.7-4.2,7.3-6c2.6-1.7,5.4-3.2,8.3-4.4c2.9-1.1,6-2,9-2.6C186.7,241.8,189.8,241.6,192.9,241.8z"/>
<path class="st5" d="M111,226.7c-6,6.3-10.9,13.5-15.2,21.1c-4.3,7.6-7.7,15.5-10.6,23.7c-5.4,16.5-8.2,33.8-8.1,51.2
	c-0.3,17.4-1.3,34.8-3.4,52.1c-2.1,17.3-4.9,34.5-9.3,51.4c2-8.5,3.6-17,4.9-25.6c1.4-8.6,2.5-17.2,3.4-25.8
	c1.8-17.3,2.9-34.7,3.1-52c0-17.4,2.8-34.9,8.4-51.5c3-8.2,6.6-16.2,11-23.7C99.7,240,104.8,232.8,111,226.7z"/>
<path class="st5" d="M242.9,205.7c3.4-3,7.5-5.2,11.9-6.5c2.2-0.7,4.5-1,6.8-1.1s4.6,0.3,6.7,0.9c-2.3-0.2-4.5-0.2-6.7,0.1
	s-4.4,0.7-6.5,1.3s-4.2,1.4-6.2,2.3C246.9,203.6,244.9,204.6,242.9,205.7z"/>
<path class="st5" d="M249.1,238.5c4.3-2.2,8.8-3.8,13.5-5c2.3-0.6,4.7-1,7.1-1.2s4.9-0.2,7.2,0.6c-2.4-0.3-4.7,0-7,0.3
	c-2.3,0.4-4.6,0.9-6.9,1.5C258.3,235.8,253.7,237.2,249.1,238.5z"/>
<path class="st5" d="M289.4,235.5c7.2,1,14.3,3.2,21.1,6c6.8,2.9,13.2,6.6,19.1,11.1c5.8,4.6,11,10,15,16.2
	c4.1,6.1,6.9,13.1,8.4,20.3c-1.3-3.4-2.6-6.8-4.3-10c-0.8-1.6-1.8-3.2-2.6-4.7c-1-1.5-1.9-3-3-4.5c-2.1-2.9-4.4-5.6-7-8.2
	c-2.5-2.6-5.2-5-8-7.1c-5.6-4.5-11.8-8.2-18.3-11.3c-3.2-1.6-6.6-3-9.9-4.3C296.4,237.6,292.9,236.5,289.4,235.5z"/>
<g>
	<path class="st5" d="M216.6,570.9c-15,0-36.5-12.7-52.2-23.6c-12.9-9-22.6-17.2-22.7-17.3c-13.4-9.6-25-21.9-34.3-36.5l1.7-1.1
		c9.2,14.4,20.6,26.5,33.9,36c0.2,0.1,9.8,8.3,22.6,17.2c16.2,11.3,38.5,24.4,52.9,23.2c26-2.2,67-34,97.2-116.2l1.9,0.7
		c-30.5,83-72.3,115.2-98.9,117.5C218,570.9,217.3,570.9,216.6,570.9z"/>
</g>
<circle class="st5" cx="296.4" cy="403.2" r="60.8"/>
<circle class="st6" cx="296.4" cy="403.2" r="41.8"/>
<circle class="st9" cx="299.1" cy="400.6" r="37"/>
<path class="st0" d="M103.4,330.6c-0.5,25.9-3.9,47.4-8.3,64.9c4.3-24.2,2.9-48.3,2.9-48.3c-1.3,64.5-26,93.5-26,93.5
	c5.1-3.2,9.1-7.8,12.5-13.5c-8,18.6-15.6,27.5-15.6,27.5C109.4,429.5,103.4,330.6,103.4,330.6z"/>
<path class="st5" d="M312.5,373.7v58.5c0,0-11.3-13.5-11.3-29S312.5,373.7,312.5,373.7z"/>
<path class="st5" d="M177.2,373.7v58.5c0,0-11.3-13.5-11.3-29S177.2,373.7,177.2,373.7z"/>
<path class="st3" d="M226.9,487.8c0,0-1,8.8,3.8,9.7c4.8,0.8,1.7-12.8,1.7-12.8S226.6,482.3,226.9,487.8z"/>
<path class="st5" d="M217.2,402c0,0,8.7-13.2,25.6-1.8l-0.4,5.6c0,0-15.3-4.1-26.7,1.8L217.2,402z"/>
<ellipse class="st3" cx="218.6" cy="442.2" rx="2.3" ry="0.9"/>
<ellipse class="st3" cx="193.6" cy="458.2" rx="2.3" ry="0.9"/>
<ellipse class="st3" cx="242.8" cy="451.4" rx="2.3" ry="0.9"/>
<ellipse class="st3" cx="226.8" cy="431.3" rx="2.3" ry="0.9"/>
<ellipse class="st3" cx="217.2" cy="433.5" rx="2.3" ry="0.9"/>
<ellipse class="st3" cx="228.4" cy="421.5" rx="2.3" ry="0.9"/>
<ellipse class="st3" cx="235.7" cy="428.7" rx="2.3" ry="0.9"/>
<ellipse class="st3" cx="229.5" cy="407.9" rx="2.3" ry="0.9"/>
<path class="st0" d="M175.4,224.2c0,0-61.6,9.7-58,95C117.4,319.1,103.7,232.3,175.4,224.2z"/>
<path class="st0" d="M179,207.4c0.5,0,0.7,0,0.7,0c-60.9-6.7-74.4,39.6-74.4,39.6c9.8-18.7,25.5-28.7,39.9-33.9
	c-25.7,11.2-32.4,34.5-32.4,34.5c22.3-42.5,74.4-39.6,74.4-39.6C184.4,207.7,181.6,207.5,179,207.4z"/>
<path class="st0" d="M89.1,230.1c0,0-28.9,28.3-26.9,100.6s-2.5,73.8-2.5,73.8s10.8-45.2,9.2-79.6C67.3,290.3,70.9,259.1,89.1,230.1
	z"/>
<path class="st0" d="M148.3,350.7c0,0,19.6,121.4-65,139.6c0,0,51.5-4.8,63.9-50.4S148.3,350.7,148.3,350.7z"/>
<g>
	<path class="st0" d="M247.2,260.8c1,0.9,1.9,1.5,1.9,1.5S248.5,261.7,247.2,260.8z"/>
	<path class="st0" d="M307.8,240.4c0,0-12.9-17.1-71.2-10.4c-0.2-3.5,0.6-6.5,1.8-8.3c2.5-3.8-2.1-10.1-4.1-16s1.3-7.2,1.3-7.2V196
		l-23.2-7.6c0,0,4.7,2.4,8.9,4.3c-3.2-0.1-7.1,0.1-10.2,0.4c-13-2.7-34.9-4.3-66.8,2.7c0,0,55.6-2,81.7,8.6c1.8,1.6,2.3,2.4,0.7,1.2
		c-4.9-3.8-35.4,4.6-20.7,3.5c6.9-0.5,13.6,1.6,18.3,3.7c-12.5-1.8-38.7-4.3-61.7,2.9c0,0,34.6-2,55.7,1.8c-4.1,1.6-7.6,3.6-7.6,3.6
		c20.3,0.8,22.2,8.8,19.3,7.6c-2.9-1.3-13.6,5.2-13.6,5.2c15,1,10.3,7.8,10.3,7.8c-23-4.2-38.5,11-38.5,11
		c30.3-10.5,52.5,3.3,58.9,8.1c-1.2-1-2.6-2.4-3.3-3.6c-1.2-2.3,3.7-7.8-2.6-15.4c-0.3-0.3-0.5-0.7-0.8-1
		C251.4,235,278.4,224.2,307.8,240.4z"/>
</g>
<path class="st10" d="M139.4,225.1c-17.3-9.6-52.9-38.1-21.8-99.4c0.9-1.8,3.7-1.3,3.7,0.8c0.8,17.6,6.7,60.6,44.6,74
	c4.6,1.6,6.9,6.9,4.6,11.2c-2.1,4-5.3,8.6-10,12.2C154.5,228.4,146.1,228.8,139.4,225.1z"/>
<path class="st3" d="M164.4,201.7c-12-4.1-37.3-18.2-42.9-63.5c2.4,46.3,28.2,59.7,40,63.4c1.4,0.4,2.9,0.6,4.2,0.4
	C165.2,201.9,164.8,201.8,164.4,201.7z"/>
<path class="st6" d="M114.4,142.9c0,0-3.7,59.8,44.8,75.1c1.5,0.5,1.9,2.5,0.6,3.4c-3.3,2.3-9.8,4.9-19.5,0.5
	C125.3,215,95.2,183.6,114.4,142.9z"/>
<path class="st3" d="M154.8,239.6c0,0-25.2,6-29.4,56C125.4,295.6,138.5,247.3,154.8,239.6z"/>
<path class="st3" d="M169.5,253.3c0,0-25.2,6-29.4,56C140.1,309.3,153.2,260.9,169.5,253.3z"/>
<path class="st3" d="M118.8,225.9c0,0-20.5,4.9-23.9,45.6C94.8,271.4,105.4,232.1,118.8,225.9z"/>
<g>
	<path class="st3" d="M160.8,226.7c0.3,0,0.6,0,0.9,0C161.7,226.7,161.4,226.7,160.8,226.7z"/>
	<path class="st3" d="M160.8,226.7c-17.3-0.2-29,6.6-36.9,16.4c2.9-5.9,6.2-10.7,10-13.1c0,0-10.7,3.9-17.5,21
		c-6.3,8.1-12.6,21.7-14.5,44.5c0,0,4-14.9,10.4-29.5c-0.1,0.7-0.2,1.3-0.3,2c-5.2,19.8-3.6,39.3-3.6,39.3
		c0.6-7.1,1.5-13.5,2.6-19.4c0,0.4,0,0.7,0,1c0,0,0.5-3,1.4-7.7C124.4,229.9,155.1,226.8,160.8,226.7z"/>
</g>
<g>
	<path class="st3" d="M142.7,262.7c2.3-6.5,5.3-12.4,9-14.7c0,0-12.2,4.4-14.4,27.5c-6.7,21.2-4.9,43.6-4.9,43.6
		c6.3-76.5,45.8-80.5,52.3-80.7C163.1,238.2,150.3,248.9,142.7,262.7z"/>
	<path class="st3" d="M184.7,238.5c0.3,0,0.6,0,0.9,0C185.7,238.5,185.3,238.4,184.7,238.5z"/>
</g>
<path class="st5" d="M69,446.3c5.5-0.2,10.7-3.6,14.3-8.9c1.8-2.6,3.4-5.6,4.5-8.9c1.2-3.2,2.2-6.7,2.8-10.2
	c0.1-0.4,0.2-0.9,0.3-1.3l0.2-1.3c0.1-0.9,0.3-1.8,0.4-2.7l0.3-2.7L92,409l0.1-1.4c0.2-1.8,0.3-3.6,0.4-5.5l0.1-2.7
	c0-0.9,0-1.8,0.1-2.7c0.1-7.3-0.1-14.7-0.5-22c0.8,7.3,1.4,14.6,1.4,22s-0.4,14.8-1.9,22c-0.7,3.6-1.7,7.1-2.9,10.4
	c-1.3,3.3-2.9,6.4-4.9,9.1c-1,1.3-2.1,2.5-3.2,3.6c-1.2,1-2.4,1.9-3.7,2.6c-1.3,0.7-2.6,1.2-4,1.5C71.7,446.3,70.4,446.4,69,446.3z"
	/>
<path class="st5" d="M104.6,213.7c-6,4.5-10.9,9.6-15.2,15c-4.3,5.4-7.7,11.1-10.6,16.9c-5.4,11.7-8.2,24.1-8.1,36.4
	c-0.3,12.4-1.3,24.8-3.4,37.1c-2.1,12.3-4.9,24.6-9.3,36.6c2-6,3.6-12.1,4.9-18.3c1.4-6.1,2.5-12.3,3.4-18.4
	c1.8-12.3,2.9-24.7,3.1-37.1c0-12.4,2.8-24.9,8.4-36.7c3-5.8,6.6-11.5,11-16.9C93.3,223.1,98.4,218,104.6,213.7z"/>
<path class="st5" d="M306.9,262.7c6,3.8,10.9,8.1,15.2,12.7c4.3,4.5,7.7,9.3,10.6,14.3c5.4,9.9,8.2,20.3,8.1,30.8
	c0.3,10.5,1.3,20.9,3.4,31.3s4.9,20.7,9.3,30.9c-2-5.1-3.6-10.2-4.9-15.4c-1.4-5.2-2.5-10.3-3.4-15.5c-1.8-10.4-2.9-20.8-3.1-31.3
	c0-10.5-2.8-21-8.4-30.9c-3-4.9-6.6-9.7-11-14.3C318.2,270.7,313.1,266.4,306.9,262.7z"/>
<path class="st11" d="M355.8,402.5c-0.2-7.7-1.9-15.3-4.9-22.5c-3-7-7.5-13.6-13-18.9c-5.6-5.5-12.1-9.8-19.2-12.8
	s-14.9-4.7-22.9-4.8c7.8-0.2,15.7,1.2,23,4.2s14,7.3,19.7,12.8c5.6,5.5,10,12.2,13,19.4C354.5,387,356,394.8,355.8,402.5z"/>
<path class="st11" d="M220.3,402.5c-0.2-7.7-1.9-15.3-4.9-22.5c-3-7-7.5-13.6-13-18.9c-5.6-5.5-12.1-9.8-19.2-12.8
	c-7.1-3-14.9-4.7-22.9-4.8c7.8-0.2,15.7,1.2,23,4.2s14,7.3,19.7,12.8c5.6,5.5,10,12.2,13,19.4C219,387,220.5,394.8,220.3,402.5z"/>
<path class="st10" d="M311.8,226.1c17.3-9.6,52.9-38.1,21.8-99.4c-0.9-1.8-3.7-1.3-3.7,0.8c-0.8,17.6-6.7,60.6-44.6,74
	c-4.6,1.6-6.9,6.9-4.6,11.2c2.1,4,5.3,8.6,10,12.2C296.8,229.4,305.1,229.8,311.8,226.1z"/>
<path class="st3" d="M302.5,195.5c7.3-4.8,22.9-19.3,28.4-57.1c-3.6,38.2-19.5,52.2-26.7,56.7c-0.9,0.5-4.3,2.4-5.1,2.4
	C299.4,197.4,302.2,195.7,302.5,195.5z"/>
<path class="st6" d="M334.6,139.5c0,0,3.7,60.3-45.3,75.2c-1.3,0.4-1.8,2-0.9,3.1c3,3.4,9.3,9.1,16.3,6.6
	C320.2,219,350.2,177.1,334.6,139.5z"/>
<g>
	<path class="st4" d="M206.1,224.1c0.2,0.2,0.4,0.4,0.6,0.6C206.7,224.7,206.5,224.5,206.1,224.1z"/>
	<path class="st4" d="M206.1,224.1c-9.4-9.7-19.4-13.9-29.4-14.5c6.1-1.3,11.6-1.5,15.7-0.1c0,0-14.7-9.1-40.9,5.1
		c-23.2,10-41.3,31.1-41.3,31.1c21.1-17.9,38.6-26.5,52.6-29.9c-8.7,3.7-19.1,10.5-30.8,22.9c0,0,27.6-13,47.1-17.6
		C194.9,221.6,203.7,221.8,206.1,224.1z"/>
</g>
<g>
	<path class="st4" d="M251,213.6c0.3-0.2,0.5-0.3,0.8-0.5C251.2,213.4,251,213.6,251,213.6z"/>
	<path class="st4" d="M282.7,222.6c17.8,9.3,37.1,23.3,37.1,23.3c-8.3-14.9-16.6-24.1-24.2-29.8c12.8,6.8,27.5,19.5,43.5,42.1
		c0,0-12.2-25-32.2-40.4c-21.8-20.3-38.3-15.1-38.3-15.1c4.3-0.4,9.6,1.3,15.2,4c-9.9-1.9-20.6-0.4-32.1,6.7
		C254.6,211.5,267.3,219,282.7,222.6z"/>
</g>
<ellipse transform="matrix(0.7071 -0.7071 0.7071 0.7071 -175.043 332.9808)" class="st12" cx="314.4" cy="377.8" rx="4.5" ry="9.7"/>
<ellipse transform="matrix(0.866 -0.5 0.5 0.866 -150.9472 215.0403)" class="st12" cx="325.8" cy="389.2" rx="2.2" ry="3.1"/>
<ellipse transform="matrix(0.866 -0.5 0.5 0.866 -169.0613 147.4401)" class="st12" cx="190.6" cy="389.2" rx="2.2" ry="3.1"/>
<ellipse transform="matrix(0.7071 -0.7071 0.7071 0.7071 -214.6422 237.3808)" class="st12" cx="179.2" cy="377.8" rx="4.5" ry="9.7"/>
<path class="st5" d="M249.1,217.5c3.3-1.5,6.9-2.5,10.5-3c1.8-0.2,3.7-0.3,5.5-0.2s3.8,0.6,5.2,1.8c-1.7-0.8-3.5-0.8-5.2-0.8
	c-1.8,0.1-3.6,0.2-5.3,0.5C256.3,216.2,252.7,216.9,249.1,217.5z"/>
<path class="st3" d="M212.2,454.7c-1,0.1-1.9,0.3-2.8,0.7c-0.9,0.3-1.7,0.8-2.6,1.3c-1.6,1-3,2.3-4.3,3.8c-1.3,1.4-2.3,3-3.4,4.7
	l-1.4,2.5c-0.5,0.9-0.9,1.7-1.4,2.6c0.3-0.9,0.6-1.9,0.9-2.8c0.4-0.9,0.8-1.8,1.2-2.7c0.5-0.9,1-1.7,1.5-2.6
	c0.6-0.8,1.1-1.6,1.8-2.4c1.3-1.5,2.8-2.9,4.6-3.8C208.2,455.1,210.2,454.5,212.2,454.7z"/>
</svg>
