<?xml version="1.0" encoding="utf-8"?>
<!-- Generator: Adobe Illustrator 24.3.0, SVG Export Plug-In . SVG Version: 6.00 Build 0)  -->
<svg version="1.1" id="Layer_1" xmlns="http://www.w3.org/2000/svg" xmlns:xlink="http://www.w3.org/1999/xlink" x="0px" y="0px"
	 viewBox="0 0 396.7 955" style="enable-background:new 0 0 396.7 955;" xml:space="preserve">
<style type="text/css">
	.st0{fill:#4A7056;}
	.st1{fill:#0D0F21;}
	.st2{fill:#F7DEC7;}
	.st3{fill:#EDD1BC;}
	.st4{fill:#8E8D8D;}
	.st5{fill:#68997A;}
	.st6{fill:#AD3A3A;}
	.st7{fill:#222222;}
	.st8{fill:#FFFFFF;}
	.st9{fill:#221F1F;}
	.st10{fill:#EAE9E5;}
	.st11{fill:#E0D786;}
	.st12{fill:#679973;}
	.st13{fill:#EAEAEA;}
</style>
<path class="st0" d="M87.3,495.3c0,0-5.3,19.5-13.9,21.6l4.3,15.9l16.7-2.1l-11.7,11.8l33.7-0.6c0,0-21.3,20-25.3,19.8l26.7-2.6
	l46.1-22l-33-92.3L87.3,495.3z"/>
<path class="st1" d="M91.2,562.9l-0.1-2.5l0.5-0.1c2.6-0.7,12.6-8.8,21.6-17.2l-33.5,0.6L91,532.4l-14.2,1.7L71.9,516l1.2-0.3
	c6.4-1.6,11.4-15.1,13-20.5l45.7-52.2l33.9,94.6l-47.4,22.5l-26.7,2.6C91.4,562.9,91.3,562.9,91.2,562.9z M119.7,540.5l-2.4,2.3
	c-3.7,3.4-13.2,12.2-19.9,17l20.1-2.1l44.9-21.4l-32.2-90l-41.7,49.3v0.2c-0.2,0.8-5.2,18.5-13.6,22.1l3.7,13.7l19.3-2.4l-12,12.1
	L119.7,540.5z"/>
<path class="st0" d="M320.8,484.7l10.9-5.3l-7.1-18.4l-33.8,20.4l-38.9,55.7l21.6,17.9l-3.3-18.9l5.5,5.8h11.8l3.9-16.5l20.7-7.6
	l-2.8-6.2l5.3-12.5l9.9,3.9C324.6,503,318,492.8,320.8,484.7z"/>
<path class="st1" d="M275.3,558.2l-25.1-20.8l39.8-56.9l35.3-21.3l8.1,20.9l-11.5,5.6c-2.1,7.4,3.7,16.7,3.8,16.8l2.1,3.3l-12.4-4.9
	l-4.6,10.8l3.1,6.9l-21.4,7.8l-4,16.8h-13.3l-3-3.1L275.3,558.2z M253.6,536.8l18.1,15l-3.4-19.7l8,8.4h10.2l3.8-16.1l20.1-7.4
	l-2.5-5.5l6-14.1l7.9,3.1c-1.8-3.8-4.2-10.5-2.2-16.3l0.2-0.5l10.4-5l-6.2-15.9l-32.2,19.5L253.6,536.8z"/>
<path class="st2" d="M81.5,400.1c0,0-1.1,84.6,61.1,129.1c0,0,9.6,8.2,22.6,17.3c16.7,11.6,39,24.6,53.6,23.4
	c26.1-2.2,67.5-33.5,98-116.8l26.1-109.2l-12-75.9l-86.4-34L126,246.3L81.5,400.1z"/>
<circle class="st3" cx="145.5" cy="419.6" r="77.9"/>
<path class="st3" d="M320.7,341.7L291.9,492c-28.8-11.5-49.1-39.6-49.1-72.4C242.8,376.6,277.7,341.7,320.7,341.7z"/>
<path class="st3" d="M118.1,487.7c0,0,25.4,47.9,90.1,81.1c0,0-82.1-33.3-101.1-81.1L118.1,487.7L118.1,487.7z"/>
<path class="st3" d="M298.4,448.4c0,0-5.1,80.9-70.8,119.7c0,0,52.3-10.1,91.7-124.7l24.3-95.7l-23-85.4l-47.2-14.6l-24.1,21.8
	c0,0,40.1-2.8,58.4,51.7C316.7,347.7,312.9,388.2,298.4,448.4z"/>
<path class="st3" d="M241.4,266.6c-16.4-8.2-13.9-30.3-13.9-30.3L159,247.2l-21.6,66.1l-26.8,175.5c18.7-9.4,62.7-61,55.3-122.2
	l-0.8-14C155.9,249.5,241.4,266.6,241.4,266.6z"/>
<polygon class="st4" points="226.1,392 170.5,373.4 154.5,377.1 "/>
<polygon class="st4" points="253.6,376.5 309.2,357.9 325.2,361.6 "/>
<path class="st5" d="M249.4,269.6c0,0-64.7-43.7-92.9,33.6c0,0-4.6,8.6,0,39.5C162.6,383.3,204,483,47.3,511.6l14.3-14.3l-14.3,1.3
	l11.8-8l-14.7,0.8v-7.1l10.9-16l-13.9,2.9l18.1-41.6l-24.8,27.7c0,0,16-16.8,15.1-52.5s-13-182.8,72.3-208.4s113.9-4.6,113.9-4.6
	s24.4-9.7,52.5,5.9s79,50,70.6,191.6c0,0-11.2,49.2,0.9,75.6l-13.6-16l6.8,22.3L341,460.7l-4.2,13.9l-11.3-5.9l-11.8,18.9l-6.7-9.7
	c0,0,35.7-79.8,25.6-153.8C318.8,223.1,249.4,269.6,249.4,269.6z"/>
<path class="st0" d="M285.7,257.4c0,0,58.7,0.4,57,73.5S307.8,476,307.8,476s28.7-74.7,26.2-140.2S294.3,255.4,285.7,257.4z"/>
<g>
	<g>
		<path d="M301.3,217.4c0.4,0,0.9-0.1,1.3-0.3s9.6-4.9,16.9-14.9c6.8-9.3,13-25,4.3-47c-0.6-1.4-2.2-2.2-3.6-1.6
			c-1.4,0.6-2.2,2.2-1.6,3.6c6.2,15.7,5,29.7-3.5,41.5c-6.5,9-14.9,13.3-15,13.3c-1.4,0.7-1.9,2.4-1.2,3.8
			C299.2,216.9,300.2,217.4,301.3,217.4z"/>
	</g>
	<g>
		<circle class="st6" cx="320.2" cy="153.1" r="12.6"/>
		<path class="st7" d="M307.1,153.1c0-7.2,5.9-13.1,13.1-13.1s13.1,5.9,13.1,13.1s-5.9,13.1-13.1,13.1
			C313,166.3,307.1,160.4,307.1,153.1z M308.2,153.1c0,6.6,5.4,12,12,12s12-5.4,12-12s-5.4-12-12-12S308.2,146.5,308.2,153.1z"/>
	</g>
	
		<ellipse transform="matrix(0.7732 -0.6342 0.6342 0.7732 -18.9945 240.3399)" class="st8" cx="326.5" cy="146.7" rx="1.6" ry="3.9"/>
	<ellipse transform="matrix(0.9866 -0.163 0.163 0.9866 -20.4294 55.8118)" class="st8" cx="329.9" cy="152.4" rx="0.3" ry="0.8"/>
</g>
<path class="st3" d="M207.1,514c0,0,5.8,13.1,19.3,13.8c13.4,0.7,20.2-12.8,20.2-12.8S234.1,521.3,207.1,514z"/>
<path class="st3" d="M213.7,471.1c0,0,5.2,9.8,18.6,9.9c13.4,0.2,18.4-14.2,18.4-14.2s-3.1-2.4-8.6,2.6c-2,1.8-6.2,0.4-10.7,0.2
	C227.4,469.4,217.2,468,213.7,471.1z"/>
<path class="st0" d="M103.4,330.6c-0.5,25.9-3.9,47.4-8.3,64.9c4.3-24.2,2.9-48.3,2.9-48.3c-1.3,64.5-26,93.5-26,93.5
	c5.1-3.2,9.1-7.8,12.5-13.5c-8,18.6-15.6,27.5-15.6,27.5C109.4,429.5,103.4,330.6,103.4,330.6z"/>
<path class="st0" d="M206.5,257.2c-70.6,10.5-47.5,98.7-47.5,98.7c-32.3-102.3,47.1-99.8,47.1-99.8L206.5,257.2z"/>
<path class="st9" d="M210.2,459.5c-0.8,1.5-1.4,2.9-1.9,4.4s-0.7,3-0.5,4.5c0.2,1.4,1,2.7,2.2,3.6c1.1,1,2.6,1.7,4.1,2.3
	c-1.6-0.1-3.3-0.6-4.7-1.5c-0.7-0.4-1.3-1.1-1.9-1.8c-0.5-0.7-0.8-1.6-0.9-2.5c-0.3-1.7,0.1-3.5,0.8-5
	C208.1,462,209,460.7,210.2,459.5z"/>
<path class="st9" d="M253.8,456.2c1.6,1.2,3,2.8,4,4.6c1,1.8,1.6,4,1.2,6.1c-0.3,2.2-1.8,4-3.3,5.3c-1.6,1.3-3.5,2.2-5.4,2.8
	c1.8-1,3.3-2.2,4.7-3.5s2.5-2.9,2.7-4.7c0.3-1.8-0.1-3.7-0.9-5.5C256.1,459.4,255,457.7,253.8,456.2z"/>
<path class="st9" d="M217,470c2.3-1.1,4.7-1.7,7.1-2c2.5-0.3,5-0.4,7.7,0.3c0.3,0.1,0.7,0.2,1,0.4l0.9,0.4c0.3,0.1,0.5,0.2,0.8,0.3
	c0.3,0,0.5,0.1,0.8,0.2c1,0.2,2.1,0.1,3.2,0c2.1-0.3,4.4-1.2,6.4-2.4l-0.1,0.1c0.4-0.5,0.9-0.7,1.5-1c0.5-0.3,1.1-0.4,1.6-0.4
	c0.6-0.1,1.1,0.1,1.7,0.2c0.5,0.1,1,0.5,1.4,0.8c-1-0.4-2-0.4-2.9-0.2c-0.4,0.2-0.8,0.3-1.1,0.6c-0.3,0.3-0.7,0.7-0.9,0.9l0,0
	l-0.1,0.1c-2,1.7-4.3,2.9-6.8,3.6c-1.3,0.2-2.7,0.3-4,0.1c-0.7-0.1-1.4-0.3-2-0.6l-0.9-0.4c-0.3-0.1-0.5-0.2-0.8-0.3
	c-2.1-0.6-4.5-0.9-6.9-0.9C222,469.7,219.6,469.9,217,470z"/>
<g>
	<path class="st10" d="M128.3,214.2c0.3,0,0.6,0,0.9,0C129.2,214.2,128.9,214.2,128.3,214.2z"/>
	<path class="st10" d="M128.3,214.2c-13.5-0.2-23.5,4-31,10.7c3.4-5.2,7.1-9.3,11-11.2c0,0-16.8,4-25.2,32.6
		c-9.3,23.5-7,51.2-7,51.2c2.2-27.6,8.4-46,15.9-58.4c-3.5,8.8-6,21-5.5,38c0,0,5.1-33.7,15.6-50.8
		C113.5,215.4,125,214.3,128.3,214.2z"/>
</g>
<path class="st9" d="M196.4,503.4c5.4-0.3,10.9-0.4,16.3-0.5c5.4-0.1,10.8-0.2,16.2-0.6c2.6-0.2,5.5-0.4,8.3-0.1
	c2.8,0.2,5.5,0.7,8.2,1.3c2.7,0.5,5.3,1.2,7.9,1.5c2.6,0.4,5.3,0.3,7.7-1.1c-1,0.9-2.3,1.6-3.7,1.9c-1.4,0.3-2.8,0.5-4.2,0.4
	c-2.8,0-5.5-0.4-8.2-0.8c-2.7-0.3-5.3-0.7-8-0.8c-2.7-0.2-5.2,0-8,0.3c-5.5,0.3-10.9,0.3-16.3,0
	C207.2,504.6,201.8,504.2,196.4,503.4z"/>
<path class="st9" d="M260.1,499.1c0.5,0.5,0.9,1.1,1.2,1.7c0.3,0.6,0.5,1.3,0.7,2c0.1,0.7,0.2,1.4,0.1,2.1s-0.3,1.4-0.7,2
	c-0.2-1.4-0.4-2.6-0.6-3.9C260.5,501.8,260.2,500.5,260.1,499.1z"/>
<path class="st0" d="M297.7,237.6c0,0,44.5,15.9,51.3,40.6c0,0-3.8-34.5-41.2-67.9l10.2,16.4c0,0-7.8-13.9-28.6-16.4
	c-20.7-2.5-1.8,0-1.8,0s15.1,7.7,22,15.3c1,1.1,1.8,2.2,2.4,3.2c4.6,8.4-12.2-14.3-28.6-11.3l26.9,18L297.7,237.6z"/>
<g>
	<circle class="st7" cx="151.5" cy="408.6" r="77.9"/>
	<circle class="st11" cx="152.4" cy="407.7" r="64.2"/>
	<path class="st6" d="M148.9,406.8c1.1,0,2.2,0.4,3.1,1.1c0.9,0.7,1.4,1.8,1.6,2.9c0.2,1.1-0.1,2.3-0.7,3.2c-0.6,1-1.5,1.7-2.6,2
		c-0.5,0.2-1.1,0.2-1.6,0.2s-0.9-0.1-1.4-0.1c-0.9-0.2-1.8-0.5-2.6-1c-1.6-1-2.8-2.5-3.3-4.3s-0.5-3.7,0.3-5.4
		c0.7-1.7,2.1-3.1,3.7-3.9c0.8-0.4,1.7-0.7,2.6-0.8c0.5,0,0.9-0.1,1.3,0c0.4,0,0.8,0.1,1.3,0.1c1.7,0.3,3.3,1,4.7,2
		c2.8,2,4.4,5.4,4.4,8.8c0,1.7-0.5,3.4-1.2,4.9c-0.8,1.5-2,2.8-3.3,3.8c-1.4,1-3,1.6-4.7,1.9c-1.7,0.2-3.3,0.1-4.9-0.3
		c-3.2-0.8-6-2.8-7.9-5.4c-1.9-2.7-2.8-6-2.5-9.3s1.8-6.4,4.2-8.6c2.3-2.3,5.5-3.7,8.8-3.8c0.8-0.1,1.6,0,2.4,0
		c0.4,0,0.8,0.1,1.2,0.2c0.4,0,0.8,0.1,1.2,0.2c1.6,0.3,3,1,4.4,1.8c2.8,1.6,5,4,6.5,6.8c0.7,1.4,1.2,2.9,1.6,4.5
		c0.3,1.6,0.4,3.2,0.3,4.7c-0.3,3.2-1.4,6.3-3.4,8.8c-1,1.3-2.1,2.4-3.4,3.3c-0.6,0.5-1.3,0.9-2,1.3c-0.7,0.3-1.4,0.7-2.2,1
		c-3,1.2-6.3,1.2-9.3,0.7c-3.1-0.5-6-1.9-8.5-3.8c-5-3.7-8-10-7.8-16.3c0.1-3.1,0.9-6.2,2.4-9c1.5-2.7,3.7-5.1,6.2-6.9
		c2.6-1.8,5.6-2.9,8.7-3.3c3.1-0.4,6.2-0.1,9.2,0.8c5.9,1.8,11,6.1,13.7,11.6c2.8,5.5,3.2,12.2,1.1,18c-2.1,5.8-6.6,10.7-12.3,13.2
		c-2.8,1.2-5.9,1.9-9,1.9s-6.1-0.5-9-1.5c-5.8-2-10.7-6.2-13.7-11.5s-4.1-11.7-2.9-17.7s4.5-11.5,9.3-15.3c4.7-3.8,11-5.8,17-5.5
		c3,0.1,6,0.7,8.9,1.7c2.8,1,5.5,2.5,7.9,4.4s4.5,4.1,6.2,6.6s2.9,5.3,3.8,8.2c0.9,2.9,1.1,6,1,9c-0.1,0.8,0,1.5-0.2,2.3l-0.3,2.2
		c-0.4,1.5-0.7,3-1.3,4.4c-2,5.7-6,10.6-11,14c-5,3.3-11.1,5.1-17.2,4.7c-3,0-6-0.7-8.8-1.6l-2.1-0.8c-0.7-0.3-1.4-0.6-2-1
		c-0.3-0.2-0.7-0.3-1-0.5l-1-0.6c-0.6-0.4-1.3-0.8-1.9-1.2c-2.5-1.7-4.7-3.8-6.6-6.1c-1.9-2.3-3.4-5-4.6-7.7
		c-1.1-2.8-1.9-5.7-2.3-8.7c-0.1-0.7-0.1-1.5-0.2-2.2c0-0.7-0.1-1.5,0-2.2l0.1-2.2c0.1-0.7,0.2-1.5,0.3-2.2l0.2-1.1l0.3-1.1
		c0.2-0.7,0.4-1.5,0.6-2.2c0.5-1.4,1-2.8,1.7-4.2c0.6-1.4,1.5-2.6,2.2-3.9c0.9-1.2,1.7-2.4,2.8-3.5c1-1.2,2.1-2.1,3.2-3.1
		c0.6-0.5,1.2-0.9,1.8-1.4s1.2-0.9,1.9-1.2c0.7-0.4,1.3-0.8,1.9-1.1l2-1c0.7-0.3,1.4-0.5,2.1-0.8l1.1-0.4l1.1-0.3
		c2.9-0.9,5.9-1.1,8.9-1.1c1.5,0.1,3,0.1,4.5,0.4c0.7,0.1,1.5,0.2,2.2,0.4l2.2,0.6c0.4,0.1,0.7,0.2,1.1,0.3l1.1,0.4l2.1,0.8l2,1
		l1,0.5l1,0.6l1.9,1.2l1.8,1.3l0.9,0.7l0.8,0.8l1.7,1.5l1.5,1.7c0.2,0.3,0.5,0.5,0.7,0.8l0.7,0.9c0.4,0.6,0.9,1.2,1.3,1.8l1.2,1.9
		c0.2,0.3,0.4,0.6,0.6,1l0.5,1c0.3,0.7,0.7,1.3,1,2l0.8,2.1c0.1,0.4,0.3,0.7,0.4,1.1l0.3,1.1l0.6,2.2l0.3,2.2l0.2,1.1
		c0,0.4,0,0.7,0.1,1.1l0.1,2.2c0,0.7-0.1,1.5-0.1,2.2l-0.1,1.1v0.6l-0.1,0.6c-0.2,1.5-0.4,3-0.8,4.4c-0.7,2.9-1.9,5.7-3.3,8.3
		c-0.8,1.3-1.5,2.6-2.4,3.7c-0.5,0.6-0.9,1.2-1.4,1.8l-1.5,1.7c-0.5,0.6-1.1,1.1-1.6,1.6c-0.6,0.5-1.1,1-1.7,1.5
		c-1.2,0.9-2.4,1.8-3.7,2.6c-2.5,1.6-5.3,2.7-8.1,3.7c-5.7,1.7-11.8,1.9-17.7,0.7c-5.8-1.2-11.3-3.9-16-7.6
		c-4.6-3.7-8.3-8.6-10.8-14s-3.5-11.4-3.2-17.3s1.9-11.8,5-16.9l1.2-1.9c0.4-0.6,0.9-1.2,1.3-1.8c0.5-0.6,0.9-1.2,1.4-1.8l1.5-1.6
		c0.3-0.3,0.5-0.6,0.8-0.8l0.8-0.7l1.6-1.5c0.6-0.5,1.2-0.9,1.8-1.3c0.6-0.4,1.2-0.9,1.8-1.3c5-3.2,10.7-5.2,16.6-5.9
		c5.9-0.5,11.9,0.2,17.5,2.2s10.7,5.2,14.9,9.3c4.2,4.1,7.5,9.3,9.5,14.8c4.1,11.1,3.2,24-2.8,34.2c-5.8,10.2-16.3,17.9-28,19.9
		c-5.8,1-11.8,0.8-17.5-0.6s-11.2-3.9-15.9-7.5c-4.7-3.5-8.7-8-11.7-13.1s-4.9-10.8-5.5-16.6c-0.7-5.8-0.2-11.8,1.4-17.5
		c1.6-5.6,4.5-11,8.2-15.5c3.8-4.5,8.4-8.3,13.7-11c5.2-2.7,11-4.3,16.9-4.7c5.9-0.4,11.8,0.3,17.4,2.1c5.6,1.8,10.8,4.7,15.4,8.4
		c4.5,3.7,8.3,8.3,11.1,13.5c2.8,5.1,4.6,10.8,5.3,16.6c0.7,5.8,0.3,11.8-1.1,17.4c-1.5,5.7-4,11.1-7.5,15.8
		c-3.5,4.7-7.8,8.8-12.8,11.9s-10.5,5.3-16.3,6.3c-11.5,2.2-23.7-0.2-33.8-6.2c-10-6-17.9-15.6-21.6-26.7
		c-1.8-5.5-2.7-11.4-2.5-17.2l0.1-2.2c0-0.7,0-1.5,0.2-2.2c0.2-1.4,0.4-2.9,0.7-4.3l1.1-4.2c0.4-1.4,1-2.7,1.5-4.1
		c4.4-10.8,12.7-20,23.1-25.4c1.3-0.6,2.6-1.3,4-1.9l4.1-1.5l4.2-1.1c1.4-0.3,2.9-0.5,4.3-0.7l1.1-0.2l1.1-0.1l2.2-0.1
		c0.7,0,1.5-0.1,2.2-0.1l2.2,0.1c2.9,0.2,5.8,0.5,8.7,1.2c5.7,1.2,11.2,3.5,16.1,6.5c5,3.1,9.4,7,13.1,11.4
		c3.7,4.5,6.6,9.6,8.6,15.1s3.1,11.3,3.2,17.1c0.1,5.8-0.7,11.7-2.5,17.2s-4.5,10.8-8,15.4s-7.8,8.7-12.6,11.9
		c-4.8,3.2-10.2,5.7-15.8,7.1c-11.3,2.9-23.4,2-34.2-2.4c-10.8-4.3-20.1-12.3-26.2-22.2c-6.2-9.9-9-21.7-8.1-33.3
		c0.8-11.6,5.5-22.9,13-31.7c1.9-2.2,3.9-4.3,6.1-6.1c2.2-1.9,4.5-3.6,7-5.1c5-3,10.4-5.3,16-6.6c11.3-2.7,23.4-1.7,34.2,2.5
		s20.2,11.8,26.8,21.3s10.2,21.1,10.1,32.7c0.1,11.6-3.4,23.2-9.9,32.7c-6.5,9.6-15.9,17.2-26.6,21.5c-2.7,1.1-5.5,1.9-8.3,2.6
		s-5.7,1.1-8.6,1.3c-5.8,0.5-11.6,0.1-17.2-1.1c-11.3-2.3-21.9-8-30.2-16.1s-14.2-18.5-16.8-29.8c-1.3-5.6-1.8-11.4-1.6-17.2
		c0.3-5.8,1.4-11.5,3.3-16.9c3.8-10.9,10.8-20.7,19.8-27.8c9-7.2,20.2-11.7,31.6-12.8c11.5-1.1,23.3,0.9,33.7,5.9
		c10.4,4.9,19.4,12.8,25.8,22.3c6.4,9.6,10.1,20.9,10.7,32.4c0.5,11.5-2,23.2-7.5,33.3c-5.4,10.1-13.7,18.8-23.5,24.7
		c-9.9,5.9-21.4,9-32.9,9.1c11.5,0,23-3.1,32.8-9.1c9.9-5.9,18.1-14.6,23.5-24.7c5.5-10.1,8-21.8,7.4-33.2
		c-0.6-11.5-4.3-22.8-10.7-32.3s-15.4-17.3-25.8-22.2c-10.4-4.9-22.1-6.9-33.5-5.8c-11.4,1.2-22.5,5.7-31.4,12.8
		c-9,7.1-15.9,16.8-19.6,27.7c-1.9,5.4-2.9,11.1-3.3,16.8c-0.2,5.7,0.2,11.5,1.6,17.1c2.6,11.2,8.5,21.5,16.7,29.5
		s18.7,13.6,29.9,15.9c5.6,1.1,11.4,1.5,17.1,1c2.8-0.2,5.7-0.7,8.5-1.3c2.8-0.7,5.5-1.5,8.2-2.6c10.6-4.2,19.9-11.8,26.3-21.3
		c6.4-9.5,9.8-20.9,9.8-32.3s-3.6-22.8-10.1-32.2c-6.5-9.4-15.8-16.9-26.4-21c-10.6-4.2-22.5-5.1-33.6-2.4
		c-5.6,1.3-10.9,3.5-15.7,6.5c-2.4,1.5-4.7,3.2-6.9,5c-2.2,1.8-4.2,3.9-6,6.1c-7.4,8.7-12,19.7-12.8,31.1c-0.9,11.4,1.9,23,8,32.7
		c6,9.7,15.1,17.4,25.7,21.7c10.5,4.3,22.5,5.2,33.5,2.3c5.5-1.5,10.7-3.8,15.5-7c4.7-3.2,8.9-7.1,12.3-11.7
		c3.4-4.5,6.1-9.6,7.8-15.1c1.7-5.4,2.6-11.1,2.4-16.8c-0.1-5.7-1.2-11.3-3.1-16.7c-2-5.3-4.8-10.3-8.4-14.7
		c-3.6-4.4-7.9-8.2-12.8-11.1c-4.9-2.9-10.2-5.1-15.7-6.3c-2.8-0.6-5.6-1-8.4-1.1l-2.1-0.1c-0.7,0-1.4,0.1-2.1,0.1l-2.1,0.1
		l-1.1,0.1l-1.1,0.2c-1.4,0.2-2.8,0.4-4.2,0.7l-4.1,1.1l-4,1.5c-1.3,0.5-2.6,1.2-3.8,1.8c-10.1,5.2-18.1,14.1-22.4,24.6
		c-0.5,1.3-1,2.6-1.4,4l-1.1,4.1c-0.2,1.4-0.4,2.8-0.7,4.2c-0.1,0.7-0.1,1.4-0.2,2.1l-0.1,2.1c-0.1,5.7,0.7,11.3,2.5,16.7
		c3.5,10.8,11.2,20.1,20.9,25.8c4.9,2.9,10.2,4.9,15.8,5.9c5.6,1.1,11.3,1.1,16.9,0c5.5-1,10.9-3.1,15.7-6.1s9-6.9,12.3-11.5
		s5.8-9.7,7.2-15.2s1.8-11.2,1.1-16.8c-0.7-5.6-2.4-11.1-5.2-16c-2.7-4.9-6.4-9.4-10.7-12.9c-4.4-3.6-9.4-6.3-14.8-8.1
		c-5.4-1.7-11.1-2.4-16.7-2c-5.6,0.4-11.1,1.9-16.1,4.5s-9.5,6.2-13.1,10.5s-6.2,9.4-7.8,14.8c-1.6,5.4-2,11.1-1.4,16.7
		c0.7,5.6,2.5,11,5.3,15.9s6.6,9.1,11.1,12.5c4.5,3.4,9.7,5.8,15.1,7.1c5.5,1.3,11.2,1.5,16.7,0.5c11.1-1.9,21-9.2,26.5-18.9
		c5.6-9.7,6.5-21.9,2.6-32.4c-2-5.2-5-10.1-9-14s-8.8-6.9-14.1-8.8s-10.9-2.6-16.5-2.1c-5.5,0.6-10.9,2.5-15.6,5.5
		c-0.6,0.3-1.1,0.8-1.7,1.2c-0.6,0.4-1.1,0.8-1.7,1.3l-1.5,1.4l-0.8,0.7c-0.3,0.2-0.5,0.5-0.7,0.8l-1.4,1.5
		c-0.5,0.5-0.8,1.1-1.3,1.6c-0.4,0.6-0.9,1.1-1.2,1.7l-1.1,1.8c-2.9,4.8-4.4,10.3-4.7,15.9c-0.3,5.5,0.7,11.2,3,16.3
		c2.3,5,5.8,9.6,10.1,13.1c4.4,3.5,9.5,5.9,14.9,7.1c5.5,1.1,11.2,0.9,16.5-0.7c2.6-0.9,5.2-1.9,7.5-3.4c1.2-0.7,2.3-1.6,3.4-2.4
		c0.6-0.4,1-0.9,1.6-1.4c0.5-0.5,1-0.9,1.5-1.4l1.4-1.5c0.5-0.5,0.8-1.1,1.3-1.6c0.9-1.1,1.5-2.3,2.3-3.5c1.3-2.5,2.4-5,3-7.7
		c0.4-1.3,0.5-2.7,0.8-4.1l0.1-0.5v-0.5l0.1-1c0-0.7,0.1-1.4,0.1-2.1l-0.1-2.1c0-0.3,0-0.7-0.1-1l-0.2-1l-0.3-2.1l-0.5-2l-0.3-1
		c-0.1-0.3-0.2-0.6-0.4-1l-0.7-1.9c-0.3-0.6-0.6-1.2-0.9-1.9l-0.4-0.9c-0.2-0.3-0.4-0.6-0.5-0.9l-1.1-1.8c-0.4-0.6-0.8-1.1-1.2-1.7
		l-0.6-0.8c-0.2-0.3-0.5-0.5-0.7-0.8l-1.4-1.5l-1.5-1.4l-0.8-0.7l-0.8-0.6l-1.7-1.2l-1.8-1.1l-0.9-0.5l-0.9-0.4l-1.9-0.9l-1.9-0.7
		l-1-0.4c-0.3-0.1-0.7-0.2-1-0.3l-2-0.5c-0.7-0.1-1.4-0.2-2-0.3c-1.4-0.3-2.8-0.2-4.1-0.3c-2.7,0-5.5,0.2-8.2,1l-1,0.3l-1,0.4
		c-0.6,0.2-1.3,0.4-1.9,0.7l-1.9,0.9c-0.6,0.3-1.2,0.7-1.8,1c-0.6,0.4-1.2,0.7-1.7,1.1s-1.1,0.8-1.6,1.2c-1,0.9-2.1,1.8-3,2.9
		c-1,1-1.7,2.1-2.6,3.2c-0.7,1.2-1.5,2.3-2,3.6c-0.6,1.2-1.1,2.5-1.6,3.8c-0.2,0.7-0.4,1.3-0.5,2l-0.3,1l-0.2,1
		c-0.1,0.7-0.2,1.4-0.3,2l-0.1,2.1c-0.1,0.7,0,1.4,0,2.1c0.1,0.7,0,1.4,0.1,2.1c0.3,2.7,1.1,5.4,2.1,8c1.1,2.5,2.5,4.9,4.2,7
		c1.8,2.1,3.8,4,6,5.6c0.5,0.4,1.2,0.7,1.7,1.1l0.9,0.5c0.3,0.2,0.6,0.3,0.9,0.5c0.6,0.3,1.2,0.6,1.9,0.9l1.9,0.7
		c2.6,0.8,5.3,1.4,8.1,1.4c5.5,0.3,11-1.3,15.5-4.3c4.5-3.1,8.1-7.5,10-12.7c0.5-1.3,0.8-2.6,1.1-3.9l0.3-2c0.1-0.7,0.1-1.4,0.1-2
		c0.1-2.7-0.2-5.5-1-8.1s-1.9-5.1-3.4-7.4c-1.5-2.2-3.4-4.3-5.6-5.9c-2.1-1.7-4.6-3-7.1-3.9c-2.6-0.9-5.3-1.5-8-1.5
		c-5.4-0.2-10.9,1.5-15.1,4.9c-4.2,3.4-7.2,8.3-8.2,13.6c-1,5.3-0.1,11,2.6,15.7c2.6,4.7,7.1,8.4,12.1,10.2c2.5,0.9,5.2,1.4,7.9,1.3
		c2.7,0,5.3-0.6,7.8-1.7c4.9-2.2,8.8-6.4,10.6-11.4s1.5-10.8-0.9-15.5c-2.4-4.8-6.8-8.5-11.9-10c-2.5-0.8-5.3-1-7.9-0.7
		c-2.6,0.3-5.1,1.3-7.3,2.8s-4,3.5-5.2,5.8s-1.9,4.9-2,7.5s0.5,5.3,1.6,7.6c1.1,2.4,2.8,4.5,4.9,6c2.1,1.6,4.5,2.7,7.1,3.1
		s5.3,0.4,7.7-0.6c0.6-0.2,1.2-0.5,1.8-0.8c0.5-0.3,1.1-0.6,1.6-1c1-0.7,2-1.7,2.7-2.7c1.6-2,2.5-4.5,2.7-7.1c0.1-1.3,0-2.6-0.2-3.8
		c-0.3-1.2-0.7-2.5-1.3-3.6c-1.2-2.3-3-4.2-5.3-5.5c-1.1-0.6-2.3-1.1-3.6-1.4c-0.3-0.1-0.6-0.2-0.9-0.2c-0.3,0-0.6-0.1-1-0.1
		c-0.6,0-1.3-0.1-1.9,0c-2.5,0.1-4.9,1.2-6.7,2.9c-1.8,1.7-2.9,4.1-3.2,6.6c-0.2,2.5,0.4,5,1.9,7.1c1.4,2,3.6,3.5,6,4.1
		c1.2,0.3,2.5,0.4,3.6,0.2c1.2-0.2,2.3-0.6,3.2-1.3c1-0.7,1.8-1.6,2.3-2.6s0.8-2.2,0.9-3.4c0-2.4-1.1-4.7-3-6.1
		c-0.9-0.7-2-1.2-3.2-1.4c-0.3-0.1-0.6-0.1-0.9-0.1c-0.3,0-0.6,0-0.8,0c-0.5,0.1-1,0.2-1.5,0.4c-0.9,0.5-1.7,1.3-2.1,2.2
		c-0.4,1-0.4,2.1-0.1,3c0.3,1,1,1.9,1.9,2.4c0.4,0.3,0.9,0.5,1.4,0.6c0.3,0,0.5,0.1,0.8,0.1c0.2,0,0.3,0,0.5-0.1
		c0.6-0.2,1-0.8,0.9-1.5c-0.1-0.6-0.7-1.1-1.3-1.1c-0.9,0-1.7-0.7-1.7-1.7C147.2,407.6,147.9,406.8,148.9,406.8L148.9,406.8
		L148.9,406.8z"/>
</g>
<path class="st0" d="M146.1,482.2c-6.1-0.1-12.1-1.1-17.9-2.7c-5.9-1.7-11.5-4-16.9-7c-2.6-1.5-5.2-3.2-7.6-5.1s-4.7-3.9-6.8-6.1
	c-4.3-4.4-7.7-9.5-10.3-14.9c1.7,2.5,3.4,5,5.3,7.3c1.9,2.3,3.9,4.5,6.1,6.5c4.3,4.1,9.2,7.6,14.3,10.6c2.6,1.5,5.2,2.8,8,4
	c2.7,1.2,5.5,2.3,8.3,3.2c2.8,0.9,5.7,1.8,8.6,2.5C140.2,481.2,143.1,481.7,146.1,482.2z"/>
<path class="st12" d="M154.5,337.3c0,0,41.9,109.5-33.7,146.8l-43.1-14l21.3-12c0,0,26.2-11.3,31.1-71.6c0,0-1.7,38.7-25.1,50.5
	c0,0,27.9-23.8,17.4-100.3l1.9-29.4l29,14.4l1.1,14.8L154.5,337.3z"/>
<g>
	<path class="st1" d="M43.5,513.6l14.7-14.7l-15.7,1.4l12-8.1L43,492.9V484l9.4-13.7L39.3,473l15.9-36.7L36,457.7
		c-0.2,0.3-0.4,0.5-0.5,0.5l-1.9-1.7l0.2-0.2c1.8-2,15.4-18.8,14.6-51.4c-0.1-2.5-0.2-5.7-0.3-9.2c-1.8-48.2-6.7-176.3,73.5-200.4
		c79.5-23.9,109.9-7.7,114.4-4.8c4.1-1.4,26.8-8.3,53,6.2c16.3,9,34.9,21.9,49.5,49c18.1,33.7,25.4,82,21.7,143.7v0.2
		c-0.1,0.5-10.9,49.1,0.8,74.8l3.8,8.3l-15.5-18.3l6.3,20.6l-14-12.1l-4.1,13.5l-11.7-6l-12.2,19.5l-8.2-11.8l0.3-0.6
		c0.4-0.8,35.5-80.4,25.5-153.1c-4.5-32.9-15.3-53.4-32.1-61c-22.7-10.2-48.9,7-49.1,7.2l-0.7,0.5l-0.7-0.5
		c-0.3-0.2-27.6-18.3-53.7-9.8c-16.3,5.3-28.8,19.7-37.2,42.8l-0.1,0.2c0,0.1-4.3,8.9,0.1,38.7c0.7,4.5,1.8,9.8,3,15.4
		c5.6,26.7,14.2,66.9-8.2,100.4c-17.9,26.8-53.3,45.1-105,54.5L43.5,513.6z M64.9,495.7L51,509.6c48.9-9.5,82.3-27.2,99.4-52.7
		c21.8-32.5,13.8-70.6,7.9-98.4c-1.2-5.7-2.3-11-3-15.6c-4.4-29.6-0.4-39.1,0.1-40.2c8.7-23.8,21.8-38.7,38.8-44.3
		c25.3-8.2,50.6,6.7,55.2,9.7c4.5-2.8,28.8-16.9,50.9-7c17.7,8,29,29.1,33.6,62.9c9.5,69.9-22.1,146-25.4,153.8l5.2,7.5l11.4-18.3
		l11,5.7l4.3-14.3l10.4,8.9l-7.3-23.9l12.9,15.2c-7.9-26.8,0.8-66.7,1.5-69.6c7.7-130.2-33.3-170.1-69.9-190.3
		c-27.3-15.1-51.2-5.9-51.4-5.8l-0.6,0.3l-0.6-0.4c-0.3-0.2-29.3-20.3-112.8,4.8c-78.3,23.5-73.5,150.2-71.7,197.9
		c0.1,3.6,0.3,6.7,0.3,9.3c0.4,18.6-3.6,32.1-7.6,40.8L63.7,423l-20.2,46.5l14.6-3.1l-12.5,18.2v5.4l17.9-1L52,496.9L64.9,495.7z"/>
</g>
<path class="st9" d="M189.2,501.6c0.9,1.4,1.4,2.9,2,4.3l0.7,2.2c0.3,0.7,0.4,1.5,1,2c-0.4,0-0.8-0.3-1.1-0.6
	c-0.3-0.3-0.6-0.6-0.8-1c-0.4-0.7-0.8-1.4-1-2.2C189.5,504.8,189.1,503.2,189.2,501.6z"/>
<path class="st9" d="M203.4,512.8c4.1,0.9,8.2,1.7,12.2,2.4c4.1,0.6,8.2,1.1,12.3,1.3s8.2,0.1,12.2-0.5c2-0.3,4-0.7,6-1.3
	s3.9-1.4,5.8-2.3c-1.6,1.4-3.4,2.5-5.3,3.4c-1.9,0.9-4,1.6-6,2.1c-4.2,1-8.5,1.3-12.7,1.1s-8.4-0.9-12.5-1.9
	C211.2,516,207.2,514.7,203.4,512.8z"/>
<path class="st9" d="M192.9,241.8c-12.4,0.3-24.3,6.1-32.6,14.9c-4.2,4.4-7.6,9.5-10.3,15s-4.9,11.2-6.4,17.2
	c-0.2,0.7-0.4,1.5-0.6,2.2l-0.5,2.2c-0.3,1.5-0.7,3-1,4.5l-0.7,4.6l-0.4,2.3l-0.3,2.3c-0.4,3.1-0.7,6.1-0.9,9.2l-0.3,4.6
	c-0.1,1.5-0.1,3.1-0.1,4.6c-0.3,12.3,0.3,24.7,1.2,37.1c-1.9-12.3-3.2-24.7-3.2-37.1s1-25,4.3-37.2c1.5-6.1,3.8-12,6.7-17.6
	s6.5-10.8,11.1-15.3c2.2-2.2,4.7-4.2,7.3-6c2.6-1.7,5.4-3.2,8.3-4.4c2.9-1.1,6-2,9-2.6C186.7,241.8,189.8,241.6,192.9,241.8z"/>
<path class="st9" d="M111,226.7c-6,6.3-10.9,13.5-15.2,21.1c-4.3,7.6-7.7,15.5-10.6,23.7c-5.4,16.5-8.2,33.8-8.1,51.2
	c-0.3,17.4-1.3,34.8-3.4,52.1c-2.1,17.3-4.9,34.5-9.3,51.4c2-8.5,3.6-17,4.9-25.6c1.4-8.6,2.5-17.2,3.4-25.8
	c1.8-17.3,2.9-34.7,3.1-52c0-17.4,2.8-34.9,8.4-51.5c3-8.2,6.6-16.2,11-23.7C99.7,240,104.8,232.8,111,226.7z"/>
<path class="st9" d="M242.9,205.7c3.4-3,7.5-5.2,11.9-6.5c2.2-0.7,4.5-1,6.8-1.1s4.6,0.3,6.7,0.9c-2.3-0.2-4.5-0.2-6.7,0.1
	s-4.4,0.7-6.5,1.3s-4.2,1.4-6.2,2.3C246.9,203.6,244.9,204.6,242.9,205.7z"/>
<path class="st9" d="M249.1,217.5c3.3-1.5,6.9-2.5,10.5-3c1.8-0.2,3.7-0.3,5.5-0.2s3.8,0.6,5.2,1.8c-1.7-0.8-3.5-0.8-5.2-0.8
	c-1.8,0.1-3.6,0.2-5.3,0.5C256.3,216.2,252.7,216.9,249.1,217.5z"/>
<path class="st9" d="M249.1,238.5c4.3-2.2,8.8-3.8,13.5-5c2.3-0.6,4.7-1,7.1-1.2s4.9-0.2,7.2,0.6c-2.4-0.3-4.7,0-7,0.3
	c-2.3,0.4-4.6,0.9-6.9,1.5C258.3,235.8,253.7,237.2,249.1,238.5z"/>
<path class="st9" d="M289.4,235.5c7.2,1,14.3,3.2,21.1,6c6.8,2.9,13.2,6.6,19.1,11.1c5.8,4.6,11,10,15,16.2
	c4.1,6.1,6.9,13.1,8.4,20.3c-1.3-3.4-2.6-6.8-4.3-10c-0.8-1.6-1.8-3.2-2.6-4.7c-1-1.5-1.9-3-3-4.5c-2.1-2.9-4.4-5.6-7-8.2
	c-2.5-2.6-5.2-5-8-7.1c-5.6-4.5-11.8-8.2-18.3-11.3c-3.2-1.6-6.6-3-9.9-4.3C296.4,237.6,292.9,236.5,289.4,235.5z"/>
<g>
	<path class="st9" d="M216.6,570.9c-15,0-36.5-12.7-52.2-23.6c-12.9-9-22.6-17.2-22.7-17.3c-13.4-9.6-25-21.9-34.3-36.5l1.7-1.1
		c9.2,14.4,20.6,26.5,33.9,36c0.2,0.1,9.8,8.3,22.6,17.2c16.2,11.3,38.5,24.4,52.9,23.2c26-2.2,67-34,97.2-116.2l1.9,0.7
		c-30.5,83-72.3,115.2-98.9,117.5C218,570.9,217.3,570.9,216.6,570.9z"/>
</g>
<path class="st3" d="M226.9,487.8c0,0-1,8.8,3.8,9.7c4.8,0.8,1.7-12.8,1.7-12.8S226.6,482.3,226.9,487.8z"/>
<ellipse class="st3" cx="242.8" cy="451.4" rx="2.3" ry="0.9"/>
<ellipse class="st3" cx="235.7" cy="428.7" rx="2.3" ry="0.9"/>
<path class="st0" d="M175.4,224.2c0,0-61.6,9.7-58,95C117.4,319.1,103.7,232.3,175.4,224.2z"/>
<path class="st0" d="M89.1,230.1c0,0-28.9,28.3-26.9,100.6s-2.5,73.8-2.5,73.8s10.8-45.2,9.2-79.6C67.3,290.3,70.9,259.1,89.1,230.1
	z"/>
<path class="st0" d="M148.3,350.7c0,0,19.6,121.4-65,139.6c0,0,51.5-4.8,63.9-50.4S148.3,350.7,148.3,350.7z"/>
<g>
	<path class="st0" d="M247.2,260.8c1,0.9,1.9,1.5,1.9,1.5S248.5,261.7,247.2,260.8z"/>
	<path class="st0" d="M307.8,240.4c0,0-12.9-17.1-71.2-10.4c-0.2-3.5,0.6-6.5,1.8-8.3c2.5-3.8-2.1-10.1-4.1-16s1.3-7.2,1.3-7.2V196
		l-23.2-7.6c0,0,4.7,2.4,8.9,4.3c-3.2-0.1-7.1,0.1-10.2,0.4c-13-2.7-34.9-4.3-66.8,2.7c0,0,55.6-2,81.7,8.6c1.8,1.6,2.3,2.4,0.7,1.2
		c-4.9-3.8-35.4,4.6-20.7,3.5c6.9-0.5,13.6,1.6,18.3,3.7c-12.5-1.8-38.7-4.3-61.7,2.9c0,0,34.6-2,55.7,1.8c-4.1,1.6-7.6,3.6-7.6,3.6
		c20.3,0.8,22.2,8.8,19.3,7.6c-2.9-1.3-13.6,5.2-13.6,5.2c15,1,10.3,7.8,10.3,7.8c-23-4.2-38.5,11-38.5,11
		c30.3-10.5,52.5,3.3,58.9,8.1c-1.2-1-2.6-2.4-3.3-3.6c-1.2-2.3,3.7-7.8-2.6-15.4c-0.3-0.3-0.5-0.7-0.8-1
		C251.4,235,278.4,224.2,307.8,240.4z"/>
</g>
<path class="st10" d="M154.8,239.6c0,0-25.2,6-29.4,56C125.4,295.6,138.5,247.3,154.8,239.6z"/>
<path class="st10" d="M169.5,253.3c0,0-25.2,6-29.4,56C140.1,309.3,153.2,260.9,169.5,253.3z"/>
<path class="st10" d="M118.8,225.9c0,0-20.5,4.9-23.9,45.6C94.8,271.4,105.4,232.1,118.8,225.9z"/>
<g>
	<path class="st10" d="M160.8,226.7c0.3,0,0.6,0,0.9,0C161.7,226.7,161.4,226.7,160.8,226.7z"/>
	<path class="st10" d="M160.8,226.7c-17.3-0.2-29,6.6-36.9,16.4c2.9-5.9,6.2-10.7,10-13.1c0,0-10.7,3.9-17.5,21
		c-6.3,8.1-12.6,21.7-14.5,44.5c0,0,4-14.9,10.4-29.5c-0.1,0.7-0.2,1.3-0.3,2c-5.2,19.8-3.6,39.3-3.6,39.3
		c0.6-7.1,1.5-13.5,2.6-19.4c0,0.4,0,0.7,0,1c0,0,0.5-3,1.4-7.7C124.4,229.9,155.1,226.8,160.8,226.7z"/>
</g>
<g>
	<path class="st10" d="M142.7,262.7c2.3-6.5,5.3-12.4,9-14.7c0,0-12.2,4.4-14.4,27.5c-6.7,21.2-4.9,43.6-4.9,43.6
		c6.3-76.5,45.8-80.5,52.3-80.7C163.1,238.2,150.3,248.9,142.7,262.7z"/>
	<path class="st10" d="M184.7,238.5c0.3,0,0.6,0,0.9,0C185.7,238.5,185.3,238.4,184.7,238.5z"/>
</g>
<path class="st9" d="M104.6,213.7c-6,4.5-10.9,9.6-15.2,15c-4.3,5.4-7.7,11.1-10.6,16.9c-5.4,11.7-8.2,24.1-8.1,36.4
	c-0.3,12.4-1.3,24.8-3.4,37.1c-2.1,12.3-4.9,24.6-9.3,36.6c2-6,3.6-12.1,4.9-18.3c1.4-6.1,2.5-12.3,3.4-18.4
	c1.8-12.3,2.9-24.7,3.1-37.1c0-12.4,2.8-24.9,8.4-36.7c3-5.8,6.6-11.5,11-16.9C93.3,223.1,98.4,218,104.6,213.7z"/>
<path class="st9" d="M306.9,262.7c6,3.8,10.9,8.1,15.2,12.7c4.3,4.5,7.7,9.3,10.6,14.3c5.4,9.9,8.2,20.3,8.1,30.8
	c0.3,10.5,1.3,20.9,3.4,31.3s4.9,20.7,9.3,30.9c-2-5.1-3.6-10.2-4.9-15.4c-1.4-5.2-2.5-10.3-3.4-15.5c-1.8-10.4-2.9-20.8-3.1-31.3
	c0-10.5-2.8-21-8.4-30.9c-3-4.9-6.6-9.7-11-14.3C318.2,270.7,313.1,266.4,306.9,262.7z"/>
<g>
	<circle class="st7" cx="312.7" cy="408.6" r="77.9"/>
	<circle class="st11" cx="313.6" cy="409.6" r="64.2"/>
	<path class="st6" d="M314.6,406.1c0,1.1-0.4,2.2-1.1,3.1s-1.8,1.4-2.9,1.6s-2.3-0.1-3.2-0.7c-1-0.6-1.7-1.5-2-2.6
		c-0.2-0.5-0.2-1.1-0.2-1.6s0.1-0.9,0.1-1.4c0.2-0.9,0.5-1.8,1-2.6c1-1.6,2.5-2.8,4.3-3.3s3.7-0.5,5.4,0.3c1.7,0.7,3.1,2.1,3.9,3.7
		c0.4,0.8,0.7,1.7,0.8,2.6c0,0.5,0.1,0.9,0,1.3c0,0.4-0.1,0.8-0.1,1.3c-0.3,1.7-1,3.3-2,4.7c-2,2.8-5.4,4.4-8.8,4.4
		c-1.7,0-3.4-0.5-4.9-1.2c-1.5-0.8-2.8-2-3.8-3.3c-1-1.4-1.6-3-1.9-4.7c-0.2-1.7-0.1-3.3,0.3-4.9c0.8-3.2,2.8-6,5.4-7.9
		c2.7-1.9,6-2.8,9.3-2.5s6.4,1.8,8.6,4.2c2.3,2.3,3.7,5.5,3.8,8.8c0.1,0.8,0,1.6,0,2.4c0,0.4-0.1,0.8-0.2,1.2c0,0.4-0.1,0.8-0.2,1.2
		c-0.3,1.6-1,3-1.8,4.4c-1.6,2.8-4,5-6.8,6.5c-1.4,0.7-2.9,1.2-4.5,1.6c-1.6,0.3-3.2,0.4-4.7,0.3c-3.2-0.3-6.3-1.4-8.8-3.4
		c-1.3-1-2.4-2.1-3.3-3.4c-0.5-0.6-0.9-1.3-1.3-2c-0.3-0.7-0.7-1.4-1-2.2c-1.2-3-1.2-6.3-0.7-9.3c0.5-3.1,1.9-6,3.8-8.5
		c3.7-5,10-8,16.3-7.8c3.1,0.1,6.2,0.9,9,2.4c2.7,1.5,5.1,3.7,6.9,6.2c1.8,2.6,2.9,5.6,3.3,8.7s0.1,6.2-0.8,9.2
		c-1.8,5.9-6.1,11-11.6,13.7c-5.5,2.8-12.2,3.2-18,1.1s-10.7-6.6-13.2-12.3c-1.2-2.8-1.9-5.9-1.9-9s0.5-6.1,1.5-9
		c2-5.8,6.2-10.7,11.5-13.7s11.7-4.1,17.7-2.9s11.5,4.5,15.3,9.3c3.8,4.7,5.8,11,5.5,17c-0.1,3-0.7,6-1.7,8.9
		c-1,2.8-2.5,5.5-4.4,7.9s-4.1,4.5-6.6,6.2s-5.3,2.9-8.2,3.8c-2.9,0.9-6,1.1-9,1c-0.8-0.1-1.5,0-2.3-0.2l-2.2-0.3
		c-1.5-0.4-3-0.7-4.4-1.3c-5.7-2-10.6-6-14-11c-3.3-5-5.1-11.1-4.7-17.2c0-3,0.7-6,1.6-8.8l0.8-2.1c0.3-0.7,0.6-1.4,1-2
		c0.2-0.3,0.3-0.7,0.5-1l0.6-1c0.4-0.6,0.8-1.3,1.2-1.9c1.7-2.5,3.8-4.7,6.1-6.6c2.3-1.9,5-3.4,7.7-4.6c2.8-1.1,5.7-1.9,8.7-2.3
		c0.7-0.1,1.5-0.1,2.2-0.2c0.7,0,1.5-0.1,2.2,0l2.2,0.1c0.7,0.1,1.5,0.2,2.2,0.3l1.1,0.2l1.1,0.3c0.7,0.2,1.5,0.4,2.2,0.6
		c1.4,0.5,2.8,1,4.2,1.7c1.4,0.6,2.6,1.5,3.9,2.2c1.2,0.9,2.4,1.7,3.5,2.8c1.2,1,2.1,2.1,3.1,3.2c0.5,0.6,0.9,1.2,1.4,1.8
		c0.5,0.6,0.9,1.2,1.2,1.9c0.4,0.7,0.8,1.3,1.1,1.9l1,2c0.3,0.7,0.5,1.4,0.8,2.1l0.4,1.1l0.3,1.1c0.9,2.9,1.1,5.9,1.1,8.9
		c-0.1,1.5-0.1,3-0.4,4.5c-0.1,0.7-0.2,1.5-0.4,2.2l-0.6,2.2c-0.1,0.4-0.2,0.7-0.3,1.1l-0.4,1.1l-0.8,2.1l-1,2l-0.5,1l-0.6,1
		l-1.2,1.9l-1.3,1.8l-0.7,0.9l-0.8,0.8l-1.5,1.7l-1.7,1.5c-0.3,0.2-0.5,0.5-0.8,0.7l-0.9,0.7c-0.6,0.4-1.2,0.9-1.8,1.3l-1.9,1.2
		c-0.3,0.2-0.6,0.4-1,0.6l-1,0.5c-0.7,0.3-1.3,0.7-2,1l-2.1,0.8c-0.4,0.1-0.7,0.3-1.1,0.4l-1.1,0.3l-2.2,0.6l-2.2,0.3l-1.1,0.2
		c-0.4,0-0.7,0-1.1,0.1l-2.2,0.1c-0.7,0-1.5-0.1-2.2-0.1l-1.1-0.1h-0.6l-0.6-0.1c-1.5-0.2-3-0.4-4.4-0.8c-2.9-0.7-5.7-1.9-8.3-3.3
		c-1.3-0.8-2.6-1.5-3.7-2.4c-0.6-0.5-1.2-0.9-1.8-1.4l-1.7-1.5c-0.6-0.5-1.1-1.1-1.6-1.6c-0.5-0.6-1-1.1-1.5-1.7
		c-0.9-1.2-1.8-2.4-2.6-3.7c-1.6-2.5-2.7-5.3-3.7-8.1c-1.7-5.7-1.9-11.8-0.7-17.7c1.2-5.8,3.9-11.3,7.6-16c3.7-4.6,8.6-8.3,14-10.8
		s11.4-3.5,17.3-3.2s11.8,1.9,16.9,5l1.9,1.2c0.6,0.4,1.2,0.9,1.8,1.3c0.6,0.5,1.2,0.9,1.8,1.4l1.6,1.5c0.3,0.3,0.6,0.5,0.8,0.8
		l0.7,0.8l1.5,1.6c0.5,0.6,0.9,1.2,1.3,1.8c0.4,0.6,0.9,1.2,1.3,1.8c3.2,5,5.2,10.7,5.9,16.6c0.5,5.9-0.2,11.9-2.2,17.5
		s-5.2,10.7-9.3,14.9c-4.1,4.2-9.3,7.5-14.8,9.5c-11.1,4.1-24,3.2-34.2-2.8c-10.2-5.8-17.9-16.3-19.9-28c-1-5.8-0.8-11.8,0.6-17.5
		s3.9-11.2,7.5-15.9c3.5-4.7,8-8.7,13.1-11.7s10.8-4.9,16.6-5.5c5.8-0.7,11.8-0.2,17.5,1.4c5.6,1.6,11,4.5,15.5,8.2
		c4.5,3.8,8.3,8.4,11,13.7c2.7,5.2,4.3,11,4.7,16.9c0.4,5.9-0.3,11.8-2.1,17.4c-1.8,5.6-4.7,10.8-8.4,15.4
		c-3.7,4.5-8.3,8.3-13.5,11.1c-5.1,2.8-10.8,4.6-16.6,5.3c-5.8,0.7-11.8,0.3-17.4-1.1c-5.7-1.5-11.1-4-15.8-7.5
		c-4.7-3.5-8.8-7.8-11.9-12.8s-5.3-10.5-6.3-16.3c-2.2-11.5,0.2-23.7,6.2-33.8c6-10,15.6-17.9,26.7-21.6c5.5-1.8,11.4-2.7,17.2-2.5
		l2.2,0.1c0.7,0,1.5,0,2.2,0.2c1.4,0.2,2.9,0.4,4.3,0.7l4.2,1.1c1.4,0.4,2.7,1,4.1,1.5c10.8,4.4,20,12.7,25.4,23.1
		c0.6,1.3,1.3,2.6,1.9,4l1.5,4.1l1.1,4.2c0.3,1.4,0.5,2.9,0.7,4.3l0.2,1.1l0.1,1.1l0.1,2.2c0,0.7,0.1,1.5,0.1,2.2l-0.1,2.2
		c-0.2,2.9-0.5,5.8-1.2,8.7c-1.2,5.7-3.5,11.2-6.5,16.1c-3.1,5-7,9.4-11.4,13.1c-4.5,3.7-9.6,6.6-15.1,8.6s-11.3,3.1-17.1,3.2
		c-5.8,0.1-11.7-0.7-17.2-2.5s-10.8-4.5-15.4-8s-8.7-7.8-11.9-12.6c-3.2-4.8-5.7-10.2-7.1-15.8c-2.9-11.3-2-23.4,2.4-34.2
		c4.3-10.8,12.3-20.1,22.2-26.2c9.9-6.2,21.7-9,33.3-8.1c11.6,0.8,22.9,5.5,31.7,13c2.2,1.9,4.3,3.9,6.1,6.1c1.9,2.2,3.6,4.5,5.1,7
		c3,5,5.3,10.4,6.6,16c2.7,11.3,1.7,23.4-2.5,34.2c-4.2,10.8-11.8,20.2-21.3,26.8c-9.5,6.6-21.1,10.2-32.7,10.1
		c-11.6,0.1-23.2-3.4-32.7-9.9c-9.6-6.5-17.2-15.9-21.5-26.6c-1.1-2.7-1.9-5.5-2.6-8.3c-0.7-2.8-1.1-5.7-1.3-8.6
		c-0.5-5.8-0.1-11.6,1.1-17.2c2.3-11.3,8-21.9,16.1-30.2c8.1-8.3,18.5-14.2,29.8-16.8c5.6-1.3,11.4-1.8,17.2-1.6
		c5.8,0.3,11.5,1.4,16.9,3.3c10.9,3.8,20.7,10.8,27.8,19.8c7.2,9,11.7,20.2,12.8,31.6c1.1,11.5-0.9,23.3-5.9,33.7
		c-4.9,10.4-12.8,19.4-22.3,25.8c-9.6,6.4-20.9,10.1-32.4,10.7c-11.5,0.5-23.2-2-33.3-7.5c-10.1-5.4-18.8-13.7-24.7-23.5
		c-5.9-9.9-9-21.4-9.1-32.9c0,11.5,3.1,23,9.1,32.8c5.9,9.9,14.6,18.1,24.7,23.5c10.1,5.5,21.8,8,33.2,7.4
		c11.5-0.6,22.8-4.3,32.3-10.7c9.5-6.4,17.3-15.4,22.2-25.8c4.9-10.4,6.9-22.1,5.8-33.5c-1.2-11.4-5.7-22.5-12.8-31.4
		c-7.1-9-16.8-15.9-27.7-19.6c-5.4-1.9-11.1-2.9-16.8-3.3c-5.7-0.2-11.5,0.2-17.1,1.6c-11.2,2.6-21.5,8.5-29.5,16.7
		s-13.6,18.7-15.9,29.9c-1.1,5.6-1.5,11.4-1,17.1c0.2,2.8,0.7,5.7,1.3,8.5c0.7,2.8,1.5,5.5,2.6,8.2c4.2,10.6,11.8,19.9,21.3,26.3
		s20.9,9.8,32.3,9.8s22.8-3.6,32.2-10.1c9.4-6.5,16.9-15.8,21-26.4c4.2-10.6,5.1-22.5,2.4-33.6c-1.3-5.6-3.5-10.9-6.5-15.7
		c-1.5-2.4-3.2-4.7-5-6.9c-1.8-2.2-3.9-4.2-6.1-6c-8.7-7.4-19.7-12-31.1-12.8c-11.4-0.9-23,1.9-32.7,8c-9.7,6-17.4,15.1-21.7,25.7
		c-4.3,10.5-5.2,22.5-2.3,33.5c1.5,5.5,3.8,10.7,7,15.5c3.2,4.7,7.1,8.9,11.7,12.3c4.5,3.4,9.6,6.1,15.1,7.8
		c5.4,1.7,11.1,2.6,16.8,2.4c5.7-0.1,11.3-1.2,16.7-3.1c5.3-2,10.3-4.8,14.7-8.4c4.4-3.6,8.2-7.9,11.1-12.8s5.1-10.2,6.3-15.7
		c0.6-2.8,1-5.6,1.1-8.4l0.1-2.1c0-0.7-0.1-1.4-0.1-2.1l-0.1-2.1l-0.1-1.1l-0.2-1.1c-0.2-1.4-0.4-2.8-0.7-4.2l-1.1-4.1l-1.5-4
		c-0.5-1.3-1.2-2.6-1.8-3.8c-5.2-10.1-14.1-18.1-24.6-22.4c-1.3-0.5-2.6-1-4-1.4l-4.1-1.1c-1.4-0.2-2.8-0.4-4.2-0.7
		c-0.7-0.1-1.4-0.1-2.1-0.2l-2.1-0.1c-5.7-0.1-11.3,0.7-16.7,2.5c-10.8,3.5-20.1,11.2-25.8,20.9c-2.9,4.9-4.9,10.2-5.9,15.8
		c-1.1,5.6-1.1,11.3,0,16.9c1,5.5,3.1,10.9,6.1,15.7c3,4.8,6.9,9,11.5,12.3s9.7,5.8,15.2,7.2c5.5,1.4,11.2,1.8,16.8,1.1
		c5.6-0.7,11.1-2.4,16-5.2c4.9-2.7,9.4-6.4,12.9-10.7c3.6-4.4,6.3-9.4,8.1-14.8c1.7-5.4,2.4-11.1,2-16.7s-1.9-11.1-4.5-16.1
		s-6.2-9.5-10.5-13.1s-9.4-6.2-14.8-7.8c-5.4-1.6-11.1-2-16.7-1.4c-5.6,0.7-11,2.5-15.9,5.3s-9.1,6.6-12.5,11.1s-5.8,9.7-7.1,15.1
		c-1.3,5.5-1.5,11.2-0.5,16.7c1.9,11.1,9.2,21,18.9,26.5c9.7,5.6,21.9,6.5,32.4,2.6c5.2-2,10.1-5,14-9s6.9-8.8,8.8-14.1
		c1.9-5.3,2.6-10.9,2.1-16.5c-0.6-5.5-2.5-10.9-5.5-15.6c-0.3-0.6-0.8-1.1-1.2-1.7c-0.4-0.6-0.8-1.1-1.3-1.7l-1.4-1.5l-0.7-0.8
		c-0.2-0.3-0.5-0.5-0.8-0.7l-1.5-1.4c-0.5-0.5-1.1-0.8-1.6-1.3c-0.6-0.4-1.1-0.9-1.7-1.2l-1.8-1.1c-4.8-2.9-10.3-4.4-15.9-4.7
		c-5.5-0.3-11.2,0.7-16.3,3c-5,2.3-9.6,5.8-13.1,10.1c-3.5,4.4-5.9,9.5-7.1,14.9c-1.1,5.5-0.9,11.2,0.7,16.5
		c0.9,2.6,1.9,5.2,3.4,7.5c0.7,1.2,1.6,2.3,2.4,3.4c0.4,0.6,0.9,1,1.4,1.6c0.5,0.5,0.9,1,1.4,1.5l1.5,1.4c0.5,0.5,1.1,0.8,1.6,1.3
		c1.1,0.9,2.3,1.5,3.5,2.3c2.5,1.3,5,2.4,7.7,3c1.3,0.4,2.7,0.5,4.1,0.8l0.5,0.1h0.5l1,0.1c0.7,0,1.4,0.1,2.1,0.1l2.1-0.1
		c0.3,0,0.7,0,1-0.1l1-0.2l2.1-0.3l2-0.5l1-0.3c0.3-0.1,0.6-0.2,1-0.4l1.9-0.7c0.6-0.3,1.2-0.6,1.9-0.9l0.9-0.4
		c0.3-0.2,0.6-0.4,0.9-0.5l1.8-1.1c0.6-0.4,1.1-0.8,1.7-1.2l0.8-0.6c0.3-0.2,0.5-0.5,0.8-0.7l1.5-1.4l1.4-1.5l0.7-0.8l0.6-0.8
		l1.2-1.7l1.1-1.8l0.5-0.9l0.4-0.9l0.9-1.9l0.7-1.9l0.4-1c0.1-0.3,0.2-0.7,0.3-1l0.5-2c0.1-0.7,0.2-1.4,0.3-2
		c0.3-1.4,0.2-2.8,0.3-4.1c0-2.7-0.2-5.5-1-8.2l-0.3-1l-0.4-1c-0.2-0.6-0.4-1.3-0.7-1.9l-0.9-1.9c-0.3-0.6-0.7-1.2-1-1.8
		c-0.4-0.6-0.7-1.2-1.1-1.7s-0.8-1.1-1.2-1.6c-0.9-1-1.8-2.1-2.9-3c-1-1-2.1-1.7-3.2-2.6c-1.2-0.7-2.3-1.5-3.6-2
		c-1.2-0.6-2.5-1.1-3.8-1.6c-0.7-0.2-1.3-0.4-2-0.5l-1-0.3l-1-0.2c-0.7-0.1-1.4-0.2-2-0.3l-2.1-0.1c-0.7-0.1-1.4,0-2.1,0
		c-0.7,0.1-1.4,0-2.1,0.1c-2.7,0.3-5.4,1.1-8,2.1c-2.5,1.1-4.9,2.5-7,4.2c-2.1,1.8-4,3.8-5.6,6c-0.4,0.5-0.7,1.2-1.1,1.7l-0.5,0.9
		c-0.2,0.3-0.3,0.6-0.5,0.9c-0.3,0.6-0.6,1.2-0.9,1.9l-0.7,1.9c-0.8,2.6-1.4,5.3-1.4,8.1c-0.3,5.5,1.3,11,4.3,15.5
		c3.1,4.5,7.5,8.1,12.7,10c1.3,0.5,2.6,0.8,3.9,1.1l2,0.3c0.7,0.1,1.4,0.1,2,0.1c2.7,0.1,5.5-0.2,8.1-1s5.1-1.9,7.4-3.4
		c2.2-1.5,4.3-3.4,5.9-5.6c1.7-2.1,3-4.6,3.9-7.1c0.9-2.6,1.5-5.3,1.5-8c0.2-5.4-1.5-10.9-4.9-15.1s-8.3-7.2-13.6-8.2
		c-5.3-1-11-0.1-15.7,2.6c-4.7,2.6-8.4,7.1-10.2,12.1c-0.9,2.5-1.4,5.2-1.3,7.9c0,2.7,0.6,5.3,1.7,7.8c2.2,4.9,6.4,8.8,11.4,10.6
		c5,1.8,10.8,1.5,15.5-0.9c4.8-2.4,8.5-6.8,10-11.9c0.8-2.5,1-5.3,0.7-7.9s-1.3-5.1-2.8-7.3c-1.5-2.2-3.5-4-5.8-5.2s-4.9-1.9-7.5-2
		s-5.3,0.5-7.6,1.6c-2.4,1.1-4.5,2.8-6,4.9c-1.6,2.1-2.7,4.5-3.1,7.1s-0.4,5.3,0.6,7.7c0.2,0.6,0.5,1.2,0.8,1.8
		c0.3,0.5,0.6,1.1,1,1.6c0.7,1,1.7,2,2.7,2.7c2,1.6,4.5,2.5,7.1,2.7c1.3,0.1,2.6,0,3.8-0.2c1.2-0.3,2.5-0.7,3.6-1.3
		c2.3-1.2,4.2-3,5.5-5.3c0.6-1.1,1.1-2.3,1.4-3.6c0.1-0.3,0.2-0.6,0.2-0.9s0.1-0.6,0.1-1c0-0.6,0.1-1.3,0-1.9
		c-0.1-2.5-1.2-4.9-2.9-6.7c-1.7-1.8-4.1-2.9-6.6-3.2c-2.5-0.2-5,0.4-7.1,1.9c-2,1.4-3.5,3.6-4.1,6c-0.3,1.2-0.4,2.5-0.2,3.6
		c0.2,1.2,0.6,2.3,1.3,3.2c0.7,1,1.6,1.8,2.6,2.3s2.2,0.8,3.4,0.9c2.4,0,4.7-1.1,6.1-3c0.7-0.9,1.2-2,1.4-3.2
		c0.1-0.3,0.1-0.6,0.1-0.9s0-0.6,0-0.8c-0.1-0.5-0.2-1-0.4-1.5c-0.5-0.9-1.3-1.7-2.2-2.1c-1-0.4-2.1-0.4-3-0.1c-1,0.3-1.9,1-2.4,1.9
		c-0.3,0.4-0.5,0.9-0.6,1.4c0,0.3-0.1,0.5-0.1,0.8c0,0.2,0,0.3,0.1,0.5c0.2,0.6,0.8,1,1.5,0.9c0.6-0.1,1.1-0.7,1.1-1.3
		c0-0.9,0.7-1.7,1.7-1.7C313.8,404.3,314.5,405.1,314.6,406.1C314.6,406,314.6,406,314.6,406.1L314.6,406.1z"/>
</g>
<rect x="224.8" y="406.3" class="st7" width="15.7" height="7.2"/>
<path class="st13" d="M315.9,334.3c6.1,0.1,12.1,1.1,17.9,2.7c5.9,1.7,11.5,4,16.9,7c2.6,1.5,5.2,3.2,7.6,5.1s4.7,3.9,6.8,6.1
	c4.3,4.4,7.7,9.5,10.3,14.9c-1.7-2.5-3.4-5-5.3-7.3s-3.9-4.5-6.1-6.5c-4.3-4.1-9.2-7.6-14.3-10.6c-2.6-1.5-5.2-2.8-8-4
	c-2.7-1.2-5.5-2.3-8.3-3.2c-2.8-0.9-5.7-1.8-8.6-2.5C321.8,335.3,318.9,334.8,315.9,334.3z"/>
<path class="st0" d="M310,482.2c-6.1-0.1-12.1-1.1-17.9-2.7c-5.9-1.7-11.5-4-16.9-7c-2.6-1.5-5.2-3.2-7.6-5.1s-4.7-3.9-6.8-6.1
	c-4.3-4.4-7.7-9.5-10.3-14.9c1.7,2.5,3.4,5,5.3,7.3c1.9,2.3,3.9,4.5,6.1,6.5c4.3,4.1,9.2,7.6,14.3,10.6c2.6,1.5,5.2,2.8,8,4
	c2.7,1.2,5.5,2.3,8.3,3.2c2.8,0.9,5.7,1.8,8.6,2.5C304.1,481.2,307,481.7,310,482.2z"/>
<path class="st13" d="M154.5,334.3c6.1,0.1,12.1,1.1,17.9,2.7c5.9,1.7,11.5,4,16.9,7c2.6,1.5,5.2,3.2,7.6,5.1
	c2.4,1.9,4.7,3.9,6.8,6.1c4.3,4.4,7.7,9.5,10.3,14.9c-1.7-2.5-3.4-5-5.3-7.3c-1.9-2.3-3.9-4.5-6.1-6.5c-4.3-4.1-9.2-7.6-14.3-10.6
	c-2.6-1.5-5.2-2.8-8-4c-2.7-1.2-5.5-2.3-8.3-3.2c-2.8-0.9-5.7-1.8-8.6-2.5C160.4,335.3,157.5,334.8,154.5,334.3z"/>
<ellipse transform="matrix(0.9201 -0.3916 0.3916 0.9201 -117.2005 178.1298)" class="st13" cx="378.1" cy="376.4" rx="0.6" ry="1.5"/>
<ellipse transform="matrix(0.9201 -0.3916 0.3916 0.9201 -130.0908 114.9263)" class="st13" cx="216.7" cy="376.4" rx="0.6" ry="1.5"/>
<g>
	<g>
		<path d="M141.3,216.7c-0.5,0-0.9-0.1-1.4-0.3c-0.4-0.2-10.5-5.3-18.3-16.2c-7.3-10.1-14.1-27.1-4.7-51.1c0.6-1.6,2.4-2.3,3.9-1.7
			c1.6,0.6,2.3,2.4,1.7,3.9c-6.7,17.1-5.4,32.3,3.8,45.1c7,9.7,16.2,14.4,16.3,14.5c1.5,0.8,2.1,2.6,1.3,4.1
			C143.5,216.1,142.4,216.7,141.3,216.7z"/>
	</g>
	<g>
		<circle class="st6" cx="120.7" cy="146.9" r="13.7"/>
		<path class="st7" d="M120.7,161.2c-7.9,0-14.3-6.4-14.3-14.3c0-7.9,6.4-14.3,14.3-14.3S135,139,135,146.9S128.6,161.2,120.7,161.2
			z M120.7,133.9c-7.2,0-13,5.9-13,13c0,7.2,5.9,13,13,13c7.2,0,13-5.9,13-13C133.8,139.7,127.9,133.9,120.7,133.9z"/>
	</g>
	<ellipse transform="matrix(0.7732 -0.6342 0.6342 0.7732 -60.0362 112.1096)" class="st8" cx="126.7" cy="140" rx="1.8" ry="4.3"/>
	<ellipse transform="matrix(0.9866 -0.163 0.163 0.9866 -22.0731 23.1919)" class="st8" cx="130.3" cy="146.1" rx="0.4" ry="0.8"/>
</g>
<path class="st0" d="M179,207.4c0.5,0,0.7,0,0.7,0c-60.9-6.7-74.4,39.6-74.4,39.6c9.8-18.7,25.5-28.7,39.9-33.9
	c-25.7,11.2-32.4,34.5-32.4,34.5c22.3-42.5,74.4-39.6,74.4-39.6C184.4,207.7,181.6,207.5,179,207.4z"/>
</svg>
