<?xml version="1.0" encoding="utf-8"?>
<!-- Generator: Adobe Illustrator 24.3.0, SVG Export Plug-In . SVG Version: 6.00 Build 0)  -->
<svg version="1.1" id="Layer_1" xmlns="http://www.w3.org/2000/svg" xmlns:xlink="http://www.w3.org/1999/xlink" x="0px" y="0px"
	 viewBox="0 0 396.7 955" style="enable-background:new 0 0 396.7 955;" xml:space="preserve">
<style type="text/css">
	.st0{fill:#AD3A3A;}
	.st1{fill:#222222;}
</style>
<polygon class="st0" points="92,761.9 105.2,773.4 105.2,753.6 101.4,753.6 101.4,764.6 88.2,752.9 88.2,772.8 92,772.8 "/>
<path class="st0" d="M117.6,773.1c2.8,0,5.2-1,7.1-2.9s2.9-4.3,2.9-7.1s-1-5.2-2.9-7.1c-1.9-1.9-4.3-2.9-7.1-2.9
	c-2.8,0-5.2,1-7.1,2.9s-2.9,4.3-2.9,7.1s1,5.2,2.9,7.1C112.4,772.2,114.8,773.1,117.6,773.1z M117.6,756.8c1.8,0,3.3,0.6,4.4,1.7
	c1.2,1.2,1.7,2.7,1.7,4.6c0,1.9-0.6,3.4-1.7,4.6c-1.2,1.2-2.6,1.8-4.4,1.8s-3.3-0.6-4.4-1.8l0,0c-1.2-1.2-1.7-2.7-1.7-4.6
	c0-1.9,0.6-3.4,1.7-4.6C114.3,757.4,115.8,756.8,117.6,756.8z"/>
<path class="st0" d="M133.8,765.8l4.9,7h4.6l-5.8-8c1-0.4,1.8-0.9,2.5-1.7c0.8-1,1.2-2.2,1.2-3.6c0-2.1-0.8-3.7-2.4-4.7
	c-1.2-0.8-2.8-1.1-5.1-1.1H130v19.2h3.8V765.8z M137.3,760.6c-0.2,0.3-0.4,0.6-0.6,0.7c-0.3,0.2-0.6,0.3-0.9,0.4
	c-0.3,0.1-0.6,0.1-0.9,0.2c-0.2,0-0.4,0-0.7,0h-0.4v-4.7h0.4c2.9,0,3.3,1.3,3.3,2.3C137.6,759.9,137.5,760.3,137.3,760.6z"/>
<polygon class="st0" points="149.6,764.3 154.5,773.3 159.6,764.3 161.2,772.8 165.1,772.8 161.3,752.6 154.6,765 148.2,752.6 
	143.9,772.8 147.8,772.8 "/>
<path class="st0" d="M171.6,768.4h7.1l1.9,4.4h4.2l-9.4-19.9l-9.9,19.9h4.2L171.6,768.4z M175.2,760.7l1.9,4h-3.9L175.2,760.7z"/>
<polygon class="st0" points="194.8,769.1 189.5,769.1 189.5,753.6 185.7,753.6 185.7,772.8 194.8,772.8 "/>
<rect x="196.4" y="753.6" class="st0" width="3.8" height="19.2"/>
<polygon class="st0" points="205.8,772.8 209.6,772.8 209.6,757.2 213.8,757.2 213.8,755.6 219,764.6 219,772.8 222.8,772.8 
	222.8,764.6 229.2,753.6 224.8,753.6 220.9,760.3 217,753.6 213.8,753.6 212.7,753.6 201.7,753.6 201.7,757.2 205.8,757.2 "/>
<rect x="88.2" y="775.6" class="st0" width="3.8" height="19.2"/>
<path class="st0" d="M100.9,775.3c-1.8,0-3.2,0.5-4.2,1.6c-1.1,1.1-1.6,2.3-1.6,3.7c0,2.3,1.4,4,4,5.1l1.7,0.7
	c0.7,0.3,1.3,0.7,1.7,1.1c0.4,0.4,0.6,0.9,0.6,1.6c0,0.8-0.2,1.4-0.7,1.8c-0.5,0.5-1.1,0.7-1.8,0.7c-0.9,0-1.5-0.3-2-0.9
	c-0.4-0.6-0.7-1.2-0.7-2V788l-3.8,0.8v0.5c0.2,1.5,0.7,2.8,1.7,3.8c1.2,1.3,2.8,2,4.7,2c1.8,0,3.4-0.6,4.6-1.8s1.8-2.7,1.8-4.6
	c0-2.6-1.5-4.6-4.6-5.8l-1.8-0.7c-1.6-0.6-1.6-1.5-1.6-1.7c0-0.5,0.2-0.9,0.5-1.2c0.4-0.3,0.9-0.5,1.5-0.5s1.2,0.2,1.6,0.5
	c0.3,0.3,0.5,0.6,0.7,1l0.2,0.5l3.2-1.9l-0.2-0.4c-0.4-0.7-0.9-1.4-1.5-2C103.8,775.7,102.5,775.3,100.9,775.3z"/>
<path class="st0" d="M128.5,794.8h4.2l-9.4-19.9l-9.9,19.9h4.2l2-4.4h7.1L128.5,794.8z M123.1,782.8l1.9,4h-3.9L123.1,782.8z"/>
<path class="st0" d="M148.7,776.7c-1.1-0.7-2.5-1.1-4.3-1.1h-4.5v19.2h3.8v-7.4h0.7c2,0,3.6-0.5,4.8-1.5c1.3-1.1,2-2.6,2-4.4
	c0-0.9-0.2-1.9-0.6-2.7C150.1,777.9,149.5,777.2,148.7,776.7z M143.8,779.2h0.7c0.7,0,1.3,0.1,1.7,0.2c0.4,0.1,0.7,0.4,0.9,0.6
	c0.3,0.4,0.4,0.6,0.4,0.8c0.1,0.2,0.1,0.4,0.1,0.7c0,0.7-0.2,1.3-0.7,1.7s-1.3,0.7-2.3,0.7h-0.7L143.8,779.2L143.8,779.2z"/>
<path class="st0" d="M160.5,774.9l-9.9,19.9h4.2l2-4.4h7.1l1.9,4.4h4.2L160.5,774.9z M160.4,782.8l1.9,4h-3.9L160.4,782.8z"/>
<polygon class="st0" points="186.3,775.6 182.2,775.6 177.4,786 172.7,775.6 168.6,775.6 177.4,795.6 "/>
<polygon class="st0" points="198.3,779.3 198.3,775.6 187.3,775.6 187.3,794.8 198.3,794.8 198.3,791.2 191.1,791.2 191.1,786.5 
	198.1,786.5 198.1,782.8 191.1,782.8 191.1,779.3 "/>
<path class="st0" d="M208.9,794.5c1.1-0.3,2.1-0.8,3.2-1.5c2.6-1.8,3.9-4.4,3.9-7.8c0-1.6-0.3-3.1-1-4.4c-0.7-1.3-1.6-2.5-2.7-3.4
	c-1-0.7-2.1-1.3-3.2-1.5c-1-0.2-2.4-0.4-3.9-0.4h-4.3v19.2h4.3C206.7,794.8,207.9,794.7,208.9,794.5z M204.7,791.2v-11.9h0.7
	c2,0,3.5,0.4,4.5,1.2c0.7,0.5,1.2,1.1,1.6,2c0.4,0.8,0.6,1.8,0.6,2.8c0,2-0.7,3.6-2.3,4.8c-1.1,0.8-2.6,1.2-4.5,1.2L204.7,791.2
	L204.7,791.2z"/>
<path class="st0" d="M224.8,775.6v19.2h3.8v-7l4.9,7h4.6l-5.8-8c1-0.4,1.8-0.9,2.5-1.7c0.8-1,1.2-2.2,1.2-3.6c0-2.1-0.8-3.7-2.4-4.7
	c-1.2-0.8-2.9-1.1-5.1-1.1h-3.7V775.6z M232.1,782.6c-0.2,0.3-0.4,0.6-0.6,0.7c-0.3,0.2-0.6,0.3-0.9,0.4c-0.3,0.1-0.6,0.1-0.9,0.2
	c-0.2,0-0.4,0-0.7,0h-0.4v-4.7h0.4c2.9,0,3.3,1.3,3.3,2.3C232.3,781.9,232.2,782.3,232.1,782.6z"/>
<path class="st0" d="M248.4,795.2c2.8,0,5.2-1,7.1-2.9c1.9-1.9,2.9-4.3,2.9-7.1s-1-5.2-2.9-7.1c-1.9-1.9-4.3-2.9-7.1-2.9
	s-5.2,1-7.1,2.9c-1.9,1.9-2.8,4.3-2.8,7.1s1,5.2,2.8,7.1C243.2,794.2,245.6,795.2,248.4,795.2z M248.4,778.9c1.8,0,3.3,0.6,4.4,1.7
	c1.2,1.2,1.7,2.7,1.7,4.6c0,1.9-0.6,3.4-1.7,4.6c-1.2,1.2-2.6,1.8-4.4,1.8c-1.8,0-3.3-0.6-4.4-1.8l0,0c-1.2-1.2-1.7-2.7-1.7-4.6
	c0-1.9,0.6-3.4,1.7-4.6C245.2,779.5,246.6,778.9,248.4,778.9z"/>
<path class="st0" d="M277.8,794.8l-9.4-19.9l-9.9,19.9h4.2l2-4.4h7.1l1.9,4.4H277.8z M268.2,782.8l1.9,4h-3.9L268.2,782.8z"/>
<path class="st0" d="M293.8,785.2c0-1.6-0.3-3.1-1-4.4c-0.7-1.3-1.6-2.5-2.7-3.4c-1-0.7-2.1-1.3-3.2-1.5c-1-0.2-2.4-0.4-3.9-0.4
	h-4.3v19.2h4.3c1.5,0,2.8-0.1,3.8-0.4c1.1-0.3,2.1-0.8,3.2-1.5C292.5,791.2,293.8,788.6,293.8,785.2z M290,785.2
	c0,2-0.7,3.6-2.3,4.8c-1.1,0.8-2.6,1.2-4.5,1.2h-0.7v-11.9h0.7c2,0,3.5,0.4,4.5,1.2c0.7,0.5,1.2,1.1,1.6,2
	C289.8,783.2,290,784.2,290,785.2z"/>
<rect x="88.2" y="797.6" class="st1" width="3.8" height="19.2"/>
<polygon class="st1" points="101.4,816.9 101.4,801.3 105.6,801.3 105.6,797.6 93.4,797.6 93.4,801.3 97.6,801.3 97.6,816.9 "/>
<polygon class="st1" points="110.1,797.6 106.1,797.6 106.6,806 109.6,806 "/>
<path class="st1" d="M124.1,810.9c0-2.6-1.5-4.6-4.6-5.8l-1.8-0.7c-1.6-0.6-1.6-1.5-1.6-1.7c0-0.5,0.2-0.9,0.5-1.2
	c0.4-0.3,0.9-0.5,1.5-0.5s1.2,0.2,1.6,0.5c0.3,0.3,0.5,0.6,0.7,1l0.2,0.5l3.2-1.9l-0.2-0.4c-0.4-0.7-0.9-1.4-1.5-2
	c-1.1-0.9-2.4-1.4-4-1.4c-1.8,0-3.2,0.5-4.2,1.6c-1.1,1.1-1.6,2.3-1.6,3.7c0,2.3,1.4,4,4,5.1l1.7,0.7c0.7,0.3,1.3,0.7,1.7,1.1
	c0.4,0.4,0.6,0.9,0.6,1.6c0,0.8-0.2,1.4-0.7,1.8c-0.5,0.5-1.1,0.7-1.8,0.7c-0.9,0-1.5-0.3-2-0.9c-0.4-0.6-0.7-1.2-0.7-2v-0.6
	l-3.8,0.8v0.5c0.2,1.5,0.7,2.8,1.7,3.8c1.2,1.3,2.8,2,4.7,2c1.8,0,3.4-0.6,4.6-1.8C123.5,814.3,124.1,812.7,124.1,810.9z"/>
<path class="st1" d="M132.1,807.3c0,2.9,1,5.3,3.1,7.2c1.9,1.8,4.2,2.6,6.8,2.6c1.9,0,3.6-0.5,5.3-1.4l0.3-0.2v-4.8l-0.9,0.8
	c-1.4,1.3-2.9,2-4.6,2c-1.8,0-3.2-0.6-4.4-1.8s-1.7-2.7-1.7-4.5c0-1.9,0.6-3.4,1.7-4.6c1.1-1.2,2.6-1.8,4.4-1.8
	c1.6,0,3.2,0.6,4.6,1.9l0.9,0.8v-4.7l-0.2-0.2c-1.4-0.9-3.2-1.4-5.1-1.4c-2.9,0-5.2,0.8-6.9,2.5
	C133.1,801.8,132.1,804.3,132.1,807.3z"/>
<path class="st1" d="M151.8,800.2c-1.9,1.9-2.9,4.3-2.9,7.1s1,5.2,2.9,7.1c1.9,1.9,4.3,2.9,7.1,2.9s5.2-1,7.1-2.9
	c1.9-1.9,2.9-4.3,2.9-7.1s-1-5.2-2.9-7.1c-1.9-1.9-4.3-2.9-7.1-2.9S153.7,798.3,151.8,800.2z M158.9,813.6c-1.8,0-3.3-0.6-4.4-1.8
	l0,0c-1.2-1.2-1.7-2.7-1.7-4.6c0-1.9,0.6-3.4,1.7-4.6c1.2-1.2,2.6-1.8,4.4-1.8c1.8,0,3.3,0.6,4.4,1.7c1.2,1.2,1.7,2.7,1.7,4.6
	c0,1.9-0.6,3.4-1.7,4.6C162.2,813,160.8,813.6,158.9,813.6z"/>
<polygon class="st1" points="186.3,808.4 188,816.9 191.9,816.9 188.1,796.6 181.4,809 175,796.6 170.7,816.9 174.6,816.9 
	176.4,808.3 181.3,817.4 "/>
<polygon class="st1" points="204.7,801.3 204.7,797.6 194.6,797.6 194.6,816.9 198.4,816.9 198.4,808.5 204.5,808.5 204.5,804.9 
	198.4,804.9 198.4,801.3 "/>
<path class="st1" d="M216,797.3c-2.8,0-5.2,1-7.1,2.9c-1.9,1.9-2.8,4.3-2.8,7.1s1,5.2,2.8,7.1c1.9,1.9,4.3,2.9,7.1,2.9
	s5.2-1,7.1-2.9c1.9-1.9,2.9-4.3,2.9-7.1s-1-5.2-2.9-7.1C221.2,798.3,218.8,797.3,216,797.3z M216,813.6c-1.8,0-3.3-0.6-4.4-1.8l0,0
	c-1.2-1.2-1.7-2.7-1.7-4.6c0-1.9,0.6-3.4,1.7-4.6c1.2-1.2,2.6-1.8,4.4-1.8c1.8,0,3.3,0.6,4.4,1.7c1.2,1.2,1.7,2.7,1.7,4.6
	c0,1.9-0.6,3.4-1.7,4.6C219.2,813,217.8,813.6,216,813.6z"/>
<path class="st1" d="M232.1,797.6h-3.8v19.2h3.8v-7l4.9,7h4.6l-5.8-8c1-0.4,1.8-0.9,2.5-1.7c0.8-1,1.2-2.2,1.2-3.6
	c0-2.1-0.8-3.7-2.4-4.7C236.1,798,234.4,797.6,232.1,797.6z M235,805.4c-0.3,0.2-0.6,0.3-0.9,0.4c-0.3,0.1-0.6,0.1-0.9,0.2
	c-0.2,0-0.4,0-0.7,0h-0.4v-4.7h0.4c2.9,0,3.3,1.3,3.3,2.3c0,0.5-0.1,0.8-0.3,1.2C235.5,805,235.3,805.2,235,805.4z"/>
<polygon class="st1" points="249,816.9 249,801.3 253.2,801.3 253.2,797.6 241,797.6 241,801.3 245.2,801.3 245.2,816.9 "/>
<path class="st1" d="M252.2,816.9h4.2l2-4.4h7.1l1.9,4.4h4.2l-9.4-19.9L252.2,816.9z M262,804.8l1.9,4H260L262,804.8z"/>
<path class="st1" d="M281.4,806.4c0.3-0.2,0.5-0.5,0.7-0.8c0.4-0.7,0.6-1.5,0.6-2.4c0-1.6-0.5-3-1.6-4c-0.6-0.6-1.4-1-2.3-1.2
	c-0.8-0.2-1.9-0.3-3.1-0.3h-3.3v19.2h5.1c2.4,0,4.2-0.7,5.5-1.9c0.9-1,1.3-2.2,1.3-3.6c0-1.5-0.5-2.8-1.4-3.8
	C282.6,807.1,282,806.7,281.4,806.4z M276.3,808.8h1.2c1.2,0,2,0.2,2.5,0.7c0.4,0.4,0.6,0.9,0.6,1.5c0,0.7-0.2,1.2-0.7,1.6
	c-0.5,0.4-1.3,0.6-2.4,0.6h-1.2V808.8z M278.5,804.9c-0.4,0.4-1,0.6-1.9,0.6h-0.3v-4.2h0.4c0.9,0,1.5,0.2,1.9,0.5
	c0.3,0.3,0.5,0.7,0.5,1.4C279.1,804,278.9,804.5,278.5,804.9z"/>
<polygon class="st1" points="290.6,797.6 286.8,797.6 286.8,816.9 296,816.9 296,813.2 290.6,813.2 "/>
<polygon class="st1" points="308.6,801.3 308.6,797.6 297.6,797.6 297.6,816.9 308.6,816.9 308.6,813.2 301.4,813.2 301.4,808.5 
	308.4,808.5 308.4,804.9 301.4,804.9 301.4,801.3 "/>
<polygon class="st1" points="90.4,838.9 94.3,838.9 94.3,823.3 98.4,823.3 98.4,819.7 86.3,819.7 86.3,823.3 90.4,823.3 "/>
<path class="st1" d="M116.1,836.4c1.9-1.9,2.9-4.3,2.9-7.1s-1-5.2-2.9-7.1c-1.9-1.9-4.3-2.9-7.1-2.9c-2.8,0-5.2,1-7.1,2.9
	s-2.9,4.3-2.9,7.1s1,5.2,2.9,7.1c1.9,1.9,4.3,2.9,7.1,2.9S114.2,838.3,116.1,836.4z M108.9,822.9c1.8,0,3.3,0.6,4.4,1.7
	c1.2,1.2,1.7,2.7,1.7,4.6c0,1.9-0.6,3.4-1.7,4.6c-1.2,1.2-2.6,1.8-4.4,1.8s-3.3-0.6-4.4-1.8l0,0c-1.2-1.2-1.7-2.7-1.7-4.6
	c0-1.9,0.6-3.4,1.7-4.6C105.7,823.5,107.1,822.9,108.9,822.9z"/>
<polygon class="st1" points="148.2,819.7 143.6,830.1 138.9,818.9 133.9,830.2 129.5,819.7 125.4,819.7 133.9,839.7 138.7,829 
	143.4,839.6 152.4,819.7 "/>
<path class="st1" d="M166.1,838.9h4.2l-9.4-19.9l-9.9,19.9h4.2l2-4.4h7.1L166.1,838.9z M160.7,826.8l1.9,4h-3.9L160.7,826.8z"/>
<polygon class="st1" points="171.2,819.7 171.2,838.9 180.4,838.9 180.4,835.2 175,835.2 175,819.7 "/>
<polygon class="st1" points="185.8,831.1 192,838.9 197.1,838.9 188.4,828.5 197.2,819.7 192.1,819.7 185.8,826.2 185.8,819.7 
	181.9,819.7 181.9,838.9 185.8,838.9 "/>
<polygon class="st1" points="202.4,835.6 199,834.3 195.9,842.2 198.6,843.3 "/>
<path class="st1" d="M224.9,833.3c0-1.5-0.5-2.8-1.4-3.8c-0.5-0.5-1-0.8-1.6-1.1c0.3-0.2,0.5-0.5,0.7-0.8c0.4-0.7,0.6-1.5,0.6-2.4
	c0-1.6-0.5-3-1.6-4c-0.6-0.6-1.4-1-2.3-1.2c-0.8-0.2-1.9-0.3-3.1-0.3H213v19.2h5.1c2.4,0,4.2-0.7,5.5-1.9
	C224.4,836,224.9,834.8,224.9,833.3z M216.8,830.8h1.2c1.2,0,2,0.2,2.5,0.7c0.4,0.4,0.6,0.9,0.6,1.5c0,0.7-0.2,1.2-0.7,1.6
	c-0.5,0.4-1.3,0.6-2.4,0.6h-1.2L216.8,830.8L216.8,830.8z M219,826.9c-0.4,0.4-1,0.6-1.9,0.6h-0.3v-4.2h0.4c0.9,0,1.5,0.2,1.9,0.5
	c0.3,0.3,0.5,0.7,0.5,1.4C219.6,826,219.4,826.6,219,826.9z"/>
<path class="st1" d="M227.3,819.7v12.2c0,2,0.6,3.7,1.8,5.1c1.4,1.5,3.2,2.3,5.4,2.3s4-0.8,5.4-2.3c1.2-1.3,1.8-3,1.8-5.1v-12.2H238
	v11.5c0,1.3-0.2,2.3-0.5,2.9c-0.2,0.4-0.6,0.8-1.2,1.1c-1,0.7-2.4,0.7-3.5,0c-0.5-0.3-0.9-0.7-1.2-1.1c-0.3-0.6-0.5-1.6-0.5-2.9
	v-11.5H227.3z"/>
<polygon class="st1" points="243.2,823.3 247.4,823.3 247.4,838.9 251.2,838.9 251.2,823.3 255.4,823.3 255.4,819.7 243.2,819.7 "/>
<polygon class="st0" points="105.2,841.7 101.4,841.7 101.4,852.8 88.2,841.1 88.2,860.9 92,860.9 92,850 105.2,861.5 "/>
<path class="st0" d="M117.6,861.3c2.8,0,5.2-1,7.1-2.9s2.9-4.3,2.9-7.1s-1-5.2-2.9-7.1c-1.9-1.9-4.3-2.9-7.1-2.9
	c-2.8,0-5.2,1-7.1,2.9s-2.9,4.3-2.9,7.1s1,5.2,2.9,7.1C112.4,860.3,114.8,861.3,117.6,861.3z M117.6,845c1.8,0,3.3,0.6,4.4,1.7
	c1.2,1.2,1.7,2.7,1.7,4.6c0,1.9-0.6,3.4-1.7,4.6c-1.2,1.2-2.6,1.8-4.4,1.8s-3.3-0.6-4.4-1.8l0,0c-1.2-1.2-1.7-2.7-1.7-4.6
	c0-1.9,0.6-3.4,1.7-4.6C114.3,845.6,115.8,845,117.6,845z"/>
<polygon class="st0" points="146.5,845.4 146.5,841.7 136.4,841.7 136.4,860.9 140.2,860.9 140.2,852.6 146.3,852.6 146.3,848.9 
	140.2,848.9 140.2,845.4 "/>
<polygon class="st0" points="157.8,857.3 152.5,857.3 152.5,841.7 148.6,841.7 148.6,860.9 157.8,860.9 "/>
<path class="st0" d="M175.6,844.2c-1.9-1.9-4.3-2.9-7.1-2.9s-5.2,1-7.1,2.9c-1.9,1.9-2.9,4.3-2.9,7.1s1,5.2,2.9,7.1
	c1.9,1.9,4.3,2.9,7.1,2.9s5.2-1,7.1-2.9c1.9-1.9,2.9-4.3,2.9-7.1S177.5,846.1,175.6,844.2z M168.5,857.7c-1.8,0-3.3-0.6-4.4-1.8l0,0
	c-1.2-1.2-1.7-2.7-1.7-4.6c0-1.9,0.6-3.4,1.7-4.6c1.2-1.2,2.6-1.8,4.4-1.8c1.8,0,3.3,0.6,4.4,1.7c1.2,1.2,1.7,2.7,1.7,4.6
	c0,1.9-0.6,3.4-1.7,4.6C171.7,857.1,170.3,857.7,168.5,857.7z"/>
<polygon class="st0" points="201.4,841.7 196.8,852.1 192.1,840.9 187.1,852.2 182.7,841.7 178.6,841.7 187.1,861.7 191.9,851 
	196.6,861.7 205.6,841.7 "/>
<polygon class="st0" points="206.5,860.9 217.6,860.9 217.6,857.3 210.3,857.3 210.3,852.6 217.4,852.6 217.4,848.9 210.3,848.9 
	210.3,845.4 217.6,845.4 217.6,841.7 206.5,841.7 "/>
<path class="st0" d="M227.7,852.9c1-0.4,1.8-0.9,2.5-1.7c0.8-1,1.2-2.2,1.2-3.6c0-2.1-0.8-3.7-2.4-4.7c-1.2-0.8-2.9-1.1-5.1-1.1
	h-3.8V861h3.8v-7l4.9,7h4.6L227.7,852.9z M226.8,849.4c-0.3,0.2-0.6,0.3-0.9,0.4c-0.3,0.1-0.6,0.1-0.9,0.2c-0.2,0-0.4,0-0.7,0H224
	v-4.7h0.4c2.9,0,3.3,1.3,3.3,2.3c0,0.5-0.1,0.8-0.3,1.2C227.2,849.1,227,849.3,226.8,849.4z"/>
<path class="st0" d="M241.7,849.1l-1.8-0.7c-1.6-0.6-1.6-1.5-1.6-1.7c0-0.5,0.2-0.9,0.5-1.2c0.4-0.3,0.9-0.5,1.5-0.5
	s1.2,0.2,1.6,0.5c0.3,0.3,0.5,0.6,0.7,1l0.2,0.5l3.2-1.9l-0.2-0.4c-0.4-0.7-0.9-1.4-1.5-2c-1.1-0.9-2.4-1.4-4-1.4
	c-1.8,0-3.2,0.5-4.2,1.6c-1.1,1.1-1.6,2.3-1.6,3.7c0,2.3,1.4,4,4,5.1l1.7,0.7c0.7,0.3,1.3,0.7,1.7,1.1c0.4,0.4,0.6,0.9,0.6,1.6
	c0,0.8-0.2,1.4-0.7,1.8c-0.5,0.5-1.1,0.7-1.8,0.7c-0.9,0-1.5-0.3-2-0.9c-0.4-0.6-0.7-1.2-0.7-2v-0.6l-3.8,0.8v0.5
	c0.2,1.5,0.7,2.8,1.7,3.8c1.2,1.3,2.8,2,4.7,2c1.8,0,3.4-0.6,4.6-1.8c1.2-1.2,1.8-2.7,1.8-4.6C246.3,852.3,244.8,850.4,241.7,849.1z
	"/>
<path class="st0" d="M97.6,876.1h4.4c-0.2,0.8-0.6,1.6-1.3,2.2c-1,1-2.2,1.5-3.7,1.5c-1.8,0-3.1-0.5-4.2-1.7
	c-1.2-1.3-1.7-2.8-1.7-4.6c0-0.9,0.2-1.8,0.5-2.6c0.3-0.9,0.8-1.6,1.3-2.1c1.2-1.2,2.6-1.7,4.4-1.7c1.1,0,2.1,0.2,3,0.7
	c0.7,0.4,1.4,1,2.1,1.9l0.3,0.4l3-2.1l-0.3-0.4c-0.8-1.2-1.8-2.2-3.1-2.9c-1.4-0.8-3.1-1.2-5-1.2c-1.4,0-2.8,0.3-4,0.8
	c-1.3,0.6-2.3,1.3-3.2,2.1c-0.8,0.8-1.5,1.9-2,3.1c-0.5,1.3-0.8,2.6-0.8,4c0,2.9,1,5.3,2.8,7.2c1.7,1.8,3.9,2.6,6.6,2.6
	s4.9-0.8,6.5-2.5c1.9-1.8,2.9-4.4,2.9-7.7v-0.7h-8.5L97.6,876.1L97.6,876.1z"/>
<path class="st0" d="M118.6,873.2c0.8-1,1.2-2.2,1.2-3.6c0-2.1-0.8-3.7-2.4-4.7c-1.2-0.8-2.8-1.1-5.1-1.1h-3.8V883h3.8v-7l4.9,7h4.6
	l-5.8-8C117.1,874.6,117.9,874,118.6,873.2z M115.2,871.5c-0.3,0.2-0.6,0.3-0.9,0.4c-0.3,0.1-0.6,0.1-0.9,0.2c-0.2,0-0.4,0-0.7,0
	h-0.4v-4.7h0.4c2.9,0,3.3,1.3,3.3,2.3c0,0.5-0.1,0.8-0.3,1.2C115.6,871.1,115.4,871.3,115.2,871.5z"/>
<path class="st0" d="M132.2,863.4c-2.8,0-5.2,1-7.1,2.9s-2.9,4.3-2.9,7.1s1,5.2,2.9,7.1c1.9,1.9,4.3,2.9,7.1,2.9s5.2-1,7.1-2.9
	c1.9-1.9,2.9-4.3,2.9-7.1s-1-5.2-2.9-7.1C137.4,864.4,135,863.4,132.2,863.4z M132.2,879.7c-1.8,0-3.3-0.6-4.4-1.8l0,0
	c-1.2-1.2-1.7-2.7-1.7-4.6c0-1.9,0.6-3.4,1.7-4.6c1.2-1.2,2.6-1.8,4.4-1.8s3.3,0.6,4.4,1.7c1.2,1.2,1.7,2.7,1.7,4.6
	c0,1.9-0.6,3.4-1.7,4.6C135.5,879.1,134,879.7,132.2,879.7z"/>
<polygon class="st0" points="160.5,874.2 155.8,862.9 150.9,874.3 146.4,863.7 142.3,863.7 150.8,883.7 155.6,873.1 160.4,883.7 
	169.3,863.7 165.2,863.7 "/>
<path class="st0" d="M185.7,863.4c-2.8,0-5.2,1-7.1,2.9c-1.9,1.9-2.9,4.3-2.9,7.1s1,5.2,2.9,7.1c1.9,1.9,4.3,2.9,7.1,2.9
	s5.2-1,7.1-2.9c1.9-1.9,2.9-4.3,2.9-7.1s-1-5.2-2.9-7.1C190.9,864.4,188.5,863.4,185.7,863.4z M185.7,879.7c-1.8,0-3.3-0.6-4.4-1.8
	l0,0c-1.2-1.2-1.7-2.7-1.7-4.6c0-1.9,0.6-3.4,1.7-4.6c1.2-1.2,2.6-1.8,4.4-1.8c1.8,0,3.3,0.6,4.4,1.7c1.2,1.2,1.7,2.7,1.7,4.6
	c0,1.9-0.6,3.4-1.7,4.6C189,879.1,187.5,879.7,185.7,879.7z"/>
<polygon class="st0" points="211.3,874.8 198.1,863.1 198.1,883 202,883 201.9,872 215.1,883.6 215.1,863.7 211.3,863.7 "/>
<rect x="224.8" y="863.7" class="st0" width="3.8" height="19.2"/>
<polygon class="st0" points="230,867.4 234.2,867.4 234.2,883 238,883 238,867.4 242.2,867.4 242.2,863.7 230,863.7 "/>
<g>
	<path class="st1" d="M92.6,904.8l-3.2-7.2h1.2l2,4.4l2-4.4h1.2L92.6,904.8z"/>
	<path class="st1" d="M97.1,899.1c-0.2,0-0.4-0.1-0.5-0.2c-0.1-0.1-0.2-0.3-0.2-0.5s0.1-0.4,0.2-0.5s0.3-0.2,0.5-0.2
		s0.4,0.1,0.5,0.2c0.1,0.1,0.2,0.3,0.2,0.5s-0.1,0.4-0.2,0.5C97.4,899,97.3,899.1,97.1,899.1z M96.5,904.8v-4.5h1.1v4.5H96.5z"/>
	<path class="st1" d="M100,904.8h-1.1v-4.5h1.1v0.4c0.3-0.4,0.7-0.5,1.2-0.5c0.6,0,1,0.2,1.3,0.6c0.2,0.3,0.3,0.7,0.3,1.3v2.8h-1.1
		v-2.5c0-0.3,0-0.5-0.1-0.7c0-0.2-0.1-0.3-0.2-0.4c-0.1-0.1-0.2-0.1-0.2-0.1c-0.1,0-0.2,0-0.3,0c-0.2,0-0.3,0-0.4,0
		s-0.2,0.1-0.3,0.2c-0.1,0.1-0.2,0.2-0.2,0.5c-0.1,0.2-0.1,0.5-0.1,0.9L100,904.8L100,904.8z"/>
	<path class="st1" d="M107.7,900.5v1.2c-0.4-0.4-0.8-0.6-1.3-0.6c-0.4,0-0.7,0.1-1,0.4c-0.3,0.3-0.4,0.6-0.4,1
		c0,0.5,0.1,0.8,0.4,1.1c0.3,0.2,0.6,0.4,1,0.4c0.5,0,1-0.2,1.3-0.6v1.2c-0.4,0.2-0.8,0.4-1.4,0.4c-0.7,0-1.3-0.2-1.7-0.7
		c-0.4-0.4-0.6-1-0.6-1.7s0.2-1.3,0.7-1.8c0.4-0.4,1.1-0.7,1.8-0.7C106.9,900.2,107.3,900.3,107.7,900.5z"/>
	<path class="st1" d="M111.8,903.3l0.9,0.5c-0.2,0.4-0.5,0.6-0.8,0.8c-0.4,0.2-0.8,0.3-1.3,0.3c-0.6,0-1.1-0.2-1.5-0.6
		c-0.4-0.4-0.7-1-0.7-1.7c0-0.8,0.2-1.4,0.7-1.9c0.4-0.4,0.9-0.6,1.5-0.6s1.1,0.2,1.5,0.6c0.4,0.4,0.6,1.1,0.6,1.9v0.1h-3.2
		c0,0.4,0.2,0.7,0.4,0.9c0.2,0.2,0.5,0.3,0.8,0.3s0.5-0.1,0.7-0.2C111.6,903.6,111.7,903.5,111.8,903.3z M109.6,901.9h2.1
		c0-0.3-0.2-0.5-0.3-0.6c-0.2-0.2-0.4-0.3-0.7-0.3c-0.3,0-0.5,0.1-0.7,0.3C109.7,901.5,109.6,901.7,109.6,901.9z"/>
	<path class="st1" d="M114.9,904.8h-1.1v-4.5h1.1v0.4c0.3-0.4,0.7-0.5,1.2-0.5c0.6,0,1,0.2,1.3,0.6c0.2,0.3,0.3,0.7,0.3,1.3v2.8
		h-1.1v-2.5c0-0.3,0-0.5-0.1-0.7c0-0.2-0.1-0.3-0.2-0.4c-0.1-0.1-0.2-0.1-0.2-0.1c-0.1,0-0.2,0-0.3,0c-0.2,0-0.3,0-0.4,0
		s-0.2,0.1-0.3,0.2c-0.1,0.1-0.2,0.2-0.2,0.5c-0.1,0.2-0.1,0.5-0.1,0.9L114.9,904.8L114.9,904.8z"/>
	<path class="st1" d="M121,900.3v1h-0.8v3.6h-1.1v-3.6h-0.4v-1h0.4v-1.7h1.1v1.7H121z"/>
	<path class="st1" d="M125.9,905.1l-2.3-4.9h1.2l1.2,2.6l1.2-2.6h1.2L125.9,905.1z"/>
	<path class="st1" d="M132.3,900.8v-0.5h1.1v4.5h-1.1v-0.5c-0.4,0.4-0.8,0.6-1.4,0.6c-0.7,0-1.2-0.2-1.6-0.7c-0.4-0.5-0.6-1-0.6-1.7
		s0.2-1.3,0.6-1.7c0.4-0.4,0.9-0.6,1.6-0.6C131.5,900.2,132,900.4,132.3,900.8z M131.1,901.1c-0.4,0-0.7,0.1-0.9,0.4
		c-0.2,0.3-0.4,0.6-0.4,1s0.1,0.7,0.4,1c0.2,0.3,0.5,0.4,0.9,0.4s0.7-0.1,0.9-0.4c0.2-0.2,0.4-0.6,0.4-1.1s-0.1-0.8-0.4-1.1
		C131.8,901.2,131.5,901.1,131.1,901.1z"/>
	<path class="st1" d="M135.8,904.8h-1.1v-4.5h1.1v0.4c0.3-0.4,0.7-0.5,1.2-0.5c0.6,0,1,0.2,1.3,0.6c0.2,0.3,0.3,0.7,0.3,1.3v2.8
		h-1.1v-2.5c0-0.3,0-0.5-0.1-0.7c0-0.2-0.1-0.3-0.2-0.4c-0.1-0.1-0.2-0.1-0.2-0.1c-0.1,0-0.2,0-0.3,0c-0.2,0-0.3,0-0.4,0
		c-0.1,0-0.2,0.1-0.3,0.2c-0.1,0.1-0.2,0.2-0.2,0.5c-0.1,0.2-0.1,0.5-0.1,0.9v2H135.8z"/>
	<path class="st1" d="M148.1,902.1h-1.8v-1h3v0.1c0,1.2-0.4,2.2-1.1,2.9c-0.6,0.6-1.4,0.9-2.4,0.9s-1.8-0.3-2.4-1
		c-0.7-0.7-1.1-1.6-1.1-2.7c0-0.5,0.1-1,0.3-1.5s0.4-0.9,0.8-1.2c0.3-0.3,0.7-0.6,1.2-0.8s1-0.3,1.5-0.3c0.7,0,1.3,0.2,1.9,0.5
		c0.5,0.3,0.9,0.6,1.2,1.1l-0.9,0.6c-0.3-0.4-0.6-0.6-0.9-0.8c-0.4-0.2-0.8-0.3-1.3-0.3c-0.8,0-1.4,0.2-1.9,0.7
		c-0.2,0.2-0.4,0.5-0.6,0.9c-0.1,0.3-0.2,0.7-0.2,1.1c0,0.8,0.2,1.4,0.7,1.9s1.1,0.7,1.8,0.7c0.6,0,1.2-0.2,1.6-0.6
		C147.9,903,148.1,902.6,148.1,902.1z"/>
	<path class="st1" d="M151,900.8c0.5-0.4,1-0.7,1.7-0.7s1.3,0.2,1.7,0.7c0.5,0.5,0.7,1,0.7,1.7s-0.2,1.3-0.7,1.7
		c-0.5,0.5-1,0.7-1.7,0.7s-1.3-0.2-1.7-0.7c-0.5-0.5-0.7-1-0.7-1.7S150.5,901.3,151,900.8z M151.7,903.6c0.2,0.3,0.6,0.4,1,0.4
		s0.7-0.1,1-0.4c0.2-0.3,0.4-0.6,0.4-1c0-0.5-0.1-0.8-0.4-1.1c-0.3-0.2-0.6-0.4-1-0.4s-0.7,0.1-0.9,0.4c-0.3,0.2-0.4,0.6-0.4,1.1
		C151.3,903,151.5,903.3,151.7,903.6z"/>
	<path class="st1" d="M159.5,900.8v-0.5h1.1v4.2c0,0.6-0.1,1.1-0.2,1.4c-0.1,0.4-0.3,0.7-0.6,0.9c-0.4,0.3-0.9,0.5-1.5,0.5
		s-1.1-0.2-1.5-0.6c-0.4-0.4-0.6-0.8-0.7-1.4h1c0.1,0.3,0.2,0.5,0.3,0.7c0.2,0.2,0.5,0.3,0.8,0.3s0.6-0.1,0.8-0.3s0.3-0.6,0.3-1.1
		v-0.6c-0.3,0.4-0.8,0.6-1.4,0.6c-0.6,0-1.1-0.2-1.5-0.6c-0.5-0.5-0.7-1.1-0.7-1.8s0.2-1.3,0.7-1.8c0.4-0.4,0.9-0.6,1.5-0.6
		C158.7,900.2,159.2,900.4,159.5,900.8z M158.3,901.1c-0.3,0-0.6,0.1-0.8,0.3c-0.3,0.3-0.5,0.7-0.5,1.2s0.2,0.9,0.5,1.1
		c0.2,0.2,0.5,0.3,0.8,0.3c0.4,0,0.6-0.1,0.9-0.4c0.3-0.3,0.4-0.6,0.4-1.1s-0.1-0.9-0.4-1.1C158.9,901.2,158.6,901.1,158.3,901.1z"
		/>
	<path class="st1" d="M163,904.8h-1.1V897h1.1v3.7c0.3-0.3,0.7-0.5,1.2-0.5c0.6,0,1,0.2,1.3,0.6c0.2,0.3,0.3,0.7,0.3,1.3v2.8h-1.1
		v-2.7c0-0.4-0.1-0.6-0.2-0.8c-0.1-0.2-0.3-0.2-0.6-0.2s-0.6,0.1-0.8,0.4c-0.1,0.2-0.2,0.6-0.2,1.1v2.1H163z"/>
</g>
<circle class="st0" cx="298.1" cy="790" r="2.1"/>
<circle class="st0" cx="298.1" cy="781.7" r="2.1"/>
</svg>
