<?xml version="1.0" encoding="utf-8"?>
<!-- Generator: Adobe Illustrator 24.3.0, SVG Export Plug-In . SVG Version: 6.00 Build 0)  -->
<svg version="1.1" id="Layer_1" xmlns="http://www.w3.org/2000/svg" xmlns:xlink="http://www.w3.org/1999/xlink" x="0px" y="0px"
	 viewBox="0 0 396.7 955" style="enable-background:new 0 0 396.7 955;" xml:space="preserve">
<style type="text/css">
	.st0{fill:#AD3A3A;}
	.st1{fill:#222222;}
	.st2{enable-background:new    ;}
</style>
<polygon class="st0" points="88.2,777.8 83.1,777.8 83.1,762.8 79.4,762.8 79.4,781.3 88.2,781.3 "/>
<polygon class="st0" points="100.4,777.8 93.4,777.8 93.4,773.3 100.2,773.3 100.2,769.8 93.4,769.8 93.4,766.3 100.4,766.3 
	100.4,762.8 89.8,762.8 89.8,781.3 100.4,781.3 "/>
<polygon class="st0" points="105.1,781.3 108.7,781.3 108.7,766.3 112.7,766.3 112.7,762.8 101,762.8 101,766.3 105.1,766.3 "/>
<polygon class="st0" points="116.6,770.8 117.1,762.8 113.2,762.8 113.8,770.8 "/>
<path class="st0" d="M118.4,775.6v0.4c0.2,1.4,0.7,2.7,1.6,3.7c1.1,1.3,2.7,1.9,4.5,1.9s3.2-0.6,4.4-1.7c1.1-1.1,1.7-2.6,1.7-4.4
	c0-2.5-1.5-4.4-4.4-5.6l-1.8-0.7c-1.6-0.6-1.6-1.4-1.6-1.7c0-0.5,0.2-0.8,0.5-1.1s0.8-0.5,1.5-0.5c0.6,0,1.1,0.2,1.6,0.5
	c0.3,0.3,0.5,0.6,0.7,0.9l0.2,0.5l3.1-1.8l-0.2-0.4c-0.4-0.7-0.8-1.4-1.5-1.9c-1-0.9-2.3-1.3-3.8-1.3c-1.7,0-3.1,0.5-4.1,1.5
	s-1.5,2.2-1.5,3.6c0,2.2,1.3,3.8,3.9,4.9l1.7,0.7c0.7,0.3,1.3,0.6,1.7,1c0.4,0.4,0.5,0.9,0.5,1.5c0,0.7-0.2,1.3-0.7,1.8
	c-0.4,0.4-1,0.7-1.7,0.7c-0.8,0-1.4-0.3-1.9-0.9c-0.4-0.6-0.6-1.2-0.6-1.9v-0.6L118.4,775.6z"/>
<path class="st0" d="M147.3,781.6c2.6,0,4.7-0.8,6.3-2.4c1.8-1.8,2.7-4.3,2.7-7.4v-0.6h-8.2v3.5h4.3c-0.2,0.8-0.6,1.5-1.2,2.1
	c-1,0.9-2.1,1.4-3.6,1.4c-1.7,0-3-0.5-4-1.6c-1.1-1.2-1.7-2.7-1.7-4.4c0-0.9,0.2-1.8,0.5-2.5c0.3-0.8,0.7-1.5,1.3-2
	c1.1-1.1,2.5-1.7,4.3-1.7c1.1,0,2.1,0.2,2.9,0.7c0.7,0.4,1.4,1,2,1.9l0.3,0.4l2.9-2.1l-0.3-0.4c-0.7-1.1-1.7-2.1-3-2.8
	c-1.4-0.8-3-1.2-4.8-1.2c-1.4,0-2.7,0.3-3.9,0.8s-2.3,1.2-3.1,2s-1.4,1.8-1.9,3s-0.7,2.5-0.7,3.9c0,2.7,0.9,5.1,2.7,7
	C142.6,780.8,144.8,781.6,147.3,781.6z"/>
<path class="st0" d="M167.5,781.6c2.7,0,5-0.9,6.9-2.7c1.8-1.8,2.7-4.1,2.7-6.8s-0.9-5-2.7-6.8s-4.1-2.7-6.9-2.7s-5,0.9-6.9,2.7
	c-1.8,1.8-2.7,4.1-2.7,6.8s0.9,5,2.7,6.8C162.5,780.7,164.8,781.6,167.5,781.6z M167.5,766c1.7,0,3.1,0.6,4.3,1.7
	c1.1,1.2,1.7,2.6,1.7,4.4s-0.5,3.3-1.7,4.4c-1.1,1.2-2.5,1.7-4.3,1.7c-1.7,0-3.1-0.6-4.3-1.7l0,0c-1.1-1.1-1.7-2.6-1.7-4.4
	s0.5-3.3,1.7-4.4C164.4,766.5,165.8,766,167.5,766z"/>
<rect x="185.6" y="762.8" class="st0" width="3.7" height="18.5"/>
<polygon class="st0" points="196.1,770.8 208.8,781.9 208.8,762.8 205.1,762.8 205.2,773.4 192.5,762.2 192.5,781.3 196.1,781.3 "/>
<polygon class="st0" points="226.8,762.8 222.9,762.8 218.3,772.8 213.7,762.8 209.8,762.8 218.3,782.1 "/>
<polygon class="st0" points="238.4,777.8 231.4,777.8 231.4,773.3 238.2,773.3 238.2,769.8 231.4,769.8 231.4,766.3 238.4,766.3 
	238.4,762.8 227.8,762.8 227.8,781.3 238.4,781.3 "/>
<polygon class="st0" points="253.6,773.4 240.9,762.2 240.9,781.3 244.6,781.3 244.5,770.8 257.3,781.9 257.3,762.8 253.6,762.8 "/>
<polygon class="st0" points="262.6,781.3 266.3,781.3 266.3,766.3 270.3,766.3 270.3,762.8 258.6,762.8 258.6,766.3 262.6,766.3 "/>
<polygon class="st0" points="81.6,802.5 85.3,802.5 85.3,787.5 89.3,787.5 89.3,784 77.6,784 77.6,787.5 81.6,787.5 "/>
<path class="st0" d="M106.3,800.1c1.8-1.8,2.7-4.1,2.7-6.8s-0.9-5-2.7-6.8c-1.8-1.8-4.1-2.7-6.9-2.7c-2.7,0-5,0.9-6.9,2.7
	c-1.8,1.8-2.7,4.1-2.7,6.8s0.9,5,2.7,6.8c1.8,1.8,4.1,2.7,6.9,2.7S104.5,801.9,106.3,800.1z M99.4,787.2c1.7,0,3.1,0.6,4.3,1.7
	c1.1,1.2,1.7,2.6,1.7,4.4c0,1.8-0.5,3.3-1.7,4.4c-1.1,1.2-2.5,1.7-4.3,1.7c-1.7,0-3.1-0.6-4.3-1.7l0,0c-1.1-1.1-1.7-2.6-1.7-4.4
	c0-1.8,0.5-3.3,1.7-4.4C96.3,787.7,97.7,787.2,99.4,787.2z"/>
<polygon class="st0" points="120,795 113.8,783 109.7,802.5 113.5,802.5 115.2,794.3 120,803 124.8,794.3 126.4,802.5 130.2,802.5 
	126.5,783 "/>
<path class="st0" d="M140.5,802.8c2.7,0,5-0.9,6.9-2.7c1.8-1.8,2.7-4.1,2.7-6.8s-0.9-5-2.7-6.8s-4.1-2.7-6.9-2.7
	c-2.7,0-5,0.9-6.9,2.7c-1.8,1.8-2.7,4.1-2.7,6.8s0.9,5,2.7,6.8C135.5,801.9,137.8,802.8,140.5,802.8z M140.5,787.2
	c1.7,0,3.1,0.6,4.3,1.7c1.1,1.2,1.7,2.6,1.7,4.4c0,1.8-0.5,3.3-1.7,4.4c-1.1,1.2-2.5,1.7-4.3,1.7c-1.7,0-3.1-0.6-4.3-1.7l0,0
	c-1.1-1.1-1.7-2.6-1.7-4.4c0-1.8,0.5-3.3,1.7-4.4C137.4,787.7,138.7,787.2,140.5,787.2z"/>
<path class="st0" d="M162.1,793.1c0.8-0.9,1.2-2.1,1.2-3.5c0-2-0.8-3.5-2.3-4.5c-1.1-0.7-2.7-1.1-4.9-1.1h-3.6v18.5h3.7v-6.8
	l4.7,6.8h4.5l-5.6-7.7C160.7,794.5,161.5,793.9,162.1,793.1z M158.9,791.4c-0.3,0.2-0.6,0.3-0.9,0.4c-0.3,0.1-0.6,0.1-0.9,0.2
	c-0.1,0-0.4,0-0.6,0h-0.3v-4.6h0.4c2.8,0,3.1,1.3,3.1,2.2c0,0.4-0.1,0.8-0.2,1.1C159.3,791.1,159.1,791.3,158.9,791.4z"/>
<path class="st0" d="M170.1,784h-3.6v18.5h3.7v-6.8l4.7,6.8h4.5l-5.6-7.7c1-0.3,1.8-0.9,2.4-1.7c0.8-0.9,1.2-2.1,1.2-3.5
	c0-2-0.8-3.5-2.3-4.5C173.9,784.4,172.3,784,170.1,784z M172.9,791.4c-0.3,0.2-0.6,0.3-0.9,0.4c-0.3,0.1-0.6,0.1-0.9,0.2
	c-0.1,0-0.4,0-0.6,0h-0.3v-4.6h0.4c2.8,0,3.1,1.3,3.1,2.2c0,0.4-0.1,0.8-0.2,1.1C173.3,791.1,173.1,791.3,172.9,791.4z"/>
<path class="st0" d="M188.2,802.8c2.7,0,5-0.9,6.9-2.7c1.8-1.8,2.7-4.1,2.7-6.8s-0.9-5-2.7-6.8s-4.1-2.7-6.9-2.7
	c-2.7,0-5,0.9-6.9,2.7c-1.8,1.8-2.7,4.1-2.7,6.8s0.9,5,2.7,6.8C183.2,801.9,185.5,802.8,188.2,802.8z M188.2,787.2
	c1.7,0,3.1,0.6,4.3,1.7c1.1,1.2,1.7,2.6,1.7,4.4c0,1.8-0.5,3.3-1.7,4.4c-1.1,1.2-2.5,1.7-4.3,1.7c-1.7,0-3.1-0.6-4.3-1.7l0,0
	c-1.1-1.1-1.7-2.6-1.7-4.4c0-1.8,0.5-3.3,1.7-4.4C185.1,787.7,186.5,787.2,188.2,787.2z"/>
<polygon class="st0" points="197,784 205.2,803.2 209.8,793 214.4,803.2 222.9,784 219,784 214.5,794 209.9,783.2 205.2,794.1 
	200.9,784 "/>
<rect x="230" y="784" class="st0" width="3.7" height="18.5"/>
<polygon class="st0" points="249.6,794.6 236.9,783.4 236.9,802.5 240.5,802.5 240.5,792 253.2,803.1 253.2,784 249.6,784 "/>
<path class="st0" d="M263.2,791.1l-1.8-0.7c-1.6-0.6-1.6-1.4-1.6-1.7c0-0.5,0.2-0.8,0.5-1.1s0.8-0.5,1.5-0.5c0.6,0,1.1,0.2,1.6,0.5
	c0.3,0.3,0.5,0.6,0.7,0.9l0.2,0.5l3.1-1.8l-0.2-0.4c-0.4-0.7-0.8-1.4-1.5-1.9c-1-0.9-2.3-1.3-3.8-1.3c-1.7,0-3.1,0.5-4.1,1.5
	s-1.5,2.2-1.5,3.6c0,2.2,1.3,3.8,3.9,4.9l1.7,0.7c0.7,0.3,1.3,0.6,1.7,1c0.4,0.4,0.5,0.9,0.5,1.5c0,0.7-0.2,1.3-0.7,1.8
	c-0.4,0.4-1,0.7-1.7,0.7c-0.8,0-1.4-0.3-1.9-0.9c-0.4-0.6-0.6-1.2-0.6-1.9V796l-3.7,0.8v0.4c0.2,1.4,0.7,2.7,1.6,3.7
	c1.1,1.3,2.7,1.9,4.5,1.9s3.2-0.6,4.4-1.7c1.1-1.1,1.7-2.6,1.7-4.4C267.6,794.2,266.1,792.3,263.2,791.1z"/>
<polygon class="st0" points="268.1,787.5 272.1,787.5 272.1,802.5 275.8,802.5 275.8,787.5 279.8,787.5 279.8,784 268.1,784 "/>
<polygon class="st0" points="281.2,802.5 291.9,802.5 291.9,799 284.9,799 284.9,794.5 291.6,794.5 291.6,791 284.9,791 
	284.9,787.5 291.9,787.5 291.9,784 281.2,784 "/>
<path class="st0" d="M292,802.5h4l1.9-4.2h6.8l1.8,4.2h4l-9.1-19.1L292,802.5z M301.4,790.9l1.8,3.9h-3.7L301.4,790.9z"/>
<path class="st0" d="M325.2,789c-0.6-1.3-1.5-2.4-2.6-3.2c-1-0.7-2-1.2-3.1-1.4c-1-0.2-2.3-0.4-3.7-0.4h-4.2v18.5h4.1
	c1.5,0,2.7-0.1,3.6-0.4c1-0.3,2.1-0.7,3.1-1.4c2.5-1.8,3.7-4.3,3.7-7.5C326.1,791.7,325.8,790.3,325.2,789z M322.4,793.3
	c0,2-0.7,3.5-2.2,4.6c-1,0.8-2.5,1.1-4.3,1.1h-0.7v-11.5h0.7c1.9,0,3.4,0.4,4.4,1.1c0.6,0.5,1.2,1.1,1.6,1.9
	C322.2,791.3,322.4,792.2,322.4,793.3z"/>
<path class="st1" d="M81.3,807.6c-1.8,1.8-2.7,4.1-2.7,6.8s0.9,5,2.7,6.8c1.8,1.8,4.1,2.7,6.9,2.7s5-0.9,6.9-2.7
	c1.8-1.8,2.7-4.1,2.7-6.8s-0.9-5-2.7-6.8c-1.8-1.8-4.1-2.7-6.9-2.7C85.5,804.9,83.1,805.8,81.3,807.6z M88.2,820.6
	c-1.7,0-3.1-0.6-4.3-1.7l0,0c-1.1-1.1-1.7-2.6-1.7-4.4c0-1.8,0.5-3.3,1.7-4.4c1.1-1.1,2.5-1.7,4.3-1.7c1.7,0,3.1,0.6,4.3,1.7
	c1.1,1.2,1.7,2.6,1.7,4.4c0,1.8-0.5,3.3-1.7,4.4S89.9,820.6,88.2,820.6z"/>
<polygon class="st1" points="109.7,812.2 103.8,812.2 103.8,808.7 109.9,808.7 109.9,805.2 100.1,805.2 100.1,823.7 103.8,823.7 
	103.8,815.7 109.7,815.7 "/>
<polygon class="st1" points="128.6,814.2 133.2,824.4 141.8,805.2 137.8,805.2 133.4,815.2 128.8,804.4 124.1,815.3 119.8,805.2 
	115.8,805.2 124,824.4 "/>
<path class="st1" d="M144.6,807.6c-1.8,1.8-2.7,4.1-2.7,6.8s0.9,5,2.7,6.8s4.1,2.7,6.9,2.7s5-0.9,6.9-2.7c1.8-1.8,2.7-4.1,2.7-6.8
	s-0.9-5-2.7-6.8s-4.1-2.7-6.9-2.7C148.8,804.9,146.5,805.8,144.6,807.6z M151.5,820.6c-1.7,0-3.1-0.6-4.3-1.7l0,0
	c-1.1-1.1-1.7-2.6-1.7-4.4c0-1.8,0.5-3.3,1.7-4.4c1.1-1.1,2.5-1.7,4.3-1.7c1.7,0,3.1,0.6,4.3,1.7c1.1,1.2,1.7,2.6,1.7,4.4
	c0,1.8-0.5,3.3-1.7,4.4S153.2,820.6,151.5,820.6z"/>
<path class="st1" d="M173.1,814.3c0.8-0.9,1.2-2.1,1.2-3.5c0-2-0.8-3.5-2.3-4.5c-1.1-0.7-2.7-1.1-4.9-1.1h-3.6v18.5h3.7v-6.8
	l4.7,6.8h4.5l-5.6-7.7C171.7,815.7,172.5,815.1,173.1,814.3z M169.9,812.6c-0.3,0.2-0.6,0.3-0.9,0.4c-0.3,0.1-0.6,0.1-0.9,0.2
	c-0.1,0-0.4,0-0.6,0h-0.3v-4.6h0.4c2.8,0,3.1,1.3,3.1,2.2c0,0.4-0.1,0.8-0.2,1.1C170.3,812.3,170.1,812.5,169.9,812.6z"/>
<path class="st1" d="M187.1,814.3c0.8-0.9,1.2-2.1,1.2-3.5c0-2-0.8-3.5-2.3-4.5c-1.1-0.7-2.7-1.1-4.9-1.1h-3.6v18.5h3.7v-6.8
	l4.7,6.8h4.5l-5.6-7.7C185.7,815.7,186.5,815.1,187.1,814.3z M183.9,812.6c-0.3,0.2-0.6,0.3-0.9,0.4c-0.3,0.1-0.6,0.1-0.9,0.2
	c-0.1,0-0.4,0-0.6,0h-0.3v-4.6h0.4c2.8,0,3.1,1.3,3.1,2.2c0,0.4-0.1,0.8-0.2,1.1C184.3,812.3,184.1,812.5,183.9,812.6z"/>
<polygon class="st1" points="200.7,805.2 197,811.7 193.2,805.2 189,805.2 195.1,815.8 195.1,823.7 198.8,823.7 198.8,815.8 
	204.9,805.2 "/>
<rect x="205.6" y="805.2" class="st1" width="3.7" height="18.5"/>
<polygon class="st1" points="228.9,805.2 225.2,805.2 225.2,815.8 212.5,804.6 212.5,823.7 216.2,823.7 216.2,813.2 228.9,824.3 "/>
<path class="st1" d="M241.1,817.1h4.3c-0.2,0.8-0.6,1.5-1.2,2.1c-1,0.9-2.1,1.4-3.6,1.4c-1.7,0-3-0.5-4-1.6
	c-1.1-1.2-1.7-2.7-1.7-4.4c0-0.9,0.2-1.8,0.5-2.5c0.3-0.8,0.7-1.5,1.3-2c1.1-1.1,2.5-1.7,4.3-1.7c1.1,0,2.1,0.2,2.9,0.7
	c0.7,0.4,1.4,1,2,1.9l0.3,0.4l2.9-2.1l-0.3-0.4c-0.7-1.1-1.7-2.1-3-2.8c-1.4-0.8-3-1.2-4.8-1.2c-1.4,0-2.7,0.3-3.9,0.8
	s-2.3,1.2-3.1,2s-1.5,1.8-1.9,3c-0.5,1.2-0.7,2.5-0.7,3.9c0,2.7,0.9,5.1,2.7,7c1.6,1.7,3.8,2.5,6.3,2.5c2.6,0,4.7-0.8,6.3-2.4
	c1.8-1.8,2.7-4.3,2.7-7.4v-0.6h-8.2v3.4L241.1,817.1L241.1,817.1z"/>
<path class="st1" d="M83.1,840.7h6.8l1.8,4.2h4l-9.1-19.1l-9.5,19.1h4L83.1,840.7z M86.5,833.3l1.8,3.9h-3.7L86.5,833.3z"/>
<path class="st1" d="M106.8,843c0.9-0.9,1.3-2.1,1.3-3.5c0-1.5-0.4-2.7-1.3-3.6c-0.4-0.4-0.9-0.8-1.5-1c0.3-0.2,0.5-0.5,0.6-0.8
	c0.4-0.6,0.6-1.4,0.6-2.3c0-1.6-0.5-2.9-1.5-3.8c-0.6-0.6-1.4-1-2.2-1.2c-0.8-0.2-1.8-0.3-3-0.3h-3.1V845h4.9
	C103.8,844.9,105.6,844.3,106.8,843z M104.5,839.3c0,0.7-0.2,1.2-0.7,1.6c-0.5,0.4-1.3,0.6-2.3,0.6h-1.1v-4.2h1.2
	c1.2,0,2,0.2,2.4,0.6C104.3,838.2,104.5,838.6,104.5,839.3z M102.5,833.4c-0.4,0.4-1,0.5-1.8,0.5h-0.3v-4h0.4c0.8,0,1.4,0.2,1.8,0.5
	c0.3,0.3,0.5,0.7,0.5,1.3C103,832.5,102.8,833,102.5,833.4z"/>
<path class="st1" d="M128.8,835.7c0-2.7-0.9-5-2.7-6.8c-1.8-1.8-4.1-2.7-6.9-2.7c-2.7,0-5,0.9-6.9,2.7c-1.8,1.8-2.7,4.1-2.7,6.8
	s0.9,5,2.7,6.8c1.8,1.8,4.1,2.7,6.9,2.7s5-0.9,6.9-2.7C127.9,840.7,128.8,838.4,128.8,835.7z M119.2,841.8c-1.7,0-3.1-0.6-4.3-1.7
	l0,0c-1.1-1.1-1.7-2.6-1.7-4.4c0-1.8,0.5-3.3,1.7-4.4c1.1-1.1,2.5-1.7,4.3-1.7c1.7,0,3.1,0.6,4.3,1.7c1.1,1.2,1.7,2.6,1.7,4.4
	c0,1.8-0.5,3.3-1.7,4.4S120.9,841.8,119.2,841.8z"/>
<path class="st1" d="M143.4,843c1.2-1.3,1.8-2.9,1.8-4.9v-11.8h-3.7v11c0,1.3-0.2,2.2-0.5,2.8c-0.2,0.4-0.6,0.8-1.1,1.1
	c-1,0.6-2.3,0.6-3.4,0c-0.5-0.3-0.9-0.7-1.1-1.1c-0.3-0.6-0.5-1.5-0.5-2.8v-11h-3.7v11.8c0,2,0.6,3.6,1.8,4.9
	c1.4,1.5,3.1,2.2,5.2,2.2C140.3,845.2,142,844.5,143.4,843z"/>
<polygon class="st1" points="154.2,844.9 154.2,829.9 158.2,829.9 158.2,826.4 146.5,826.4 146.5,829.9 150.5,829.9 150.5,844.9 "/>
<polygon class="st1" points="185.4,826.4 180.9,836.4 176.4,825.6 171.7,836.5 167.4,826.4 163.4,826.4 171.6,845.6 176.2,835.4 
	180.8,845.6 189.4,826.4 "/>
<polygon class="st1" points="204.2,844.9 204.2,826.4 200.5,826.4 200.5,833.3 194,833.3 194,826.4 190.3,826.4 190.3,844.9 
	194,844.9 194,836.8 200.5,836.8 200.5,844.9 "/>
<path class="st1" d="M205.1,844.9h4l1.9-4.2h6.8l1.8,4.2h4l-9.1-19.1L205.1,844.9z M214.5,833.3l1.8,3.9h-3.7L214.5,833.3z"/>
<polygon class="st1" points="222.8,829.9 226.8,829.9 226.8,844.9 230.4,844.9 230.4,829.9 234.5,829.9 234.5,826.4 222.8,826.4 "/>
<polygon class="st1" points="93.3,866.2 93.3,847.7 89.6,847.7 89.6,854.6 83.1,854.6 83.1,847.7 79.4,847.7 79.4,866.2 83.1,866.2 
	83.1,858.1 89.6,858.1 89.6,866.2 "/>
<path class="st1" d="M112.8,866.2l-9.1-19.1l-9.5,19.1h4l1.9-4.2h6.8l1.8,4.2H112.8z M103.6,854.6l1.8,3.9h-3.7L103.6,854.6z"/>
<path class="st1" d="M122.2,848.7c-1-0.7-2.4-1-4.1-1h-4.4v18.5h3.7v-7.1h0.7c1.9,0,3.4-0.5,4.6-1.5c1.2-1.1,1.9-2.5,1.9-4.2
	c0-0.9-0.2-1.8-0.6-2.6C123.5,849.9,122.9,849.2,122.2,848.7z M117.4,851.2h0.7c0.7,0,1.2,0.1,1.6,0.2c0.4,0.1,0.7,0.3,0.8,0.5
	c0.2,0.4,0.3,0.6,0.4,0.7c0.1,0.2,0.1,0.4,0.1,0.7c0,0.7-0.2,1.2-0.7,1.6c-0.5,0.4-1.2,0.6-2.2,0.6h-0.7
	C117.4,855.5,117.4,851.2,117.4,851.2z"/>
<path class="st1" d="M130,859.1h0.7c1.9,0,3.4-0.5,4.6-1.5c1.2-1.1,1.9-2.5,1.9-4.2c0-0.9-0.2-1.8-0.6-2.6c-0.4-0.8-1-1.5-1.8-2
	c-1-0.7-2.4-1-4.1-1h-4.4v18.5h3.7L130,859.1L130,859.1z M130,851.2h0.7c0.7,0,1.2,0.1,1.6,0.2c0.4,0.1,0.7,0.3,0.8,0.5
	c0.2,0.4,0.3,0.6,0.4,0.7c0.1,0.2,0.1,0.4,0.1,0.7c0,0.7-0.2,1.2-0.7,1.6c-0.5,0.4-1.2,0.6-2.2,0.6H130V851.2z"/>
<polygon class="st1" points="149.5,851.2 149.5,847.7 138.9,847.7 138.9,866.2 149.5,866.2 149.5,862.7 142.6,862.7 142.6,858.2 
	149.3,858.2 149.3,854.7 142.6,854.7 142.6,851.2 "/>
<polygon class="st1" points="168.4,847.7 164.7,847.7 164.7,858.3 152,847.1 152,866.2 155.7,866.2 155.6,855.7 168.4,866.8 "/>
<polygon class="st1" points="182.2,851.2 182.2,847.7 171.6,847.7 171.6,866.2 182.2,866.2 182.2,862.7 175.2,862.7 175.2,858.2 
	182,858.2 182,854.7 175.2,854.7 175.2,851.2 "/>
<path class="st1" d="M192.4,865.8c1-0.3,2.1-0.7,3.1-1.4c2.5-1.8,3.7-4.3,3.7-7.5c0-1.5-0.3-2.9-0.9-4.2c-0.6-1.3-1.5-2.4-2.6-3.2
	c-1-0.7-2-1.2-3.1-1.4c-1-0.2-2.3-0.4-3.7-0.4h-4.2v18.5h4.1C190.3,866.2,191.5,866.1,192.4,865.8z M188.4,862.7v-11.5h0.7
	c1.9,0,3.4,0.4,4.4,1.1c0.6,0.5,1.2,1.1,1.6,1.9c0.4,0.8,0.6,1.7,0.6,2.7c0,2-0.7,3.5-2.2,4.6c-1,0.8-2.5,1.1-4.3,1.1h-0.8V862.7z"
	/>
<polygon class="st0" points="86.5,875.1 82.8,868.6 78.6,868.6 84.7,879.2 84.7,887.1 88.3,887.1 88.3,879.2 94.5,868.6 90.3,868.6 
	"/>
<polygon class="st0" points="95.2,887.1 105.8,887.1 105.8,883.6 98.9,883.6 98.9,879.1 105.6,879.1 105.6,875.6 98.9,875.6 
	98.9,872.1 105.8,872.1 105.8,868.6 95.2,868.6 "/>
<path class="st0" d="M115.1,875.7l-1.8-0.7c-1.6-0.6-1.6-1.4-1.6-1.7c0-0.5,0.2-0.8,0.5-1.1s0.8-0.5,1.5-0.5c0.6,0,1.1,0.2,1.6,0.5
	c0.3,0.3,0.5,0.6,0.7,0.9l0.2,0.5l3.1-1.8l-0.2-0.4c-0.4-0.7-0.8-1.4-1.5-1.9c-1-0.9-2.3-1.3-3.8-1.3c-1.7,0-3.1,0.5-4.1,1.5
	s-1.5,2.2-1.5,3.6c0,2.2,1.3,3.8,3.9,4.9l1.7,0.7c0.7,0.3,1.3,0.6,1.7,1c0.4,0.4,0.5,0.9,0.5,1.5c0,0.7-0.2,1.3-0.7,1.8
	c-0.4,0.4-1,0.7-1.7,0.7c-0.8,0-1.4-0.3-1.9-0.9c-0.4-0.6-0.6-1.2-0.6-1.9v-0.6l-3.7,0.8v0.4c0.2,1.4,0.7,2.7,1.6,3.7
	c1.1,1.3,2.7,1.9,4.5,1.9s3.2-0.6,4.4-1.7c1.1-1.1,1.7-2.6,1.7-4.4C119.5,878.8,118,876.9,115.1,875.7z"/>
<polygon class="st0" points="120,872.1 124,872.1 124,887.1 127.7,887.1 127.7,872.1 131.7,872.1 131.7,868.6 120,868.6 "/>
<polygon class="st0" points="133.1,887.1 143.7,887.1 143.7,883.6 136.8,883.6 136.8,879.1 143.5,879.1 143.5,875.6 136.8,875.6 
	136.8,872.1 143.7,872.1 143.7,868.6 133.1,868.6 "/>
<path class="st0" d="M155.8,877.7c0.8-0.9,1.2-2.1,1.2-3.5c0-2-0.8-3.5-2.3-4.5c-1.1-0.7-2.7-1.1-4.9-1.1h-3.6v18.5h3.7v-6.8
	l4.7,6.8h4.5l-5.6-7.7C154.4,879.1,155.2,878.5,155.8,877.7z M152.6,876.1c-0.3,0.2-0.6,0.3-0.9,0.4c-0.3,0.1-0.6,0.1-0.9,0.2
	c-0.1,0-0.4,0-0.6,0h-0.3v-4.6h0.4c2.8,0,3.1,1.3,3.1,2.2c0,0.4-0.1,0.8-0.2,1.1C153,875.7,152.8,875.9,152.6,876.1z"/>
<path class="st0" d="M171.2,870.4c-1-0.7-2-1.2-3.1-1.4c-1-0.2-2.3-0.4-3.7-0.4h-4.2v18.5h4.1c1.5,0,2.7-0.1,3.6-0.4
	c1-0.3,2.1-0.7,3.1-1.4c2.5-1.8,3.7-4.3,3.7-7.5c0-1.5-0.3-2.9-0.9-4.2C173.2,872.4,172.3,871.3,171.2,870.4z M171.1,877.9
	c0,2-0.7,3.5-2.2,4.6c-1,0.8-2.5,1.1-4.3,1.1h-0.7v-11.5h0.7c1.9,0,3.4,0.4,4.4,1.1c0.6,0.5,1.2,1.1,1.6,1.9
	C170.9,875.9,171.1,876.9,171.1,877.9z"/>
<path class="st0" d="M174.8,887.1h4l1.9-4.2h6.8l1.8,4.2h4l-9.1-19.1L174.8,887.1z M184.2,875.5l1.8,3.9h-3.7L184.2,875.5z"/>
<polygon class="st0" points="199.8,875.1 196,868.6 191.9,868.6 198,879.2 198,887.1 201.6,887.1 201.6,879.2 207.8,868.6 
	203.6,868.6 "/>
<g class="st2">
	<path class="st1" d="M84.1,901.1l-0.8,0.5c-0.1-0.2-0.2-0.3-0.3-0.4c-0.2-0.2-0.5-0.2-0.7-0.2c-0.3,0-0.5,0.1-0.7,0.2
		c-0.2,0.2-0.3,0.3-0.3,0.6c0,0.4,0.2,0.6,0.7,0.8l0.7,0.3c1.1,0.4,1.6,1.1,1.6,2c0,0.7-0.2,1.2-0.6,1.6c-0.4,0.4-1,0.6-1.6,0.6
		c-0.7,0-1.2-0.2-1.6-0.7c-0.3-0.4-0.5-0.8-0.6-1.3l1-0.2c0,0.3,0.1,0.6,0.3,0.9c0.2,0.3,0.5,0.4,0.9,0.4c0.3,0,0.6-0.1,0.8-0.3
		c0.2-0.2,0.3-0.5,0.3-0.8s-0.1-0.6-0.3-0.7c-0.2-0.2-0.4-0.3-0.7-0.4l-0.7-0.3c-0.9-0.4-1.4-1-1.4-1.8c0-0.5,0.2-0.9,0.5-1.3
		c0.4-0.4,0.8-0.5,1.5-0.5c0.6,0,1,0.2,1.4,0.5C83.8,900.6,84,900.9,84.1,901.1z"/>
	<path class="st1" d="M87.2,902.6v0.9h-0.8v3.4h-1v-3.4H85v-0.9h0.4V901h1v1.6H87.2z"/>
	<path class="st1" d="M91,905.5l0.8,0.5c-0.2,0.4-0.5,0.6-0.7,0.8c-0.3,0.2-0.8,0.3-1.3,0.3c-0.6,0-1.1-0.2-1.5-0.6
		c-0.4-0.4-0.6-1-0.6-1.7s0.2-1.3,0.7-1.8c0.4-0.4,0.9-0.6,1.5-0.6s1,0.2,1.4,0.6c0.4,0.4,0.6,1,0.6,1.8v0.1h-3.1
		c0,0.4,0.2,0.7,0.4,0.9c0.2,0.2,0.4,0.3,0.8,0.3c0.3,0,0.5-0.1,0.7-0.2C90.7,905.9,90.9,905.7,91,905.5z M88.8,904.2h2
		c0-0.2-0.1-0.4-0.3-0.6c-0.2-0.2-0.4-0.2-0.7-0.2c-0.3,0-0.5,0.1-0.7,0.3C89,903.8,88.8,904,88.8,904.2z"/>
	<path class="st1" d="M94.6,907.3l-2.3-4.7h1.1l1.1,2.5l1.1-2.5h1.1L94.6,907.3z"/>
	<path class="st1" d="M100.6,905.5l0.8,0.5c-0.2,0.4-0.5,0.6-0.7,0.8c-0.3,0.2-0.8,0.3-1.3,0.3c-0.6,0-1.1-0.2-1.5-0.6
		c-0.4-0.4-0.6-1-0.6-1.7s0.2-1.3,0.7-1.8c0.4-0.4,0.9-0.6,1.5-0.6s1,0.2,1.4,0.6c0.4,0.4,0.6,1,0.6,1.8v0.1h-3.1
		c0,0.4,0.2,0.7,0.4,0.9c0.2,0.2,0.4,0.3,0.8,0.3c0.3,0,0.5-0.1,0.7-0.2C100.4,905.9,100.5,905.7,100.6,905.5z M98.4,904.2h2
		c0-0.2-0.1-0.4-0.3-0.6c-0.2-0.2-0.4-0.2-0.7-0.2c-0.3,0-0.5,0.1-0.7,0.3C98.6,903.8,98.5,904,98.4,904.2z"/>
	<path class="st1" d="M106.2,904.6v-4.5h1.1v4.5c0,0.7-0.1,1.2-0.3,1.6c-0.3,0.7-0.9,1-1.6,1c-0.5,0-0.9-0.1-1.2-0.4l0.5-0.9
		c0.2,0.2,0.4,0.2,0.7,0.2c0.3,0,0.6-0.2,0.7-0.5C106.1,905.5,106.2,905.1,106.2,904.6z"/>
	<path class="st1" d="M109.2,903.2c0.4-0.4,1-0.6,1.7-0.6s1.2,0.2,1.7,0.6c0.4,0.4,0.7,1,0.7,1.7s-0.2,1.2-0.7,1.6
		c-0.4,0.4-1,0.7-1.7,0.7s-1.2-0.2-1.7-0.7c-0.4-0.4-0.7-1-0.7-1.6C108.5,904.2,108.7,903.6,109.2,903.2z M109.9,905.8
		c0.2,0.3,0.5,0.4,0.9,0.4s0.7-0.1,0.9-0.4c0.2-0.2,0.4-0.6,0.4-1c0-0.5-0.1-0.8-0.4-1s-0.6-0.4-0.9-0.4c-0.4,0-0.7,0.1-0.9,0.4
		c-0.3,0.2-0.4,0.6-0.4,1C109.5,905.3,109.6,905.6,109.9,905.8z"/>
	<path class="st1" d="M114.2,899.4h1v3.7c0.3-0.4,0.7-0.6,1.3-0.6c0.6,0,1.1,0.2,1.5,0.6c0.4,0.4,0.6,1,0.6,1.7
		c0,0.6-0.2,1.2-0.6,1.6c-0.4,0.5-0.9,0.7-1.5,0.7c-0.5,0-1-0.2-1.3-0.6v0.5h-1V899.4z M116.4,903.4c-0.3,0-0.6,0.1-0.9,0.4
		c-0.2,0.3-0.4,0.6-0.4,1s0.1,0.8,0.4,1c0.2,0.2,0.5,0.4,0.9,0.4s0.7-0.1,0.9-0.4c0.2-0.3,0.3-0.6,0.3-1s-0.1-0.7-0.3-1
		C117,903.6,116.7,903.4,116.4,903.4z"/>
	<path class="st1" d="M122.4,903.3l-0.8,0.5c-0.2-0.2-0.4-0.4-0.6-0.4c-0.1,0-0.2,0-0.3,0.1c-0.1,0.1-0.1,0.1-0.1,0.2
		c0,0.1,0,0.2,0.1,0.2h0.1c0,0,0.1,0,0.1,0.1c0,0,0,0,0.1,0h0.1l0.5,0.3c0.3,0.1,0.5,0.3,0.6,0.4c0.2,0.2,0.3,0.5,0.3,0.8
		c0,0.4-0.1,0.7-0.4,1s-0.7,0.5-1.2,0.5c-0.4,0-0.7-0.1-0.9-0.3c-0.3-0.2-0.4-0.5-0.6-0.8l0.8-0.4c0.1,0.2,0.2,0.4,0.2,0.4
		c0.1,0.1,0.3,0.2,0.4,0.2c0.2,0,0.3,0,0.4-0.1s0.1-0.2,0.1-0.3s0-0.2-0.1-0.3s-0.2-0.2-0.4-0.3l-0.4-0.2c-0.3-0.1-0.5-0.3-0.6-0.4
		c-0.2-0.2-0.3-0.4-0.3-0.7c0-0.4,0.1-0.7,0.4-0.9c0.3-0.3,0.6-0.4,1.1-0.4c0.3,0,0.6,0.1,0.8,0.2
		C122.1,902.9,122.2,903.1,122.4,903.3z"/>
</g>
</svg>
