<?xml version="1.0" encoding="utf-8"?>
<!-- Generator: Adobe Illustrator 24.3.0, SVG Export Plug-In . SVG Version: 6.00 Build 0)  -->
<svg version="1.1" id="Layer_1" xmlns="http://www.w3.org/2000/svg" xmlns:xlink="http://www.w3.org/1999/xlink" x="0px" y="0px"
	 viewBox="0 0 501.1 609.1" style="enable-background:new 0 0 501.1 609.1;" xml:space="preserve">
<style type="text/css">
	.st0{fill:#EBDDBD;}
	.st1{fill:#000143;}
	.st2{fill:#42A7DC;}
	.st3{fill:#CF3E29;}
	.st4{fill:#F3AD3E;}
</style>
<rect y="0" class="st0" width="501.1" height="609.1"/>
<polygon class="st1" points="501.1,417.2 247.8,163.9 226.3,185.5 501.1,460.3 "/>
<circle class="st2" cx="237" cy="174.7" r="15.2"/>
<polygon class="st1" points="501.1,353.1 321,173 299.5,194.6 501.1,396.1 "/>
<circle class="st3" cx="310.3" cy="183.8" r="15.2"/>
<polygon class="st1" points="501.1,548.1 223,270 201.5,291.5 501.1,591.1 "/>
<circle class="st4" cx="212.2" cy="280.8" r="15.2"/>
<polygon class="st1" points="501.1,289.4 394.8,183.1 373.3,204.6 501.1,332.5 "/>
<circle class="st4" cx="384" cy="193.9" r="15.2"/>
<polygon class="st1" points="501.1,482.7 268.7,250.2 247.2,271.8 501.1,525.7 "/>
<circle class="st3" cx="257.9" cy="261" r="15.2"/>
<polygon class="st1" points="501.1,225.7 465.5,190.1 443.9,211.6 501.1,268.8 "/>
<circle class="st3" cx="454.7" cy="200.9" r="15.2"/>
<polygon class="st1" points="499.3,609.1 233.8,343.6 212.2,365.1 456.3,609.1 "/>
<circle class="st2" cx="223" cy="354.3" r="15.2"/>
<polygon class="st1" points="436.5,609.1 143.9,316.5 122.4,338.1 393.5,609.1 "/>
<circle class="st3" cx="133.2" cy="327.3" r="15.2"/>
<polygon class="st1" points="374.6,609.1 197.5,432.1 176,453.6 331.5,609.1 "/>
<circle class="st2" cx="186.8" cy="442.8" r="15.2"/>
<polygon class="st1" points="312.6,609.1 209.4,505.8 187.9,527.4 269.6,609.1 "/>
<circle class="st4" cx="198.6" cy="516.6" r="15.2"/>
</svg>
