<?xml version="1.0" encoding="utf-8"?>
<!-- Generator: Adobe Illustrator 24.3.0, SVG Export Plug-In . SVG Version: 6.00 Build 0)  -->
<svg version="1.1" id="Layer_1" xmlns="http://www.w3.org/2000/svg" xmlns:xlink="http://www.w3.org/1999/xlink" x="0px" y="0px"
	 viewBox="0 0 268.4 268.4" enable-background="new 0 0 268.4 268.4" xml:space="preserve">
<rect y="0" fill="#222222" width="268.4" height="268.4"/>
<g>
	
		<rect x="59" y="11.8" transform="matrix(0.7071 -0.7071 0.7071 0.7071 33.3524 118.1264)" fill="#519AC2" width="200.6" height="14"/>
	
		<rect x="132.4" y="85.2" transform="matrix(0.7071 -0.7071 0.7071 0.7071 2.9816 191.5579)" fill="#519AC2" width="200.6" height="14"/>
	
		<rect x="150.8" y="103.6" transform="matrix(0.7071 -0.7071 0.7071 0.7071 -4.6611 209.9365)" fill="#519AC2" width="200.6" height="14"/>
	
		<rect x="95.7" y="48.5" transform="matrix(0.7071 -0.7071 0.7071 0.7071 18.167 154.8422)" fill="#519AC2" width="200.6" height="14"/>
	
		<rect x="114.1" y="66.9" transform="matrix(0.7071 -0.7071 0.7071 0.7071 10.5243 173.2208)" fill="#519AC2" width="200.6" height="14"/>
	
		<rect x="77.4" y="30.1" transform="matrix(0.7071 -0.7071 0.7071 0.7071 25.7804 136.5343)" fill="#519AC2" width="200.6" height="14"/>
</g>
<circle fill="#C54A37" cx="134.2" cy="135.6" r="71.9"/>
<g>
	<path fill="#F5F1DC" d="M123.3,64.5l-60.2,60.2c-0.9,5.8-1.1,11.7-0.5,17.5L140.8,64C135,63.4,129.1,63.6,123.3,64.5z"/>
	<path fill="#F5F1DC" d="M185,84.7c-1.4-1.4-2.9-2.8-4.4-4.1L79.3,182c1.3,1.5,2.6,3,4.1,4.4c1.4,1.4,2.9,2.8,4.4,4.1L189.1,89.2
		C187.8,87.6,186.5,86.2,185,84.7z"/>
	<path fill="#F5F1DC" d="M205.8,128.9l-78.2,78.2c5.8,0.5,11.7,0.4,17.5-0.5l60.2-60.2C206.2,140.6,206.3,134.8,205.8,128.9z"/>
	<path fill="#F5F1DC" d="M157.1,67.4L66,158.5c1.4,4,3.1,8,5.2,11.8l97.7-97.7C165.1,70.5,161.2,68.8,157.1,67.4z"/>
	<path fill="#F5F1DC" d="M197.2,100.8l-97.7,97.7c3.8,2.1,7.7,3.8,11.8,5.2l91.1-91.1C201,108.6,199.3,104.6,197.2,100.8z"/>
</g>
</svg>
