<svg version="1.1" xmlns="http://www.w3.org/2000/svg" x="0px" y="0px"  viewBox="0 0 273.6 273.6">
	<path fill="#fffef7" d="M136.8,264.6c-11,0-20-9-20-20s9-20,20-20c48.4,0,87.8-39.4,87.8-87.8c0-48.4-39.4-87.8-87.8-87.8C88.4,49,49,88.4,49,136.8c0,11-9,20-20,20s-20-9-20-20C9,66.3,66.3,9,136.8,9c70.5,0,127.8,57.3,127.8,127.8C264.6,207.3,207.3,264.6,136.8,264.6z"/><animateTransform attributeType="xml" attributeName="transform" type="rotate" from="360" to="0" dur="1s" additive="sum" repeatCount="indefinite" />
</svg>
